<svg width="120" height="33" fill="none" xmlns="http://www.w3.org/2000/svg"><path d="M120 5.992v16.75h-1.501v-1.727c-.639.763-1.273 1.15-2.071 1.535-.79.385-1.741.492-2.683.492-1.676 0-3.108-.596-4.298-1.787-1.182-1.199-1.773-2.654-1.773-4.367 0-1.676.599-3.11 1.795-4.302 1.197-1.191 2.637-1.787 4.319-1.787.972 0 1.857.129 2.64.536.791.406 1.476.85 2.071 1.664V5.992H120zm-6.092 6.252a4.63 4.63 0 00-2.35.62 4.549 4.549 0 00-1.719 1.724 4.698 4.698 0 00-.631 2.354c0 .82.214 1.605.642 2.354a4.687 4.687 0 001.719 1.755 4.62 4.62 0 002.328.62 4.82 4.82 0 002.372-.62 4.332 4.332 0 001.718-1.68c.407-.706.61-1.502.61-2.386 0-1.349-.454-2.476-1.36-3.382-.9-.906-2.009-1.36-3.329-1.36zm-8.279-1.145v11.643h-1.502v-1.727c-.638.764-1.272 1.15-2.07 1.535-.791.385-1.741.492-2.684.492-1.675 0-3.108-.596-4.297-1.787-1.182-1.199-1.773-2.654-1.773-4.367 0-1.676.598-3.11 1.795-4.302 1.196-1.191 2.636-1.787 4.319-1.787.972 0 1.856.129 2.64.536.79.406 1.476.85 2.07 1.664v-1.9h1.502zm-6.093 1.145c-.848 0-1.632.207-2.35.62a4.548 4.548 0 00-1.718 1.724 4.703 4.703 0 00-.631 2.354c0 .82.214 1.605.641 2.354a4.676 4.676 0 001.72 1.755c.725.414 1.5.621 2.328.621a4.82 4.82 0 002.371-.62 4.34 4.34 0 001.719-1.68c.406-.707.609-1.503.609-2.387 0-1.349-.453-2.476-1.36-3.382-.899-.906-2.009-1.359-3.329-1.359zm-9.584 6.62l1.276.666c-.418.816-.901 1.475-1.449 1.976a5.84 5.84 0 01-1.849 1.15c-.685.257-1.46.386-2.325.386-1.917 0-3.417-.623-4.498-1.869-1.081-1.253-1.622-2.667-1.622-4.242 0-1.482.458-2.803 1.373-3.963 1.161-1.475 2.714-2.212 4.66-2.212 2.005 0 3.605.755 4.802 2.266.85 1.067 1.283 2.398 1.297 3.995H81.042c.03 1.36.465 2.477 1.309 3.35.843.867 1.885 1.3 3.124 1.3.599 0 1.18-.104 1.741-.311a4.582 4.582 0 001.45-.827c.396-.344.825-.899 1.286-1.665zm0-3.146c-.202-.802-.497-1.443-.887-1.923-.382-.48-.89-.866-1.524-1.16a4.707 4.707 0 00-2-.44c-1.154 0-2.145.369-2.974 1.106-.606.537-1.063 1.343-1.373 2.417h8.758zM74.169 5.849h-1.497L72.67 19.43c.162 3.371 3.532 3.333 3.532 3.333h2.184v-1.479h-2.184c-2.101-.17-2.032-2.223-2.032-2.223V5.849z" fill="#fff"/><path fill-rule="evenodd" clip-rule="evenodd" d="M49.4 33c9.175 0 16.613-7.387 16.613-16.5S58.575 0 49.4 0c-9.174 0-16.612 7.387-16.612 16.5S40.226 33 49.401 33zm.855-8.25L56.6 9.9l-16.058 5.682 9.715 9.168z" fill="#fff"/><path d="M14.371 5.992v16.75h1.502v-1.727c.638.763 1.272 1.15 2.07 1.535.79.385 1.74.492 2.684.492 1.675 0 3.107-.596 4.297-1.788 1.182-1.198 1.773-2.653 1.773-4.366 0-1.676-.598-3.11-1.795-4.302-1.197-1.191-2.636-1.787-4.319-1.787-.972 0-1.857.129-2.64.536-.79.406-1.476.85-2.07 1.664V5.992H14.37zm6.092 6.252a4.63 4.63 0 012.35.62 4.548 4.548 0 011.72 1.723c.42.742.63 1.527.63 2.355a4.68 4.68 0 01-.642 2.354c-.428.75-1 1.334-1.719 1.755a4.622 4.622 0 01-2.328.62 4.822 4.822 0 01-2.371-.62 4.34 4.34 0 01-1.72-1.68c-.405-.706-.608-1.502-.608-2.386 0-1.349.453-2.476 1.36-3.382.899-.906 2.008-1.36 3.328-1.36zm-8.137-1.145v11.643h-1.502v-1.727c-.638.764-1.272 1.15-2.07 1.535-.79.385-1.74.492-2.684.492-1.675 0-3.107-.596-4.297-1.787C.591 20.056 0 18.6 0 16.888c0-1.676.598-3.11 1.795-4.302C2.992 11.395 4.431 10.8 6.114 10.8c.972 0 1.857.129 2.64.536.79.406 1.476.85 2.07 1.664v-1.9h1.502zm-6.092 1.145a4.63 4.63 0 00-2.35.62 4.548 4.548 0 00-1.72 1.724 4.702 4.702 0 00-.63 2.354c0 .82.214 1.605.642 2.354.428.75 1 1.334 1.719 1.755.725.414 1.5.621 2.328.621.834 0 1.624-.207 2.371-.62a4.34 4.34 0 001.72-1.68c.405-.707.608-1.503.608-2.387 0-1.349-.453-2.476-1.36-3.382-.899-.906-2.008-1.359-3.328-1.359z" fill="#fff"/></svg>