<svg width="1758" height="689" fill="none" xmlns="http://www.w3.org/2000/svg"><path d="M1757.76 365.321c5.2 106.173-73.83 279.781-223.2 312.167-49.01 10.627-112.88 25.083-157.31-15.041-44.42-40.124-61.96-133.264-64.72-189.533-5.21-106.173 143.3-238.502 249.86-243.724 53.86-2.639 109.81-3.318 146.55 30.421 35.95 33.017 46.24 53.197 48.82 105.71zM0 62.45c0 45.617 37.504 118.368 102.169 129.112 21.218 3.526 48.885 8.381 67.072-9.75 18.187-18.131 23.744-58.421 23.744-82.596C192.985 53.599 126.59 0 80.832 0c-23.126 0-47.11.884-62.14 16.116C3.984 31.023 0 39.89 0 62.451z" fill="#E6EEFF"/></svg>