<svg width="320" height="1014" fill="none" xmlns="http://www.w3.org/2000/svg"><path d="M-170.349 758.288c-8.398 75.748 40.496 203.46 145.919 233.209 34.592 9.763 79.65 22.913 113.194-3.84 33.545-26.758 50.192-92.637 54.643-132.781 8.399-75.749-92.008-176.979-168.007-185.405-38.41-4.259-78.405-7.207-106.173 15.319-27.174 22.045-35.422 36.033-39.576 73.498z" fill="#E6EEFF"/><path d="M427 70.944c0 38.062-41.691 87.713-87.816 97.558-18.208 3.886-60.319 17.005-77.172 0-12.651-12.508-14.193-40.276-9.758-62.652 7.097-35.801 48.787-85.923 86.93-98.454 18.627-6.12 49.631-11.155 64.753-3.58C422.364 13.047 427 50.04 427 70.944z" fill="#E8F0FF"/></svg>