<svg width="1600" height="1632" fill="none" xmlns="http://www.w3.org/2000/svg"><path fill="#F3F7FF" d="M.236-1.74h1599.5V1632H.236z"/><path d="M-48.878 215.333c.602 52.492 81.381 59.614 121.695 56.614C199.52 262.517 293.733 65.9 299.986 24.302c6.252-41.597-29.693-136.501-62.836-136.617l-.964-.003c-32.662-.119-57.477-.209-125.137 39.448C42.724-32.824-10.37-12.968-30.797 66.152c-20.427 79.12-18.834 83.566-18.081 149.181z" fill="#E8F0FF"/><path d="M607.349 210.01c5.311 47.416-25.609 127.359-92.276 145.981-21.876 6.111-50.369 14.346-71.582-2.404-21.213-16.749-31.741-57.987-34.556-83.116-5.311-47.416 58.185-110.783 106.245-116.058 24.29-2.665 49.582-4.511 67.142 9.59 17.184 13.799 22.401 22.555 25.027 46.007z" fill="#E6EEFF"/><path d="M810.848 582.721c-16.284 35.653-58.961 75.918-97.842 58.518-14.433-6.46-37.125-16.03-42.964-36.766-5.838-20.735-1.194-39.553 7.287-58.121 16.285-35.653 71.823-67.824 112.947-49.42 14.217 6.363 26.028 13.558 30.917 28.452 5.469 16.659-1.747 38.513-10.345 57.337zm804.912-303.195c-19.61-46.645-63.8-109.675-112.35-113.314-130.81-9.806-247 162.613-265.39 254.259-25.47 126.969-54.35 118.904-32.93 169.875 33.03 78.584 141.59 64.387 229.87 28.033 91.95-37.864 108.53-45.807 164.74-124.134 64.07-89.281 43.32-149.848 16.06-214.719z" fill="#E8F0FF"/></svg>