<svg width="990" height="701" fill="none" xmlns="http://www.w3.org/2000/svg"><path d="M1108.38 64.774c2.32 47.314-32.89 124.68-99.43 139.112-21.829 4.736-50.284 11.178-70.074-6.703-19.789-17.88-27.603-59.386-28.832-84.462C907.725 65.407 973.88 6.437 1021.35 4.111c23.99-1.177 48.92-1.48 65.28 13.556 16.02 14.713 20.61 23.706 21.75 47.107z" fill="#E6EEFF"/><path d="M-210 494.281c0 74.188 81.262 170.965 171.168 190.155 35.489 7.575 117.57 33.146 150.419 0 24.659-24.381 27.664-78.504 19.019-122.118-13.832-69.782-95.093-167.478-169.438-191.902-36.309-11.927-96.74-21.744-126.215-6.978C-200.963 381.431-210 453.533-210 494.281z" fill="#E8F0FF"/></svg>