<svg width="990" height="590" fill="none" xmlns="http://www.w3.org/2000/svg"><path d="M1209.59 259.416c5.2 106.218-73.84 279.901-223.216 312.301-49.015 10.631-112.896 25.094-157.323-15.048-44.427-40.141-61.968-133.321-64.727-189.614-5.206-106.218 143.31-238.603 249.876-243.827 53.86-2.64 109.82-3.32 146.56 30.433 35.96 33.032 46.25 53.22 48.83 105.755zM-83 62.477c0 45.636 37.506 118.418 102.177 129.167 21.22 3.527 48.888 8.384 67.077-9.755C104.442 163.751 110 123.444 110 99.259 110 53.621 43.6 0-2.162 0-25.29 0-49.275.884-64.306 16.123-79.016 31.037-83 39.906-83 62.477z" fill="#E6EEFF"/></svg>