<svg width="1781" height="690" fill="none" xmlns="http://www.w3.org/2000/svg"><path d="M1780.89 61.127c2.32 47.287-32.88 124.609-99.4 139.034-21.83 4.733-50.27 11.171-70.06-6.699-19.78-17.871-27.59-59.354-28.82-84.415-2.32-47.288 63.82-106.225 111.27-108.55 23.99-1.176 48.91-1.478 65.27 13.548 16.01 14.706 20.6 23.693 21.74 47.082z" fill="#E6EEFF"/><path d="M0 483.397c0 74.147 81.24 170.87 171.12 190.049 35.48 7.57 117.538 33.127 150.379 0 24.651-24.368 27.656-78.461 19.013-122.05-13.828-69.743-95.066-167.384-169.392-191.794-36.298-11.921-96.713-21.732-126.18-6.975C9.035 370.61 0 442.672 0 483.397z" fill="#E8F0FF"/></svg>