<svg width="990" height="713" fill="none" xmlns="http://www.w3.org/2000/svg"><path d="M1086 76.956c0 41.288-45.22 95.146-95.258 105.826-19.751 4.216-65.431 18.446-83.712 0-13.723-13.569-15.396-43.69-10.585-67.961 7.698-38.836 52.922-93.206 94.297-106.798 20.208-6.638 53.838-12.101 70.238-3.884 19.99 10.014 25.02 50.14 25.02 72.817z" fill="#E8F0FF"/><path d="M-158.965 397.713C-169.308 491-109.092 648.284 20.741 684.921c42.602 12.022 98.092 28.224 139.404-4.729 41.311-32.954 61.813-114.087 67.295-163.527 10.343-93.287-113.313-217.956-206.908-228.334-47.303-5.244-96.56-8.876-130.757 18.867-33.466 27.149-43.624 44.375-48.74 90.515z" fill="#E6EEFF"/></svg>