<svg width="320" height="1089" fill="none" xmlns="http://www.w3.org/2000/svg"><path d="M485.403 841.051c3.905 79.655-55.37 209.899-167.391 234.199-36.757 7.97-84.663 18.82-117.98-11.28-33.316-30.11-46.47-99.983-48.54-142.199-3.904-79.655 107.471-178.934 187.39-182.851 40.391-1.98 82.354-2.489 109.908 22.823 26.966 24.771 34.682 39.91 36.613 79.308zM-55 46.457c0 33.935 27.79 88.055 75.706 96.048 15.722 2.622 36.223 6.234 49.7-7.254C83.882 121.763 88 91.791 88 73.807 88 39.873 38.801 0 4.895 0-12.24 0-30.012.658-41.149 11.99-52.05 23.077-55 29.673-55 46.456z" fill="#E6EEFF"/></svg>