<svg width="1681" height="588" fill="none" xmlns="http://www.w3.org/2000/svg"><path d="M1.137 285.867c-10.342 93.337 49.87 250.705 179.695 287.362 42.599 12.028 98.086 28.239 139.395-4.732 41.309-32.971 61.81-114.148 67.291-163.614 10.343-93.337-113.305-218.074-206.895-228.457-47.3-5.248-96.554-8.881-130.749 18.876-33.464 27.164-43.621 44.4-48.737 90.565z" fill="#E6EEFF"/><path d="M1681 76.998c0 41.309-45.22 95.197-95.25 105.882-19.75 4.218-65.43 18.457-83.71 0-13.72-13.576-15.39-43.713-10.58-67.998 7.69-38.856 52.91-93.255 94.29-106.855 20.2-6.641 53.83-12.107 70.23-3.885C1675.97 14.16 1681 54.308 1681 76.998z" fill="#E8F0FF"/></svg>