<svg width="320" height="1202" fill="none" xmlns="http://www.w3.org/2000/svg"><path d="M-131 1070.78c0 47.09 51.584 108.52 108.654 120.71 22.528 4.8 74.631 21.04 95.484 0 15.653-15.48 17.56-49.84 12.073-77.52-8.78-44.3-60.364-106.32-107.557-121.819-23.048-7.571-61.408-13.803-80.119-4.429C-125.264 999.143-131 1044.91-131 1070.78z" fill="#E8F0FF"/><path d="M377.691 43.242c1.548 31.587-21.956 83.235-66.377 92.869-14.575 3.162-33.571 7.463-46.783-4.474-13.211-11.937-18.427-39.646-19.248-56.386C243.735 43.665 287.9 4.297 319.59 2.744c16.017-.785 32.656-.987 43.583 9.05 10.693 9.822 13.752 15.826 14.518 31.448z" fill="#E6EEFF"/></svg>