<svg width="80" height="80" fill="none" xmlns="http://www.w3.org/2000/svg"><g clip-path="url(#clip0)"><path d="M9.843 61h-8v7.5l1.5 3.5 10-.5-1-7.5-2.5-3zM47 39H32.5v9l15 .5L47 39z" fill="#FFC940"/><path d="M73.333 16.667H56.667v-3.334A6.673 6.673 0 0050 6.666H30a6.673 6.673 0 00-6.667 6.667v3.333H6.667A6.673 6.673 0 000 23.334v43.334a6.673 6.673 0 006.667 6.666h66.666A6.673 6.673 0 0080 66.667V23.332a6.673 6.673 0 00-6.667-6.666zm-46.666-3.334A3.338 3.338 0 0130 10h20a3.338 3.338 0 013.333 3.333v3.333H26.667v-3.333zm50 53.334A3.338 3.338 0 0173.333 70H6.667a3.338 3.338 0 01-3.334-3.333v-24.26c.985.573 2.114.926 3.334.926h23.666v5c0 .922.746 1.667 1.667 1.667h16c.921 0 1.667-.745 1.667-1.667v-5h23.667c1.22 0 2.349-.353 3.333-.927v24.26zm-43-20V40h12.666v6.667H33.667zm43-10A3.338 3.338 0 0173.333 40H49.667v-1.667c0-.921-.746-1.666-1.667-1.666H32c-.921 0-1.667.745-1.667 1.666V40H6.667a3.338 3.338 0 01-3.334-3.333V23.333A3.338 3.338 0 016.667 20h66.666a3.338 3.338 0 013.334 3.333v13.334z" fill="#000"/><path fill-rule="evenodd" clip-rule="evenodd" d="M.343 59.5h7c1.861 0 3.535.307 4.75 1.279 1.294 1.036 1.75 2.557 1.75 4.221v8H6.418c-1.045.095-2.531-.121-3.802-1.098C1.24 70.844.343 69.072.343 66.5v-7zm3 3v4c0 1.829.603 2.64 1.102 3.023a2.53 2.53 0 001.732.486L6.26 70h4.583v-5c0-1.136-.295-1.615-.625-1.879-.41-.328-1.237-.621-2.875-.621h-4z" fill="#000"/><path d="M70.228 61h8v7.5l-1.5 3.5-10-.5 1-7.5 2.5-3z" fill="#FFC940"/><path fill-rule="evenodd" clip-rule="evenodd" d="M79.728 59.5h-7c-1.861 0-3.535.307-4.75 1.279-1.294 1.036-1.75 2.557-1.75 4.221v8h7.426c1.045.095 2.53-.121 3.801-1.098 1.376-1.058 2.273-2.83 2.273-5.402v-7zm-3 3v4c0 1.829-.602 2.64-1.101 3.023a2.529 2.529 0 01-1.733.486L73.811 70h-4.583v-5c0-1.136.295-1.615.625-1.879.41-.328 1.237-.621 2.875-.621h4z" fill="#000"/></g><defs><clipPath id="clip0"><path fill="#fff" d="M0 0h80v80H0z"/></clipPath></defs></svg>