<svg width="1600" height="730" fill="none" xmlns="http://www.w3.org/2000/svg"><path fill="#F3F7FF" d="M0 0h1600v730H0z"/><path d="M-49.136 219.371c.607 53.053 81.403 60.257 121.725 57.227 126.727-9.521 220.947-208.23 227.197-250.27 6.251-42.041-29.709-137.96-62.859-138.08l-.964-.004c-32.669-.122-57.489-.215-125.16 39.86C42.467-31.425-10.637-11.363-31.062 68.6c-20.425 79.963-18.832 84.456-18.074 150.771z" fill="#E8F0FF"/><path d="M607.302 213.987c5.312 47.916-25.617 128.705-92.306 147.523-21.882 6.175-50.384 14.498-71.604-2.429-21.22-16.926-31.751-58.6-34.566-83.995-5.313-47.916 58.203-111.953 106.278-117.283 24.297-2.694 49.597-4.559 67.162 9.691 17.19 13.945 22.408 22.793 25.036 46.493z" fill="#E6EEFF"/><path d="M810.864 590.636c-16.29 36.029-58.979 76.719-97.873 59.135-14.437-6.527-37.136-16.199-42.977-37.153-5.84-20.955-1.194-39.972 7.289-58.736 16.29-36.03 71.845-68.54 112.982-49.941 14.221 6.429 26.036 13.701 30.927 28.751 5.471 16.836-1.747 38.92-10.348 57.944zm805.156-306.399c-19.61-47.138-63.82-110.833-112.38-114.511-130.85-9.91-247.07 164.332-265.47 256.945-25.48 128.311-54.37 120.161-32.94 171.67 33.04 79.414 141.63 65.068 229.94 28.33 91.98-38.265 108.57-46.292 164.79-125.447 64.09-90.223 43.33-151.43 16.06-216.987z" fill="#E8F0FF"/></svg>