<svg width="120" height="120" fill="none" xmlns="http://www.w3.org/2000/svg"><circle cx="60" cy="60" r="60" fill="#F3F3F3"/><path d="M29.043 48.77c.616 0 1.116-.499 1.116-1.115v-9.01c0-2.522 1.618-4.351 3.848-4.351h13.142a1.116 1.116 0 000-2.232H34.007c-3.466 0-6.08 2.83-6.08 6.582v9.01c0 .617.5 1.117 1.116 1.117z" fill="#6ADF91"/><path d="M34.007 36.419c-1.03 0-1.723.894-1.723 2.225v34.462c0 .261.091.513.258.714.279.335.81.693 1.465.693h55.988c.654 0 1.186-.358 1.465-.693.166-.2.258-.453.258-.714v-5.773a1.116 1.116 0 10-2.233 0v4.948H34.516v-33.63h13.007a1.116 1.116 0 000-2.232H34.007zM90.6 64.002c.617 0 1.117-.5 1.117-1.116V38.644c0-1.33-.693-2.225-1.723-2.225H76.782a1.116 1.116 0 100 2.232h12.703v24.235c0 .617.5 1.116 1.116 1.116z" fill="#6ADF91"/><path d="M97.974 79.157h-1.9V38.644c0-3.752-2.613-6.582-6.08-6.582H76.952a1.116 1.116 0 100 2.232h13.044c2.23 0 3.848 1.83 3.848 4.35v40.513H69.709c-1.17 0-2.121.952-2.121 2.121v1.031H56.413v-1.03c0-1.17-.951-2.122-2.121-2.122H30.158V52.118a1.116 1.116 0 10-2.232 0v27.039h-1.9c-1.169 0-2.12.952-2.12 2.121V83.9c0 2.646 2.152 4.8 4.799 4.8h66.591c2.647 0 4.8-2.154 4.8-4.8v-2.622c0-1.17-.952-2.121-2.122-2.121zm-.11 4.743a2.57 2.57 0 01-2.568 2.567H28.705a2.57 2.57 0 01-2.568-2.567v-2.51h28.044v1.03c0 1.17.952 2.122 2.122 2.122h11.395c1.17 0 2.122-.952 2.122-2.122v-1.03h28.044v2.51z" fill="#6ADF91"/><path d="M62 43.299a5.04 5.04 0 005.034-5.034A5.04 5.04 0 0062 33.232a5.04 5.04 0 00-5.033 5.033A5.04 5.04 0 0062 43.3zm0-7.835a2.805 2.805 0 012.802 2.801A2.805 2.805 0 0162 41.067a2.805 2.805 0 01-2.801-2.802 2.805 2.805 0 012.801-2.8z" fill="#4BB1E9"/><path d="M50.906 37.85a15.928 15.928 0 00-4.767 12.44 2.83 2.83 0 002.813 2.632h5.914c.115.312.232.62.35.925a3.047 3.047 0 002.857 1.953h7.856a3.046 3.046 0 002.856-1.953c.119-.304.235-.613.35-.925h5.915a2.83 2.83 0 002.813-2.632 15.928 15.928 0 00-4.767-12.44c.326-2.086.508-3.981.508-5.521 0-7.854-9.855-13.566-10.98-14.193l-.018-.01-.005-.002a5.03 5.03 0 00-.069-.038l-.004-.002a1.141 1.141 0 00-.114-.053l-.03-.01a1.11 1.11 0 00-.231-.059c-.008 0-.015-.002-.022-.003a1.104 1.104 0 00-.258 0l-.027.004a1.205 1.205 0 00-.234.06l-.02.006a1.06 1.06 0 00-.119.055l-.004.002c-.063.035-1.582.862-3.481 2.305a1.116 1.116 0 001.35 1.778A30.476 30.476 0 0162 20.359c1.22.735 4.288 2.736 6.587 5.48l.02.025a18.208 18.208 0 01.394.49l.045.059H54.955c.356-.466.752-.93 1.186-1.393a1.116 1.116 0 00-1.628-1.527 20.207 20.207 0 00-1.577 1.895c-.015.018-.03.035-.044.054l-.135.194-.042.059a16.698 16.698 0 00-.523.798l-.055.09c-.068.114-.134.227-.198.34l-.035.059-.006.013c-.995 1.777-1.5 3.565-1.5 5.333 0 1.541.182 3.436.508 5.522zm-1.954 12.84a.591.591 0 01-.586-.553 13.693 13.693 0 013.034-9.525 85.29 85.29 0 002.68 10.078h-5.128zm26.714-1.457c0 .31-.01.614-.03.905a.591.591 0 01-.586.552h-5.128a85.345 85.345 0 002.68-10.077 13.692 13.692 0 013.064 8.62zm-5.221-20.588c.715 1.464.927 2.716.927 3.684 0 4.89-2.05 13.986-4.667 20.708a.828.828 0 01-.776.53h-7.856a.829.829 0 01-.777-.53c-2.617-6.722-4.666-15.818-4.666-20.708 0-1.202.31-2.435.922-3.684h16.893zM62 67.57a4.988 4.988 0 01-1.65-3.22 1.116 1.116 0 00-2.22.23 7.223 7.223 0 003.261 5.326 1.114 1.114 0 001.219 0 7.236 7.236 0 003.3-6.081 7.236 7.236 0 00-3.3-6.082 1.116 1.116 0 00-1.219 0 7.277 7.277 0 00-1.742 1.591 1.116 1.116 0 101.752 1.384c.182-.231.382-.444.6-.638a5.005 5.005 0 011.677 3.745A5.003 5.003 0 0162 67.57z" fill="#4BB1E9"/></svg>