<svg width="355" height="338" fill="none" xmlns="http://www.w3.org/2000/svg"><path d="M173.813 325.278l-64.843-37.439c-1.671-.96-1.671-2.526 0-3.493l96.031-55.465a6.698 6.698 0 016.041 0l64.857 37.461c1.664.967 1.664 2.526 0 3.493l-96.038 55.466a6.707 6.707 0 01-6.048-.023zM41.078 282.645l-22.734-13.14c-1.551-.899-1.551-2.353 0-3.253l163.511-94.381a6.217 6.217 0 015.636 0l22.734 13.139c1.559.9 1.559 2.354 0 3.253l-163.51 94.382a6.23 6.23 0 01-5.637 0zm190.051-75.838l16.639 9.639a6.678 6.678 0 006.049 0l53.502-30.888c1.664-.96 1.664-2.526 0-3.486l-16.647-9.609a6.665 6.665 0 00-6.042 0l-53.501 30.888c-1.702.93-1.702 2.489 0 3.456z" fill="#EBEBEB"/><path d="M42.359 252.551a52.317 52.317 0 00-2.002-15.336c-2.338-8.027-7.562-16.414-14.33-18.58-6.769-2.167-10.18 2.188-9.183 6.91.862 4.07 5.674 7.863 9.227 11.693 3.553 3.83 10.006 12.884 11.243 21.114l3.868.825 1.177-6.626z" fill="#6ADF91"/><path opacity=".15" d="M42.359 252.551a52.317 52.317 0 00-2.002-15.336c-2.338-8.027-7.562-16.414-14.33-18.58-6.769-2.167-10.18 2.188-9.183 6.91.862 4.07 5.674 7.863 9.227 11.693 3.553 3.83 10.006 12.884 11.243 21.114l3.868.825 1.177-6.626z" fill="#000"/><path d="M39.323 255.894a.443.443 0 01-.39-.465c1.32-20.237-17.239-33.534-17.456-33.669a.442.442 0 01-.179-.282.437.437 0 01.074-.325.433.433 0 01.281-.182.427.427 0 01.326.077c.188.135 19.18 13.701 17.824 34.441a.431.431 0 01-.296.383.421.421 0 01-.169.022h-.015z" fill="#fff"/><path d="M37.801 278.657a8.465 8.465 0 01-5.733 0 10.905 10.905 0 01-3.89-2.421 13.427 13.427 0 01-2.579-3.815 14.281 14.281 0 00-1.544-2.653c-1.372-1.642-3.875-1.859-5.801-2.489a7.546 7.546 0 01-5.18-5.501c-.494-2.601.128-5.644 2.631-7.031l-1.859-1.499a13.012 13.012 0 01-2.36-2.249 4.375 4.375 0 01-.998-2.998 4.244 4.244 0 012.999-3.388 8.993 8.993 0 014.73 0c1.574.346 3.104.874 4.556 1.574.394.228.83.373 1.282.428a3.496 3.496 0 001.672-.57c3.612-1.866 9.166-1.117 10.568 3.305.21.652.3 1.342.525 1.987.832 2.398 3.897 2.016 5.718 3.283a4.904 4.904 0 011.89 3.747c.172 2.534-.75 5.134-1.5 7.496-.284.891-.817 1.671-1.094 2.548-.39 1.229-.27 2.706-.435 3.987-.3 2.197-.75 4.932-2.908 5.997a5.292 5.292 0 01-.69.262z" fill="#6ADF91"/><path d="M40.283 273.763a31.664 31.664 0 00-6.926-13.095.357.357 0 00-.165-.195 41.994 41.994 0 00-2.998-3.148c-.125-3.06.58-6.098 2.039-8.792a.358.358 0 00-.395-.525.348.348 0 00-.213.166 17.47 17.47 0 00-2.158 8.484 54.052 54.052 0 00-14.616-9.271.35.35 0 10-.255.652 52.643 52.643 0 0117.24 11.932c-4.933-1.386-11.184.435-11.468.517a.356.356 0 00-.213.167.34.34 0 00-.027.268.35.35 0 00.3.255.43.43 0 00.134 0c.075 0 7.413-2.159 12.24-.105a31.012 31.012 0 016.821 12.907.359.359 0 00.307.27h.12a.358.358 0 00.233-.487z" fill="#fff"/><path d="M40.778 280.366a3.23 3.23 0 01-1.425-2.563V133.997a3.367 3.367 0 011.5-2.616l164.282-94.823a2.842 2.842 0 014.348 2.51V182.86a3.344 3.344 0 01-1.499 2.624L43.701 280.306a3.192 3.192 0 01-2.923.06z" fill="#455A64"/><path d="M43.702 280.306a3.176 3.176 0 01-2.923.06 3.215 3.215 0 01-1.425-2.563V151.881l2.841 1.642v125.884c0 .862.6 1.446 1.507.899z" fill="#F0F0F0"/><path d="M42.637 134.132a3 3 0 00-.442 1.499v17.907l-2.84-1.642v-17.899a1.386 1.386 0 010-.18c0-.127 0-.255.06-.382a3.69 3.69 0 01.382-.937l2.84 1.634z" fill="#263238"/><path d="M209.476 39.046v8.073L89.071 116.638c-.832.48-1.499.09-1.499-.877v-3.058c0-.959-.682-1.349-1.499-.87l-36.697 21.175a3.334 3.334 0 00-1.5 2.616v3.058a3.34 3.34 0 01-1.498 2.616l-4.16 2.398v-8.072a3.322 3.322 0 011.499-2.609L207.97 38.169c.832-.48 1.506-.112 1.506.877z" fill="#37474F"/><path d="M209.484 182.859a3.334 3.334 0 01-1.499 2.616L43.702 280.306c-.854.495-1.499.098-1.499-.869V143.696l4.16-2.398c.832-.48 2.189-7.811 2.998-8.29l36.06-20.822c.832-.48 2.803 4.932 3.635 4.452l120.42-69.52V182.86h.008z" fill="#FAFAFA"/><path d="M208.727 48.416v134.443a2.608 2.608 0 01-1.14 1.972l-164.26 94.83a.834.834 0 01-.315.12.64.64 0 01-.067-.344V144.131l3.748-2.189c.622-.36.981-1.499 1.85-4.572a23.123 23.123 0 011.238-3.748l35.737-20.612c.403.57.771 1.163 1.102 1.777.982 1.724 1.5 2.631 2.354 2.631a.95.95 0 00.487-.135l119.266-68.868zm.749-1.297L89.071 116.638a.303.303 0 01-.112 0c-.847 0-2.564-4.497-3.41-4.497a.18.18 0 00-.113 0l-36.06 20.867c-.832.48-2.189 7.81-2.998 8.29l-4.16 2.398v135.711c0 .682.322 1.086.824 1.086.243-.008.479-.084.682-.217l164.246-94.801a3.324 3.324 0 001.499-2.616V47.119h.007z" fill="#E0E0E0"/><path d="M209.476 47.119v9.826L42.196 153.53v-9.834l3.11-1.799c.824-.479 1.11-1.214 1.499-2.616l1.05-3.657c.337-1.275.681-2.136 1.498-2.616l36.06-20.822c.832-.48 1.5-.532 2.13.517l1.288 2.346c.472.824.75 1.304 1.544.824l119.101-68.754z" fill="#E6E6E6"/><path d="M202.393 44.106c1.049-.608 1.904-.113 1.904 1.101a4.195 4.195 0 01-1.904 3.29c-1.049.608-1.904.12-1.904-1.093a4.209 4.209 0 011.904-3.298zm-6.851 3.95c1.057-.607 1.904-.113 1.904 1.094a4.198 4.198 0 01-1.904 3.298c-1.05.607-1.896.112-1.896-1.102a4.2 4.2 0 011.896-3.29zm-6.843 3.95c1.049-.607 1.904-.12 1.904 1.094a4.221 4.221 0 01-1.904 3.298c-1.05.607-1.904.112-1.904-1.102a4.194 4.194 0 011.904-3.29z" fill="#fff"/><path opacity=".5" d="M49.128 144.408l-2.376 1.372.907-1.747a.4.4 0 000-.419c-.067-.083-.187 0-.262.127l-1.29 2.474a.366.366 0 000 .097.657.657 0 000 .127.44.44 0 000 .105v.045l1.29.99a.094.094 0 00.06.023.094.094 0 00.06-.023.403.403 0 00.142-.18c.075-.165.068-.345 0-.405l-.907-.697 2.376-1.372a.498.498 0 00.188-.404c0-.09-.083-.173-.188-.113zm1.979-1.147l2.376-1.371-.907-.69a.372.372 0 010-.405c.067-.164.187-.247.27-.187l1.281.989a.121.121 0 010 .053.456.456 0 010 .112.829.829 0 010 .128c.003.03.003.06 0 .09l-1.296 2.511a.35.35 0 01-.128.142.105.105 0 01-.142 0 .435.435 0 010-.427l.907-1.739-2.376 1.372c-.105.059-.188 0-.188-.188a.5.5 0 01.203-.39zm7.788-6.828c0-.142-.143-.127-.203 0l-.33.795c-.554-.06-1.221.479-1.678 1.439-.585 1.244-.585 2.713 0 3.283a.843.843 0 001.064.06 2.93 2.93 0 001.072-1.267.413.413 0 000-.42c-.075-.067-.195 0-.27.158-.442.929-1.154 1.341-1.597.922-.442-.42-.434-1.499 0-2.451.315-.667.75-1.057 1.155-1.08l-.24.6c-.068.157 0 .3.09.232l.967-.629a.325.325 0 00.112-.263l-.142-1.379zm25.499-19.758l.862-1.836a.547.547 0 000-.57c-.097-.097-.27 0-.367.218l-.87 1.829-.862-.832c-.105-.098-.27 0-.367.217a.547.547 0 000 .57l.862.832-.862 1.829a.543.543 0 000 .569.127.127 0 00.09.037.126.126 0 00.09-.037.484.484 0 00.187-.225l.862-1.829.87.832c.026.022.06.033.093.033a.146.146 0 00.094-.033.57.57 0 00.18-.224.55.55 0 000-.57l-.862-.81z" fill="#455A64"/><path d="M62.043 138.682v-3.058a3.329 3.329 0 011.499-2.616l135.905-78.461c.84-.48 1.499-.09 1.499.877v3.058a3.353 3.353 0 01-1.499 2.615L63.549 139.551c-.831.487-1.506.098-1.506-.869z" fill="#FAFAFA"/><path d="M197.408 61.382a.399.399 0 01-.142 0 .437.437 0 01-.24-.48l.15-1.229-.577-.412a.423.423 0 01-.165-.352.701.701 0 01.255-.547l.884-.682.038-.06.397-1.297a.568.568 0 01.465-.442.396.396 0 01.367.225l.322.69.75-.278a.375.375 0 01.42.09.573.573 0 010 .637l-.645 1.207.135 1.154a.677.677 0 01-.195.555.408.408 0 01-.367.142l-.712-.082-.75.989a.455.455 0 01-.39.172zm-.404-2.555l.569.412a.446.446 0 01.165.434l-.097.75.487-.615a.476.476 0 01.412-.194l.712.09a.122.122 0 000-.06l-.15-1.095a.632.632 0 01.075-.397l.54-1.012-.532.202a.368.368 0 01-.48-.194l-.24-.495-.345 1.094a.6.6 0 01-.224.337l-.885.69s0 .038-.007.053z" fill="#E0E0E0"/><path opacity=".5" d="M202.761 54.202a.509.509 0 01-.457-.262.51.51 0 01-.072-.42.524.524 0 01.267-.33l4.25-2.391a.524.524 0 01.712.195.51.51 0 01-.021.611.514.514 0 01-.167.138l-4.257 2.459a.541.541 0 01-.255 0zm-.001 2.458a.507.507 0 01-.457-.262.511.511 0 01.026-.613.513.513 0 01.169-.137l4.25-2.458a.523.523 0 01.524.907l-4.257 2.458a.541.541 0 01-.255.105zm0 2.459a.532.532 0 01-.457-.263.511.511 0 01.026-.612.512.512 0 01.169-.137l4.25-2.459a.51.51 0 01.577.035c.055.041.1.093.135.153a.522.522 0 01-.024.61.517.517 0 01-.164.14l-4.257 2.458a.473.473 0 01-.255.075z" fill="#455A64"/><path d="M42.195 143.696v9.834l-2.84-1.641v-9.827l2.84 1.634z" fill="#E0E0E0"/><path d="M209.476 56.945L42.196 153.53v13.102L209.46 70.039l.015-13.094z" fill="#6ADF91"/><path opacity=".15" d="M209.476 56.945L42.196 153.53v13.102L209.46 70.039l.015-13.094z" fill="#000"/><path d="M42.195 153.53l-2.84-1.642v13.102l2.84 1.642V153.53z" fill="#6ADF91"/><path opacity=".5" d="M42.195 153.53l-2.84-1.642v13.102l2.84 1.642V153.53z" fill="#000"/><path d="M120.357 111.654l19.487-11.243c1.664-.967 2.999-.278 2.999 1.499a6.513 6.513 0 01-2.999 5.022l-19.487 11.243c-1.664.959-2.999.277-2.999-1.5a6.475 6.475 0 012.999-5.021zm-8.695 5.021a6.275 6.275 0 00-2.841 4.91c0 1.806 1.275 2.541 2.841 1.634a6.262 6.262 0 002.833-4.91c0-1.806-1.244-2.54-2.833-1.634z" fill="#FAFAFA"/><path d="M169.878 86.027a.828.828 0 01-.428-.112 1.036 1.036 0 01-.464-.96 2.736 2.736 0 011.266-2.188.947.947 0 011.039-.057c.16.094.289.232.37.398a.935.935 0 01.09.535 2.735 2.735 0 01-1.266 2.19 1.277 1.277 0 01-.607.194zm.637-2.81a2.242 2.242 0 00-1.005 1.738.445.445 0 00.204.513.444.444 0 00.546-.086 2.241 2.241 0 001.004-1.739.438.438 0 00-.204-.513.441.441 0 00-.545.086zm-2.548 7.585v-.75a4.339 4.339 0 011.994-3.448l.644-.375a1.501 1.501 0 011.559-.12 1.613 1.613 0 01.697 1.5v.427l-4.894 2.766zm3.575-4.355a1.426 1.426 0 00-.675.21l-.644.374a3.875 3.875 0 00-1.732 2.864l3.846-2.249v-.12a1.118 1.118 0 00-.435-1.012.644.644 0 00-.337-.067h-.023zm6.101-2.669a.437.437 0 01-.233-.06.6.6 0 01-.262-.54 1.18 1.18 0 01.157-.576l.045-.06a3.248 3.248 0 00.443-1.552v-.592a3.896 3.896 0 011.671-3.163 1.237 1.237 0 011.267-.082 1.62 1.62 0 01.667 1.499v.697a.812.812 0 00.367.794l.083.06a.606.606 0 01.194.487 1.184 1.184 0 01-.517.967l-3.597 2.077a.601.601 0 01-.285.044zm2.563-6.243c-.17.01-.334.061-.48.15a3.469 3.469 0 00-1.409 2.713v.592a3.745 3.745 0 01-.554 1.867.665.665 0 00-.09.322v.097l3.575-2.106a.676.676 0 00.255-.51.398.398 0 000-.097 1.282 1.282 0 01-.63-1.244v-.697a1.145 1.145 0 00-.405-1.02.546.546 0 00-.262-.037v-.03zm.128 5.112a1.774 1.774 0 01-.75 1.409c-.404.232-.749 0-.749-.562l1.499-.847zm7.435-5.225a1.283 1.283 0 01-.652-.172 1.638 1.638 0 01-.749-1.5 4.647 4.647 0 012.129-3.687 1.675 1.675 0 011.678-.142 1.647 1.647 0 01.713 1.499 4.651 4.651 0 01-2.129 3.695 2.08 2.08 0 01-.99.307zm1.02-4.924a4.14 4.14 0 00-1.866 3.23.966.966 0 001.604.93 4.133 4.133 0 001.873-3.238.966.966 0 00-1.611-.922z" fill="#fff"/><path d="M192.409 76.943a.193.193 0 01-.127 0l-2.317-1.334a.269.269 0 01-.098-.158.264.264 0 01.361-.292l2.316 1.334a.264.264 0 01.09.36.256.256 0 01-.225.09zm6.011-3.418l-.869-.263a2.865 2.865 0 01-2.181-2.938 3.858 3.858 0 011.499-3.14 1.06 1.06 0 01.966-.113c.147.062.278.157.383.278a3.19 3.19 0 011.229-1.657 1.07 1.07 0 011.094-.06 1.79 1.79 0 01.682 1.612c0 1.761-1.101 3.747-2.023 5.112l-.78 1.169zm-.929-5.997a.668.668 0 00-.345.113 3.41 3.41 0 00-1.252 2.69 2.326 2.326 0 001.807 2.436l.502.15.577-.854c.884-1.297 1.934-3.185 1.934-4.812a1.366 1.366 0 00-.42-1.154.555.555 0 00-.57.052 3.08 3.08 0 00-1.161 1.957l-.225 1.049-.285-1.034a.807.807 0 00-.397-.555.41.41 0 00-.165-.045v.007z" fill="#fff"/><path d="M76.217 150.262l14.181-8.185v6.544l-14.181 8.184v-6.543zm17.013-9.826l14.182-8.185v6.551l-14.181 8.185v-6.551zm17.015-9.819l14.181-8.185-.007 6.543-14.174 8.185v-6.543zm17.015-9.827l14.173-8.185v6.551l-14.173 8.185v-6.551zm17.014-9.819l14.174-8.184v6.543l-14.174 8.192v-6.551zm17.006-9.826l14.181-8.185v6.551l-14.173 8.185-.008-6.551z" fill="#E0E0E0"/><path d="M59.202 169.907l42.536-24.562v6.551l-42.536 24.555v-6.544z" fill="#6ADF91"/><path opacity=".6" d="M59.202 169.907l42.536-24.562v6.551l-42.536 24.555v-6.544z" fill="#fff"/><path d="M104.572 143.711l42.536-24.555v6.544l-42.536 24.562v-6.551z" fill="#6ADF91"/><path opacity=".5" d="M104.572 143.711l42.536-24.555v6.544l-42.536 24.562v-6.551z" fill="#fff"/><path d="M149.948 117.515l42.529-24.555v6.551l-42.529 24.555v-6.551z" fill="#6ADF91"/><path opacity=".4" d="M149.948 117.515l42.529-24.555v6.551l-42.529 24.555v-6.551z" fill="#fff"/><path d="M59.202 251.756l42.536-24.554v13.094l-42.536 24.562v-13.102z" fill="#6ADF91"/><path opacity=".6" d="M59.202 251.756l42.536-24.554v13.094l-42.536 24.562v-13.102z" fill="#fff"/><path d="M104.572 225.568l42.536-24.563v13.102l-42.536 24.555v-13.094z" fill="#6ADF91"/><path opacity=".5" d="M104.572 225.568l42.536-24.563v13.102l-42.536 24.555v-13.094z" fill="#fff"/><path d="M149.948 199.371l42.529-24.554v13.094l-42.529 24.555v-13.095z" fill="#6ADF91"/><path opacity=".4" d="M149.948 199.371l42.529-24.554v13.094l-42.529 24.555v-13.095z" fill="#fff"/><path opacity=".8" d="M60.716 178.857l130.246-75.216c.84-.48 1.499-.09 1.499.87v65.269a3.334 3.334 0 01-1.499 2.623L60.716 247.611c-.832.488-1.5.09-1.5-.869v-65.269a3.33 3.33 0 011.5-2.616z" fill="#6ADF91"/><path opacity=".8" d="M60.716 178.857l130.246-75.216c.84-.48 1.499-.09 1.499.87v65.269a3.334 3.334 0 01-1.499 2.623L60.716 247.611c-.832.488-1.5.09-1.5-.869v-65.269a3.33 3.33 0 011.5-2.616z" fill="#fff"/><path opacity=".8" d="M155.592 148.935l-17.936 26.511 12.622 9.954-44.223-17.936-46.853 63.096v16.182c0 .929.675 1.357 1.5.869l130.261-75.208a3.462 3.462 0 001.052-1.138c.26-.455.412-.963.447-1.485v-14.668l-36.87-6.177z" fill="#6ADF91"/><path d="M185.678 137.842a1.042 1.042 0 01-.952-1.499l2.594-5.479-2.369-2.248a1.07 1.07 0 01-.277-.336 1.053 1.053 0 01.177-1.217 1.044 1.044 0 011.554.053l2.909 2.804a1.042 1.042 0 01.217 1.199l-2.908 6.161a1.053 1.053 0 01-.945.562zM66.03 208.133a1.033 1.033 0 01-.75-.292l-2.907-2.796a1.062 1.062 0 01-.225-1.206l2.9-6.131a1.032 1.032 0 01.593-.538c.129-.046.266-.066.403-.06a1.045 1.045 0 01.894 1.489l-2.586 5.48 2.368 2.248a1.048 1.048 0 010 1.499 1.04 1.04 0 01-.69.307z" fill="#fff"/><path opacity=".15" d="M57.98 289.308c-.487-.27-2.495-1.447-2.758-1.589a1.048 1.048 0 01-.457-.989V164.361l2.833 1.634v122.406a1.122 1.122 0 00.383.907z" fill="#000"/><path opacity=".05" d="M224.879 69.417L57.598 165.995l-2.833-1.642 167.28-96.577 2.834 1.641z" fill="#000"/><path opacity=".1" d="M224.886 191.786a3.334 3.334 0 01-1.499 2.624L59.105 289.24c-.832.48-1.5.09-1.5-.876V165.995L224.88 69.417l.007 122.369z" fill="#000"/><path opacity=".8" d="M192.064 113.377a1.045 1.045 0 00-1.109.083l-96.218 55.57a3.342 3.342 0 00-1.499 2.616v65.27a1.09 1.09 0 00.427.974l2.841 1.634a1.065 1.065 0 001.08-.098l96.217-55.57a3.343 3.343 0 001.499-2.616v-65.232a1.085 1.085 0 00-.434-.982c-.278-.194-2.556-1.484-2.804-1.649z" fill="#37474F"/><path opacity=".3" d="M192.064 113.377c.232.165 2.248 1.297 2.721 1.575a1.112 1.112 0 00-.99.142l-96.217 55.57a3.072 3.072 0 00-1.072 1.132l-2.841-1.641a3.1 3.1 0 011.072-1.125l96.225-55.57a1.054 1.054 0 011.102-.083z" fill="#fff"/><path opacity=".2" d="M96.064 238.55a1.141 1.141 0 00.368.936l-2.774-1.596a1.088 1.088 0 01-.434-.974v-65.27a3.16 3.16 0 01.442-1.499l2.84 1.642a3.057 3.057 0 00-.442 1.499v65.262z" fill="#000"/><path opacity=".8" d="M126.532 164.938l38.293-22.111c1.17-.675 2.121-.128 2.121 1.221a4.674 4.674 0 01-2.121 3.666l-38.293 22.103c-1.17.675-2.114.128-2.114-1.221a4.68 4.68 0 012.114-3.658zm-.584 10.171l50.834-29.352c.832-.487 1.499-.142 1.499.75a3.239 3.239 0 01-1.499 2.503l-50.834 29.352c-.832.487-1.499.142-1.499-.75.037-.505.192-.994.453-1.429.26-.435.618-.803 1.046-1.074zm0 6.551l50.834-29.352c.832-.479 1.499-.142 1.499.75a3.257 3.257 0 01-1.499 2.511l-50.834 29.396c-.832.48-1.499.135-1.499-.749a3.237 3.237 0 011.499-2.556zm0 6.543l50.834-29.351c.832-.48 1.499-.143 1.499.749a3.25 3.25 0 01-1.499 2.511l-50.834 29.352c-.832.48-1.499.135-1.499-.75a3.254 3.254 0 011.499-2.511zm-12.651-3.013v2.271a6.168 6.168 0 01-.75 2.669 4.606 4.606 0 01-1.731 1.836 1.585 1.585 0 01-1.731.165 2.254 2.254 0 01-.75-1.814v-2.279a6.21 6.21 0 01.697-2.668 4.608 4.608 0 011.769-1.859c.75-.427 1.342-.494 1.769-.187a2.353 2.353 0 01.727 1.866zm4.122-4.857c.056-.159.129-.313.218-.457a.862.862 0 01.33-.307l1.581-.915c.11-.065.2-.065.27 0 .067.045.097.135.097.278a.387.387 0 010 .127.778.778 0 01-.045.172l-7.532 19.601a2.899 2.899 0 01-.218.457.926.926 0 01-.33.307l-1.581.915c-.113.06-.202.075-.27 0-.067-.075-.097-.143-.097-.285v-.128a.848.848 0 01.045-.164l7.532-19.601zm-7.09 8.995c.004.201.047.4.127.584.075.128.195.143.368.045a.871.871 0 00.367-.472c.081-.242.124-.494.127-.749.045-.844.045-1.69 0-2.534.005-.2-.039-.398-.127-.577-.075-.127-.195-.15-.367-.052a.86.86 0 00-.368.479 2.888 2.888 0 00-.127.75 27.486 27.486 0 000 2.503v.023zm11.243-.435v2.279a6.079 6.079 0 01-.75 2.668 4.595 4.595 0 01-1.731 1.829 1.592 1.592 0 01-.841.342 1.593 1.593 0 01-.891-.177 2.263 2.263 0 01-.583-.821 2.265 2.265 0 01-.166-.993v-2.271a6.231 6.231 0 01.704-2.676 4.59 4.59 0 011.769-1.852c.75-.434 1.342-.494 1.769-.187a2.302 2.302 0 01.697 1.836l.023.023zm-2.961 4.115c-.001.202.042.402.128.585.075.127.194.142.367.044a.813.813 0 00.367-.472c.075-.243.118-.495.128-.749.037-.9.037-1.739 0-2.534a1.545 1.545 0 00-.128-.584c-.075-.128-.195-.143-.367-.045a.84.84 0 00-.367.472 2.686 2.686 0 00-.128.749c-.06.817-.06 1.664-.022 2.511l.022.023z" fill="#fff"/><path opacity=".8" d="M113.251 210.719l45.167-26.083v6.551l-45.167 26.083c-1.664.96-2.998.278-2.998-1.499a6.505 6.505 0 012.998-5.052z" fill="#FAFAFA"/><path d="M178.101 173.288c1.671-.967 2.998-.278 2.998 1.499a6.552 6.552 0 01-.906 2.865 6.555 6.555 0 01-2.092 2.157l-19.661 11.378v-6.551l19.661-11.348z" fill="#6ADF91"/><path d="M114.57 214.609l-.63-1.896a.265.265 0 010-.105.164.164 0 01.06-.075l.24-.142a.054.054 0 01.068 0 .103.103 0 01.037.06l.427 1.274.428-1.769a.31.31 0 01.037-.097.155.155 0 01.068-.083l.239-.135a.046.046 0 01.06 0 .13.13 0 010 .083l-.899 3.747a.828.828 0 01-.038.098.163.163 0 01-.067.075l-.24.142a.028.028 0 01-.013.011.033.033 0 01-.017.004.035.035 0 01-.017-.004.033.033 0 01-.013-.011.078.078 0 01-.009-.037c0-.013.003-.026.009-.038a.077.077 0 010-.037l.27-1.065zm2.204-3.747a.656.656 0 01.322-.098c.09.001.178.033.247.09.073.07.129.154.165.248a1.34 1.34 0 01.068.494v.27a1.972 1.972 0 01-.075.577 2.107 2.107 0 01-.158.443c-.07.13-.153.253-.247.367-.091.108-.2.199-.322.27a.64.64 0 01-.315.097.385.385 0 01-.247-.082.602.602 0 01-.165-.248 1.184 1.184 0 01-.075-.382v-.495c.006-.159.031-.318.075-.472a2.14 2.14 0 01.165-.435c.064-.135.147-.262.247-.374.088-.108.195-.2.315-.27zm.389.884a.726.726 0 00-.045-.225.23.23 0 00-.097-.105.12.12 0 00-.112 0 .533.533 0 00-.263.15.644.644 0 00-.12.15.905.905 0 00-.09.21.863.863 0 00-.045.285.394.394 0 000 .097v.255a.339.339 0 000 .09.47.47 0 00.045.225.236.236 0 00.09.112.156.156 0 00.12 0 .333.333 0 00.128-.052.795.795 0 00.135-.097 1.05 1.05 0 00.209-.36c.025-.094.04-.189.045-.285v-.45zm.93-1.461a.233.233 0 010-.105.148.148 0 01.06-.075l.247-.143a.047.047 0 01.013-.011.047.047 0 01.017-.004c.006 0 .011.002.017.004a.069.069 0 01.013.011.099.099 0 01.007.038.094.094 0 01-.007.037v1.252a.873.873 0 00.082.427c.05.085.14.085.27 0a.614.614 0 00.255-.329c.063-.168.094-.346.09-.525v-1.252a.208.208 0 010-.105.164.164 0 01.06-.075l.24-.142a.042.042 0 01.03-.012c.011 0 .021.004.03.012a.095.095 0 01.008.037.1.1 0 01-.008.038v2.301a.208.208 0 010 .105.164.164 0 01-.06.075l-.24.142a.061.061 0 01-.06 0 .095.095 0 01-.008-.037.1.1 0 01.008-.038v-.112c-.05.108-.111.21-.18.307a.87.87 0 01-.262.24.588.588 0 01-.323.097.303.303 0 01-.21-.135.9.9 0 01-.104-.307 2.266 2.266 0 010-.42l.015-1.296zm2.909-1.222a.66.66 0 00-.278.292c-.066.149-.096.31-.09.472v1.282a.307.307 0 010 .113.156.156 0 01-.06.075l-.247.134a.042.042 0 01-.03.012.042.042 0 01-.03-.012.116.116 0 010-.082v-2.294a.301.301 0 010-.112s0-.06.06-.067l.247-.143a.046.046 0 01.06 0 .13.13 0 010 .083v.134c.053-.099.114-.194.18-.284a.942.942 0 01.248-.21l.142-.083a.067.067 0 01.067 0 .108.108 0 010 .075v.33a.265.265 0 010 .105.163.163 0 01-.067.075l-.202.105zm1.131-.997c.047-.118.11-.229.188-.33a.993.993 0 01.224-.21.47.47 0 01.33-.075.344.344 0 01.121.074.373.373 0 01.082.114c.028-.08.063-.158.105-.233a1.355 1.355 0 01.269-.374.73.73 0 01.143-.105.449.449 0 01.307-.083.29.29 0 01.195.135.69.69 0 01.105.308c.012.139.012.28 0 .419v1.327a.301.301 0 010 .112.137.137 0 01-.06.068l-.247.142a.044.044 0 01-.03.012.042.042 0 01-.03-.012.116.116 0 010-.082v-1.297a.684.684 0 00-.083-.42c-.06-.06-.135-.06-.232 0a.552.552 0 00-.225.255c-.067.159-.1.33-.097.502v1.327a.265.265 0 010 .105.128.128 0 01-.06.075l-.248.142a.042.042 0 01-.03.012.042.042 0 01-.03-.012.143.143 0 010-.082v-1.297a.745.745 0 00-.082-.427c-.06-.052-.135-.052-.233 0a.527.527 0 00-.224.262c-.074.163-.107.34-.098.518v1.304a.265.265 0 010 .105.169.169 0 01-.06.075l-.247.142a.045.045 0 01-.013.011.035.035 0 01-.017.004.033.033 0 01-.017-.004c-.005-.003-.01-.006-.013-.011a.099.099 0 01-.008-.037.1.1 0 01.008-.038v-2.286a.301.301 0 010-.112.159.159 0 01.06-.075l.247-.143a.061.061 0 01.06 0c.01.027.01.056 0 .083l-.06.112zm2.683-1.169c.016-.086.036-.171.06-.255.037-.103.083-.204.135-.3a1.54 1.54 0 01.21-.285.954.954 0 01.285-.232.629.629 0 01.292-.105c.08-.009.16.013.225.06a.501.501 0 01.15.24c.033.137.048.278.045.42v1.446a.307.307 0 010 .113.208.208 0 01-.06.075l-.24.134a.05.05 0 01-.033.013.051.051 0 01-.034-.013.116.116 0 010-.082v-.165a1.512 1.512 0 01-.195.36.99.99 0 01-.322.285.628.628 0 01-.248.09.269.269 0 01-.18-.06.32.32 0 01-.112-.173.831.831 0 01-.037-.285c-.001-.218.05-.434.149-.629.11-.191.252-.36.42-.502l.525-.435c0-.135 0-.217-.09-.24a.24.24 0 00-.21.045.34.34 0 00-.127.105.635.635 0 00-.083.142.55.55 0 01-.052.083l-.053.045-.3.172h-.052c-.015 0-.068-.03-.068-.067zm.54 1.079a.757.757 0 00.195-.157 1.02 1.02 0 00.225-.435.789.789 0 000-.217v-.053l-.435.375a.736.736 0 00-.187.21.42.42 0 00-.06.21c0 .065.022.102.067.112a.264.264 0 00.195-.045zm1.799-3.995a.061.061 0 01.06 0 .108.108 0 010 .075v.397a.265.265 0 010 .105.219.219 0 01-.06.075l-.277.158a.046.046 0 01-.06 0 .119.119 0 010-.083v-.382a.233.233 0 010-.105.125.125 0 01.06-.075l.277-.165zm.068 3.328a.265.265 0 010 .105c0 .037-.038.067-.06.075l-.248.142a.028.028 0 01-.013.011.033.033 0 01-.017.004.03.03 0 01-.016-.004.03.03 0 01-.014-.011.094.094 0 01-.007-.037c0-.013.002-.026.007-.038v-2.293a.307.307 0 010-.113.169.169 0 01.06-.075l.248-.134a.042.042 0 01.03-.012c.011 0 .021.004.03.012a.128.128 0 010 .082v2.286zm1.018-.607a.208.208 0 010 .105.152.152 0 01-.06.075l-.24.142a.061.061 0 01-.03.008.067.067 0 01-.03-.008.12.12 0 010-.075v-3.245a.37.37 0 010-.105.159.159 0 01.06-.075l.24-.143a.046.046 0 01.06 0 .084.084 0 01.008.038.077.077 0 01-.008.037v3.246zm2.998-2.713a1.697 1.697 0 01-.165.667c-.042.082-.092.16-.15.232a.619.619 0 01-.18.15.333.333 0 01-.116.062c-.042.013-.087.017-.131.013a.213.213 0 01-.135-.083.993.993 0 01-.052.135l-.075.128a.62.62 0 01-.113.127.698.698 0 01-.165.12.312.312 0 01-.217.06.33.33 0 01-.165-.112.823.823 0 01-.105-.255 1.967 1.967 0 01-.037-.39 2.421 2.421 0 01.135-.809c.041-.107.096-.208.165-.3a.639.639 0 01.209-.195c.09-.053.15-.068.195-.053.045.02.082.054.105.098v-.045a.307.307 0 010-.113s0-.06.068-.075l.165-.089a.04.04 0 01.03-.012c.011 0 .021.004.03.012a.128.128 0 010 .082v1.049a.185.185 0 00.052.15.1.1 0 00.112 0 .268.268 0 00.113-.127.744.744 0 00.052-.255v-.555a1.55 1.55 0 00-.075-.427.485.485 0 00-.172-.247.344.344 0 00-.126-.054.346.346 0 00-.136.001c-.138.03-.27.083-.39.158-.125.07-.236.161-.33.269a1.984 1.984 0 00-.255.375 2.12 2.12 0 00-.165.442 2.129 2.129 0 00-.082.66v.45a1.234 1.234 0 000 .172c.005.131.032.261.082.382a.565.565 0 00.165.248.44.44 0 00.255.082.81.81 0 00.33-.112l.232-.15.165-.15c.045-.048.088-.098.128-.15l.089-.142a.684.684 0 00.053-.09l.06-.045.24-.135a.042.042 0 01.03-.012c.011 0 .021.004.03.012a.115.115 0 01.008.041.115.115 0 01-.008.041.227.227 0 010 .09l-.15.3a2.63 2.63 0 01-.203.307c-.085.109-.18.21-.284.3a2.05 2.05 0 01-.39.278.868.868 0 01-.487.157.496.496 0 01-.353-.135.791.791 0 01-.232-.36 2.256 2.256 0 01-.105-.539v-.84a3.91 3.91 0 01.098-.645c.055-.217.133-.428.232-.629.095-.2.216-.387.36-.555a1.85 1.85 0 01.487-.42c.167-.107.357-.174.555-.194a.519.519 0 01.374.119.753.753 0 01.218.375c.048.182.079.367.09.555v.292c0 .113.037.218.037.308zm-1.499.659a.748.748 0 00.06.337c.045.068.097.075.172 0a.388.388 0 00.18-.232c.042-.131.063-.267.06-.405a.738.738 0 00-.06-.344c0-.068-.097-.083-.18-.038a.463.463 0 00-.172.24 1.298 1.298 0 00-.06.442zm2.444-2.383c.045-.118.105-.229.18-.33a.815.815 0 01.232-.202.39.39 0 01.33-.075.33.33 0 01.195.187c.03-.082.065-.162.105-.24a2.13 2.13 0 01.127-.21c.045-.06.098-.112.143-.165a.632.632 0 01.15-.105.427.427 0 01.299-.082.273.273 0 01.195.135c.06.093.098.198.113.307.008.142.008.285 0 .427v1.32a.301.301 0 010 .112.159.159 0 01-.06.075l-.24.142a.07.07 0 01-.068 0 .128.128 0 010-.082v-1.274a.675.675 0 00-.082-.42c-.052-.06-.135-.06-.232 0a.57.57 0 00-.218.255 1.158 1.158 0 00-.105.502v1.327a.301.301 0 010 .112.148.148 0 01-.06.075l-.239.135a.054.054 0 01-.068 0 .116.116 0 010-.082v-1.297a.69.69 0 00-.082-.42c-.053-.06-.135-.06-.233 0a.574.574 0 00-.225.262 1.243 1.243 0 00-.089.525v1.274a.357.357 0 010 .113.219.219 0 01-.06.075l-.248.135a.046.046 0 01-.06 0 .13.13 0 010-.083V202.4a.307.307 0 010-.113.335.335 0 01.06-.075l.248-.135a.044.044 0 01.03-.011c.011 0 .021.004.03.011a.13.13 0 010 .083l-.068.105zm2.684-1.17a1.38 1.38 0 01.052-.254 1.728 1.728 0 01.345-.585c.083-.092.179-.17.285-.232a.807.807 0 01.292-.105.287.287 0 01.225.067.44.44 0 01.15.24c.036.134.054.273.052.412v1.447a.194.194 0 010 .112.148.148 0 01-.06.075l-.239.135a.05.05 0 01-.03.012.047.047 0 01-.03-.012.086.086 0 01-.01-.041.08.08 0 01.01-.041v-.12a1.277 1.277 0 01-.195.352.922.922 0 01-.323.285.528.528 0 01-.239.09.306.306 0 01-.188-.053.525.525 0 01-.112-.18.83.83 0 01-.038-.284 1.234 1.234 0 01.158-.623c.105-.193.248-.364.419-.502l.518-.442c0-.135 0-.21-.083-.24a.244.244 0 00-.217.045.464.464 0 00-.128.105 1.26 1.26 0 00-.082.143.546.546 0 01-.053.082.142.142 0 01-.052.045l-.3.172a.041.041 0 01-.026.009.041.041 0 01-.026-.009.082.082 0 01-.038-.006.075.075 0 01-.043-.061.071.071 0 01.006-.038zm.532 1.087a.98.98 0 00.337-.367.869.869 0 00.083-.232.796.796 0 000-.218v-.045l-.435.368a.733.733 0 00-.187.209.422.422 0 00-.06.21c0 .075 0 .113.067.12.066.01.133.003.195-.022v-.023zm1.835-3.995a.046.046 0 01.06 0 .13.13 0 010 .083v.382a.301.301 0 010 .112.19.19 0 01-.06.075l-.277.158a.061.061 0 01-.06 0 .108.108 0 010-.075v-.39a.309.309 0 010-.105.159.159 0 01.06-.075l.277-.165zm.068 3.321a.301.301 0 010 .112.159.159 0 01-.06.075l-.248.135a.044.044 0 01-.03.011.044.044 0 01-.029-.011.119.119 0 010-.083v-2.293a.233.233 0 010-.105.123.123 0 01.059-.075l.248-.142a.042.042 0 01.03-.012c.011 0 .022.004.03.012a.143.143 0 010 .082v2.294zm.982-.585a.265.265 0 010 .105.17.17 0 01-.068.075l-.239.142a.03.03 0 01-.014.011.032.032 0 01-.016.004.033.033 0 01-.017-.004.028.028 0 01-.013-.011.095.095 0 01-.008-.037.1.1 0 01.008-.038v-3.238a.301.301 0 010-.112.148.148 0 01.06-.075l.239-.135a.054.054 0 01.068 0c.01.027.01.056 0 .082v3.231zm.945-1.162a.054.054 0 01.068 0c.01.027.01.056 0 .083v.479a.307.307 0 010 .113s-.038.06-.068.075l-.292.165a.046.046 0 01-.06 0 .1.1 0 01-.01-.042c0-.014.004-.028.01-.041v-.48a.168.168 0 010-.104.128.128 0 01.06-.075l.292-.173zm1.004-1.304a1.234 1.234 0 000 .172 1.249 1.249 0 000 .173.837.837 0 00.045.232c.017.05.049.095.09.128a.198.198 0 00.113 0 .516.516 0 00.269-.143.326.326 0 00.09-.112l.068-.12c.02-.044.037-.089.052-.135l.045-.113a.154.154 0 01.06-.082l.24-.142a.07.07 0 01.068 0 .116.116 0 01.007.037.122.122 0 01-.007.038 1.305 1.305 0 01-.053.284 1.644 1.644 0 01-.135.36 1.785 1.785 0 01-.24.367c-.099.12-.218.221-.352.3a.558.558 0 01-.315.09.37.37 0 01-.247-.105.598.598 0 01-.165-.262 1.854 1.854 0 01-.075-.39v-.397c.007-.162.032-.323.075-.48.039-.157.094-.311.165-.457.065-.136.145-.265.24-.382.088-.112.198-.207.322-.278a.745.745 0 01.352-.112.404.404 0 01.24.09.51.51 0 01.135.202c.03.072.048.148.053.225a.307.307 0 010 .113s-.038.06-.068.075l-.24.134a.037.037 0 01-.013.012.05.05 0 01-.034 0 .049.049 0 01-.013-.012l-.045-.059a.304.304 0 00-.052-.075.172.172 0 00-.068-.045.117.117 0 00-.09 0 .494.494 0 00-.135.06.542.542 0 00-.134.104 1.017 1.017 0 00-.203.39c-.025.104-.04.209-.045.315zm2.391-2.518a.609.609 0 01.315-.098.36.36 0 01.247.09.592.592 0 01.165.247c.047.123.073.252.075.383v.494a2.52 2.52 0 01-.075.473 2.808 2.808 0 01-.165.434 1.603 1.603 0 01-.562.637.58.58 0 01-.322.098.351.351 0 01-.248-.083.68.68 0 01-.165-.247 1.77 1.77 0 01-.075-.382v-.495c.006-.157.032-.313.075-.465.042-.152.097-.3.165-.442.065-.136.148-.262.248-.375.091-.108.2-.199.322-.269zm.382.884a.72.72 0 00-.045-.225.184.184 0 00-.09-.105.166.166 0 00-.12 0 .394.394 0 00-.127.053l-.135.097a.644.644 0 00-.12.15.858.858 0 00-.09.217c-.025.091-.04.184-.045.278v.442a.782.782 0 00.045.225.23.23 0 00.09.112.166.166 0 00.12 0 .333.333 0 00.135-.052l.127-.098a.6.6 0 00.12-.15.719.719 0 00.09-.209c.025-.094.04-.189.045-.285v-.315c.008-.075 0-.105 0-.135zm1.365-1.596c.044-.116.105-.224.18-.323a.752.752 0 01.232-.21.432.432 0 01.33-.075.379.379 0 01.202.188c.025-.083.057-.163.097-.24.039-.071.084-.139.135-.202a.755.755 0 01.143-.165.672.672 0 01.142-.113.466.466 0 01.3-.082.303.303 0 01.202.135.955.955 0 01.105.307 3.38 3.38 0 010 .427v1.334c.01.035.01.071 0 .105a.148.148 0 01-.06.075l-.239.143a.048.048 0 01-.03.011.044.044 0 01-.03-.011.085.085 0 01-.009-.038c0-.013.003-.026.009-.037v-1.304a.682.682 0 00-.083-.42c-.052-.06-.135-.053-.232 0a.57.57 0 00-.218.255 1.17 1.17 0 00-.097.509v1.32c.01.036.01.075 0 .112a.159.159 0 01-.06.075l-.24.142a.052.052 0 01-.03.008.054.054 0 01-.03-.008.095.095 0 01-.01-.041c0-.014.004-.028.01-.041v-1.297c0-.225 0-.367-.082-.42-.083-.052-.135-.06-.233 0a.603.603 0 00-.224.263 1.221 1.221 0 00-.09.524v1.297a.357.357 0 010 .113.169.169 0 01-.06.075l-.24.134a.042.042 0 01-.03.012.042.042 0 01-.03-.012.08.08 0 01-.01-.041c0-.014.003-.028.01-.041v-2.294a.171.171 0 010-.105.126.126 0 01.06-.074l.24-.143a.046.046 0 01.06 0 .147.147 0 010 .083l-.09.09z" fill="#455A64"/><path d="M160.869 184.965a.8.8 0 01.345-.12.566.566 0 01.277.06c.076.045.138.11.18.188.037.083.06.171.067.262a.147.147 0 010 .083s0 .045-.044.052l-.383.225h-.12a.1.1 0 00-.052-.038.195.195 0 00-.09 0 .532.532 0 00-.232.128.307.307 0 00-.09.082.335.335 0 00-.068.113.339.339 0 000 .127.181.181 0 000 .098.181.181 0 00.098 0 .551.551 0 00.172 0l.27-.068a.808.808 0 01.285-.037.342.342 0 01.202.075c.06.053.102.124.12.202.033.112.048.228.045.345.001.155-.024.31-.075.457a1.903 1.903 0 01-.187.42 1.925 1.925 0 01-.653.644.89.89 0 01-.367.128.512.512 0 01-.285-.053.515.515 0 01-.187-.195.618.618 0 01-.067-.299.384.384 0 010-.083.16.16 0 01.045-.052l.389-.225h.113a.242.242 0 00.067.052h.098a.359.359 0 00.149-.052 1.04 1.04 0 00.263-.203.368.368 0 00.105-.247.104.104 0 000-.097.19.19 0 00-.12 0l-.195.037-.277.075a.445.445 0 01-.45-.082.826.826 0 01-.135-.54 1.536 1.536 0 01.052-.405 2.19 2.19 0 01.173-.412c.071-.133.159-.257.262-.367.087-.106.188-.199.3-.278zm3.058-1.693a.053.053 0 01.03-.009c.011 0 .021.003.03.009a.086.086 0 010 .067v1.814a2.566 2.566 0 01-.247 1.102c-.08.147-.176.285-.285.412-.106.116-.23.215-.367.292a.915.915 0 01-.36.128.406.406 0 01-.285-.083.623.623 0 01-.187-.3 1.92 1.92 0 01-.06-.517v-1.806a.207.207 0 01.018-.095.207.207 0 01.057-.078l.389-.224a.044.044 0 01.053 0 .09.09 0 01.007.037.099.099 0 01-.007.038v1.791a.594.594 0 00.082.375c.06.067.15.067.263 0a.6.6 0 00.262-.308c.063-.149.093-.31.09-.472v-1.799a.264.264 0 010-.097.178.178 0 01.06-.068l.457-.209zm3.635-2.144a.857.857 0 01.345-.113.464.464 0 01.449.248.51.51 0 01.068.262.384.384 0 010 .083.109.109 0 01-.045.052l-.39.225a.073.073 0 01-.03.007.082.082 0 01-.03-.007.075.075 0 01-.026.005.075.075 0 01-.026-.005h-.053a.117.117 0 00-.09 0 .233.233 0 00-.127.045l-.113.075-.089.09a.42.42 0 00-.06.105.258.258 0 000 .135.097.097 0 00.003.048c.006.016.014.03.026.042.012.012.026.02.042.026a.097.097 0 00.048.003h.18l.27-.074a.972.972 0 01.285 0 .336.336 0 01.202.074.444.444 0 01.12.203c.027.113.039.229.038.345 0 .152-.022.304-.068.449-.042.148-.105.29-.187.42a1.76 1.76 0 01-.292.367 1.794 1.794 0 01-.36.278.803.803 0 01-.367.127.499.499 0 01-.285-.045.477.477 0 01-.188-.195.755.755 0 01-.075-.3.189.189 0 010-.082.104.104 0 01.045-.052l.383-.225h.112l.038.037.06.045c.034.009.07.009.104 0a.419.419 0 00.15-.06.98.98 0 00.255-.202.327.327 0 00.078-.113.33.33 0 00.027-.135c0-.045 0-.075-.037-.09a.169.169 0 00-.113 0 .765.765 0 00-.195.038l-.284.067a.412.412 0 01-.443-.075.84.84 0 01-.142-.547c.003-.137.023-.273.06-.404.04-.141.096-.276.165-.405a2.15 2.15 0 01.262-.367 1.59 1.59 0 01.3-.405zm1.837.195v.749a1.474 1.474 0 000 .188.296.296 0 00.068.127.118.118 0 00.112.052.286.286 0 00.165-.052.582.582 0 00.165-.135.758.758 0 00.172-.3v-.135a.801.801 0 010-.12.152.152 0 01.068-.067l.389-.225h.045c.005.01.007.02.007.03 0 .01-.002.021-.007.03a2.23 2.23 0 01-.074.48 2.63 2.63 0 01-.195.465c-.08.146-.179.282-.293.404-.103.118-.225.22-.359.3a.758.758 0 01-.383.12.497.497 0 01-.285-.097.695.695 0 01-.179-.293 1.49 1.49 0 01-.068-.434v-.803c0-.174.023-.348.068-.517.044-.17.104-.336.179-.494.079-.155.175-.301.285-.435a1.51 1.51 0 01.383-.315.806.806 0 01.359-.12.473.473 0 01.293.068.558.558 0 01.195.247c.047.125.072.256.074.39a.163.163 0 010 .082.101.101 0 01-.045.053l-.389.225a.067.067 0 01-.034.01.067.067 0 01-.034-.01.339.339 0 010-.09.535.535 0 000-.098.168.168 0 00-.067-.075.158.158 0 00-.105 0 .374.374 0 00-.165.06.438.438 0 00-.165.143.442.442 0 00-.112.179.915.915 0 00-.068.203c-.003.07-.003.14 0 .21zm2.623-2.721c.106-.066.223-.112.345-.135a.361.361 0 01.135-.008.357.357 0 01.127.045c.08.053.138.133.165.225.043.139.063.283.06.427.003.211-.028.421-.09.623-.06.175-.149.34-.262.487l.367.869a.119.119 0 010 .053.137.137 0 01-.016.11.116.116 0 01-.029.025l-.397.232h-.083a.336.336 0 01-.045-.06l-.322-.75-.27.15v.975a.16.16 0 010 .097s0 .06-.052.068l-.39.225h-.053a.12.12 0 010-.075v-2.931a.269.269 0 010-.098.152.152 0 01.053-.074l.757-.48zm-.307 1.566l.329-.195a.606.606 0 00.203-.187.572.572 0 00.082-.315c0-.12 0-.195-.082-.21a.228.228 0 00-.203.045l-.329.188v.674zm1.702.802a.044.044 0 01-.053 0 .133.133 0 010-.074v-2.931a.265.265 0 010-.105.16.16 0 01.053-.068l.389-.217h.053a.099.099 0 01.007.038.097.097 0 01-.007.037v2.931a.227.227 0 010 .097c0 .038 0 .06-.053.068l-.389.224zm1.109-.637a.056.056 0 01-.03.008.052.052 0 01-.03-.008.087.087 0 010-.067v-2.931a.233.233 0 010-.105.168.168 0 01.06-.067l.944-.547a.632.632 0 01.337-.105.285.285 0 01.218.09.508.508 0 01.112.239c.012.105.012.211 0 .315.008.08.008.16 0 .24a.727.727 0 01-.045.195 1.716 1.716 0 01-.052.142l-.045.098a.309.309 0 01.157.187c.037.117.054.238.052.36.012.127.012.255 0 .382a1.652 1.652 0 01-.119.383 1.266 1.266 0 01-.21.344 1.354 1.354 0 01-.315.27l-1.034.577zm1.101-2.848a.222.222 0 00-.045-.165h-.135l-.457.262v.518l.457-.263a.322.322 0 00.135-.15.465.465 0 00.045-.217v.015zm-.637 1.874l.487-.277a.393.393 0 00.143-.165.626.626 0 00.052-.225.217.217 0 00-.052-.165c-.038-.038-.083-.038-.143 0l-.487.277v.555zm3.179-1.889a.047.047 0 01.026-.008.05.05 0 01.026.008.1.1 0 01.008.038.099.099 0 01-.008.037v.48a.227.227 0 010 .097c0 .038 0 .06-.052.068l-1.402.809a.043.043 0 01-.026.009.04.04 0 01-.026-.009.086.086 0 010-.067v-2.931a.206.206 0 01.075-.172l1.379-.795a.047.047 0 01.026-.008.05.05 0 01.026.008.1.1 0 01.008.038.099.099 0 01-.008.037v.48a.227.227 0 010 .097.166.166 0 01-.052.068l-.915.524v.495l.847-.487h.053a.078.078 0 01.009.037.085.085 0 01-.009.038v.479a.181.181 0 010 .098s0 .06-.053.067l-.847.488v.509l.915-.532z" fill="#fff"/><path d="M292.314 95.674l-17.014 9.841v49.072a22.785 22.785 0 01-11.341 19.69v-49.139l-11.348-6.544-17.014 9.819v49.117a18.737 18.737 0 009.384 16.317c1.941 1.14 9.504 5.487 11.43 6.604a18.745 18.745 0 0018.881 0 56.713 56.713 0 0028.34-49.117v-49.11l-11.318-6.55z" fill="#6ADF91"/><path d="M246.944 134.964v49.117a18.904 18.904 0 0028.348 16.37 56.713 56.713 0 0028.34-49.117v-49.11l-17.015 9.819v49.072a22.786 22.786 0 01-11.378 19.713 7.536 7.536 0 01-10.291-2.762 7.536 7.536 0 01-1.012-3.766v-49.162l-16.992 9.826z" fill="#6ADF91"/><path opacity=".15" d="M303.632 102.224l-17.015 9.819v49.072a22.755 22.755 0 01-11.377 19.713 7.5 7.5 0 01-7.563.04 7.497 7.497 0 01-3.748-6.568v-.053a22.74 22.74 0 0011.348-19.683v-49.049l17.007-9.826 11.348 6.535zm-47.648 97.979a3646.286 3646.286 0 01-11.003-6.356 18.737 18.737 0 01-9.384-16.317v-49.117l17.022-9.819 11.333 6.551-17.007 9.819v49.117a18.733 18.733 0 009.039 16.122z" fill="#000"/><path d="M275.299 105.492l11.34 6.551 17.015-9.819-11.348-6.55-17.007 9.818zm-22.658 13.102l11.34 6.551-17.036 9.819-11.348-6.551 17.044-9.819z" fill="#455A64"/><path d="M286.64 112.043v13.095l17.014-9.819v-13.095l-17.014 9.819z" fill="#37474F"/><path d="M275.299 105.492l11.34 6.551v13.095l-11.34-6.544v-13.102z" fill="#263238"/><path d="M246.944 134.964v13.094l17.007-9.819v-13.094l-17.007 9.819z" fill="#37474F"/><path d="M235.597 128.413l11.348 6.551v13.132l-11.348-6.551v-13.132z" fill="#263238"/><path d="M284.444 41.805a9.052 9.052 0 00-3.703-4.775c-.337-.202-4.722-2.728-5.696-3.29a6.602 6.602 0 00-1.042-.488c-2.099-.75-4.62-.277-7.563 1.417a31.737 31.737 0 00-11.13 11.018 54.365 54.365 0 00-6.514 15.35 62.971 62.971 0 00-2.091 15.553c0 5.397.662 9.557 1.986 12.48a9.627 9.627 0 003.651 4.535c.509.3 4.759 2.736 5.674 3.275.5.3 1.044.522 1.611.66 2.189.54 4.582.06 7.181-1.44a22.893 22.893 0 005.359-4.549 30.273 30.273 0 004.737-7.053l-1.919-3.718-4.812-1.619a28.47 28.47 0 002.316-4.497 3.791 3.791 0 001.694 2.579 2.61 2.61 0 002.653-.225c1.799-1.035 3.401-2.841 4.805-5.42a35.022 35.022 0 003.268-8.994 47.024 47.024 0 001.162-10.306 28.796 28.796 0 00-1.627-10.493zM266.725 62.94l-.21 2.826a6.396 6.396 0 01-1.656 3.98 18.08 18.08 0 01.547-3.365 16.68 16.68 0 011.319-3.433v-.008zm-4.864 22.906a9.984 9.984 0 01-3.471 1.297c-.082-.173-.172-.33-.247-.51a19.092 19.092 0 01-1.349-6.34c.165.104 4.977 2.885 5.801 3.357a2.5 2.5 0 00.382.187 3 3 0 001.267.203 13.906 13.906 0 01-2.383 1.814v-.008zm10.875-40.032l-4.579 2.645-.398 2.249-1.978-1.147a22.82 22.82 0 015.621-4.587 10.49 10.49 0 013.186-1.282c.082.188.165.375.24.57.399 1.058.683 2.156.847 3.276l-2.939-1.724z" fill="#6ADF91"/><path d="M277.144 65.94c0 .262-.037.614-.037 1.056 0 1.417.322 1.942.959 1.574a5.162 5.162 0 001.694-2.466 23.542 23.542 0 001.387-4.954c.366-2.089.544-4.206.532-6.326a20.306 20.306 0 00-1.124-7.285c-.755-1.944-1.896-3.194-3.426-3.748-1.529-.555-3.437-.16-5.726 1.184a23.323 23.323 0 00-8.867 9.272 44.317 44.317 0 00-4.565 12.217 53.773 53.773 0 00-1.281 10.681c0 4.172.484 7.338 1.454 9.497.969 2.158 2.268 3.407 3.897 3.747 1.624.335 3.453-.082 5.487-1.251a15.869 15.869 0 003.83-3.276 33.665 33.665 0 003.628-5.044l1.919 3.695a30.3 30.3 0 01-4.737 7.053 22.876 22.876 0 01-5.36 4.55c-2.593 1.499-4.986 1.978-7.18 1.439-2.194-.54-3.943-2.271-5.247-5.195-1.319-2.923-1.979-7.082-1.979-12.48.033-5.262.726-10.5 2.062-15.59a54.598 54.598 0 016.513-15.35 31.76 31.76 0 0111.176-10.988c2.9-1.694 5.426-2.144 7.495-1.394 2.069.75 3.695 2.518 4.774 5.246a28.797 28.797 0 011.627 10.494 47.023 47.023 0 01-1.154 10.381 35.02 35.02 0 01-3.268 8.994c-1.404 2.579-3.006 4.385-4.805 5.42a2.608 2.608 0 01-2.653.224 3.803 3.803 0 01-1.694-2.578 28.608 28.608 0 01-2.751 5.18 10.863 10.863 0 01-3.335 3.44 3.865 3.865 0 01-3.426.517c-1.004-.39-1.791-1.35-2.376-2.878a17.786 17.786 0 01-.869-6.132 36.596 36.596 0 011.094-8.957 27.647 27.647 0 013.096-7.615 13.134 13.134 0 014.497-4.744c1.342-.75 2.361-.997 3.043-.667a4.376 4.376 0 011.814 2.053l.547-3.17 4.587-2.646-1.252 16.82zm-6.618 7.105a19.587 19.587 0 001.657-3.995c.551-2.224.723-4.525.509-6.806a3.44 3.44 0 00-1.177-2.45c-.607-.42-1.364-.368-2.248.157a6.547 6.547 0 00-2.249 2.45 15.95 15.95 0 00-1.611 3.988 17.352 17.352 0 00-.577 4.355c0 1.859.322 3.238.974 4.115a1.699 1.699 0 001.158.779 1.708 1.708 0 001.353-.344 6.068 6.068 0 002.211-2.249z" fill="#6ADF91"/><path opacity=".4" d="M268.157 48.468l5.667 3.275 4.587-2.646-5.674-3.275-4.58 2.646z" fill="#000"/><path opacity=".5" d="M267.76 50.731l3.92 2.25a4.838 4.838 0 011.596 1.933l.547-3.17-5.666-3.276-.397 2.263zm-7.158 30.237a17.718 17.718 0 01-.877-6.132 36.658 36.658 0 011.102-8.994c.287-1.151.64-2.285 1.056-3.395l-2.413-1.394a40.356 40.356 0 00-1.499 5.374 53.407 53.407 0 00-1.289 10.68 45 45 0 00.105 3.134l5.786 3.358a5.047 5.047 0 01-1.971-2.631z" fill="#000"/><path opacity=".4" d="M265.78 49.585a25.385 25.385 0 00-3.246 4.662 48.278 48.278 0 00-3.065 6.836l2.413 1.394a25.065 25.065 0 012.024-4.183 13.012 13.012 0 014.497-4.744c1.349-.75 2.361-.997 3.043-.667l-5.666-3.298z" fill="#000"/><path opacity=".6" d="M272.692 62.244c.196 2.282.024 4.58-.51 6.806a18.966 18.966 0 01-1.664 4.003 6.101 6.101 0 01-2.204 2.248 1.706 1.706 0 01-1.353.338 1.722 1.722 0 01-1.158-.78c-.652-.877-.974-2.249-.974-4.122v-.99c.75-.75 1.409-1.866 1.657-3.972l.209-2.826c.083-.172.18-.352.278-.517a6.496 6.496 0 012.248-2.451c.907-.525 1.664-.577 2.249-.15a3.42 3.42 0 011.222 2.413z" fill="#000"/><path opacity=".4" d="M280.441 36.865a7.01 7.01 0 00-.749-.33c-2.091-.75-4.61-.277-7.556 1.417a31.724 31.724 0 00-11.138 11.026 54.084 54.084 0 00-4.909 10.14l-5.674-3.275a54.885 54.885 0 014.924-10.14 31.766 31.766 0 0111.131-11.027c2.943-1.694 5.464-2.166 7.563-1.416.359.134.707.294 1.042.48.824.502 4.279 2.495 5.366 3.125z" fill="#fff"/><path opacity=".5" d="M274.985 80.78a33.526 33.526 0 01-3.627 5.052 15.633 15.633 0 01-3.823 3.268c-2.029 1.174-3.86 1.594-5.494 1.26-1.499-.308-2.713-1.38-3.65-3.231a9.986 9.986 0 003.47-1.297 14 14 0 002.384-1.814 4.663 4.663 0 002.158-.712 10.74 10.74 0 003.336-3.448l.449-.69 4.797 1.612z" fill="#000"/><path opacity=".15" d="M257.806 96.76l-5.472-3.148a9.627 9.627 0 01-3.643-4.534c-1.324-2.924-1.986-7.081-1.986-12.473a63.367 63.367 0 012.084-15.56 57.384 57.384 0 011.596-5.202l5.682 3.276a57.107 57.107 0 00-1.604 5.201 62.92 62.92 0 00-2.084 15.553c0 5.387.66 9.547 1.979 12.48a9.863 9.863 0 003.448 4.407z" fill="#000"/><path opacity=".6" d="M281.656 54.824a36.25 36.25 0 01-.532 6.326c-.27 1.698-.73 3.36-1.372 4.954a5.112 5.112 0 01-1.686 2.466c-.645.368-.959-.157-.959-1.574-.007-.35.006-.7.037-1.049l.105-1.432 1.162-15.418-2.706-1.559a15.7 15.7 0 00-.847-3.275 12.431 12.431 0 00-.24-.57 4.815 4.815 0 012.489.135c1.529.54 2.67 1.79 3.425 3.748a20.51 20.51 0 011.124 7.248z" fill="#000"/><path d="M33.792 102.779l33.107-10.291-25.47 17.644-7.637-7.353zm33.106-10.291l-35.655 5.876-7.637-7.345 43.292 1.469z" fill="#6ADF91"/><path d="M31.243 98.364v8.822l2.549-4.407 33.106-10.291-35.655 5.876z" fill="#6ADF91"/><path opacity=".25" d="M31.243 98.364v8.822l2.549-4.407 33.106-10.291-35.655 5.876z" fill="#000"/><path d="M31.243 107.186l5.097-1.956-2.548-2.451-2.549 4.407z" fill="#6ADF91"/><path opacity=".25" d="M33.792 102.779l2.548 2.451-.817.307-1.731-2.758z" fill="#000"/><path d="M25.435 106.13a.569.569 0 01-.54-.419.562.562 0 01.263-.631 31.226 31.226 0 012.023-1.064.549.549 0 01.621.091c.055.05.098.111.129.179a.562.562 0 01-.262.749c-.652.308-1.305.652-1.957 1.02a.54.54 0 01-.277.075zm-6.379 49.769a.527.527 0 01-.345-.12 24.867 24.867 0 01-3.44-3.201.569.569 0 01.46-.937.551.551 0 01.388.188 23.934 23.934 0 003.274 3.065.564.564 0 01-.014.896.56.56 0 01-.323.109zm-5.674-6.162a.56.56 0 01-.472-.254 26.704 26.704 0 01-2.189-4.153.547.547 0 01.3-.749.55.55 0 01.438-.009.563.563 0 01.312.308 26.04 26.04 0 002.098 3.98.556.556 0 01-.172.75.484.484 0 01-.315.127zm-3.395-7.682a.558.558 0 01-.54-.42 31.896 31.896 0 01-.892-4.64.562.562 0 01.495-.622.554.554 0 01.622.487c.187 1.504.485 2.993.892 4.453a.568.568 0 01-.397.689.522.522 0 01-.18.023v.03zm-1.094-8.905h-.578c0-1.561.103-3.121.308-4.669a.559.559 0 01.417-.468.544.544 0 01.22-.012.548.548 0 01.372.214.561.561 0 01.108.416 33.265 33.265 0 00-.3 4.497l-.547.022zm1.064-7.787a.538.538 0 01-.15 0 .55.55 0 01-.39-.682A28.936 28.936 0 0111 120.266a.562.562 0 01.745-.281.56.56 0 01.282.745 28.362 28.362 0 00-1.5 4.243.566.566 0 01-.57.36v.03zm3.358-7.706a.526.526 0 01-.292-.09.553.553 0 01-.188-.749 32.226 32.226 0 012.758-3.748.57.57 0 01.995.338.57.57 0 01-.14.412 30.735 30.735 0 00-2.654 3.65.568.568 0 01-.48.157v.03zm5.344-6.498a.56.56 0 01-.548-.687.556.556 0 01.166-.287 36.39 36.39 0 013.605-2.999.565.565 0 01.763.146.564.564 0 01-.11.769 35.849 35.849 0 00-3.494 2.878.548.548 0 01-.382.15v.03zm5.629 47.865a.616.616 0 01-.232-.045 26.422 26.422 0 01-2.054-1.034.566.566 0 01-.207-.759.562.562 0 01.754-.223c.637.352 1.297.689 1.964.989a.565.565 0 01.285.75.553.553 0 01-.51.322z" fill="#E0E0E0"/><path d="M300.933 77.79l26.518-16.977 11.678 3.747-38.196 13.23zm0 0l22.92-19.114-5.096-5.876-17.824 24.99z" fill="#6ADF91"/><path d="M323.853 58.677v4.437l-22.92 14.676 22.92-19.113z" fill="#6ADF91"/><path opacity=".25" d="M323.853 58.677v4.437l-22.92 14.676 22.92-19.113z" fill="#000"/><path d="M327.669 58.294a.562.562 0 01-.383-.974 20.06 20.06 0 002.167-2.361.561.561 0 01.892.682 20.72 20.72 0 01-2.294 2.503.57.57 0 01-.382.15zm4.22-5.599a.628.628 0 01-.255-.06.564.564 0 01-.248-.75 18.655 18.655 0 001.477-4.084.576.576 0 01.682-.42.552.552 0 01.348.255.567.567 0 01.064.427 19.888 19.888 0 01-1.574 4.34.559.559 0 01-.494.307v-.015zm2.046-7.892a.564.564 0 01-.54-.592v-.907a20.747 20.747 0 00-.292-3.448.56.56 0 01.878-.554.568.568 0 01.231.366c.203 1.202.306 2.418.307 3.636v.959a.567.567 0 01-.584.54zm-1.207-8.11a.562.562 0 01-.532-.375 24.092 24.092 0 00-1.814-3.995.572.572 0 01.016-.65.573.573 0 01.391-.223.559.559 0 01.567.318 25.396 25.396 0 011.904 4.183.554.554 0 01-.011.452.57.57 0 01-.341.297.503.503 0 01-.18-.022v.015zm-3.935-7.196a.556.556 0 01-.45-.225 29.392 29.392 0 00-2.975-3.283.56.56 0 01.397-.959.56.56 0 01.397.165 29.66 29.66 0 013.073 3.395.564.564 0 01-.105.75.53.53 0 01-.337.142v.015zm-5.876-5.756a.571.571 0 01-.338-.113 35.621 35.621 0 00-3.687-2.436.568.568 0 01-.21-.75.56.56 0 01.749-.201 36.175 36.175 0 013.8 2.51.563.563 0 01.113.75.558.558 0 01-.427.225v.015zm-58.906-2.174a.562.562 0 01-.285-1.05 56.985 56.985 0 014.025-2.105.564.564 0 01.48 1.019 53.038 53.038 0 00-3.943 2.061.533.533 0 01-.277.075zm51.845-2.054a.533.533 0 01-.24-.052 51.665 51.665 0 00-4.085-1.769.556.556 0 01-.311-.297.566.566 0 01-.011-.43.566.566 0 01.511-.36.563.563 0 01.216.038 56.573 56.573 0 014.167 1.799.565.565 0 01.311.636.56.56 0 01-.558.435zm-44.425-1.499a.558.558 0 01-.517-.352.578.578 0 01-.047-.22.567.567 0 01.362-.529 69.136 69.136 0 014.295-1.5.557.557 0 01.639.155.567.567 0 01.055.655.558.558 0 01-.372.262 54.63 54.63 0 00-4.205 1.454.515.515 0 01-.24.045l.03.03zm36.727-1.499h-.165a52.45 52.45 0 00-4.302-1.117.57.57 0 01-.354-.246.562.562 0 01.594-.855c1.499.322 2.953.704 4.392 1.146a.564.564 0 01.376.617.564.564 0 01-.541.478v-.023zm-28.857-.944a.563.563 0 01-.12-1.11 55.09 55.09 0 014.46-.839.562.562 0 11.165 1.11 54.417 54.417 0 00-4.377.824.355.355 0 01-.128.015zm20.852-.862h-.082a58.264 58.264 0 00-4.422-.465.564.564 0 01.067-1.124c1.499.105 2.998.262 4.497.48a.563.563 0 01-.082 1.116l.022-.007zm-12.742-.397a.563.563 0 01-.045-1.125 57.384 57.384 0 014.542-.187.561.561 0 110 1.124c-1.499 0-2.998.06-4.444.188h-.053z" fill="#E0E0E0"/><path opacity=".25" d="M175.731 321.635l.135.045c.156.034.314.059.472.075h.495v-5.194a3.693 3.693 0 01-1.821-.435l-59.835-34.553a2.31 2.31 0 01-1.177-2.166v5.321a2.342 2.342 0 001.177 2.054l.951.547 58.884 34.052c.13.078.269.143.412.194.101.028.204.048.307.06z" fill="#000"/><path opacity=".15" d="M272.152 266.77a1.212 1.212 0 01-.176.515 1.21 1.21 0 01-.386.384l-.075.045-.113.075-11.752 6.783-81.01 46.808a3.742 3.742 0 01-1.731.428h-.06v-5.195c.622 0 1.236-.146 1.791-.427l92.89-53.636.075-.045a1.213 1.213 0 00.562-.9c-.015.293-.015 5.06-.015 5.165z" fill="#000"/><path opacity=".4" d="M272.152 261.576a1.198 1.198 0 01-.562.899l-.075.045-11.872 6.858-49.072 28.34-31.931 18.416a3.988 3.988 0 01-3.612 0l-1.027-.592-45.849-26.473-11.993-6.933-.952-.548a2.332 2.332 0 01-1.176-2.136v-.045a2.307 2.307 0 01.899-1.739l9.654-5.569 75.778-43.75 4.362-2.518a6.608 6.608 0 012.953-.87h.053a6.747 6.747 0 013.493.825l.12.06 60.06 34.651.075.044.075.045c.187.124.34.295.442.495a.484.484 0 01.06.128.402.402 0 010 .12.222.222 0 010 .089.371.371 0 01.097.158z" fill="#000"/><path d="M272.152 261.575a1.202 1.202 0 01-.562.9l-.075.045-11.872 6.858-49.072 28.34-31.931 18.416a3.99 3.99 0 01-3.612 0l-1.027-.592-45.849-26.474-11.993-6.933-.952-.547a2.342 2.342 0 01-1.176-2.136v-.045a6.227 6.227 0 011.094-.188l10.756-1.072 55.803-5.554 8.709-.869c1.919-.195 3.635-.892 3.823-1.552l1.746-5.831 10.898-36.487.817-2.714v-.037c.021-.059.046-.117.075-.172a6.741 6.741 0 013.493.824l.12.06 2.608 1.499 57.43 33.182.075.045.075.045c.187.124.34.294.442.495a.493.493 0 01.06.127c.006.04.006.08 0 .12.006.03.006.06 0 .09a.362.362 0 01.097.157z" fill="#6ADF91"/><path opacity=".25" d="M271.401 262.595l.105-.075.075-.038a1.088 1.088 0 00-.157-1.971l-75.516 3.823 63.711 5.044 11.782-6.783zm-96.389 53.539a3.757 3.757 0 001.882.435 3.666 3.666 0 001.731-.428l31.945-18.438-28.924-25.117-7.683 42.978 1.049.57z" fill="#000"/><path d="M272.151 261.583a1.229 1.229 0 01-.562.899l-.075.038-92.874 53.614a3.655 3.655 0 01-1.732.427l5.247-48.285c.217-2.001 4.812-3.65 10.778-3.868l79.218-2.825z" fill="#6ADF91"/><path opacity=".25" d="M207.728 224.916l-.299 2.885-3.793 36.143v.105l-.097.884-.817 7.855c-.21 2.002-4.805 3.65-10.786 3.868l-5.367.195-5.381.195h-.323l-54.821 1.978-12.037.435v-.052a2.315 2.315 0 01.899-1.739l9.654-5.569 75.793-43.751 4.347-2.518a6.624 6.624 0 012.954-.87l.074-.044z" fill="#000"/><path d="M207.692 224.923v.202l-.45 2.691-5.951 36.255v.067l-.098.607-1.094 6.671c-.307 1.889-4.497 3.448-10.074 3.748l-5.014.277-3.628.203h-.225l-55.165 3.103-11.993.674a2.325 2.325 0 01.899-1.739l9.654-5.569 75.793-43.75 4.348-2.518a6.595 6.595 0 012.998-.922z" fill="#6ADF91"/></svg>