<svg width="48" height="48" fill="none" xmlns="http://www.w3.org/2000/svg"><path fill-rule="evenodd" clip-rule="evenodd" d="M14.229 7.753a.753.753 0 111.506 0v2h7.443v-2a.753.753 0 111.506 0v2h7.512v-2a.753.753 0 011.507 0v2h2.413A4.89 4.89 0 0141 14.638v14.595a.753.753 0 11-1.506 0V14.637a3.38 3.38 0 00-3.378-3.377h-2.413v2a.753.753 0 11-1.507 0v-2h-7.512v2a.753.753 0 11-1.506 0v-2h-7.443v2a.753.753 0 11-1.506 0v-2h-2.345a3.38 3.38 0 00-3.378 3.377v21.48a3.38 3.38 0 003.378 3.377h24.232a3.38 3.38 0 003.378-3.378.753.753 0 111.506 0A4.89 4.89 0 0136.116 41H11.884A4.89 4.89 0 017 36.116V14.637a4.89 4.89 0 014.884-4.883h2.345v-2z" fill="#fff"/><path d="M26 33h-1.996V21.201L20 22.512v-1.608L25.689 19H26v14z" fill="#fff"/></svg>