<svg width="500" height="500" fill="none" xmlns="http://www.w3.org/2000/svg"><path d="M410.252 259c-89.63-51.53-234.95-51.53-324.58 0s-89.62 135.09 0 186.62 234.94 51.54 324.57 0 89.63-135.12.01-186.62z" fill="#F5F5F5"/><path d="M351.591 377.63c22.627 0 40.97-10.588 40.97-23.65s-18.343-23.65-40.97-23.65-40.97 10.588-40.97 23.65 18.343 23.65 40.97 23.65zm-48.881 17.76c-16.36-1.51-30.28-.47-41.34 1.82-1.46-10.44-10-20.66-25.68-28.64-34.54-17.61-90.55-17.61-125.09 0-34.54 17.61-34.54 46.16 0 63.77 34.54 17.61 90.55 17.6 125.09 0a74.598 74.598 0 0010.36-6.34 143.475 143.475 0 0034.5 3.53l1.19.39a98.945 98.945 0 0029.07 4.75c7.63 0 14-1.21 17.6-3.66.377-.254.738-.531 1.08-.83 4.72.14 9.85.33 15.25-.75 7.83-1.58 11.67-5 11.45-9.12-.55-10.31-30.59-22.82-53.48-24.92zM281 426.21c-6.72-2.47-10.3-5.84-9.9-9.38.53-4.66 7.41-8.86 15.67-9.55 1.14-.09 2.31-.14 3.47-.14 6.37 0 12.9 1.36 17 3.35-1.842.025-3.67.332-5.42.91-2.47.85-3.61 2.83-3 5.17.48 1.76 2 3.69 4.32 5.54-5.73 2.55-13.55 3.83-22.14 4.1zm26.88-12.47c1.21.002 2.417.103 3.61.3.039.087.069.177.09.27.49 1.74-1.34 3.92-5.08 6.11-2.57-1.72-4.11-3.45-4.45-4.71-.11-.39-.23-.84.88-1.22a15.251 15.251 0 014.93-.75h.02zM290 428.81a50.595 50.595 0 0015.84-4.33l.51-.26a46.894 46.894 0 0017.36 5.5c-7.24 2.58-20.57 2.2-33.71-.91zm38.11-2a47.325 47.325 0 01-18.4-4.59c3.56-2.39 5.31-4.89 5.23-7.46a29.385 29.385 0 019.7 4.68c2.65 2 4.09 4.18 4 5.91a2.99 2.99 0 01-.55 1.5l.02-.04zm16-.63c-4.44.9-8.62.71-12.48.73.127-.434.207-.879.24-1.33.2-2.88-1.66-6-5.24-8.73a33.533 33.533 0 00-13.14-5.81c-4.39-5.46-17.77-7.82-27-7.06-9.92.84-17.94 6.18-18.65 12.44-.27 2.37.36 6.22 5.69 9.74a147.656 147.656 0 01-24.14-2.85c8.14-7 12.21-15 12.22-22.88 10.79-2.28 24.52-3.33 40.81-1.83 23.95 2.2 50.14 14.7 50.52 21.84.06 2.17-3.11 4.63-8.85 5.78l.02-.04z" fill="#E0E0E0"/><path d="M137.172 59.22l-11.46 6.61a12.92 12.92 0 00.1-1.51V61c0-5.91-4.15-8.3-9.27-5.35a17.914 17.914 0 00-5.54 5.35c-.83-7.43-6.66-10.2-13.74-6.11-7.65 4.42-13.86 15.16-13.86 24v5a13.07 13.07 0 001.18 5.75l-9.52 5.49a11.37 11.37 0 00-5.14 8.9c0 3.28 2.3 4.61 5.14 3l62.09-35.85a11.38 11.38 0 005.14-8.9c.02-3.37-2.29-4.7-5.12-3.06zM183.722 79l-7.31 4.22c.04-.332.06-.666.06-1v-2.09c0-3.76-2.64-5.29-5.9-3.4a11.385 11.385 0 00-3.52 3.38c-.54-4.74-4.25-6.5-8.76-3.89-4.88 2.81-8.84 9.66-8.84 15.3v3.17a8.261 8.261 0 00.75 3.66l-6.07 3.51a7.225 7.225 0 00-3.28 5.67c0 2.09 1.47 2.94 3.28 1.89l39.59-22.85a7.257 7.257 0 003.28-5.68c0-2.09-1.47-2.89-3.28-1.89z" fill="#EBEBEB"/><path d="M345.191 350.33a126.123 126.123 0 012.06-35c2.66-13.82 10.59-25 20.08-30.26 3.29-1.81 10.17-3.75 14.67.31 4.29 3.87 2 10.1-3.25 16.51-10.34 12.62-20.53 23.18-23.32 39.74l-1.16 12.28-9.08-3.58z" fill="#6ADF91"/><path opacity=".2" d="M345.191 350.33a126.123 126.123 0 012.06-35c2.66-13.82 10.59-25 20.08-30.26 3.29-1.81 10.17-3.75 14.67.31 4.29 3.87 2 10.1-3.25 16.51-10.34 12.62-20.53 23.18-23.32 39.74l-1.16 12.28-9.08-3.58z" fill="#000"/><path d="M348.391 348.78a.523.523 0 01-.368-.152.523.523 0 01-.152-.368c0-16 3.39-29.85 10.37-42.35 4.6-8.26 10.24-14.26 17.22-18.34a.517.517 0 01.71.19.51.51 0 01-.19.7c-6.82 4-12.33 9.85-16.85 18-6.88 12.35-10.23 26-10.23 41.85a.508.508 0 01-.51.47z" fill="#fff"/><path d="M359.61 356.09c0-3.93 2.62-11.21 8.32-18.25 6.3-7.8 15.57-13.26 16.62-18.19 1.27-5.92-4.17-8.8-12.22-6-9.67 3.42-19.21 16.73-18.06 40.23l5.34 2.21z" fill="#6ADF91"/><path d="M357.291 352.59a.471.471 0 00.31-.43c1.19-20.82 13.23-31.51 19.63-34.34a.503.503 0 00.25-.65.494.494 0 00-.273-.261.489.489 0 00-.377.011c-7.08 3.13-19 13.93-20.21 35.19a.506.506 0 00.132.353.506.506 0 00.338.167.456.456 0 00.2-.04z" fill="#fff"/><path d="M309.71 429.76a98.945 98.945 0 01-29.07-4.76l-1.19-.39c-16.45.47-35.38-2.67-49.2-7.82l1.14-3.06c11.37 4.23 26.75 7.09 41 7.55-5.34-3.52-6-7.37-5.69-9.73.71-6.27 8.72-11.61 18.65-12.45 9.22-.76 22.6 1.6 27 7.07a33.379 33.379 0 0113.14 5.8c3.58 2.75 5.44 5.85 5.24 8.73a6.458 6.458 0 01-.24 1.33c3.86 0 8 .17 12.48-.73 5.74-1.15 8.95-3.61 8.84-5.74-.38-7.14-26.57-19.64-50.52-21.84-31.9-2.94-54 3.89-63.31 10.63l-1.92-2.64c9.72-7.07 32.73-14.26 65.53-11.24 22.88 2.1 52.93 14.56 53.48 24.92.22 4.09-3.63 7.54-11.45 9.12-5.41 1.08-10.54.89-15.26.75a9.652 9.652 0 01-1.07.83c-3.59 2.46-9.96 3.67-17.58 3.67zm-20.83-5.85c13.16 3.11 26.49 3.48 33.71.9a46.808 46.808 0 01-17.36-5.5l-.51.26a50.87 50.87 0 01-15.84 4.34zm19.71-6.55a47.41 47.41 0 0018.4 4.58c.285-.438.457-.939.5-1.46.12-1.72-1.33-3.88-4-5.91a29.61 29.61 0 00-9.7-4.68c.11 2.57-1.64 5.11-5.2 7.47zm-19.47-15.13c-1.17 0-2.33 0-3.47.14-8.26.69-15.15 4.89-15.67 9.55-.4 3.54 3.18 6.91 9.89 9.38 8.61-.27 16.43-1.55 22.21-4.1-2.34-1.85-3.83-3.78-4.31-5.54-.63-2.34.51-4.32 3-5.17a17.992 17.992 0 015.42-.91c-4.19-1.99-10.7-3.35-17.07-3.35zm17.64 6.6a15.152 15.152 0 00-4.95.75c-1.11.38-1 .83-.88 1.22.34 1.26 1.87 3 4.45 4.71 3.74-2.19 5.57-4.37 5.08-6.11a1.427 1.427 0 00-.09-.27 23.728 23.728 0 00-3.61-.3z" fill="#455A64"/><path d="M319.121 425.73a68.26 68.26 0 006.78 1.2c.487-.246.958-.523 1.41-.83a9.652 9.652 0 001.07-.83s-3.2-.16-5.79-.46a24.596 24.596 0 01-3.47.92zm-16.303-5.3c.65-.27 1.29-.56 1.9-.86l.51-.26a21.009 21.009 0 01-3.15-2.11c-.77.34-1.59.65-2.43.95a13.09 13.09 0 003.17 2.28zm7.641-11.03a2.496 2.496 0 01-.24 1.8c1.103.14 2.184.416 3.22.82a5.462 5.462 0 00.38-2.13 16.501 16.501 0 00-3.45-.76c.039.087.069.177.09.27zm-41.998 11.69a24.313 24.313 0 005 3.54c2 .04 4 .04 6 0a49.339 49.339 0 01-7-3.33c-1.35-.06-2.67-.12-4-.21zm-32.383-19.37l1.92 2.64c3.66-2.66 9.33-5.33 16.81-7.41a25.39 25.39 0 00.84-3.57c-8.78 2.26-15.4 5.31-19.57 8.34zm5.172 15.09c-3.5-.92-6.83-1.94-9.86-3.07l-1.14 3.06c2.46.92 5.09 1.76 7.83 2.54 1.09-.79 2.15-1.64 3.17-2.53z" fill="#37474F"/><path d="M177.998 278.37h-.07c-12.42-.47-24.18-9.7-35.55-18.62-9.72-7.63-18.91-14.84-26.76-14.84a1.63 1.63 0 010-3.26c9 0 18.6 7.54 28.78 15.53 11 8.6 22.29 17.49 33.66 17.92a1.64 1.64 0 01-.06 3.27z" fill="#455A64"/><path d="M97.268 350.05c-8.84-3.28-16.4-15.37-13.11-28.83 4-16.22 21.77-27.71 31.54-37.12 18.16-17.49 29.28-31.47 23.49-56.63-5.07-22-25.46-29.36-37.58-28.91-15 .57-24.48 6.83-23.65 11.7.37 2.16 4.46 3.12 7.69 4.31 10 3.66 13.12 5.9 16.32 10.21 4.87 6.56 5.69 15.13 4.64 15.72-1.05.59-2.44-4.34-9.09-7.18s-9.9-.79-9.84.69c.06 1.48 6.18 2.88 8 11.68 1.54 7.32 1.17 16.75-9.84 31.82-6.78 9.28-22.19 26.65-18.83 48.82 3.36 22.17 20.24 30.27 27.19 30.67l3.07-6.95z" fill="#6ADF91"/><path opacity=".05" d="M97.268 350.05c-8.84-3.28-16.4-15.37-13.11-28.83 4-16.22 21.77-27.71 31.54-37.12 18.16-17.49 29.28-31.47 23.49-56.63-5.07-22-25.46-29.36-37.58-28.91-15 .57-24.48 6.83-23.65 11.7.37 2.16 4.46 3.12 7.69 4.31 10 3.66 13.12 5.9 16.32 10.21 4.87 6.56 5.69 15.13 4.64 15.72-1.05.59-2.44-4.34-9.09-7.18s-9.9-.79-9.84.69c.06 1.48 6.18 2.88 8 11.68 1.54 7.32 1.17 16.75-9.84 31.82-6.78 9.28-22.19 26.65-18.83 48.82 3.36 22.17 20.24 30.27 27.19 30.67l3.07-6.95z" fill="#000"/><path opacity=".15" d="M94.198 357l3.07-6.94a18.792 18.792 0 01-6.76-4.51 47.864 47.864 0 00-3.09 9.57 20.156 20.156 0 006.78 1.88z" fill="#000"/><path d="M122.998 224.4c1.35-.89.87-3 .2-4.42a32.516 32.516 0 00-7.2-10.15 49.54 49.54 0 016.5 1.84c3.08 1 5.07 2.31 5.53 1.17a5.8 5.8 0 00-.12-2.61c-.54-2.12-1.06-2.89-1.79-3.46a39.496 39.496 0 00-24.55-8.21c-15 .57-24.48 6.83-23.65 11.7.37 2.16 4.46 3.12 7.69 4.31 10 3.66 13.12 5.9 16.32 10.21 0 .06 3.62 1.79 5.25 2.83a5.647 5.647 0 002.39 1c.396.041.795-.054 1.13-.27 1.12-.74.88-2.42.47-3.69a51.161 51.161 0 00-3-7.25 23.302 23.302 0 0110.44 5.45c1.25 1.15 2.96 2.45 4.39 1.55z" fill="#455A64"/><path d="M171.668 344.22c1.27 17.38 7 28.2 18.82 38.24 11.82 10.04 28.69 16 36.14 19.28 7.45 3.28 13 7.2 18.36 2.64 5.36-4.56 4.92-14.43 14.47-22.27s12.9-10 13.15-15.72c.32-7.51-6.91-7.32-9.12-6.19 0 0-1.87-3.2-7.2-2a10.803 10.803 0 00-6.61 4.78s-3.32-.2-6.83 3.08c-3.11 2.9-9.16 10.69-9.16 10.69s6.46-10.15 3.64-21c-2.55-9.82-8.83-12.5-8.83-12.5s2.7-1.38 9.92-.09c0 0-3-8.38-16.18-11.63s-21.89 6.18-21.89 6.18l-28.68 6.51z" fill="#6ADF91"/><path opacity=".15" d="M251.997 360.29a10.994 10.994 0 00-2.36 2.67c2 0 6.19.21 7.66 5.31.04 0 1.7-5.75-5.3-7.98zm12.741 5.89s2.71-1.53 1.14-6.55a6.606 6.606 0 00-2.39.57 6.715 6.715 0 011.25 5.98z" fill="#000"/><path d="M256.256 375.87a21.27 21.27 0 00-9.042 4.666 21.27 21.27 0 00-5.838 8.334c-3 7.13-1.93 11.9 1 12.63 2.93.73 4.3.32 6.83-3.53 2.1-4.79 4.08-10.73 10.29-15.83l4.84-3.95c-.34-2.1-3.08-3.55-8.08-2.32z" fill="#F28F8F"/><path d="M254.737 369.07c-2-.79-4 3.84-1.74 4.72 1.87.73 4.35-3.66 1.74-4.72z" fill="#FFA8A7"/><path d="M262.399 367.5c-1.95-.79-4 3.84-1.74 4.72 1.87.78 4.34-3.66 1.74-4.72zm6.289-.16c-1.95-.8-4 3.83-1.74 4.71 1.88.73 4.36-3.65 1.74-4.71z" fill="#F28F8F"/><path d="M151.069 299.58c-1 5.55-21.89 10.83-36.23 21.64-14.34 10.81-27 25.55-24.75 51.1 2.47 28 27.71 38.33 41 38.33s58.67-3.52 81.9-36.57c23.23-33.05-8.06-76.57-61.92-74.5z" fill="#6ADF91"/><path opacity=".15" d="M118.391 364.31s7.23-12.75 27.08-9.23c19.85 3.52 18.07 34.27 18.07 34.27s.22 17.19-12.47 15.39c-12.69-1.8-32.68-40.43-32.68-40.43zm32.679-64.73a3.78 3.78 0 01-.92 1.72c-.85 10.24 2.31 23.44 14 27.07 12.71 4 27.06 1.68 36.69-1.71a70.171 70.171 0 009.23-4.06c-11.82-14.19-32.72-24.03-59-23.02z" fill="#000"/><path d="M159.077 372.19h-.35c-44-9.45-60.2-37.22-66-52.94-7.5-20.44-8.15-42.83-1.62-55.71a1.647 1.647 0 012.95 1.46c-6.14 12.12-5.43 33.46 1.78 53.11 5.53 15.08 21.15 41.74 63.58 50.86a1.633 1.633 0 011.311 1.771 1.63 1.63 0 01-1.651 1.459v-.01z" fill="#455A64"/><path d="M256.527 361.25c5.06 29.3-14 57.06-42.59 62-28.59 4.94-55.87-14.8-60.94-44.1-4.26-24.66 9.1-45.21 30.49-54a61.887 61.887 0 0119.73-4.49c25.85-1.59 48.65 13.66 53.31 40.59z" fill="#455A64"/><path opacity=".15" d="M290.379 369.62a113.168 113.168 0 01-38.3 6.05 68.084 68.084 0 007.64-3.62c5.61-3 12.62-6.36 14.15-13 .3-1.24-1.22-1-1.81-.51-4.38 3.61-9.65 8.2-15.37 11.7a29.17 29.17 0 01-21.42 3.42c-1.51-.33-3-.7-4.54-1.11a49.288 49.288 0 0014.79-5.48c10.65-6.07 16.12-14.59 18-26.46.22-1.34-1.15-1.78-2-.91-1.64 1.63-1.94 3.36-2.69 5.58-2.41 7-5.76 11.06-11.73 15.44a41.364 41.364 0 01-14 6.58c-2.56.64-5.21.75-7.8 1.15-2.66.489-5.403.225-7.92-.76a49.597 49.597 0 01-5.69-3.12c11.21-.66 23.73-10.57 30.93-17.28 7.62-7.11 13.13-16 11.9-26.56-.21-1.89-2.39-.75-2.65.53-1 4.93-1.45 8.17-3.75 12.87a36.62 36.62 0 01-9.54 11.79c-8.28 7.17-19.68 14.89-30.93 15.92-1.57-1.16-3.13-2.37-4.61-3.66 8.43-3.15 15.63-9.44 21.52-16.24a41.593 41.593 0 008.1-13.52c1.13-3.18 3.65-8.43 2.32-11.76-.63-1.56-2.56-.08-2.67 1-.79 8.11-5.44 16-10.61 22.21-2.46-6.84-4.17-12.85-3.7-20.41a86.895 86.895 0 011.49-10.64c.22-1.13.59-2.24 0-3.29-.81-1.51-2.71.84-2.43 1.94-.07-.28-1 1.17-1.09 1.27-.85 1.48-.77 3.7-1 5.36a57.862 57.862 0 00-.85 8.42c-.18 7.44 1.88 13.84 4.75 20.55a66.79 66.79 0 01-8.74 7c-1.89-1.4-3.21-5-4.27-6.93a65.274 65.274 0 01-4.52-8.71c-2.77-7.21-2.11-15.73-5.13-22.57-.35-.8-1.82.12-1.85.75-.26 9.38 1.29 19.06 5.4 27.6 1.6 3.34 3.92 9.14 6.92 12.37a11.34 11.34 0 01-2.46 1.4 9.303 9.303 0 01-2.92.83c-2.38.16-3.71-2-5.13-3.57a68.138 68.138 0 01-4.65-5.81 57.67 57.67 0 01-8.17-16.06c-1.46-4.79-1.12-10.31-3.42-14.83-1.11-2.18-3.79.07-3.18 1.95 1.61 5 .74 10.47 2.29 15.58a65.704 65.704 0 009.78 18.93 73.59 73.59 0 0025.79 21.7c14 6.86 31.93 10.83 48.62 9.2a96.325 96.325 0 01-54-5.31c-19.5-7.87-39-25.51-44.08-46.56-.21-.8-1.64-.36-1.7.34-1 10.41 7 21.43 13.83 28.54 7.82 8.1 16.12 15.75 26.61 20.34 11.41 5 22.85 8.33 35.4 8.56 5.058.151 10.122.044 15.17-.32a69.644 69.644 0 01-19.42 3.58c-8.57.11-17.08-1.41-25.4-3.32-13.52-3.11-24.82-8.66-35.05-18.14a80.406 80.406 0 01-10.92-13.08c-3.1-4.43-7.66-9.52-8.82-14.87-.26-1.21-2.27.12-2.19 1 .32 4.41 2.41 8.6 4.68 12.32 1.27 2.1 2.73 4.05 4.16 6a11.451 11.451 0 012.58 6.16c.08 1.92-.62 3.52-.9 5.36-.28 1.84-.61 3.37-.9 5.06a65.785 65.785 0 00-.85 10.59c-.1 11.42 5.35 21.31 11.51 30.53.64 1 2.29-.57 2-1.45-3.38-10.63-9.88-19.05-9.27-30.75.31-5.82 2-11.19 3.33-16.74.11.12.23.26.34.36 1.94 2 4 4 6.1 5.81 1.7 1.46 3.62 3.11 3.37 5.58a29.548 29.548 0 01-1.41 4.87 38.274 38.274 0 00-1 5.54c-.4 3.21-.53 6.45-.77 9.67-.75 10.48 2 23.91 9.58 31.74a1.076 1.076 0 001.37 0 22.486 22.486 0 004.34 6.51.922.922 0 001.5-1 56.624 56.624 0 01-3.69-24.09c7.25 3.26 17.55 2.73 24.47.58a52.995 52.995 0 0015-7 45.552 45.552 0 0012.89-12.72c8.84-.73 16.2-3.47 23.94-8.09a2.383 2.383 0 00.91-2.12 38.567 38.567 0 005.6-2.14c.453-.322.783-.788.937-1.322a2.456 2.456 0 00-.087-1.618 53.785 53.785 0 0018.45-8.06c1.04-.64 1.42-3.24-.46-2.62zm-97.38 27.91c.41-.91.85-1.83 1.32-2.72a49.15 49.15 0 013.14-5.29c.066-.105.123-.215.17-.33 1.873.667 3.786 1.287 5.74 1.86 4 1.1 8.15 2.06 12.38 2.81-.35 0-1.58 1.15-1.87 1.36-.66.47-1.34.94-2 1.37a28.828 28.828 0 01-4.17 2.23 21.99 21.99 0 01-8.77 2 16.814 16.814 0 01-4.4-.82c-1.17-.34-2.09-1.18-1.54-2.47zm-8.76 14.47a54.613 54.613 0 000 12.65c-2.72-7.39-4.6-14.86-4.1-22.95a88.78 88.78 0 013.44-19.58c0 .32 4.08 2.45 4.5 2.69 1.1.61 3.95 1.43 4.39 2.73.079.251.079.52 0 .77a5.43 5.43 0 01-.83 1.62c-4.48 6.69-6.55 14.07-7.4 22.07zm43.51-8.57a46.79 46.79 0 01-13.07 6.66c-7.23 2.43-17.94 3.54-25.38 0a49.934 49.934 0 011.44-6.45c3.67 1.76 9.23 1.58 12.54 1 6-1.11 14.09-4.48 17.42-9.95a98.336 98.336 0 0016.16.88 58.268 58.268 0 01-9.11 7.86z" fill="#000"/><path opacity=".15" d="M163.327 381.82c-4.43-12.52-10.84-11.63-10.84-11.63s2.63-1.52 9.9-.61c0 0-2-5.46-9.3-8.71a50.703 50.703 0 00-.09 18.28 54.833 54.833 0 008.29 20.93c1.98-4.08 4.52-11.25 2.04-18.26zm15.411 34.9a27.885 27.885 0 016.72-9.35c9.12-8.33 12.35-10.7 12.29-16.39-.07-7.52-7.28-7-9.43-5.71 0 0-2-3.1-7.29-1.63a10.792 10.792 0 00-6.35 5.12s-3.57-.37-7.28 3.61a77.145 77.145 0 00-6 7.94 53.833 53.833 0 0017.34 16.41z" fill="#000"/><path d="M254.62 339.1c-.18-4.44-2.87-10.41-6.35-15.33-5.8-8.2-14.15-13.28-22.57-16l-21.7 13.5c23.14-.78 31.11 11.4 33.25 18.2 1.48 4.7 2.73 8.32 5.47 8.32a2.784 2.784 0 001.963-.576 2.784 2.784 0 001.037-1.764c1.89 1.8 4.72.73 4.84-1.58a2.438 2.438 0 002.91-.52 5.536 5.536 0 001.15-4.25z" fill="#6ADF91"/><path opacity=".15" d="M225.7 307.73L204 321.27a54.78 54.78 0 018.18.3 62.413 62.413 0 0016.63-12.7 42.31 42.31 0 00-3.11-1.14zm27.78 35.62a.106.106 0 000-.05 1.7 1.7 0 01-2.21-1.2c-.74-1.77-1-2.6-1.36-3a14.75 14.75 0 01.62 4.77 2.439 2.439 0 002.95-.52zm-4.57 2.81a2.626 2.626 0 01-2.35-2.17c-.56-1.86-.89-2.44-1.29-2.84.396 1.397.552 2.851.46 4.3a3.001 3.001 0 003.18.71z" fill="#000"/><path d="M90.09 372.32c2.18 17.29 8.44 27.79 20.81 37.2 12.37 9.41 29.5 14.48 37.1 17.35 7.6 2.87 13.35 6.5 18.48 1.67 5.13-4.83 4.15-14.67 13.28-23 9.13-8.33 12.35-10.7 12.3-16.39-.08-7.52-7.28-6.95-9.44-5.71 0 0-2-3.1-7.29-1.63a10.83 10.83 0 00-6.35 5.12s-3.57-.37-7.28 3.61c-2.9 3.11-8 11-8 11s7.62-11 3.89-21.53c-4.43-12.52-10.84-11.63-10.84-11.63s2.63-1.52 9.91-.61c0 0-3.37-9-16.77-10.76a26.003 26.003 0 00-21.54 7.32l-28.26 7.99z" fill="#6ADF91"/><path opacity=".15" d="M171.2 384.14a10.596 10.596 0 00-2.22 2.79c2.87-.05 6.35.2 8.13 5.37 0 0 2.24-5.83-5.91-8.16zm12.981 5.21s2.63-1.67.8-6.6a6.636 6.636 0 00-2.36.69 6.699 6.699 0 011.495 2.766 6.698 6.698 0 01.065 3.144z" fill="#000"/><path d="M176.23 399.47a21.277 21.277 0 00-14.17 13.73c-2.62 7.29-1.31 12 1.62 12.57 2.93.57 4.31.1 6.64-3.88 1.84-4.9 3.51-10.94 9.44-16.35 1.75-1.6 3.29-3 4.62-4.21-.38-2.05-3.22-3.33-8.15-1.86zm-2.371-6.21c-2-.69-3.79 4-1.49 4.8 1.91.63 4.16-3.88 1.49-4.8zm8.059-2.47c-2-.69-3.79 4-1.49 4.81 1.91.63 4.16-3.89 1.49-4.81zm6.282-.49c-2-.69-3.8 4-1.49 4.8 1.91.63 4.15-3.88 1.49-4.8z" fill="#F28F8F"/><path opacity=".05" d="M160.649 428.54c-11.87-2.56-10.28-9-15.59-12.78-5.31-3.78-17.14-2.37-36.11-17.89s-19.85-49.2-7.73-63.87c-7.65 9.41-12.61 21.54-11.13 38.33.234 2.673.706 5.32 1.41 7.91 3 12.76 9 21.41 19.4 29.29 12.38 9.4 29.5 14.51 37.1 17.35 7.6 2.84 13.35 6.5 18.48 1.67a9.67 9.67 0 001.12-1.28 8.891 8.891 0 01-6.95 1.27z" fill="#000"/><path opacity=".15" d="M205.398 345.41c-6.19-8.51-11.06-12.49-18.57-16.69v-4.87c-1.13.39-2.25.81-3.34 1.26a51.082 51.082 0 00-24.91 21.16c22.86-1.72 33.15 9.94 35.7 16.65 1.79 4.71 3.28 8.33 6.08 8.17a2.845 2.845 0 002.89-2.57c2 1.72 4.87.47 4.85-1.89a2.503 2.503 0 002.94-.71 5.673 5.673 0 00.91-4.41c-.45-4.51-2.95-11.12-6.55-16.1z" fill="#000"/><path d="M212.897 358.16c-.44-4.52-2.92-11.13-6.54-16.1-6.2-8.51-11.06-12.49-18.58-16.69v-5.92S160.688 325 160.188 343c23.59-2.17 32.45 9.8 35 16.62 1.79 4.71 3.28 8.33 6.08 8.17a2.852 2.852 0 002.89-2.57c2 1.72 4.869.47 4.849-1.89a2.504 2.504 0 002.94-.71c1.05-1.27 1.11-2.86.95-4.46z" fill="#6ADF91"/><path opacity=".15" d="M211.998 362.57v-.05a1.74 1.74 0 01-2.33-1.1c-.86-1.76-1.14-2.6-1.57-3 .573 1.551.884 3.187.92 4.84a2.498 2.498 0 002.98-.69zm-4.509 3.14a2.701 2.701 0 01-2.53-2.08c-.68-1.87-1.06-2.44-1.49-2.82a13.18 13.18 0 01.73 4.36 3.081 3.081 0 003.29.54zm-40.27-36.52c8.86 2.05 18.23 1.38 26.11-.39-1.71-1.19-3.53-2.3-5.55-3.43v-5.92s-12.38 2.55-20.56 9.74z" fill="#000"/><path d="M193.617 260.23c2.73-8.65 14.67-19.56 24.73-16.39 5.66 1.78 3.39 22.67 3.39 22.67s-18.39 1.41-28.12-6.28z" fill="#6ADF91"/><path opacity=".15" d="M193.617 260.23c2.73-8.65 14.67-19.56 24.73-16.39 5.66 1.78 3.39 22.67 3.39 22.67s-18.39 1.41-28.12-6.28z" fill="#000"/><path d="M202.168 264.47c9.26 2.83 19.57 2 19.57 2s2.27-20.89-3.39-22.67c-3.67-.5-12.57 5.09-16.18 20.67z" fill="#FFA8A7"/><path d="M214.057 256.78c-.86-2.32.8-5.31.8-5.31-3.39 0-7.81 3.48-8.22 9.09 0 0 6.91 8.32 14 3.91a9.247 9.247 0 011.48-3.31c.06-1.44.1-3.06.07-4.73a20.236 20.236 0 00-8.13.35z" fill="#F28F8F"/><path d="M170.168 268.47c-7.53-5-23.67-6.11-29.55 2.65-3.31 4.93 11.54 19.84 11.54 19.84s15.21-10.41 18.01-22.49z" fill="#6ADF91"/><path opacity=".15" d="M170.168 268.47c-7.53-5-23.67-6.11-29.55 2.65-3.31 4.93 11.54 19.84 11.54 19.84s15.21-10.41 18.01-22.49z" fill="#000"/><path d="M166.138 277.12c-5.47 8-14 13.84-14 13.84s-14.85-14.91-11.54-19.84c2.55-2.72 12.99-3.91 25.54 6z" fill="#FFA8A7"/><path d="M148.518 274.62s3.17 1.3 3.95 3.65c0 0-4.6 2-6.87 5.2.85 1.1 1.72 2.14 2.53 3.09a8.938 8.938 0 014 1.84c8.29-1 8-11.22 8-11.22-2.92-4.18-8.96-4.68-11.61-2.56z" fill="#F28F8F"/><path d="M201.888 322.07c-9.63 3.39-24 5.67-36.69 1.72-15.15-4.72-16-25.52-12.3-35.1 3.7-9.58 11.25-19.34 28.58-25.45 17.33-6.11 29.35-3.24 38.22 1.92 8.87 5.16 21.26 21.89 12.41 35.06-7.43 11.04-20.59 18.46-30.22 21.85z" fill="#6ADF91"/><path d="M201.807 319.9c19.19-6.77 18.19-18 13.34-22.52-4.85-4.52-12.89-5.5-22.07-2.27s-14.82 9.06-15.78 15.6c-.96 6.54 5.31 15.95 24.51 9.19z" fill="#F0F0F0"/><path d="M196.559 311.86s.78 3.25 3.2 2.44 1-3.88 1-3.88l-3-2.18-1.2 3.62z" fill="#F28F8F"/><path d="M196.439 304.69l-4.51-.5a.622.622 0 01-.55-.69.627.627 0 01.69-.55l3.93.44 2.85-2.77a.612.612 0 01.44-.183.612.612 0 01.619.623.629.629 0 01-.179.44l-3.29 3.19z" fill="#455A64"/><path d="M193.179 314a5.122 5.122 0 01-4.82-3.41.622.622 0 01.862-.767.628.628 0 01.318.357 3.864 3.864 0 107.29-2.57l-1.19-3.38a.621.621 0 01.376-.802.623.623 0 01.794.392l1.19 3.38a5.103 5.103 0 01-4.82 6.8z" fill="#455A64"/><path d="M201.637 311a5.15 5.15 0 01-2.2-.5 5.052 5.052 0 01-2.61-2.91l-1.19-3.38a.621.621 0 01.376-.802.62.62 0 01.794.392l1.19 3.38a3.846 3.846 0 002 2.2 3.867 3.867 0 004.25-.611 3.872 3.872 0 001.07-4.159.62.62 0 01.38-.79.61.61 0 01.79.38 5.11 5.11 0 01-4.85 6.8zm13.421-25.92a4.48 4.48 0 11-7.809-1.203 4.484 4.484 0 015.521-1.349 4.487 4.487 0 012.288 2.552zm-45.402 15.99a4.471 4.471 0 008.638-2.129 4.47 4.47 0 00-5.908-3.581 4.478 4.478 0 00-2.73 5.71zm-13.048.76a.926.926 0 01-.66-.27c-3.42-3.49-9.19-7.07-17.24-4.26a.933.933 0 01-.62-1.76c9-3.12 15.39.84 19.19 4.71a.93.93 0 010 1.32.91.91 0 01-.67.26zm-2.072 2.32a.87.87 0 01-.49-.14c-3.09-1.9-8.71-1.91-11.66-.64a.928.928 0 01-1.23-.48.999.999 0 01.49-1.23c3.38-1.45 9.71-1.5 13.38.77a.927.927 0 01.3 1.28.91.91 0 01-.79.44zM140.119 312a.937.937 0 01-.867-.619.945.945 0 01.267-1.031c5.53-4.66 12.69-5.52 17-4.35a.931.931 0 01-.49 1.79c-3.86-1-10.29-.24-15.31 4a.91.91 0 01-.6.21zm84.337-34.07h-.09a.93.93 0 01-.84-1c.53-5.4 3-12.5 12-15.69a.93.93 0 01.63 1.75c-8 2.87-10.29 9.26-10.77 14.12a.918.918 0 01-.93.82zm3.062.51a1.202 1.202 0 01-.31-.05.915.915 0 01-.617-.831.917.917 0 01.057-.359c1.43-4.06 6.39-8 9.94-9a.926.926 0 01.986.324.937.937 0 01.078 1.032.936.936 0 01-.564.434c-3.1.87-7.48 4.39-8.69 7.81a.93.93 0 01-.88.64zm.952 3.95a.897.897 0 01-.54-.18.928.928 0 01-.21-1.3c2.63-3.61 8.73-7.4 16-7.25a.93.93 0 010 1.86c-6.58-.15-12.07 3.26-14.42 6.49a.935.935 0 01-.83.38z" fill="#455A64"/><path d="M208.316 260.69c.8-3.66 4.26-7.18 7.65-7.18 0 0-1.67 3-.81 5.31 0 0 8.65-2.27 11.77 1.74 0 0-3.92.72-5.19 5.95-7.09 4.41-13.42-5.82-13.42-5.82zM158.999 278c-2.91-2.36-7.81-2.95-10.46-.83 0 0 3.17 1.3 3.95 3.65 0 0-8.17 3.62-8.11 8.71 0 0 3.54-1.87 7.8 1.42 8.27-.95 6.82-12.95 6.82-12.95zm30.339-17c-1.18.27-1.27-1.92-.73-4.64.49-2.46 2.47-7.37-1-7.31-3.47.06-7.2 3.18-8.66 9.12a12.925 12.925 0 01-2.14-4.25c-.55-2.24-3.35-2.44-4.58 2-.94 3.39.69 6.78 1.59 8.2.5.79.29 2.1-1.38 3 0 0 7.21 2.47 12.07 0s4.83-6.12 4.83-6.12z" fill="#6ADF91"/><path d="M180.789 280a2.167 2.167 0 002-2.37 23.844 23.844 0 00-5.51-12.67c-1.43.61-2.8 1.25-4.08 1.91 3.12 3.66 4.9 7.4 5.25 11.17a2.177 2.177 0 002.17 2l.17-.04zm13.21-7.45c.099.495.367.941.757 1.261.389.321.878.497 1.383.499.14.015.281.015.42 0a2.182 2.182 0 001.718-1.709c.057-.281.057-.57.002-.851a23.467 23.467 0 00-6-11.26c-1.64.27-3.32.62-5.08 1.07 3.71 3.44 6 7.11 6.8 10.99zm-13.882-8.79c2.29 2.53 5.95 7.38 6.82 13.27a2.172 2.172 0 002.15 1.86h.33a2.18 2.18 0 001.83-2.48 29.83 29.83 0 00-6.69-14.15c-1 .3-2 .63-3.08 1l-1.36.5zm-78.808 140.86h-.16a1.633 1.633 0 01-1.406-1.146 1.63 1.63 0 01-.063-.634c.659-6.88 7.419-18.85 23.369-23.63 15.46-4.64 31.65.59 38.37 8.32a1.647 1.647 0 01.466 1.212 1.649 1.649 0 01-1.14 1.496 1.636 1.636 0 01-1.796-.558c-4.95-5.7-19.49-12-35-7.34-14.4 4.32-20.48 14.81-21.06 20.81a1.63 1.63 0 01-.514 1.031c-.29.271-.669.427-1.066.439z" fill="#455A64"/><path d="M117.32 417.12a1.641 1.641 0 01-1.64-1.62c0-3.35 2.47-14.77 10.8-21.94a29.812 29.812 0 0132.5-4.27 1.642 1.642 0 01-.365 2.961 1.64 1.64 0 01-1.215-.091 26.38 26.38 0 00-28.79 3.84c-7.36 6.33-9.68 16.6-9.66 19.43a1.64 1.64 0 01-1.62 1.65l-.01.04zM96.379 251.94c-4.83 11.38-.41 35.57 9.5 50.48 10.7 16.1 32.4 36.37 56.74 45.37a1.639 1.639 0 01.47 2.782 1.645 1.645 0 01-1.04.388 1.62 1.62 0 01-.56-.1c-25-9.26-47.34-30.09-58.33-46.63-11.16-16.73-15.46-43.64-8.92-55.36a16.14 16.14 0 011.63-2.41c.344 1.806.515 3.641.51 5.48z" fill="#455A64"/><path d="M350.012 73.17l10.02-5.78V356.5l-10.01 5.78-.01-289.11z" fill="#37474F"/><path d="M334.992 353.6l15.03 8.68-.01-289.11-3.63-2.1-1.22 12.56-1.25-13.98-8.92-5.15v289.1z" fill="#455A64"/><path opacity=".1" d="M350 269.13v-35.64c-.58-13.85-1.25-32-1.14-39.93l-3.47-2c0 12.09-1.36 34.37-2.1 49.39-1 21.29 2.77 48.8 2.93 59.9.16 11.1 0 59.24 0 59.24l1.71 1s-.51-60.54.93-76.62c.5-5.54.87-10.75 1.14-15.34zm-3.43 7.54c-2.29-1-1.73-54.81.64-54 1.88.71 1.67 55.01-.62 54h-.02z" fill="#000"/><path d="M346.38 71.07l-2.47-1.42 1.25 13.98 1.22-12.56z" fill="#263238"/><path opacity=".05" d="M339.849 67.3c-.21 15.48 2.83 25.86 2.77 47.38 0 0-.34-15.22-2.39-26.5a136.754 136.754 0 01-2.28-22l1.9 1.12zm10.153 5.87c0 5.1-.22 16.73-.85 23.89a288.963 288.963 0 00-.23 29.9s-1.79-16.89-1.19-26.9c.6-10.01.59-27.87.59-27.87l1.68.98z" fill="#fff"/><path opacity=".1" d="M335 122v18.54c1.59-9.77 4.08-20.08 4.52-24.47.66-6.57-.44-18.64-1.56-25.46s-3-18.32-2.67-25.9l-.29-.21v18.43l.15 1.19c1.24 9.12 1.89 22.62 1.43 28.64A66 66 0 01335 122z" fill="#000"/><path opacity=".05" d="M340.872 254c-.3 6.8 2.61 32.16 3.17 40.15 1.1 15.61.6 65 .6 65l-2-1.17s.24-55.84 0-62.33c-.35-8.96-2.64-33.78-1.77-41.65z" fill="#fff"/><path opacity=".1" d="M342.621 190.46c0 12.36-.39 35.8-2 45.69a177.455 177.455 0 00-1 44.17 195.96 195.96 0 01.58 33s-.61-19.06-2.34-34.66a235.062 235.062 0 01.14-46.66c1.36-15.08 1.75-43.77 1.75-43.77l2.87 2.23z" fill="#000"/><path opacity=".05" d="M337.372 187.43s-.23 19.63-.58 26.15-1.3 19.25-1.3 19.25-.31-20.9 0-27.61c.31-6.71-.14-19.32-.14-19.32l2.02 1.53zm.001 108.33c1.12 10.5 1.27 22.79 1.57 27.43.3 4.64.76 33.13.76 33.13l-2.33-1.32s-.2-29.51-.27-36.14c-.1-8.53.68-17.46.27-23.1z" fill="#fff"/><path opacity=".1" d="M342.569 71.78c.51 8.15 2.41 16 3 21.74.59 5.74 1 23.41 1 23.41l-2-1.13s.43-16.17-.57-24.06c-1-7.89-1.66-14.74-1.43-19.96z" fill="#000"/><path d="M360.032 67.39l-15.02-8.68-10.02 5.79 15.02 8.67 10.02-5.78z" fill="#263238"/><path opacity=".15" d="M360.03 232.18l-10.01 5.78v14.05l10.01-5.79v-14.04z" fill="#000"/><path opacity=".15" d="M350.022 237.96l-15.03-8.67v14.04l15.03 8.68v-14.05z" fill="#000"/><path d="M252.781 138.79l185.26 106.92 10.74-6.18-185.24-106.96-10.76 6.22z" fill="#263238"/><path d="M244.062 131.53l186.43 107.59v-43.08l-16.5-9.52-1.799 12.56-1.081-14.23-167.05-96.4.011 27.86 5.359 5.34-5.37-1.56v11.44z" fill="#455A64"/><path opacity=".05" d="M430.49 232c-9.7-5.62-50.5-28.64-55.2-30.88-13.66-6.54-25.44-11.68-43.72-22.09 0 0 8.48 6 26.76 15.48 8.58 4.42 16.44 8.2 20.57 10.25 4.13 2.05 51.59 29.38 51.59 29.38V232z" fill="#fff"/><path opacity=".1" d="M244.102 97.69l15.91 9.2c14.25 8.25 23.83 14.19 30 19.87 6.17 5.68 18.17 12.87 23.55 15.8 0 0-6.32-2.3-18.16-9.63-11.84-7.33-14-11.16-30.84-20.89l-20.46-11.85v-2.5zm186.39 129.15l-49.65-28.65c-5.4-3.12-18.11-5.57-25.08-9.6a59.449 59.449 0 0012.24 6.49c7.09 2.72 55.84 30.24 62.48 34.07l.01-2.31z" fill="#000"/><path opacity=".05" d="M249.43 121.65l47.48 27.46c10.77 6.23 28.67 18.74 43.75 26.91 15.08 8.17 26.2 12.86 26.2 12.86s-14.43-4.11-26.36-11-33.65-20.48-46.75-28.06l-49.68-28.73v-1l5.36 1.56zm181.059 89.78c-10-5.79-43.12-24.88-51-29.46-7.88-4.58-20-13-33.41-20.8a236.38 236.38 0 00-32.89-15.86 165.261 165.261 0 01-17.74-8.57 152.158 152.158 0 0022.13 12.26c13.31 6.05 29.25 14.38 43.4 24.44 14.15 10.06 69.51 40.82 69.51 40.82v-2.83zM244.109 91.9s59.93 34 74.91 42.63c14.98 8.63 34.61 20.72 34.61 20.72s-31.63-16.85-63.37-35.18l-46.15-26.7V91.9z" fill="#fff"/><path opacity=".1" d="M430.492 203.34s-69.23-40-88.75-51.26c-19.52-11.26-41.25-21.71-41.25-21.71s16.21 10.72 40.18 24.63c7.1 4.12 89.82 51.88 89.82 51.88v-3.53m-186.43-78.59l53.65 31c11 6.36 39.531 23.75 46.331 28.06 0 0-28.091-14.76-65.451-36.37l-34.53-20v-2.69zm.02-9.76l45.19 26.14c10.51 6.08 35 22.61 45.81 28.84 10.81 6.23 81.89 44.94 95.41 52.76v-3c-8.39-4.86-76.5-49.07-92.77-58.49-16.27-9.42-32.93-14.14-43.07-20L244.082 112v3zm70.32 38.47c0-1.51 13.88 4.83 23.42 10.34 8.41 4.87 25.12 16.12 25.12 17.52 0 1.4-16.33-7.36-25.12-12.45-8.79-5.09-23.42-13.88-23.42-15.42v.01z" fill="#000"/><path opacity=".05" d="M244.111 103.41c6.57 3.8 27 15.38 32.74 19.75 5.74 4.37 11.6 11.42 22.6 17.78 0 0-11.35-4.74-17.88-10.93-6.53-6.19-37.52-23.53-37.52-23.53l.06-3.07z" fill="#fff"/><path opacity=".2" d="M263.621 99.74l147.62 86.92 1 4.03 1.51-2.54 14.87 9.29 1.87 41.68v-43.08l-16.5-9.52-1.44-.86-1.44-.81-147.49-85.11z" fill="#fff"/><path d="M441.232 232.91l-10.74 6.21v-43.08l10.74-6.33v43.2z" fill="#37474F"/><path d="M413.989 186.52l-1.8 12.56-1.08-14.23 1.44.81 1.44.86z" fill="#263238"/><path d="M411.109 184.85l1.44.81-.36 13.42-1.08-14.23zM244.07 116.31l1.6 2.97-1.6.81 5.36 1.56-5.36-5.34z" fill="#37474F"/><path d="M244.07 116.31l1.6 2.97 3.76 2.37-5.36-5.34zm190.972 116.53l-4.55.16-8.34-3.54 8.34 8.04 4.55-4.66z" fill="#263238"/><path d="M435.042 232.84l-4.55 2.3-8.34-5.68 8.34 3.54 4.55-.16z" fill="#37474F"/><path d="M244.062 88.45l186.43 107.59 10.741-6.33-186.31-107.53-10.861 6.27z" fill="#263238"/><path d="M249.062 89.04l185.261 106.92v-43.08l-166.87-96.3-1.801 12.56-1.079-14.23-15.511-8.95v43.08z" fill="#455A64"/><path opacity=".05" d="M434.32 188.79c-9.7-5.61-50.49-28.63-55.2-30.87-13.66-6.54-25.44-11.68-43.71-22.09 0 0 8.47 6 26.75 15.48 8.58 4.42 16.45 8.2 20.57 10.25 4.12 2.05 51.59 29.38 51.59 29.38v-2.15z" fill="#fff"/><path opacity=".1" d="M249.1 55.2l14.74 8.53c14.26 8.25 23.83 14.18 30 19.86 6.17 5.68 18.16 12.88 23.58 15.8 0 0-6.33-2.29-18.17-9.63-11.84-7.34-14-11.15-30.84-20.89L249.09 57.7l.01-2.5zm185.22 128.48c-10.19-5.9-44.26-25.53-49.65-28.65-5.39-3.12-18.11-5.57-25.08-9.6a59.402 59.402 0 0012.25 6.49c7.09 2.72 55.85 30.24 62.48 34.07v-2.31z" fill="#000"/><path opacity=".05" d="M249.073 76.06L300.742 106c10.77 6.23 28.671 18.74 43.761 26.91 15.089 8.17 26.19 12.86 26.19 12.86s-14.431-4.11-26.361-11c-11.93-6.89-33.65-20.48-46.74-28.06l-48.53-28.14.011-2.51zm185.249 92.21c-10-5.79-43.12-24.88-51-29.46-7.88-4.58-20-13-33.41-20.8a235.329 235.329 0 00-32.91-15.86 165.153 165.153 0 01-17.74-8.57 152.105 152.105 0 0022.17 12.26c13.31 6 29.25 14.38 43.4 24.44 14.15 10.06 69.51 40.82 69.51 40.82l-.02-2.83zM249.112 49.41c57.89 32.79 57.63 32.59 73.75 41.95 15 8.67 34.6 20.73 34.6 20.73s-31.68-16.85-63.36-35.18l-45-26 .01-1.5z" fill="#fff"/><path opacity=".1" d="M434.32 160.18s-69.23-40-88.75-51.26c-19.52-11.26-41.25-21.71-41.25-21.71s16.21 10.71 40.18 24.62c7.1 4.12 89.82 51.88 89.82 51.88v-3.53zM249.061 82.27l52.48 30.36c11 6.36 39.53 23.74 46.33 28.06 0 0-28.09-14.76-65.45-36.37L249.051 85l.01-2.73zm.009-9.77L293.1 98c10.51 6.08 35 22.61 45.81 28.84 10.81 6.23 81.89 44.94 95.41 52.76v-3c-8.39-4.85-76.49-49.07-92.77-58.48-16.28-9.41-32.92-14.14-43.07-20l-49.4-28.58-.01 2.96zm69.17 37.8c0-1.51 13.88 4.82 23.41 10.34 8.41 4.87 25.12 16.12 25.12 17.52 0 1.4-16.33-7.36-25.12-12.45-8.79-5.09-23.42-13.9-23.41-15.41z" fill="#000"/><path opacity=".05" d="M249.101 60.92c6.58 3.8 25.88 14.7 31.58 19.08 5.7 4.38 11.6 11.42 22.6 17.78 0 0-11.35-4.74-17.88-10.94-6.53-6.2-36.35-22.84-36.35-22.84l.05-3.08z" fill="#fff"/><path d="M267.45 56.58l-1.44-.83-1.44-.84 1.08 14.23 1.8-12.56z" fill="#263238"/><path opacity=".2" d="M267.449 56.58l165.01 97.7 1.86 41.68v-43.08l-166.87-96.3z" fill="#fff"/><path d="M434.319 166.48l-10.12-3 10.12 8.26v-5.26zm10.741 23.23l-10.74 6.25v-43.08l10.74-6.37v43.2z" fill="#37474F"/><path d="M434.323 152.88l10.739-6.37L259.973 39.68l-10.911 6.28 185.261 106.92z" fill="#263238"/><path d="M434.32 166.48l2.87 1.02-2.87 4.24v-5.26z" fill="#37474F"/><path d="M437.189 167.5l-2.87 1.66-10.12-5.68 10.12 8.26 2.87-4.24z" fill="#263238"/><path d="M264.57 54.91l1.44.84-.36 13.39-1.08-14.23z" fill="#37474F"/><path d="M252.781 138.79l185.26 106.92v43.08l-166.87-96.3-1.8-14.64-1.08 12.97-15.51-8.95v-43.08z" fill="#455A64"/><path opacity=".05" d="M438.002 252.88c-9.7-5.59-50.5-29.6-55.2-32.78-13.66-9.24-25.44-17.7-43.72-28.39 0 0 8.48 3.73 26.76 15.41 8.58 5.49 35.68 21.85 39.8 24.56 4.12 2.71 32.36 19.06 32.36 19.06v2.14z" fill="#fff"/><path opacity=".1" d="M252.82 172.67l14.74 8.5c14.25 8.21 23.83 13.33 30 14.8 6.17 1.47 18.17 8.1 23.55 11.4A132.813 132.813 0 00303 196c-11.85-6.34-14-5-30.84-14.71l-19.32-11.14-.02 2.52zM438 258c-10.2-5.87-25-14.43-30.42-17.54-5.42-3.11-37.34-26.4-44.31-30.42a63.212 63.212 0 0112.25 7.67c7.09 5.45 55.84 34.16 62.48 38V258z" fill="#000"/><path opacity=".05" d="M252.792 151.78l51.67 29.78c10.77 6.2 28.67 14.37 43.75 23.61 15.08 9.24 26.2 17.39 26.2 17.39s-14.41-12.56-26.41-19.43c-12-6.87-33.64-18.36-46.74-25.91l-48.52-28 .05 2.56zM438 273.4l-31.81-18.33c-7.92-4.57-39.21-21.1-52.64-28.84a304.813 304.813 0 01-32.89-22.12A204.371 204.371 0 00303 192.2s8.86 4 22.17 13.34c13.31 9.34 29.25 19.39 43.4 25.67 14.15 6.28 69.43 39.37 69.43 39.37v2.82zm-185.167-94.92s58.76 34.57 73.74 43.2c14.98 8.63 34.609 19.24 34.609 19.24s-31.679-19.74-63.37-38l-45-25.93.021 1.49z" fill="#fff"/><path opacity=".1" d="M438 281.49l-88.75-51.14C329.78 219.11 308 204.43 308 204.43s16.21 8 40.18 21.78C355.32 230.29 438 278 438 278v3.52M252.78 145.56l52.48 30.25c11 6.34 39.53 21.89 46.33 25.43 0 0-28.09-17.68-65.45-39.2l-33.37-19.23.01 2.75zm.021 12.83l49.4 28.47c10.14 5.84 26.8 20.34 43.07 29.72 16.27 9.38 84.38 43.73 92.77 48.56v-3c-13.52-7.79-84.65-51.13-95.41-57.33-10.76-6.2-35.3-18-45.82-24.06l-44-25.37-.01 3.01zm92.57 50.61c8.79 5.07 25.12 15.16 25.12 16.56 0 1.4-16.71-6.64-25.12-11.48-9.54-5.5-23.41-15.19-23.42-16.7-.01-1.51 14.62 6.62 23.42 11.62z" fill="#000"/><path opacity=".05" d="M252.82 167c6.58 3.79 25.88 15.18 31.58 17.38 5.7 2.2 11.6 2 22.6 8.33 0 0-11.35-8.37-17.88-9.72-6.53-1.35-36.35-19.12-36.35-19.12l.05 3.13z" fill="#fff"/><path d="M271.169 192.49l-1.94-4.46-.94 2.79 1.08-12.97 1.8 14.64z" fill="#263238"/><path opacity=".2" d="M271.172 149.41l165 97.7 1.87 41.68v-43.08l-166.87-96.3z" fill="#fff"/><path d="M438.042 275.19l-10.12-8.68 10.12 3.42v5.26z" fill="#37474F"/><path d="M448.779 239.53l-10.74 6.18v43.08l10.74-6.19v-43.07z" fill="#37474F"/><path d="M438.039 275.19l7.87-7.82-7.87 2.56v5.26z" fill="#37474F"/><path d="M445.912 267.37l-7.87 5.14-10.12-6 10.12 3.42 7.87-2.56z" fill="#263238"/><path d="M268.289 190.82l.94-2.79.14-10.18-1.08 12.97z" fill="#37474F"/><path d="M340.002 118.8a27.603 27.603 0 017.44 6.25 37.38 37.38 0 015.16 8.21 43.403 43.403 0 013 9.45 60.005 60.005 0 011.19 9.87 283.72 283.72 0 010 15.75 38.653 38.653 0 01-1.19 8.5 13.163 13.163 0 01-3 5.92 7.511 7.511 0 01-5.16 2.26c-2.08.1-4.56-.683-7.44-2.35a27.35 27.35 0 01-7.44-6.24 37.153 37.153 0 01-5.16-8.22 43.194 43.194 0 01-3-9.44 60.005 60.005 0 01-1.19-9.87 263.63 263.63 0 01-.11-7.88c0-2.787.036-5.427.11-7.92a38.631 38.631 0 011.19-8.51 13.108 13.108 0 013-5.91 7.456 7.456 0 015.16-2.26c2.08-.067 4.56.73 7.44 2.39zm6.17 43c.146-4.94.146-9.913 0-14.92a43.65 43.65 0 00-.43-4.33 18.605 18.605 0 00-1-3.82 12.36 12.36 0 00-1.85-3.24 10.006 10.006 0 00-2.89-2.49 5.009 5.009 0 00-2.88-.86 2.335 2.335 0 00-1.85.92 7.866 7.866 0 00-1.06 2.78 21.904 21.904 0 00-.38 3.9c-.194 4.8-.194 9.77 0 14.91.031 1.44.158 2.877.38 4.3a17.164 17.164 0 001 3.84 13.142 13.142 0 001.88 3.26 9.991 9.991 0 002.88 2.46 4.899 4.899 0 002.88.87c.373-.04.733-.159 1.057-.349a2.65 2.65 0 00.823-.751 6.46 6.46 0 001-2.64c.246-1.273.394-2.564.44-3.86v.02z" fill="#263238"/><path d="M352.601 182.79a7.459 7.459 0 01-5.17 2.27c-2.07.1-4.54-.68-7.43-2.34a27.395 27.395 0 01-7.43-6.25 36.761 36.761 0 01-2.7-3.7l3.52-2c.72 1.06 1.48 2.08 2.3 3.07a27.395 27.395 0 007.43 6.25c2.88 1.66 5.363 2.44 7.45 2.34a9.004 9.004 0 002.88-.61 9.548 9.548 0 01-.85.97zM346.822 134l-3.53 2.07c-.13-.2-.26-.41-.4-.6a10.225 10.225 0 00-2.89-2.47 5.006 5.006 0 00-2.88-.86 2.328 2.328 0 00-1.85.92c-.3.43-.32.47 0 0 .174-.252.39-.472.64-.65l3.09-2.41a2.308 2.308 0 011.27-.5 4.89 4.89 0 012.88.86 9.75 9.75 0 012.85 2.44c.3.381.574.782.82 1.2z" fill="#37474F"/><path d="M355.653 142.52a43.123 43.123 0 00-3-9.44 37.226 37.226 0 00-5.16-8.22 27.603 27.603 0 00-7.44-6.25c-2.88-1.66-5.36-2.44-7.44-2.34a8.121 8.121 0 00-2.71.6 13.985 13.985 0 00-2.38 5.1 38.598 38.598 0 00-1.18 8.5c-.08 2.5-.12 5.15-.12 7.93 0 2.78 0 5.4.12 7.87a59.788 59.788 0 001.18 9.87 43.294 43.294 0 003 9.45 36.737 36.737 0 005.17 8.21 27.199 27.199 0 007.43 6.25c2.89 1.67 5.36 2.44 7.44 2.34a9.234 9.234 0 002.89-.6 14.625 14.625 0 002.27-5.16 38.875 38.875 0 001.12-8.44c.073-2.38.11-4.96.11-7.74 0-2.79 0-5.47-.11-8.06a60.234 60.234 0 00-1.19-9.87zm-6.36 16.59a24.98 24.98 0 01-.37 3.87 6.32 6.32 0 01-1 2.64c-.188.251-.414.47-.67.65 0 0-2.88 2.31-3.13 2.49-.36.237-.772.385-1.2.43a4.899 4.899 0 01-2.88-.87 9.835 9.835 0 01-2.88-2.46 13.142 13.142 0 01-1.88-3.26 17.164 17.164 0 01-1-3.84 32.28 32.28 0 01-.38-4.29 191.257 191.257 0 010-14.92 22.21 22.21 0 01.4-3.85 7.19 7.19 0 011-2.64 2.82 2.82 0 01.64-.65c.35-.26 2.84-2.27 3.06-2.43a2.52 2.52 0 011.27-.51 4.997 4.997 0 012.88.87 10.064 10.064 0 012.85 2.46 12.968 12.968 0 011.84 3.24 18.303 18.303 0 011 3.83 43.62 43.62 0 01.43 4.33c.173 5 .18 9.97.02 14.91z" fill="#6ADF91"/><path d="M302.699 160.29a2.932 2.932 0 01-1.1-1.34 4.5 4.5 0 01-.46-2v-9.05l-18.14-10.45a2.881 2.881 0 01-1.1-1.34 4.487 4.487 0 01-.46-2v-9.41a6.001 6.001 0 01.75-3.39l17.24-23.51a1.73 1.73 0 01.95-.74c.424-.001.837.132 1.18.38l8.71 5c.491.329.873.795 1.1 1.34.299.625.456 1.308.46 2v34.08l4.95 2.87c.496.323.88.791 1.1 1.34.306.622.463 1.307.46 2v9.41a1.89 1.89 0 01-.46 1.42.841.841 0 01-1.1.08l-4.95-2.86v9.05a1.923 1.923 0 01-.46 1.42.841.841 0 01-1.1.08l-7.57-4.38zm-1.27-26.39v-16.33l-8.43 11.43 8.43 4.9z" fill="#263238"/><path d="M317.862 156.88a1.874 1.874 0 00.461-1.42v-2.07l-3.391-2-3.12 2.67 4.951 2.86a.835.835 0 001.099-.04zm-6.053 4.2v2.07a1.86 1.86 0 01-.47 1.42.841.841 0 01-1.1.08l-7.54-4.36a2.943 2.943 0 01-1.1-1.34l-.06-.16 3.12-2.66a3.008 3.008 0 001.16 1.5l5.99 3.45zm-7.546-15.8l-3.12 2.66-18.14-10.49a2.893 2.893 0 01-1.08-1.34c-.05-.1-.071-.19-.111-.29l3.231-2.38a2.84 2.84 0 001.1 1.35l18.12 10.49z" fill="#37474F"/><path d="M316.76 142.57l-4.95-2.86v-34.09a4.633 4.633 0 00-.46-2 2.943 2.943 0 00-1.1-1.34l-8.71-5a2.428 2.428 0 00-.41-.19l-15.84 21.61a5.995 5.995 0 00-.75 3.38v9.41c.001.694.162 1.378.47 2a2.865 2.865 0 001.09 1.34l18.16 10.49v9.05c.005.676.162 1.343.46 1.95a2.997 2.997 0 001.1 1.35l6 3.45v-7l3.12-2.67 3.39 2v-7.52a4.559 4.559 0 00-.46-2 2.875 2.875 0 00-1.11-1.36zm-12.21-11.33l-3.12 2.48-8.43-4.86 8.42-11.48 3.12-2.47.01 16.33z" fill="#6ADF91"/><path d="M382.902 206.59a2.875 2.875 0 01-1.1-1.34 4.502 4.502 0 01-.46-1.95v-9.06l-18.16-10.48a2.905 2.905 0 01-1.1-1.35 4.502 4.502 0 01-.46-1.95v-9.41a5.995 5.995 0 01.75-3.38l17.24-23.51c.209-.36.55-.625.95-.74a2 2 0 011.18.37l8.71 5c.49.327.87.794 1.09 1.34.306.622.463 1.307.46 2v34.07l5 2.86c.496.323.88.791 1.1 1.34.303.623.461 1.307.46 2v9.41a1.903 1.903 0 01-.46 1.42.843.843 0 01-1.1.07l-5-2.86v9a1.87 1.87 0 01-.46 1.42.822.822 0 01-1.09.08l-7.55-4.35zm-1.27-26.38v-16.34l-8.42 11.48 8.42 4.86z" fill="#263238"/><path d="M398.06 203.19a1.889 1.889 0 00.46-1.42v-2.07l-3.39-2-3.13 2.7 5 2.86a.84.84 0 001.06-.07zm-6.06 4.2v2.07a1.854 1.854 0 01-.47 1.41.828.828 0 01-1.1.08l-7.54-4.35a3.004 3.004 0 01-1.1-1.35l-.06-.16 3.12-2.66c.012.056.032.11.06.16.227.545.61 1.011 1.1 1.34l5.99 3.46zm-7.54-15.81l-3.12 2.67-18.17-10.5a2.795 2.795 0 01-1.08-1.34 1.645 1.645 0 01-.11-.28l3.23-2.38c.22.547.6 1.014 1.09 1.34l18.16 10.49z" fill="#37474F"/><path d="M397 188.87l-5-2.87v-34.08a4.502 4.502 0 00-.46-1.95 2.926 2.926 0 00-1.09-1.34l-8.71-5a3.71 3.71 0 00-.41-.19L365.49 165a5.993 5.993 0 00-.75 3.39v9.41c.008.677.169 1.344.47 1.95a2.859 2.859 0 001.09 1.34l18.16 10.49v9a4.5 4.5 0 00.46 2 2.926 2.926 0 001.1 1.34l6 3.45v-7l3.13-2.66 3.39 2v-7.53a4.502 4.502 0 00-.46-1.95 3 3 0 00-1.08-1.36zm-12.21-11.33l-3.16 2.46-8.42-4.86 8.42-11.48 3.12-2.47.04 16.35z" fill="#6ADF91"/><path d="M286.881 177.89a.576.576 0 01.21.26.848.848 0 01.09.37v1.81a.396.396 0 01-.017.149.401.401 0 01-.073.131.162.162 0 01-.21 0l-5.26-3a.627.627 0 01-.21-.26.86.86 0 01-.08-.38v-11a.37.37 0 01.08-.28.16.16 0 01.21 0l5.18 3a.635.635 0 01.21.26c.051.12.078.249.08.38v1.81a.414.414 0 01-.08.27.167.167 0 01-.105.036.167.167 0 01-.105-.036l-3.42-2v1.85l3.17 1.83a.576.576 0 01.21.26.848.848 0 01.09.37v1.82a.388.388 0 01-.018.144.386.386 0 01-.072.126.148.148 0 01-.105.043.147.147 0 01-.105-.043l-3.17-1.81v1.92l3.5 1.97zm5.469-2.99c.1.06.178.152.22.26.05.117.078.243.08.37v1.73a.408.408 0 01-.08.27.171.171 0 01-.22 0l-1-.58c-.68-.39-1-.06-1 1v4.21a.369.369 0 01-.09.27c-.05.06-.12.06-.21 0l-1.39-.8a.513.513 0 01-.21-.26.892.892 0 01-.09-.38v-8a.388.388 0 01.018-.144.386.386 0 01.072-.126c.05-.06.12-.06.21 0l1.28.74a.563.563 0 01.21.26.834.834 0 01.09.37v.4c.171-.156.39-.247.62-.26.306-.004.605.083.86.25l.63.42zm5.1 2.94a.517.517 0 01.21.26.834.834 0 01.09.37v1.73a.369.369 0 01-.09.27.148.148 0 01-.105.043.148.148 0 01-.105-.043l-1-.58c-.68-.39-1-.06-1 1v4.21a.369.369 0 01-.09.27.148.148 0 01-.105.043.148.148 0 01-.105-.043l-1.4-.8a.635.635 0 01-.21-.26.877.877 0 01-.09-.38v-8a.388.388 0 01.018-.144.386.386 0 01.072-.126.153.153 0 01.105-.043c.039 0 .077.016.105.043l1.29.74a.563.563 0 01.21.26.834.834 0 01.09.37v.4a.941.941 0 01.61-.26c.305-.004.605.083.86.25l.64.42zm6.801 7.72v1.31c-.007.477-.091.95-.25 1.4a1.992 1.992 0 01-.61.9c-.262.213-.593.32-.93.3a2.504 2.504 0 01-1.23-.39 4.921 4.921 0 01-1.23-1 6.592 6.592 0 01-.93-1.39 7.554 7.554 0 01-.61-1.6 7.69 7.69 0 01-.25-1.68v-1.32c.001-.476.078-.949.23-1.4.124-.349.337-.66.62-.9.268-.21.6-.319.94-.31.437.02.861.155 1.23.39.461.265.877.602 1.23 1 .365.43.681.899.94 1.4.259.514.464 1.054.61 1.61.139.55.219 1.113.24 1.68zm-4-1.11c.012.417.114.827.3 1.2.157.326.408.597.72.78a.62.62 0 00.72 0 1.106 1.106 0 00.3-.84 4.756 4.756 0 000-.56c.011-.2.011-.4 0-.6a2.861 2.861 0 00-.3-1.19 1.894 1.894 0 00-.72-.78c-.3-.17-.54-.19-.72-.05a1.106 1.106 0 00-.3.84c-.011.19-.011.38 0 .57a5.302 5.302 0 00-.04.63h.04zm9.071.24a.635.635 0 01.21.26.877.877 0 01.09.38v1.72a.34.34 0 01-.09.27.148.148 0 01-.105.043.147.147 0 01-.105-.043l-1-.58c-.68-.4-1-.07-1 1v4.2a.34.34 0 01-.09.27.148.148 0 01-.105.043.147.147 0 01-.105-.043l-1.4-.81a.563.563 0 01-.21-.26.834.834 0 01-.09-.37v-8a.36.36 0 01.017-.149.368.368 0 01.073-.131.16.16 0 01.21 0l1.29.74a.635.635 0 01.21.26.877.877 0 01.09.38v.39c.168-.153.383-.245.61-.26.306 0 .605.09.86.26l.64.43zm.438 6.65a.759.759 0 01.14-.38c.08-.09.19-.1.34 0l1.36.78a.483.483 0 01.18.21.92.92 0 01.07.31v.11l-.87 2.9a.852.852 0 01-.15.28c-.07.08-.18.08-.33 0l-.83-.48a.377.377 0 01-.17-.21.652.652 0 01-.07-.3l.33-3.22zm9.001 7.86a3.145 3.145 0 01-.57-.43 3.783 3.783 0 01-.72-1.01c-.08-.17-.15-.31-.2-.45V201a.34.34 0 01-.09.27.155.155 0 01-.105.043.15.15 0 01-.105-.043l-1.4-.81a.517.517 0 01-.21-.26.834.834 0 01-.09-.37v-11.24a.351.351 0 01.018-.144.353.353 0 01.072-.126.163.163 0 01.105-.036c.038 0 .075.012.105.036l1.35.78a.576.576 0 01.21.26.862.862 0 01.09.37v.4c.06-.08.14-.16.21-.24a.63.63 0 01.29-.16.853.853 0 01.42 0c.219.051.429.139.62.26.353.207.671.47.94.78.316.346.579.737.78 1.16.232.493.413 1.009.54 1.54a8.92 8.92 0 01.22 1.87v1.38a5.692 5.692 0 01-.22 1.61 2.083 2.083 0 01-.54.91 1.059 1.059 0 01-.78.28 2.049 2.049 0 01-.94-.32zm.5-3.85a7.944 7.944 0 000-1 3.8 3.8 0 00-.26-1.19 1.623 1.623 0 00-.74-.87.747.747 0 00-.42-.12.466.466 0 00-.3.14 1.276 1.276 0 00-.18.33 2.868 2.868 0 00-.09.45v1.19c.02.185.05.368.09.55.047.184.108.364.18.54a2.2 2.2 0 00.3.49c.115.146.258.268.42.36.35.2.6.2.74 0 .163-.261.252-.562.26-.87zm2.67 2.98a1.82 1.82 0 01.56-1.54 2.12 2.12 0 011.83 0l1.3.41a1.855 1.855 0 00-.15-.76 1.12 1.12 0 00-.5-.56.641.641 0 00-.39-.11.696.696 0 00-.21.08.242.242 0 01-.088.051.252.252 0 01-.102.009.684.684 0 01-.21-.09l-1.41-.81a.539.539 0 01-.18-.21.563.563 0 01-.06-.31c.017-.244.092-.481.22-.69a1.32 1.32 0 01.55-.47c.262-.109.548-.151.83-.12.373.045.732.171 1.05.37a4.77 4.77 0 011.18.94c.329.352.605.749.82 1.18.218.428.382.882.49 1.35.101.484.151.976.15 1.47v5.18a.369.369 0 01-.09.27.148.148 0 01-.105.043.148.148 0 01-.105-.043l-1.4-.8a.635.635 0 01-.21-.26.874.874 0 01-.08-.38V202a.989.989 0 01-.66.43 1.612 1.612 0 01-1-.3 3.29 3.29 0 01-.85-.69 4.006 4.006 0 01-.62-.92 4.996 4.996 0 01-.39-1.08 5.548 5.548 0 01-.17-1.11zm2.53 1.85a.866.866 0 00.46.14.568.568 0 00.36-.14.861.861 0 00.25-.38c.064-.19.094-.39.09-.59l-1-.35a.623.623 0 00-.49 0 .454.454 0 00-.18.42c-.005.19.043.377.14.54.094.148.22.271.37.36zm7.12 7.44a.894.894 0 00.75.14c.21-.08.32-.32.32-.72v-1.19a1.666 1.666 0 01-.22.24.547.547 0 01-.29.16.853.853 0 01-.42 0 2.058 2.058 0 01-.61-.26 3.984 3.984 0 01-.95-.77 5.235 5.235 0 01-.77-1.16 7.698 7.698 0 01-.54-1.51 8.525 8.525 0 01-.23-1.82v-1.21c0-.532.078-1.061.23-1.57.1-.336.286-.639.54-.88.212-.186.488-.283.77-.27.336.031.661.137.95.31a3.552 3.552 0 011.4 1.5c.08.17.14.32.19.45v-.39a.377.377 0 01.09-.28.183.183 0 01.11-.038c.04 0 .079.014.11.038l1.28.74a.563.563 0 01.21.26.834.834 0 01.09.37v8.32a4.168 4.168 0 01-.23 1.55 1.75 1.75 0 01-.62.86 1.39 1.39 0 01-1 .17 3.57 3.57 0 01-1.22-.46 5.486 5.486 0 01-1.41-1.15 5.997 5.997 0 01-.86-1.3 5.391 5.391 0 01-.43-1.24 5.192 5.192 0 01-.14-1 .31.31 0 01.09-.28.162.162 0 01.21 0l1.44.83a.858.858 0 01.35.54c.053.188.134.366.24.53.139.215.337.385.57.49zm-1-6.79a2.966 2.966 0 000 .4 4.036 4.036 0 000 .44c.016.394.108.781.27 1.14.145.345.402.631.73.81.3.18.53.18.69 0 .177-.196.279-.447.29-.71.04-.359.04-.721 0-1.08a2.986 2.986 0 00-.28-1 1.73 1.73 0 00-.7-.78c-.32-.19-.56-.2-.72 0a1.218 1.218 0 00-.25.78h-.03zm7.029 5.61c-.004.236.027.472.09.7.058.192.138.377.24.55.088.147.195.282.32.4.109.097.226.184.35.26.157.103.334.171.52.2a.467.467 0 00.33-.1.362.362 0 01.18-.09.303.303 0 01.19.06l1.44.83a.558.558 0 01.24.52 1.221 1.221 0 01-.16.53 1.508 1.508 0 01-.52.55 1.538 1.538 0 01-.9.24 2.657 2.657 0 01-1.32-.43 5.2 5.2 0 01-1.28-1.06 6.088 6.088 0 01-.95-1.46 8.245 8.245 0 01-.57-1.78 10.453 10.453 0 01-.2-2.05 6.688 6.688 0 01.2-1.72c.092-.419.288-.807.57-1.13.25-.257.591-.408.95-.42.455.004.9.139 1.28.39.538.31 1.007.724 1.38 1.22.379.498.691 1.042.93 1.62.238.579.413 1.183.52 1.8a9.76 9.76 0 01.16 1.74v.48a.369.369 0 01-.09.27.148.148 0 01-.105.043.148.148 0 01-.105-.043l-3.69-2.12zm1-2.7c-.31-.18-.55-.18-.71 0a1.368 1.368 0 00-.29.79l2 1.16a3.684 3.684 0 00-.29-1.13 1.766 1.766 0 00-.71-.82zm12.272 13.37a.369.369 0 01-.09.27.167.167 0 01-.105.036.167.167 0 01-.105-.036l-1.4-.81a.57.57 0 01-.21-.26.834.834 0 01-.09-.37v-4.33a3.618 3.618 0 00-.23-1.31 1.708 1.708 0 00-.73-.87c-.34-.19-.58-.18-.73 0a1.817 1.817 0 00-.23 1v4.33a.388.388 0 01-.018.144.386.386 0 01-.072.126.153.153 0 01-.105.043.153.153 0 01-.105-.043l-1.4-.8a.627.627 0 01-.21-.26.877.877 0 01-.09-.38v-8a.369.369 0 01.09-.27.153.153 0 01.105-.043c.039 0 .077.016.105.043l1.35.77a.576.576 0 01.21.26.834.834 0 01.09.37v.4a1.2 1.2 0 01.22-.23.602.602 0 01.32-.15c.145-.03.295-.03.44 0 .204.056.399.14.58.25.373.209.71.476 1 .79.307.345.563.732.76 1.15.221.479.386.983.49 1.5.125.605.185 1.222.18 1.84l-.02 4.84zm7.02-.58v1.32a4.357 4.357 0 01-.24 1.39 2.063 2.063 0 01-.61.91 1.402 1.402 0 01-.94.3 2.53 2.53 0 01-1.23-.4 4.878 4.878 0 01-1.22-1 6.636 6.636 0 01-.94-1.39 7.987 7.987 0 01-.61-1.61 6.96 6.96 0 01-.24-1.68v-1.31c-.01-.477.068-.951.23-1.4.116-.351.327-.662.61-.9a1.428 1.428 0 011-.31c.433.022.854.156 1.22.39.461.265.877.602 1.23 1 .367.428.683.898.94 1.4.263.512.468 1.052.61 1.61.131.55.195 1.114.19 1.68zm-4-1.1c.02.414.125.819.31 1.19.157.323.403.593.71.78.3.18.54.19.72 0a1.106 1.106 0 00.3-.84c.011-.19.011-.38 0-.57a5.278 5.278 0 000-.59 2.83 2.83 0 00-.3-1.19 1.82 1.82 0 00-.72-.78.59.59 0 00-.71 0 1.135 1.135 0 00-.31.84v.57c0 .22-.05.41-.04.59h.04zm7.65 4.83c-.005.228.032.455.11.67a.869.869 0 00.37.43l.89.51a.576.576 0 01.21.26.85.85 0 01.09.38v1.72a.34.34 0 01-.09.27.148.148 0 01-.105.043.147.147 0 01-.105-.043l-1.06-.61a3.877 3.877 0 01-.95-.78 5.108 5.108 0 01-.72-1.08 6.152 6.152 0 01-.47-1.33 6.672 6.672 0 01-.17-1.51v-2.87l-.82-.47a.563.563 0 01-.21-.26.834.834 0 01-.09-.37v-1.73a.34.34 0 01.09-.27.15.15 0 01.21 0l.82.48v-2.79a.35.35 0 01.09-.27.173.173 0 01.105-.036c.038 0 .075.013.105.036l1.4.81a.576.576 0 01.21.26.848.848 0 01.09.37v2.79l1.25.72a.587.587 0 01.22.26.874.874 0 01.08.38v1.72a.386.386 0 01-.08.28.183.183 0 01-.11.038.181.181 0 01-.11-.038l-1.25-.72v2.75zm7.451-1.1l1.36.79a.608.608 0 01.21.25.926.926 0 01.09.38v1.73a.388.388 0 01-.018.144.386.386 0 01-.072.126.167.167 0 01-.105.036.167.167 0 01-.105-.036l-1.36-.79v5.77a.34.34 0 01-.09.27.148.148 0 01-.105.043.147.147 0 01-.105-.043l-1.4-.81a.517.517 0 01-.21-.26.834.834 0 01-.09-.37v-5.78l-.76-.44a.486.486 0 01-.24-.17 1.003 1.003 0 01-.08-.37v-1.73a.408.408 0 01.08-.27.18.18 0 01.22 0l.76.45v-.46c-.012-.44.049-.879.18-1.3.09-.293.268-.551.51-.74.219-.159.49-.23.76-.2.354.031.697.144 1 .33l1.05.61a.513.513 0 01.21.26.892.892 0 01.09.38v1.72a.384.384 0 01-.09.28.162.162 0 01-.21 0l-1-.58c-.18-.1-.31-.1-.38 0a.837.837 0 00-.1.47v.31zm8.217 8.53V229c-.008.477-.092.95-.25 1.4-.12.349-.331.659-.61.9a1.37 1.37 0 01-.93.3 2.519 2.519 0 01-1.23-.4 4.864 4.864 0 01-1.23-1 6.592 6.592 0 01-.93-1.39 7.996 7.996 0 01-.86-3.28v-1.32c0-.476.078-.949.23-1.4.119-.352.333-.663.62-.9.267-.21.6-.319.94-.31.437.02.861.155 1.23.39a4.94 4.94 0 011.23 1c.365.43.68.899.94 1.4.266.513.477 1.053.63 1.61.132.554.206 1.121.22 1.69zm-4-1.11c.011.417.114.827.3 1.2.157.326.408.597.72.78a.62.62 0 00.72 0 1.106 1.106 0 00.3-.84v-1.16a2.861 2.861 0 00-.3-1.19 1.9 1.9 0 00-.72-.78c-.3-.17-.54-.19-.72 0a1.091 1.091 0 00-.3.84c-.011.19-.011.38 0 .57a5.364 5.364 0 00-.04.58h.04zm4.992-1.65a.37.37 0 01.08-.28.16.16 0 01.21 0l1.4.8a.635.635 0 01.21.26.877.877 0 01.09.38v4.32c-.008.442.063.883.21 1.3.125.357.373.659.7.85.33.19.56.17.7-.05.156-.33.225-.695.2-1.06v-4.32a.369.369 0 01.09-.27.173.173 0 01.105-.036c.038 0 .075.013.105.036l1.4.81a.576.576 0 01.21.26.85.85 0 01.09.38v8a.388.388 0 01-.018.144.386.386 0 01-.072.126.148.148 0 01-.105.043.147.147 0 01-.105-.043l-1.29-.74a.563.563 0 01-.21-.26.834.834 0 01-.09-.37v-.4a1.25 1.25 0 01-.22.25.74.74 0 01-.31.14 1.124 1.124 0 01-.44 0 1.91 1.91 0 01-.59-.24 4.4 4.4 0 01-1.72-1.93 7.693 7.693 0 01-.63-3.33v-4.77zm12.998 15.46a.325.325 0 01-.015.145.327.327 0 01-.075.125.15.15 0 01-.21 0l-1.4-.81a.523.523 0 01-.21-.26.862.862 0 01-.09-.37v-4.32a3.628 3.628 0 00-.23-1.32 1.726 1.726 0 00-.73-.86c-.34-.2-.58-.19-.73 0-.178.32-.258.685-.23 1.05v4.32a.325.325 0 01-.015.145.327.327 0 01-.075.125.147.147 0 01-.105.043.148.148 0 01-.105-.043l-1.4-.81a.576.576 0 01-.21-.26.862.862 0 01-.09-.37v-8a.396.396 0 01.017-.149.401.401 0 01.073-.131.16.16 0 01.21 0l1.35.77a.62.62 0 01.21.26.863.863 0 01.09.38v.39c.061-.088.135-.165.22-.23a.798.798 0 01.32-.15c.146-.029.295-.029.44 0 .206.047.402.128.58.24.373.209.711.476 1 .79.306.347.561.734.76 1.15.222.479.386.983.49 1.5.125.605.185 1.222.18 1.84l-.02 4.81zm3.489-6.57c.212.112.404.257.57.43a3.93 3.93 0 01.72 1c.08.17.15.32.2.45v-3.64a.369.369 0 01.09-.27.173.173 0 01.105-.036c.038 0 .075.013.105.036l1.4.81a.576.576 0 01.21.26.85.85 0 01.09.38v11.2a.34.34 0 01-.09.27.148.148 0 01-.105.043.148.148 0 01-.105-.043l-1.35-.78a.54.54 0 01-.21-.25.91.91 0 01-.09-.38v-.39a2.284 2.284 0 01-.21.24.76.76 0 01-.29.16.853.853 0 01-.42 0 2.115 2.115 0 01-.62-.26 4.12 4.12 0 01-.94-.77 4.966 4.966 0 01-.78-1.17 7.602 7.602 0 01-.54-1.53 8.987 8.987 0 01-.22-1.87v-1.39a5.697 5.697 0 01.22-1.61c.1-.344.286-.657.54-.91a1.067 1.067 0 01.78-.28 2 2 0 01.94.3zm-.5 3.84a7.584 7.584 0 000 1c.025.408.113.809.26 1.19.137.368.399.676.74.87.123.086.27.132.42.13a.476.476 0 00.3-.15.887.887 0 00.18-.33c.042-.144.072-.291.09-.44v-1.2c0-.18-.05-.36-.09-.55a2.877 2.877 0 00-.18-.54 2.171 2.171 0 00-.3-.48 1.501 1.501 0 00-.42-.37c-.35-.2-.59-.19-.74 0a1.763 1.763 0 00-.26.87z" fill="#FAFAFA"/></svg>