<svg width="570" height="571" fill="none" xmlns="http://www.w3.org/2000/svg"><path d="M285.222 544.023c145.067 0 262.668-67.883 262.668-151.62 0-83.738-117.601-151.62-262.668-151.62S22.555 308.665 22.555 392.403c0 83.737 117.6 151.62 262.667 151.62z" fill="#F5F5F5"/><path d="M496.942 73.374l-7.045-4.07a6.957 6.957 0 000-.867v-2.04a12.533 12.533 0 00-5.7-9.861 4.452 4.452 0 00-3.42-.661c-.513-5.165-4.104-11.001-8.459-13.51-4.697-2.724-8.516-.524-8.516 4.914v3.055c.021 1.483.263 2.955.719 4.366l-5.849-3.42c-1.744-1.003-3.157-.193-3.157 1.824a6.976 6.976 0 003.157 5.472l38.179 22.048c1.744 1.003 3.158.194 3.158-1.824a6.987 6.987 0 00-3.067-5.426zm-94.176-22.413l3.888 1.494v-8.562c0-6.84 5.415-8.413 11.297-5.027 5.883 3.42 10.648 11.65 10.648 18.445v1.243a5.698 5.698 0 014.936.752 16.969 16.969 0 017.661 13.27v.57l5.415 3.089a11.17 11.17 0 015.05 8.732c0 3.227-2.28 4.56-5.05 2.919l-43.845-25.308a11.18 11.18 0 01-5.038-8.744c0-3.18 2.257-4.48 5.038-2.873z" fill="#EBEBEB"/><path d="M416.378 495.31c43.682 0 79.093-20.441 79.093-45.657 0-25.216-35.411-45.657-79.093-45.657s-79.093 20.441-79.093 45.657c0 25.216 35.411 45.657 79.093 45.657zm-302.179-40.755l128.706-74.305a1.551 1.551 0 000-2.941l-9.246-5.335a5.69 5.69 0 00-5.095 0l-52.247 30.164a5.548 5.548 0 01-5.084 0l-95.258-54.994a5.705 5.705 0 00-5.096 0l-4.469 2.577a1.55 1.55 0 000 2.941l95.35 55.051a1.551 1.551 0 010 2.941L99.858 446.29a1.557 1.557 0 00-1.043 1.465 1.55 1.55 0 001.043 1.465l9.245 5.335a5.59 5.59 0 005.096 0z" fill="#E0E0E0"/><path d="M123.946 439.895l9.12-5.187s4.355-23.997 1.14-44.631c-4.56-29.002-24.328-39.011-31.498-36.127-7.17 2.884-8.858 11.48 4.104 28.238 7.547 9.93 17.373 30.837 17.134 57.707z" fill="#6ADF91"/><path opacity=".15" d="M123.946 439.895l9.12-5.187s4.355-23.997 1.14-44.631c-4.56-29.002-24.328-39.011-31.498-36.127-7.17 2.884-8.858 11.48 4.104 28.238 7.547 9.93 17.373 30.837 17.134 57.707z" fill="#000"/><path d="M127.229 428.427h-.08a.648.648 0 01-.559-.73c3.751-27.155-7.17-56.909-19.38-68.89a.664.664 0 010-.924.654.654 0 01.912 0c12.54 12.198 23.633 42.443 19.825 69.996a.663.663 0 01-.718.548z" fill="#fff"/><path d="M98.752 454.498c-1.436.821-4.39-.98-5.53-1.744a13.59 13.59 0 01-4.56-5.221 12.745 12.745 0 01-1.14-7.706 29.61 29.61 0 01.97-4.093 756.89 756.89 0 001.14-3.979 10.13 10.13 0 00.581-4.012c-.353-2.725-2.77-4.629-4.959-6.27-2.428-1.824-4.959-4.218-4.947-7.49a11.5 11.5 0 012.895-6.84c1.562-1.984 3.42-3.739 4.834-5.826a8.115 8.115 0 001.653-5.095 8.257 8.257 0 00-1.14-3.17c-1.14-2.131-2.68-4.092-3.42-6.384-.741-2.291-.684-5.141 1.14-6.771 1.47-1.345 3.648-1.539 5.631-1.402 1.861.222 3.651.848 5.244 1.835 5.199 2.896 8.163 9.052 13.68 11.275a53.419 53.419 0 006.681 1.63c2.28.593 4.48 1.721 5.506 3.773 2.029 4.047-1.733 9.029-.308 13.327 1.266 3.796 4.948 5.255 7.023 8.675a8.11 8.11 0 01.969 4.982 23.505 23.505 0 01-2.098 8.402 59.044 59.044 0 01-4.56 7.569c-.182.069-25.069 14.41-25.285 14.535z" fill="#6ADF91"/><path d="M113.492 446.644a.661.661 0 01-.453-.207.646.646 0 01-.174-.466c1.072-25.707-11.035-54.082-19.847-62.324a.648.648 0 010-.912.663.663 0 01.923 0c8.984 8.413 21.341 37.255 20.258 63.327a.661.661 0 01-.707.582z" fill="#fff"/><path d="M109.639 416.274a.574.574 0 01-.194 0 86.608 86.608 0 00-18.65-3.009.654.654 0 01-.621-.679.651.651 0 01.678-.621 89.252 89.252 0 0118.981 3.067.628.628 0 01.381.316.637.637 0 01-.195.812.628.628 0 01-.38.114z" fill="#fff"/><path d="M199.801 356.344v-3.351l-59.679 34.519 2.839 1.676 56.84-32.844zm-74.419-227.237a.801.801 0 01.388.855L76.316 349.469l-1.402 6.225a3.885 3.885 0 01-1.983-.388l-3.306-1.949a.8.8 0 01-.377-.867l50.765-225.321a.79.79 0 01.442-.539c.11-.05.23-.075.351-.073a.81.81 0 01.347.088l4.229 2.462z" fill="#37474F"/><path d="M131.583 126.11L80.58 352.502a1.308 1.308 0 01-.638.855l-3.318 1.916a3.34 3.34 0 01-1.71.421l1.402-6.224 49.579-220.02 5.688-3.34z" fill="#455A64"/><path d="M137.283 431.208v6.544a3.916 3.916 0 01-1.835-.411l-3.078-1.778a1.29 1.29 0 01-.741-1.06V237.887l5.7 3.283-.046 190.038z" fill="#37474F"/><path d="M142.972 237.898v196.639a1.271 1.271 0 01-.752.992l-3.055 1.778a3.65 3.65 0 01-1.858.445V241.17l5.665-3.272z" fill="#455A64"/><path d="M211.064 395.161a3.85 3.85 0 01-1.778-.513l-3.17-1.835a1.62 1.62 0 01-.775-1.14L171.438 214.87l5.7 3.284L209.844 388.8l1.22 6.361z" fill="#37474F"/><path d="M216.742 391.844a1.32 1.32 0 01-.787 1.071l-2.895 1.688-.137.079a3.83 3.83 0 01-1.858.445l-1.22-6.327-32.718-170.647 5.7-3.271 33.847 176.7.068.262z" fill="#455A64"/><path d="M141.012 396.86l64.467-37.221v-6.566l-64.467 37.221v6.566z" fill="#455A64"/><path d="M208.272 45.99l-.114-.068-.308-.17c-1.653-.936-8.493-4.789-23.256-13.259-11.776-6.772-26.391-6.361-42.18 2.782-39.034 22.515-70.634 89.41-70.623 149.431 0 35.625 11.15 60.83 28.352 70.68 10.351 5.939 20.976 11.958 23.393 13.338.091.042.178.092.262.148l.251.137c11.696 6.509 26.151 6.008 41.792-3.021 38.977-22.515 70.577-89.41 70.577-149.431.012-35.477-11.046-60.614-28.146-70.566z" fill="#6ADF91"/><path opacity=".1" d="M208.272 45.99l-.114-.068-.308-.17c-1.653-.936-8.493-4.789-23.256-13.259-11.776-6.772-26.391-6.361-42.18 2.782-39.034 22.515-70.634 89.41-70.623 149.431 0 35.625 11.15 60.83 28.352 70.68 10.351 5.939 20.976 11.958 23.393 13.338.091.042.178.092.262.148l.251.137c11.696 6.509 26.151 6.008 41.792-3.021 38.977-22.515 70.577-89.41 70.577-149.431.012-35.477-11.046-60.614-28.146-70.566z" fill="#000"/><path opacity=".1" d="M221.359 192.401L85.026 113.684c-8.333 22.652-13.235 47.367-13.235 71.022 0 35.625 11.15 60.83 28.352 70.68 10.351 5.939 20.976 11.958 23.393 13.338.091.042.178.092.262.148l.251.137c11.696 6.509 26.151 6.008 41.792-3.021 22.538-12.985 42.602-40.824 55.518-73.587z" fill="#000"/><path opacity=".1" d="M71.904 191.455c1.334 32.068 12.118 54.72 28.215 63.954 10.351 5.939 20.976 11.958 23.393 13.338.091.042.179.092.262.148l.251.137c11.696 6.509 26.152 6.007 41.792-3.021a88.54 88.54 0 0015.356-11.457L71.904 191.455z" fill="#000"/><path d="M165.84 48.67c-38.976 22.503-70.566 89.398-70.566 149.419 0 60.021 31.601 90.425 70.578 67.922 38.976-22.504 70.577-89.456 70.577-149.432 0-59.975-31.601-90.424-70.589-67.91z" fill="#6ADF91"/><path d="M165.841 70.25c-31.236 18.034-56.556 71.649-56.556 119.7s25.331 72.469 56.567 54.435c31.236-18.035 56.533-71.615 56.533-119.712 0-48.096-25.297-72.47-56.544-54.423z" fill="#FAFAFA"/><path d="M165.852 91.83c-23.506 13.566-42.544 53.899-42.544 90.06s19.049 54.515 42.544 40.949c23.496-13.566 42.545-53.899 42.545-90.06s-19.072-54.526-42.545-40.949z" fill="#6ADF91"/><path d="M165.852 113.41c-15.767 9.12-28.5 36.138-28.5 60.42 0 24.282 12.779 36.56 28.5 27.463 15.72-9.097 28.5-36.15 28.5-60.42 0-24.271-12.746-36.571-28.5-27.463z" fill="#FAFAFA"/><path d="M165.852 134.979c-7.98 4.64-14.524 18.4-14.512 30.78.011 12.38 6.498 18.605 14.512 13.976 8.014-4.628 14.512-18.388 14.512-30.78 0-12.391-6.498-18.604-14.512-13.976z" fill="#455A64"/><path d="M431.449 426.09c-.297 2.143-1.277 3.898 1.527 8.88 2.178 3.853 5.324 5.461 7.353 6.84a31.77 31.77 0 016.099 5.7 27.166 27.166 0 006.407 6.202c1.915 1.265 6.84.775 8.995-.502 2.154-1.277 2.85-3.34 2.223-7.056-.627-3.717-12.119-3.546-12.119-3.546l-20.485-16.518z" fill="#37474F"/><path d="M462.138 403.415l-.57 34.861c0 2.052-11.252 4.617-13.68-.068a76.978 76.978 0 00-1.688-10.694c-.877-3.499-2.371-9.587-2.371-9.587-1.277-7.262-1.847-12.62-1.847-12.62l20.156-1.892zm-51.814 16.051s-5.301 32.262-5.461 34.041c-.159 1.778-5.164 2.929-8.869 2.815-3.705-.114-5.894-1.835-5.859-2.633l-.912-34.428 21.101.205z" fill="#FFA8A7"/><path d="M415.044 376.5s.456-6.214 4.127-24.967c2.554-12.996 4.674-26.949 4.674-26.949s4.56 16.826 7.239 30.084c1.915 9.645 3.842 18.731 7.558 37.108a228.825 228.825 0 005.928 23.94c7.148 3.796 17.602-.559 17.602-.559s.433-11.206.285-25.08c-.182-17.967-4.115-25-4.115-25s-1.517-24.225-2.28-42.112c-1.026-25.365-.24-49.02-6.213-68.765-.924-.251-57-24.749-58.46 8.801-.353 8.288-.969 30.347-1.561 48.051-1.015 30.005-.73 52.326-.764 62.54-.205 9.839-.297 19.061-.114 37.415.091 7.98.558 14.82.558 14.82 6.726 4.56 21.102-1.003 21.102-1.003s.638-7.889 2.622-19.038c3.534-19.471 1.812-29.286 1.812-29.286z" fill="#37474F"/><path opacity=".2" d="M414.896 302.08c-3.158-.912-9.508-4.639-10.682-7.011-1.356-2.724-1.653-17.031-1.664-17.635v-.559l23.085-1.642.068.502a144.776 144.776 0 011.357 15.755v.741c.091 2.28-8.995 9.279-9.918 9.838a1.467 1.467 0 01-.753.205 5.234 5.234 0 01-1.493-.194zm-11.252-24.156c.103 4.412.547 14.66 1.551 16.667 1.003 2.006 6.84 5.551 10.009 6.452 1.14.319 1.391.16 1.402.16 1.984-1.22 9.451-7.593 9.405-8.892v-.753a138.985 138.985 0 00-1.277-15.139l-21.09 1.505zm51.642 17.978l.217-1.14c-3.91-1.881-9.599-5.016-10.032-6.077-.536-1.299-1.539-10.431-1.938-14.409 1.14-.297 4.708-1.14 10.055-2.28l-.217-1.06c-6.68 1.413-10.522 2.428-10.556 2.439l-.445.114v.456c.137 1.368 1.345 13.418 2.052 15.174.707 1.755 9.234 5.996 10.864 6.783z" fill="#000"/><path d="M389.12 416.696l.103 2.565s2.063 2.69 10.91 2.873c8.846.182 11.149-2.121 11.149-2.121l.285-2.143c1.414.331 1.14 2.006.205 6.19-.935 4.184-1.71 7.798-2.622 8.664-.912.867-5.7 2.349-10.887 2.109-5.187-.239-8.595-2.394-9.507-3.648-.912-1.254-1.22-6.27-1.471-8.972-.251-2.701.296-5.415 1.835-5.517zm52.007-13.691l.627 2.565s2.018 2.28 10.841 1.527c8.824-.752 9.85-3.226 9.85-3.226v-2.075c1.881.285 2.371 1.767 1.892 6.019-.479 4.253-.9 7.98-1.71 8.892-.809.912-5.392 2.907-10.613 3.215-5.221.308-7.684-1.311-8.71-2.462-1.026-1.152-1.961-6.635-2.485-9.303-.524-2.667-1.197-4.879.308-5.152z" fill="#6ADF91"/><path opacity=".2" d="M423.856 324.584l4.025-19.904a19.237 19.237 0 0010.385-12.848s.673 9.12-7.273 13.68l-4.948 18.969 1.972 16.348-4.161-16.245z" fill="#000"/><path d="M358.318 465.477c-.798-.08-.707 2.28-.434 3.351.274 1.072 3.569 4.48 9.428 5.7 5.86 1.22 13.942.126 17.419 0 3.477-.125 9.462 1.551 12.917 2.052 3.454.502 9.69-.661 11.753-2.61a3.632 3.632 0 00.844-2.862c-.069-2.28-.274-2.77-.548-2.747l-51.379-2.884z" fill="#37474F"/><path d="M408.581 449.767c.355-1.241.6-2.511.729-3.796a7.032 7.032 0 00-.444-3.146 3.322 3.322 0 00-2.098-1.574l-.502 3.204c-.672.65-2.565.946-3.34 1.448-1.744 1.14-2.086 3.499-2.542 5.529-.071.478-.25.935-.524 1.333-1.574 1.95-2.03-1.459-2.109-2.371-.114-1.322-.228-2.793-1.209-3.693a6.23 6.23 0 00-3.42-1.14c-1.197-.103-2.622-.057-3.272-1.14l-.079-2.018c-1.015-.114-2.463.08-2.885 1.14a3.567 3.567 0 00-.091 1.63c.16 1.516.376 3.032.673 4.56.287 1.12.459 2.266.513 3.42.012.213.012.426 0 .638a3.42 3.42 0 01-1.14 1.22 14.6 14.6 0 01-5.974 1.391c-3.009.194-5.563-.262-8.949-.308a18.03 18.03 0 00-9.006 1.836 8.084 8.084 0 00-3.522 3.28 8.087 8.087 0 00-1.038 4.7 11.189 11.189 0 005.358 4.856 28.968 28.968 0 008.869 1.915c3.569.365 8.505-.262 12.084-.467a34.476 34.476 0 018.938.946c4.56.912 7.661 1.14 11.776-.091 1.562-.479 3.5-1.402 4.218-3.124.23-2.363.088-4.748-.422-7.068a26.675 26.675 0 00-.273-1.379 46.647 46.647 0 00-.422-1.687c-.228-.855-.239-1.79-.388-2.668-.057-.319-.228-1.14-.444-2.177.095-1 .247-1.993.456-2.976.102-.695.296-1.493.479-2.223z" fill="#455A64"/><path d="M385.895 455.376a10.395 10.395 0 00-3.614 6.84c.068 1.733-2.987 1.847-3.055.125a14.816 14.816 0 012.758-6.064 5.517 5.517 0 013.911-.901zm-6.647 1.015a10.814 10.814 0 00-3.34 5.825c-.057 1.277-2.713 1.14-2.656-.137 0 0 .41-4.092 3.351-5.791.821-.581 2.372-.433 2.645.103z" fill="#FAFAFA"/><path d="M374.004 456.117c-1.403 0-4.344 1.87-5.792 6.156a24.45 24.45 0 00-.661 9.69 13.677 13.677 0 01-7.752-3.694 7.976 7.976 0 01-1.938-2.462 8.556 8.556 0 011.471-6.544c2.04-2.416 5.187-4.001 10.134-4.252 5.552-.285 6.031 1.197 6.031 1.197l-1.493-.091z" fill="#FAFAFA"/><path d="M434.492 421.529c2.747-1.607 10.682 2.018 10.682 2.018l.467 1.858s.331 1.323.502 1.973c.41 1.47 2.28 1.949 3.648 2.143a20.53 20.53 0 0010.431-1.813c1.448-.798 1.539-1.676 1.539-1.676v-1.949c.889 0 1.904.41 1.755 2.28-.262 3.352-.558 9.2 0 12.244.251 1.504.673 3.271.89 4.765.159 1.014.114 4.001-1.22 5.198a4.927 4.927 0 01-1.334 1.14c-2.896 1.801-7.98 1.505-10.351-.843-3.01-2.919-5.13-5.575-9.348-9.12-2.497-2.075-4.902-3.067-6.931-5.621a16.096 16.096 0 01-2.52-4.856c-1.516-4.195-1.037-6.088 1.79-7.741z" fill="#455A64"/><path d="M442.473 432.394a9.963 9.963 0 013.705-4.868c-.171-.696-.365-1.402-.536-2.12a10.455 10.455 0 00-5.472 6.064c-.399 1.277 1.413 1.995 2.303.924zm4.104 1.801a9.438 9.438 0 01.82-1.744c-.239-.947-.49-1.961-.763-3.033a10.372 10.372 0 00-2.349 3.853c-.399 1.22 1.414 1.938 2.292.924zm-11.378.091c0-.33-.479-8.162 9.975-10.727 0-.057-.182-.741-.262-1.026a9.175 9.175 0 00-4.799-2.28c-3.819-.525-6.601.798-8.22 3.545-1.619 2.748 1.186 9.132 3.306 10.488z" fill="#FAFAFA"/><path d="M374.244 206.993c-4.412-1.037-12.324-3.42-21.124-6.452-9.679-3.42-19.757-6.396-21.455-6.704-3.238-.581-7.878-.273-10.75-1.048-3.42-.935-6.897-1.209-9.896-3.42a3.695 3.695 0 01-1.744-2.52c0-.536.126-1.071.103-1.607 0-.844-.559-1.619-.468-2.451.114-1.14 1.323-1.984 1.368-3.135a7.514 7.514 0 00-.273-1.494c-.137-.912.764-2.131 1.265-2.872.274-.388 1.038-1.072.604-1.585a38.721 38.721 0 00-4.822-4.56c-3.169-2.656-4.902-5.084-3.579-6.601 1.824-2.109 5.175.616 9.416 3.58 2.36 1.653 4.674 3.42 7.068 4.993.935.627 4.72 3.717 5.7 2.166a2.63 2.63 0 00.239-1.653c-.102-1.14-.307-2.36-.33-3.545a6.841 6.841 0 01.684-3.42c.192-.407.492-.754.866-1.003a1.277 1.277 0 011.277-.057c.378.279.645.683.752 1.14.548 1.425 1.083 2.85 1.619 4.275a32.042 32.042 0 003.01 6.897 12.066 12.066 0 004.058 3.967c1.14.536 8.733 2.371 11.218 2.975 4.286 1.026 28.648 6.054 29.127 6.168l65.573-7.137-.912 21.364s-59.953 5.78-68.594 3.739z" fill="#FFA8A7"/><path d="M440.58 179.781c4.457-.593 11.183-.547 15.002 4.457 3.819 5.005 3.774 8.972 3.728 15.356-.045 6.384-3.169 17.761-3.169 17.761l-15.561-37.574z" fill="#6ADF91"/><path d="M321.302 180.522a1.14 1.14 0 01-.274.912 1.224 1.224 0 01-.9.331 4.515 4.515 0 01-.969-.126c-.263 0-.616 0-.684.228a.536.536 0 00.159.434c.451.442.935.85 1.448 1.219.627.548 1.379 1.585.684 2.28a1.827 1.827 0 01-1.607.605c-.445 0-.89-.171-1.346-.194-.079 0-.182 0-.171.114a.217.217 0 00.057.08 6.718 6.718 0 011.665 1.539 1.596 1.596 0 01.285 1.379c-.228.547-1.14.821-1.642.855h-.262v.057h.08c.164.058.331.103.501.137a1.759 1.759 0 001.916-1.311 1.928 1.928 0 00-.605-2.041 2.27 2.27 0 002.075-.821c1.14-1.265.399-2.337-.604-3.294a2.02 2.02 0 00.946-.445c.168 2.297.934 4.51 2.223 6.418a21.192 21.192 0 01-1.265-7.581 9.384 9.384 0 01.182-1.869c.078-.56.185-1.116.319-1.665a12.21 12.21 0 01.833-2.61 4.931 4.931 0 00-1.482 1.391c-.342.49-.32 1.231-1.072 1.311a2.064 2.064 0 01-1.208-.365 3.654 3.654 0 00-1.14-.536.293.293 0 00-.263.057c-.079.103 0 .251.092.353a7.58 7.58 0 011.995 2.691c.041.152.053.311.034.467z" fill="#F28F8F"/><path d="M412.058 171.995l2.177 20.908 20.873 1.14-1.664-24.248-21.386 2.2z" fill="#FFA8A7"/><path d="M399.859 146.972s-5.289 7.171-4.776 7.98c.513.809 4.092 1.607 4.092 1.607l.684-9.587z" fill="#F28F8F"/><path d="M414.554 127.147c-10.021 1.562-13.121 5.7-14.888 21.455-1.859 16.405-.445 21.66 1.596 23.997 1.379 1.573 9.473 2.28 13.623 1.357 5.198-1.14 16.974-4.617 22.8-12.609 6.897-9.393 9.279-22.503 2.736-28.272-9.155-8.128-21.786-6.566-25.867-5.928z" fill="#FFA8A7"/><path d="M398.526 132.391a13.403 13.403 0 002.417 2.132 34.944 34.944 0 004.024 2.52 25.846 25.846 0 013.921 2.097c1.733 1.38 1.87 3.09 1.802 5.164 0 1.357-.126 3.033-.206 4.845-.114 2.736 1.517 4.902 2.565 1.289 0 0 1.893-5.997 6.977-4.959 5.085 1.037 5.221 6.84 2.542 11.24-1.641 2.679-5.586 1.744-5.586 1.744a17.967 17.967 0 004.617 14.079s3.956 2.337 12.107 1.049c5.928-7.307 9.599-10.807 12.894-17.214 6.976-13.532 4.434-22.401-.194-26.323-.616-6.441-5.495-9.576-11.161-11.206-8.481-2.428-16.769 2.28-25.16-.114a41.337 41.337 0 01-4.081-1.299 2.279 2.279 0 00-1.664-.206 1.886 1.886 0 00-.912 1.847 5.138 5.138 0 002.28 4.161c-.171-.114-1.015.069-1.243.069h-1.425a25.862 25.862 0 01-2.816-.331 5.197 5.197 0 00-1.926 0 3.48 3.48 0 00-2.383 3.42 8.644 8.644 0 001.311 4.207c.276.532.592 1.043.946 1.527.114.093.232.181.354.262z" fill="#37474F"/><path d="M401.262 172.599c1.14 1.265 6.623 1.972 10.887 1.71h.296l-.296-2.28s-6.817 1.573-10.887.57z" fill="#F28F8F"/><path d="M454.42 190.771c-2.565-6.179-8.128-12.027-15.288-10.842-1.664.274-3.249.411-4.822.696-.843 3.5-12.004 3.83-21.17 1.71l-10.75 1.288c-6.578 2.211-11.867 14.9-12.802 34.2-.935 19.3.103 49.02.479 62.46a73.934 73.934 0 0041.69 4.275c19.71-3.921 22.925-12.38 22.925-12.38l-1.516-34.496c0-7.502 2.736-17.67 3.317-22.493 1.756-14.831-.513-20.668-2.063-24.418zm-195.02 13.93a3.485 3.485 0 00-1.379 2.793 1.064 1.064 0 00.524.969l37.381 18.548 1.949-3.933-37.381-18.548a1.148 1.148 0 00-1.094.171z" fill="#455A64"/><path d="M258.545 208.474c-4.56-2.28-13.919-9.348-13.919-9.348s13.589 4.253 15.869 5.415l-1.95 3.933z" fill="#455A64"/><path opacity=".2" d="M296.781 223.261l-36.776-18.138-15.379-6.008 14.843 7.479 37.175 18.559.137-1.892z" fill="#fff"/><path d="M296.781 223.295a3.428 3.428 0 00-1.024 1.225 3.428 3.428 0 00-.355 1.556c.068.992.786 1.346 1.607.798a3.413 3.413 0 001.379-2.793c-.068-1.014-.763-1.379-1.607-.786z" fill="#37474F"/><path d="M295.458 224.253c5.21-9.588 30.86-22.333 52.087-11.834 21.227 10.5 60.557 51.175 70.919 72.436-24.897 4.275-75.787.365-96.273-9.758-20.486-10.124-31.156-28.523-26.733-50.844z" fill="#6ADF91"/><path opacity=".7" d="M295.458 224.253c5.21-9.588 30.86-22.333 52.087-11.834 21.227 10.5 60.557 51.175 70.919 72.436-24.897 4.275-75.787.365-96.273-9.758-20.486-10.124-31.156-28.523-26.733-50.844z" fill="#fff"/><path d="M313.585 257.825c-1.049-16.199 7.592-35.67 19.3-43.468 4.948-3.306 9.644-3.99 13.509-2.451-20.999-9.519-45.839 2.93-50.958 12.346-4.423 22.322 6.293 40.698 26.767 50.822-4.719-2.406-8.025-8.459-8.618-17.249z" fill="#6ADF91"/><path opacity=".15" d="M322.226 275.074c20.52 10.123 71.364 14.033 96.273 9.758-21.774.433-61.64-6.566-84.246-18.491-18.673-9.849-35.089-27.086-38.76-42.089-4.457 22.322 6.259 40.698 26.733 50.822z" fill="#000"/><path opacity=".5" d="M295.459 224.252c20.03-8.071 40.892-3.75 55.016 3.819 14.125 7.57 57.171 40.949 67.99 56.784 0 0-30.905-42.807-64.467-62.7s-58.539 2.097-58.539 2.097z" fill="#fff"/><path d="M462.719 325.633c-3.352 4.719-15.458-1.311-28.603-12.016l-6.931-14.82 2.428 11.001a166.037 166.037 0 01-22.241-23.701c3.819-.262 7.547-.672 11.126-1.276l18.377 8.88s31.464 24.031 25.844 31.932z" fill="#6ADF91"/><path opacity=".15" d="M462.719 325.633c-3.352 4.719-15.458-1.311-28.603-12.016l-6.931-14.82 2.428 11.001a166.037 166.037 0 01-22.241-23.701c3.819-.262 7.547-.672 11.126-1.276l18.377 8.88s31.464 24.031 25.844 31.932z" fill="#000"/><path opacity=".15" d="M407.372 286.109a151.88 151.88 0 0010.26 12.141 40.544 40.544 0 01-6.338-10.043l7.296-1.266 18.24 6.772-18.366-8.858c-3.545.581-7.273.992-11.092 1.254z" fill="#000"/><path d="M436.875 293.713l-18.411-8.858c-4.89-4.195-5.939-6.247-10.807-9.998a209.107 209.107 0 0124.864-.9l-4.31 6.156 11.4-5.7c10.078.969 16.542 3.249 20.201 6.372 10.99 9.348-2.85 17.134-22.937 12.928z" fill="#6ADF91"/><path opacity=".5" d="M428.246 280.09l4.309-6.156a209.107 209.107 0 00-24.864.9s19.05-.194 22.059.319l-1.504 4.937zm18.718 14.786c14.159.193 21.866-6.419 12.86-14.136-3.66-3.124-10.124-5.404-20.201-6.373l-5.7 2.861 6.35-1.755s12.973 1.311 18.775 7.718c3.569 3.944-.467 11.582-12.084 11.685z" fill="#fff"/><path d="M399.404 212.476c-12.015 22.721-18.878 38.031-22.651 41.861-3.774 3.831-32.263 26.22-42.557 27.246-10.294 1.026-19.505-2.12-20.406-7.364a12.041 12.041 0 01-.057-4.446s2.474 1.733 2.599 1.778c3.135 1.072 7.889.718 10.158-1.014 3.351-2.565-4.218-4.56-5.985-6.704-2.28-2.679-1.288-5.574 4.4-3.089 4.948 2.177 9.348 3.899 12.871 3.796 3.522-.102 23.757-21.306 23.757-21.306s10.853-22.926 15.904-35.169c9.496-22.994 18.787-22.88 23.826-22.994l-1.859 27.405z" fill="#FFA8A7"/><path d="M402.391 183.623c-4.936.49-8.619.707-12.745 2.884-5.005 2.634-6.772 7.342-9.041 12.54-4.32 9.85-8.424 18.787-8.424 18.787 1.63 4.446 10.807 15.117 19.118 12.016 0 0 6.999-12.084 10.647-19.882 3.409-7.307 4.081-20.349.445-26.345z" fill="#6ADF91"/><circle cx="335.581" cy="241.785" r="12.193" fill="#6ADF91"/><path d="M340.866 236.907l-4.656 10.974-7.13-6.775 11.786-4.199z" fill="#fff"/><path d="M426.564 197.765l.362 10.004-1.281.047-.054-1.484c-.521.675-1.051 1.027-1.719 1.382-.663.356-1.471.477-2.275.506-1.43.052-2.671-.416-3.723-1.403-1.047-.993-1.596-2.226-1.649-3.697-.053-1.44.413-2.691 1.398-3.752.984-1.06 2.194-1.617 3.63-1.669.829-.03 1.589.053 2.27.379.687.325 1.286.686 1.819 1.366l-.06-1.633 1.282-.046zm-5.164 1.172a3.924 3.924 0 00-1.986.606c-.6.371-1.071.883-1.413 1.533a4.075 4.075 0 00-.466 2.043c.026.705.233 1.372.621 2.003.389.63.896 1.115 1.522 1.455.632.333 1.3.487 2.006.461a4.106 4.106 0 002.005-.606 3.722 3.722 0 001.414-1.497c.325-.619.474-1.309.446-2.069-.042-1.159-.464-2.114-1.266-2.864-.795-.751-1.756-1.106-2.883-1.065zm6.751-5.624l.521 14.393 1.281-.046-.054-1.484c.569.636 1.122.948 1.815 1.254.687.307 1.501.369 2.305.34 1.43-.052 2.634-.608 3.612-1.668.972-1.067 1.431-2.335 1.378-3.807-.052-1.44-.608-2.654-1.666-3.641-1.058-.986-2.305-1.454-3.741-1.402-.83.03-1.581.168-2.237.542-.662.374-1.233.777-1.715 1.494l-.218-6.021-1.281.046zm5.393 5.184a3.934 3.934 0 012.025.461 3.899 3.899 0 011.521 1.427 4.038 4.038 0 01.137 4.047 4.023 4.023 0 01-1.413 1.561 3.93 3.93 0 01-1.967.605 4.096 4.096 0 01-2.043-.46 3.722 3.722 0 01-1.52-1.391c-.368-.594-.566-1.271-.594-2.031-.042-1.159.31-2.142 1.056-2.948.739-.806 1.672-1.23 2.798-1.271z" fill="#85898B"/><path d="M426.902 197.197l.362 10.004-1.282.046-.053-1.484c-.521.676-1.051 1.027-1.72 1.383-.662.355-1.47.476-2.275.506-1.429.051-2.67-.416-3.722-1.403-1.047-.994-1.596-2.226-1.65-3.697-.052-1.441.414-2.691 1.399-3.752.984-1.061 2.194-1.617 3.63-1.669.829-.03 1.589.053 2.27.378.687.325 1.286.686 1.818 1.367l-.059-1.633 1.282-.046zm-5.164 1.172a3.924 3.924 0 00-1.986.606c-.6.371-1.071.882-1.414 1.533a4.07 4.07 0 00-.465 2.042c.026.705.233 1.373.621 2.004.389.63.896 1.115 1.522 1.454.632.334 1.3.487 2.006.462a4.097 4.097 0 002.005-.607 3.713 3.713 0 001.414-1.496c.325-.62.473-1.31.446-2.07-.042-1.158-.464-2.113-1.266-2.863-.795-.751-1.757-1.106-2.883-1.065zm6.751-5.624l.52 14.393 1.282-.047-.054-1.484c.568.636 1.122.949 1.815 1.255.686.307 1.501.369 2.305.34 1.43-.052 2.634-.608 3.612-1.668.972-1.067 1.431-2.336 1.378-3.807-.052-1.44-.608-2.654-1.666-3.641-1.058-.987-2.306-1.454-3.742-1.402-.829.03-1.58.168-2.236.541-.662.374-1.233.778-1.715 1.495l-.218-6.021-1.281.046zm5.393 5.184a3.927 3.927 0 012.025.461 3.905 3.905 0 011.521 1.427 4.038 4.038 0 01.137 4.046 4.016 4.016 0 01-1.413 1.561 3.932 3.932 0 01-1.967.606 4.103 4.103 0 01-2.044-.461 3.716 3.716 0 01-1.519-1.39c-.368-.594-.566-1.272-.594-2.032-.042-1.158.31-2.141 1.056-2.947.739-.807 1.672-1.23 2.798-1.271z" fill="#D2D7DA"/><path d="M422.836 220.483l1.11.532c-.332.715-.723 1.296-1.175 1.743a4.973 4.973 0 01-1.543 1.045c-.576.242-1.233.377-1.972.404-1.636.059-2.935-.43-3.896-1.467-.962-1.043-1.468-2.242-1.517-3.595a5.377 5.377 0 011.049-3.448c.945-1.303 2.248-1.984 3.909-2.044 1.71-.062 3.099.537 4.167 1.798.759.891 1.17 2.022 1.232 3.393l-9.025.327c.067 1.168.474 2.114 1.221 2.838.746.719 1.649 1.059 2.707 1.02a4.213 4.213 0 001.476-.321c.48-.196.883-.448 1.211-.755.327-.308.676-.798 1.046-1.47zm-.098-2.704c-.197-.683-.469-1.224-.816-1.625-.341-.4-.787-.716-1.337-.949a4.003 4.003 0 00-1.721-.317c-.985.036-1.819.383-2.504 1.043-.5.48-.865 1.186-1.096 2.118l7.474-.27zm13.236-4.448l.362 10.004-1.281.047-.054-1.484c-.521.675-1.05 1.027-1.719 1.383-.663.355-1.471.476-2.275.505-1.43.052-2.671-.416-3.723-1.403-1.046-.993-1.596-2.225-1.649-3.697-.052-1.44.414-2.691 1.398-3.752.984-1.06 2.194-1.617 3.63-1.669.83-.03 1.589.054 2.27.379.687.325 1.286.686 1.819 1.366l-.059-1.633 1.281-.046zm-5.164 1.172a3.924 3.924 0 00-1.986.606c-.6.372-1.071.883-1.413 1.534a4.069 4.069 0 00-.466 2.042c.026.705.233 1.373.621 2.003a4.02 4.02 0 001.522 1.455 3.925 3.925 0 002.006.461 4.096 4.096 0 002.005-.606 3.731 3.731 0 001.415-1.497c.324-.619.473-1.309.445-2.069-.042-1.159-.464-2.113-1.265-2.864-.796-.751-1.757-1.106-2.884-1.065zm17.27-6.004l.521 14.393-1.282.046-.053-1.484c-.521.676-1.051 1.027-1.72 1.383-.662.355-1.47.476-2.275.505-1.429.052-2.67-.416-3.722-1.403-1.047-.993-1.596-2.225-1.65-3.696-.052-1.441.414-2.692 1.399-3.752.984-1.061 2.194-1.617 3.63-1.669.829-.03 1.589.053 2.27.378.687.325 1.286.686 1.818 1.366l-.217-6.021 1.281-.046zm-5.005 5.56a3.924 3.924 0 00-1.986.606c-.6.372-1.071.883-1.414 1.534a4.068 4.068 0 00-.465 2.042c.026.705.233 1.373.621 2.003a4.012 4.012 0 001.522 1.455c.632.333 1.3.487 2.006.462a4.097 4.097 0 002.005-.607 3.722 3.722 0 001.414-1.497c.325-.619.473-1.309.446-2.069-.042-1.159-.464-2.113-1.266-2.864-.795-.751-1.757-1.105-2.883-1.065zm-31.813 10.314l1.77-.064-.042-1.147-1.77.064a1.706 1.706 0 01-.725-.129 1.84 1.84 0 01-1.172-1.635l-.413-11.436-1.156.042.414 11.436a2.908 2.908 0 00.946 2.069l.003.003c.282.262.605.464.974.607.362.141.751.205 1.171.19z" fill="#85898B"/><path fill-rule="evenodd" clip-rule="evenodd" d="M413.168 224.435l-.051-1.409-1.901.069a1.573 1.573 0 01-.67-.12l-.003-.001a1.71 1.71 0 01-.931-.868 1.669 1.669 0 01-.157-.649l-.418-11.567-1.419.051.419 11.567a3.05 3.05 0 00.989 2.161l.002.003c.294.273.632.484 1.016.633.379.148.786.214 1.223.199l1.901-.069zm-4.05-.86l-.003-.002a2.902 2.902 0 01-.673-.916 2.9 2.9 0 01-.274-1.154l-.414-11.435 1.156-.042.414 11.435c.009.246.065.48.169.701a1.852 1.852 0 001.002.935c.23.096.474.138.726.129l1.77-.064.041 1.146-1.77.064a2.895 2.895 0 01-1.17-.189 3.006 3.006 0 01-.974-.608z" fill="#85898B"/><path d="M423.176 219.914l1.11.533c-.332.714-.724 1.295-1.175 1.742a4.985 4.985 0 01-1.543 1.045c-.576.242-1.233.377-1.972.404-1.636.059-2.935-.43-3.897-1.467-.961-1.043-1.467-2.241-1.516-3.595a5.374 5.374 0 011.049-3.447c.945-1.304 2.247-1.985 3.908-2.045 1.711-.062 3.1.537 4.168 1.798.759.891 1.17 2.022 1.232 3.393l-9.025.327c.067 1.168.474 2.114 1.221 2.839.746.718 1.649 1.058 2.707 1.02a4.246 4.246 0 001.476-.322 3.927 3.927 0 001.211-.755c.327-.308.676-.798 1.046-1.47zm-.098-2.704c-.197-.683-.469-1.224-.816-1.624-.341-.401-.787-.717-1.338-.95a3.983 3.983 0 00-1.72-.316c-.985.035-1.819.383-2.504 1.042-.5.48-.865 1.186-1.096 2.119l7.474-.271zm13.236-4.448l.362 10.005-1.281.046-.054-1.484c-.521.676-1.051 1.027-1.719 1.383-.663.355-1.471.476-2.275.505-1.43.052-2.671-.416-3.723-1.403-1.047-.993-1.596-2.225-1.649-3.696-.053-1.441.413-2.692 1.398-3.752.984-1.061 2.194-1.617 3.63-1.669.829-.03 1.589.053 2.27.378.687.325 1.286.686 1.819 1.366l-.06-1.632 1.282-.047zm-5.164 1.172a3.934 3.934 0 00-1.986.606c-.6.372-1.071.883-1.413 1.534a4.069 4.069 0 00-.466 2.042c.026.705.233 1.373.621 2.003a4.012 4.012 0 001.522 1.455c.632.333 1.3.487 2.006.462a4.097 4.097 0 002.005-.607 3.722 3.722 0 001.414-1.497c.325-.619.474-1.309.446-2.069-.042-1.159-.464-2.113-1.266-2.864-.795-.75-1.756-1.105-2.883-1.065zm17.27-6.004l.521 14.393-1.282.046-.053-1.484c-.521.676-1.051 1.027-1.72 1.383-.662.355-1.47.476-2.275.505-1.429.052-2.67-.416-3.723-1.402-1.046-.994-1.595-2.226-1.649-3.697-.052-1.441.414-2.692 1.398-3.752.985-1.061 2.195-1.617 3.631-1.669.829-.03 1.588.053 2.27.378.687.325 1.285.686 1.818 1.367l-.218-6.022 1.282-.046zm-5.005 5.56a3.944 3.944 0 00-1.986.606 3.9 3.9 0 00-1.414 1.534 4.057 4.057 0 00-.465 2.042c.026.705.233 1.373.621 2.003a4.012 4.012 0 001.522 1.455c.631.333 1.3.487 2.006.462a4.09 4.09 0 002.004-.607 3.712 3.712 0 001.415-1.497c.325-.619.473-1.309.446-2.069-.042-1.159-.464-2.113-1.266-2.864-.796-.75-1.757-1.105-2.883-1.065zm-31.813 10.314l1.77-.064-.042-1.147-1.77.064a1.698 1.698 0 01-.726-.129 1.825 1.825 0 01-1.171-1.635l-.414-11.435-1.155.041.413 11.436a2.926 2.926 0 00.947 2.069l.003.003c.281.262.605.464.974.607.361.141.75.205 1.171.19z" fill="#D2D7DA"/><path fill-rule="evenodd" clip-rule="evenodd" d="M413.508 223.866l-.051-1.409-1.901.069a1.573 1.573 0 01-.67-.12l-.003-.001a1.7 1.7 0 01-1.088-1.517l-.419-11.567-1.418.051.419 11.567a3.05 3.05 0 00.989 2.162l.002.002c.294.273.632.484 1.016.633a3.02 3.02 0 001.223.199l1.901-.069zm-4.05-.859l-.003-.003a2.909 2.909 0 01-.947-2.07l-.414-11.435 1.156-.042.414 11.436c.009.245.065.479.169.7a1.84 1.84 0 001.002.935c.23.096.474.138.726.129l1.77-.064.041 1.146-1.77.064a2.902 2.902 0 01-1.171-.189 3.027 3.027 0 01-.973-.607z" fill="#D2D7DA"/></svg>