<svg width="24" height="24" fill="none" xmlns="http://www.w3.org/2000/svg"><path fill-rule="evenodd" clip-rule="evenodd" d="M22 12c0 5.523-4.477 10-10 10S2 17.523 2 12 6.477 2 12 2s10 4.477 10 10zM6.344 9.987c.177.119.71.473 1.601 1.062.89.59 1.573 1.043 2.047 1.361.052.035.163.11.332.228.17.117.31.21.422.283.112.072.247.153.406.242.16.09.309.157.45.201.14.045.27.067.39.067h.016c.12 0 .25-.022.39-.067a2.39 2.39 0 00.45-.2c.159-.09.294-.171.406-.243.112-.072.253-.166.422-.283l.332-.228 3.656-2.424c.38-.253.698-.559.953-.917S19 8.336 19 7.943a1.12 1.12 0 00-.371-.843 1.237 1.237 0 00-.88-.35H6.25c-.401 0-.71.13-.926.388-.216.258-.324.581-.324.97 0 .312.143.652.43 1.017a3.8 3.8 0 00.914.862zm7.984 3.37a167.4 167.4 0 013.89-2.573c.298-.193.558-.41.782-.648v5.92c0 .329-.122.61-.367.843-.245.234-.54.351-.883.351H6.25c-.344 0-.638-.117-.883-.35A1.123 1.123 0 015 16.056v-5.921c.23.243.492.46.79.648 1.885 1.223 3.179 2.081 3.882 2.573.297.209.538.372.723.489.184.117.43.236.738.358.307.121.594.182.86.182h.015c.266 0 .552-.06.86-.182a4.55 4.55 0 00.737-.358c.185-.117.426-.28.723-.489z" fill="#fff"/></svg>