<svg width="48" height="48" fill="none" xmlns="http://www.w3.org/2000/svg"><circle cx="24" cy="24" r="24" fill="#E21313"/><path fill-rule="evenodd" clip-rule="evenodd" d="M10.92 28.397c.137.288.4.547.73.773.334.228.76.436 1.256.612.994.353 2.295.586 3.774.586 1.518 0 2.849-.246 3.851-.614.5-.184.927-.4 1.255-.638.323-.233.576-.505.69-.807a.484.484 0 01.616-.28c.25.092.377.366.29.603-.284.766-1.086 1.461-2.41 1.969h-.001c-1.196.46-2.716.714-4.291.714-1.653 0-3.15-.265-4.319-.719-1.177-.457-1.98-1.09-2.316-1.796a.474.474 0 01.233-.632.489.489 0 01.643.229zm11.555-.088l-.286-.104.286.105zM10.92 32.397c.137.288.4.547.73.773.334.228.76.436 1.256.612.994.353 2.295.586 3.774.586 1.518 0 2.849-.246 3.851-.614.5-.184.927-.4 1.255-.638.323-.233.576-.505.69-.807a.484.484 0 01.616-.28c.25.092.377.366.29.603-.284.766-1.086 1.461-2.41 1.969h-.001c-1.196.46-2.716.714-4.291.714-1.653 0-3.15-.265-4.319-.719-1.177-.457-1.98-1.09-2.316-1.796a.474.474 0 01.233-.632.489.489 0 01.643.229zm11.555-.088l-.286-.103.286.104zM10 24.498c0-.868.634-1.692 1.842-2.315 1.199-.619 2.9-1 4.864-1 1.963 0 3.664.381 4.863 1 1.208.623 1.842 1.447 1.842 2.315 0 .867-.634 1.69-1.842 2.314-1.199.62-2.9 1.001-4.863 1.001-1.964 0-3.665-.382-4.864-1C10.634 26.188 10 25.364 10 24.497zm.947 0c0 .334.205.643.48.899.284.263.686.512 1.18.727.992.43 2.398.743 4.099.743 1.7 0 3.107-.313 4.098-.743.495-.215.897-.464 1.18-.727.276-.256.48-.565.48-.9 0-.334-.204-.643-.48-.898-.283-.264-.685-.513-1.18-.727-.991-.43-2.398-.743-4.098-.743-1.7 0-3.107.312-4.099.742-.494.215-.896.464-1.18.728-.275.255-.48.564-.48.899zm14.973-4.101c.137.288.4.547.73.773.334.228.76.436 1.256.612.994.353 2.295.586 3.774.586 1.519 0 2.849-.246 3.851-.614.5-.184.927-.4 1.255-.638.323-.233.576-.505.69-.807a.484.484 0 01.616-.28c.25.092.377.366.29.603-.284.766-1.086 1.461-2.41 1.969h-.001c-1.196.46-2.716.714-4.291.714-1.653 0-3.15-.265-4.319-.719-1.177-.457-1.98-1.09-2.316-1.796a.474.474 0 01.233-.632.489.489 0 01.643.229zm11.555-.088l-.286-.104.286.105z" fill="#fff"/><path fill-rule="evenodd" clip-rule="evenodd" d="M25.92 23.397c.137.288.4.547.73.773.334.228.76.436 1.256.612.994.353 2.295.586 3.774.586 1.519 0 2.849-.246 3.851-.614.5-.184.927-.4 1.255-.638.323-.233.576-.505.69-.807a.484.484 0 01.616-.28c.25.092.377.366.29.603-.284.766-1.086 1.461-2.41 1.969h-.001c-1.196.46-2.716.714-4.291.714-1.653 0-3.15-.265-4.319-.719-1.177-.457-1.98-1.09-2.316-1.796a.474.474 0 01.233-.632.489.489 0 01.643.229zm11.555-.088l-.286-.104.286.105z" fill="#fff"/><path fill-rule="evenodd" clip-rule="evenodd" d="M25.92 26.397c.137.288.4.547.73.773.334.228.76.436 1.256.612.994.353 2.295.586 3.774.586 1.519 0 2.849-.246 3.851-.614.5-.184.927-.4 1.255-.638.323-.233.576-.505.69-.807a.484.484 0 01.616-.28c.25.092.377.366.29.603-.284.766-1.086 1.461-2.41 1.969h-.001c-1.196.46-2.716.714-4.291.714-1.653 0-3.15-.265-4.319-.719-1.177-.457-1.98-1.09-2.316-1.796a.474.474 0 01.233-.632.489.489 0 01.643.229zm11.555-.088l-.286-.104.286.105z" fill="#fff"/><path fill-rule="evenodd" clip-rule="evenodd" d="M25.92 29.397c.137.288.4.547.73.773.334.228.76.436 1.256.612.994.353 2.295.586 3.774.586 1.519 0 2.849-.246 3.851-.614.5-.184.927-.4 1.255-.638.323-.233.576-.505.69-.807a.484.484 0 01.616-.28c.25.092.377.366.29.603-.284.766-1.086 1.461-2.41 1.969h-.001c-1.196.46-2.716.714-4.291.714-1.653 0-3.15-.265-4.319-.719-1.177-.457-1.98-1.09-2.316-1.796a.474.474 0 01.233-.632.489.489 0 01.643.229zm11.555-.088l-.286-.104.286.105zM25 16.316c0-.868.634-1.692 1.842-2.315 1.199-.619 2.9-1.001 4.864-1.001 1.963 0 3.664.382 4.863 1.001 1.208.623 1.842 1.447 1.842 2.315 0 .867-.634 1.69-1.842 2.314-1.199.619-2.9 1.001-4.863 1.001-1.964 0-3.665-.382-4.864-1C25.634 18.006 25 17.182 25 16.315zm.947 0c0 .334.204.643.48.899.284.263.686.512 1.18.727.992.43 2.398.742 4.099.742 1.7 0 3.107-.312 4.098-.742.495-.215.897-.464 1.18-.727.276-.256.48-.565.48-.9 0-.334-.204-.643-.48-.899-.283-.263-.685-.512-1.18-.727-.992-.43-2.398-.742-4.098-.742-1.7 0-3.107.312-4.099.742-.494.215-.896.464-1.18.727-.276.256-.48.565-.48.9z" fill="#fff"/></svg>