<svg width="80" height="80" fill="none" xmlns="http://www.w3.org/2000/svg"><path d="M26.65 34.374l6.439 3.717a7.04 7.04 0 00-.12 1.285c0 3.055 1.96 5.66 4.687 6.628v7.434a2.344 2.344 0 004.688 0v-7.434c2.728-.968 4.687-3.573 4.687-6.628 0-.44-.042-.868-.12-1.285l6.44-3.717a2.344 2.344 0 10-2.344-4.06l-6.442 3.72A6.997 6.997 0 0040 32.344a6.999 6.999 0 00-4.564 1.69l-6.442-3.72a2.344 2.344 0 10-2.344 4.06zM40 37.032a2.346 2.346 0 012.344 2.344A2.346 2.346 0 0140 41.719a2.346 2.346 0 01-2.344-2.343A2.346 2.346 0 0140 37.032z" fill="#E21313"/><path d="M72.813 0H7.186a2.344 2.344 0 00-2.343 2.344v75.312A2.344 2.344 0 007.187 80h65.626a2.344 2.344 0 002.343-2.344V2.344A2.344 2.344 0 0072.812 0zm-2.344 32.969V47.03H65.78V32.97h4.688zm-9.375-4.688v-4.687h9.375v4.687h-9.375zm0-9.375H58.75a2.344 2.344 0 00-2.344 2.344v9.375a2.344 2.344 0 002.344 2.344h2.344V47.03H58.75a2.344 2.344 0 00-2.344 2.344v9.375a2.344 2.344 0 002.344 2.344h2.344v4.687H18.906V14.22h42.188v4.687zm0 37.5V51.72h9.375v4.687h-9.375zM9.53 75.313V4.686h60.94v14.22h-4.69v-7.032a2.344 2.344 0 00-2.344-2.344H16.563a2.344 2.344 0 00-2.344 2.344v56.25a2.344 2.344 0 002.344 2.344h46.874a2.344 2.344 0 002.344-2.344v-7.031h4.688v14.218H9.53z" fill="#E21313"/></svg>