<svg width="48" height="48" fill="none" xmlns="http://www.w3.org/2000/svg"><circle cx="24" cy="24" r="24" fill="#E21313"/><path fill-rule="evenodd" clip-rule="evenodd" d="M16.528 11.576a.576.576 0 111.151 0v1.53h5.693v-1.53a.576.576 0 111.151 0v1.53h5.745v-1.53a.576.576 0 111.152 0v1.53h1.846A3.74 3.74 0 0137 16.84v11.161a.576.576 0 11-1.152 0v-11.16a2.585 2.585 0 00-2.582-2.584H31.42v1.53a.576.576 0 11-1.152 0v-1.53h-5.745v1.53a.576.576 0 11-1.151 0v-1.53h-5.693v1.53a.576.576 0 11-1.151 0v-1.53h-1.793a2.585 2.585 0 00-2.583 2.583v16.426a2.585 2.585 0 002.583 2.582h18.53a2.585 2.585 0 002.583-2.582.576.576 0 111.152 0A3.74 3.74 0 0133.266 37H14.735A3.74 3.74 0 0111 33.266V16.84a3.74 3.74 0 013.735-3.734h1.793v-1.53z" fill="#fff"/><path d="M25.071 30.853h-1.355v-9.066L21 22.794V21.56l3.86-1.463h.211v10.757z" fill="#fff"/></svg>