<svg width="120" height="120" fill="none" xmlns="http://www.w3.org/2000/svg"><circle cx="60" cy="60" r="60" fill="#F3F3F3"/><path d="M31.56 37.66L71.6 49.587a1.032 1.032 0 00.805-.097l16.26-9.473c.356-.207.55-.606.492-1.01a1.014 1.014 0 00-.753-.839l-40.04-10.22a1.021 1.021 0 00-.694.068l-16.26 7.766a1.007 1.007 0 00.149 1.878zm16.657-7.664l37.293 9.518-13.75 8.013-37.105-11.054 13.562-6.477z" fill="#4BB1E9"/><path d="M87.635 43.474l-15.877 9.251L32.14 40.923a1.018 1.018 0 00-1.265.677 1.008 1.008 0 00.682 1.257l40.464 12.055 16.641-9.697c.486-.281.646-.9.363-1.38a1.018 1.018 0 00-1.391-.36z" fill="#4BB1E9"/><path d="M87.635 48.755l-15.877 9.251L32.14 46.204a1.02 1.02 0 00-1.265.678 1.008 1.008 0 00.682 1.256L72.02 60.192l16.641-9.697c.486-.282.646-.9.362-1.38a1.017 1.017 0 00-1.389-.36z" fill="#6ADF91"/><path d="M87.635 54.036l-15.877 9.252L32.14 51.485a1.017 1.017 0 00-1.265.677 1.008 1.008 0 00.682 1.257L72.02 65.474l16.641-9.698c.486-.281.646-.9.362-1.38a1.02 1.02 0 00-1.389-.36z" fill="#6ADF91"/><path d="M87.635 59.319L71.758 68.57 32.14 56.766a1.018 1.018 0 00-1.265.678 1.008 1.008 0 00.682 1.257L72.02 70.756l16.641-9.697c.486-.282.646-.9.362-1.38a1.018 1.018 0 00-1.389-.36z" fill="#6ADF91"/><path d="M87.635 64.598L71.758 73.85 32.14 62.05a1.018 1.018 0 00-1.265.677 1.008 1.008 0 00.682 1.257L72.02 76.038l16.641-9.697c.486-.282.646-.9.362-1.38a1.018 1.018 0 00-1.389-.362z" fill="#6ADF91"/><path d="M87.635 69.88l-15.878 9.252L32.14 67.33a1.017 1.017 0 00-1.265.678 1.008 1.008 0 00.682 1.256L72.022 81.32l16.641-9.697c.486-.282.646-.9.363-1.382a1.02 1.02 0 00-1.391-.36z" fill="#6ADF91"/><path d="M87.635 75.163l-15.877 9.252L32.14 72.612a1.017 1.017 0 00-1.265.678 1.008 1.008 0 00.682 1.256L72.02 86.601l16.641-9.698c.486-.281.646-.9.362-1.38a1.018 1.018 0 00-1.389-.36z" fill="#6ADF91"/><path d="M87.635 80.444l-15.877 9.252L32.14 77.893a1.02 1.02 0 00-1.265.677 1.008 1.008 0 00.682 1.257L72.02 91.882l16.641-9.698c.486-.28.646-.9.362-1.38a1.018 1.018 0 00-1.389-.36z" fill="#6ADF91"/></svg>