<svg width="170" height="47" fill="none" xmlns="http://www.w3.org/2000/svg"><path fill-rule="evenodd" clip-rule="evenodd" d="M46.272 23.136c0 2.418-.371 4.75-1.06 6.94H1.06A23.126 23.126 0 010 23.137C0 10.358 10.358 0 23.136 0c12.778 0 23.136 10.358 23.136 23.136zM5.554 38.174a23.17 23.17 0 01-3.085-4.627h41.334a23.17 23.17 0 01-3.085 4.627H5.554zm3.698 3.47a23.033 23.033 0 0013.884 4.628c5.21 0 10.017-1.722 13.884-4.627H9.252z" fill="#FFC940"/><path d="M64.066 30.327c-2.388 0-4.269-.736-5.643-2.208l1.353-1.874c1.194 1.277 2.659 1.916 4.394 1.916.93 0 1.624-.187 2.082-.562.472-.375.708-.82.708-1.333 0-.527-.278-.944-.833-1.25-.555-.318-1.228-.568-2.02-.749a32.34 32.34 0 01-2.394-.645 4.603 4.603 0 01-2.02-1.27c-.555-.597-.833-1.368-.833-2.312 0-1.166.465-2.13 1.395-2.894.944-.777 2.166-1.166 3.665-1.166 2.138 0 3.873.645 5.206 1.936l-1.396 1.812c-1.055-1.055-2.394-1.583-4.018-1.583-.722 0-1.298.16-1.729.48-.416.305-.624.721-.624 1.249 0 .347.146.638.437.874.306.236.694.43 1.166.583.472.14.993.278 1.562.417.583.139 1.159.312 1.728.52a7.53 7.53 0 011.583.73c.472.29.853.693 1.145 1.207.305.514.458 1.124.458 1.832 0 1.25-.451 2.277-1.354 3.082-.902.805-2.241 1.208-4.018 1.208zm13.634 0c-1.972 0-3.471-.514-4.499-1.541-1.013-1.027-1.52-2.423-1.52-4.186v-8.412h2.457v8.33c0 1.124.306 2.012.917 2.664.624.653 1.506.98 2.644.98 1.138 0 2.013-.327 2.624-.98.61-.652.916-1.54.916-2.665v-8.329h2.457v8.392c0 1.777-.514 3.179-1.54 4.206-1.014 1.027-2.5 1.54-4.457 1.54zm20.983-.25H96.33l-7.246-9.912v9.912h-2.436V16.188h2.498l7.1 9.641v-9.64h2.437v13.888zm10.162.25c-2.027 0-3.727-.667-5.101-2-1.361-1.346-2.041-3.074-2.041-5.184 0-2.11.68-3.831 2.041-5.164 1.374-1.347 3.074-2.02 5.101-2.02 2.221 0 3.977.916 5.268 2.749l-1.457.812a4.595 4.595 0 00-1.624-1.458 4.463 4.463 0 00-2.187-.562c-1.527 0-2.804.535-3.831 1.603-1.013 1.055-1.52 2.402-1.52 4.04s.507 2.991 1.52 4.06c1.027 1.055 2.304 1.583 3.831 1.583.778 0 1.506-.18 2.187-.542a4.52 4.52 0 001.624-1.478l1.478.812c-1.346 1.832-3.109 2.749-5.289 2.749zm17.57-.25h-2.041l-3.54-5.518h-2.769v5.518h-1.728V16.188h5.58c1.291 0 2.339.382 3.144 1.146.805.763 1.208 1.776 1.208 3.04 0 1.193-.347 2.144-1.041 2.852-.694.708-1.548 1.104-2.561 1.187l3.748 5.664zm-4.706-7.038c.819 0 1.485-.25 1.999-.75.513-.5.77-1.138.77-1.916 0-.777-.257-1.409-.77-1.894-.514-.5-1.18-.75-1.999-.75h-3.644v5.31h3.644zm16.395 7.038h-9.099V16.188h9.099v1.541h-7.371v4.477h7.226v1.54h-7.226v4.79h7.371v1.54zm7.503 0h-4.747V16.188h4.747c2.124 0 3.839.66 5.144 1.978 1.318 1.32 1.978 2.978 1.978 4.977 0 2.013-.66 3.672-1.978 4.976-1.305 1.305-3.02 1.958-5.144 1.958zm0-1.541c1.638 0 2.936-.514 3.894-1.541.958-1.027 1.437-2.311 1.437-3.852 0-1.555-.472-2.846-1.416-3.873-.944-1.027-2.249-1.54-3.915-1.54h-3.019v10.806h3.019zm11.561 1.541h-1.728V16.188h1.728v13.889zm8.417 0h-1.728V17.729h-4.393v-1.54H170v1.54h-4.415v12.348z" fill="#000"/></svg>