<svg width="190" height="74" fill="none" xmlns="http://www.w3.org/2000/svg"><path d="M92.84 24.322h22.835L100.951 0H78.115L92.84 24.322z" fill="#fff"/><path d="M53.166 73.719H30.331L78.118 0h22.835L53.166 73.719zm38.087-24.98a8.211 8.211 0 01-3.174-3.193c-.794-1.315-1.146-2.911-1.146-4.602 0-1.69.352-3.193 1.146-4.601.793-1.315 1.763-2.442 3.174-3.193 1.41-.751 2.821-1.127 4.496-1.127 1.411 0 2.645.282 3.792.751 1.146.564 2.116 1.315 2.821 2.254l-2.38 2.348c-1.059-1.315-2.47-1.972-4.056-1.972-.97 0-1.852.188-2.645.657a4.84 4.84 0 00-1.852 1.972c-.44.845-.617 1.784-.617 2.817 0 1.033.176 1.972.617 2.818a4.839 4.839 0 001.852 1.972c.793.47 1.675.657 2.645.657 1.587 0 2.997-.657 4.055-2.066l2.381 2.348c-.794 1.033-1.763 1.784-2.821 2.254-1.147.563-2.38.75-3.792.75-1.675.377-3.174 0-4.496-.844zm23.892.847l-3.085-4.79h-3.439v4.79h-3.703V32.494h6.965c1.411 0 2.645.282 3.703.751 1.058.47 1.852 1.221 2.469 2.16.529.94.882 2.066.882 3.287 0 1.315-.265 2.348-.882 3.287-.617.94-1.411 1.596-2.469 2.16l3.615 5.54h-4.056v-.093zm-.969-13.148c-.618-.47-1.411-.75-2.557-.75h-2.998v6.01h2.998c1.146 0 1.939-.282 2.557-.752.617-.563.881-1.22.881-2.254 0-.939-.264-1.69-.881-2.254zm20.102 10.049v3.192h-12.52V32.495h12.255v3.193h-8.464v3.756h7.494v3.1h-7.494v3.944h8.729zm2.998-13.993h7.318c1.764 0 3.262.376 4.673 1.033 1.411.657 2.381 1.69 3.174 3.005a9.42 9.42 0 011.146 4.508c0 1.69-.352 3.193-1.146 4.508-.705 1.314-1.763 2.253-3.174 3.005-1.411.75-2.909 1.033-4.673 1.033h-7.318V32.494zm7.142 13.899c1.587 0 2.909-.47 3.879-1.409.97-.94 1.411-2.254 1.411-3.85 0-1.597-.441-2.911-1.411-3.85-.97-.94-2.204-1.41-3.879-1.41h-3.439v10.613h3.439v-.094zm11.902-13.899h3.702V49.68h-3.702V32.495zm10.845 3.193h-5.202v-3.193h14.019v3.193h-5.202v13.899h-3.703V35.687h.088zm12.343 13.709c-1.146-.375-2.116-.845-2.909-1.408l1.234-3.005c.705.563 1.499.939 2.469 1.314.969.282 1.939.47 2.821.47 1.058 0 1.852-.188 2.381-.47.529-.375.793-.751.793-1.314 0-.376-.176-.752-.441-1.033-.264-.282-.705-.47-1.146-.658-.441-.188-1.146-.376-1.94-.563-1.234-.282-2.204-.658-2.997-.94-.794-.281-1.411-.845-2.028-1.502-.529-.657-.882-1.596-.882-2.723 0-1.033.265-1.878.794-2.724.529-.845 1.234-1.408 2.292-1.878 1.058-.47 2.292-.751 3.703-.751 1.058 0 2.028.094 2.998.376.97.281 1.851.657 2.557 1.127l-1.147 3.005c-1.498-.94-2.997-1.315-4.496-1.315-1.058 0-1.852.188-2.292.563-.529.376-.706.846-.706 1.409 0 .563.265 1.033.882 1.315.617.281 1.499.563 2.645.845 1.234.282 2.204.657 2.998.939.793.282 1.41.845 2.027 1.502.529.658.882 1.597.882 2.724a5.12 5.12 0 01-.793 2.723c-.529.845-1.323 1.409-2.293 1.972-.97.564-2.292.752-3.791.752-1.146-.188-2.38-.376-3.615-.752zm-89.93 7.137V73.72h-1.146v-8.17H77.675v8.17H76.53V56.533h1.147v7.889h10.756v-7.889h1.146zm8.198 16.152c-1.234-.751-2.292-1.784-2.997-3.099-.706-1.315-1.058-2.817-1.058-4.414 0-1.596.352-3.099 1.058-4.413.705-1.315 1.763-2.348 2.997-3.1 1.235-.75 2.734-1.126 4.321-1.126 1.587 0 2.997.375 4.32 1.127 1.234.75 2.292 1.784 2.998 3.099.705 1.314 1.058 2.817 1.058 4.507 0 1.69-.353 3.1-1.058 4.508-.706 1.315-1.764 2.348-2.998 3.099-1.234.751-2.733 1.127-4.32 1.127-1.587 0-3.086-.564-4.32-1.315zm7.936-1.033a7.353 7.353 0 002.556-2.723 7.987 7.987 0 00.97-3.85 7.987 7.987 0 00-.97-3.85 7.353 7.353 0 00-2.556-2.724c-1.058-.658-2.293-.94-3.704-.94-1.322 0-2.556.282-3.703.94a7.356 7.356 0 00-2.556 2.723 7.996 7.996 0 00-.97 3.85c0 1.41.352 2.724.97 3.85a7.356 7.356 0 002.556 2.724c1.058.657 2.293.94 3.703.94 1.411.093 2.646-.283 3.704-.94zm10.315.282c-1.146-1.221-1.675-3.1-1.675-5.54v-9.861h1.146v9.86c0 2.066.441 3.663 1.322 4.696.882 1.033 2.204 1.596 3.968 1.596 1.675 0 2.997-.563 3.879-1.596.882-1.033 1.323-2.63 1.323-4.696v-9.86h1.146v9.86c0 2.442-.529 4.226-1.675 5.54-1.146 1.222-2.734 1.879-4.761 1.879-1.94 0-3.527-.657-4.673-1.878zm17.634 1.22c-1.058-.47-1.94-1.033-2.469-1.69l.529-.939c.529.657 1.323 1.127 2.293 1.596.97.376 1.939.564 2.997.564 1.499 0 2.734-.282 3.439-.94.794-.657 1.146-1.408 1.146-2.44 0-.752-.176-1.41-.617-1.879-.441-.47-.97-.845-1.587-1.033-.617-.188-1.411-.47-2.469-.751-1.146-.282-2.116-.658-2.821-.94-.705-.281-1.323-.75-1.852-1.314-.529-.657-.705-1.409-.705-2.442 0-.845.176-1.596.617-2.254.441-.657 1.058-1.22 1.94-1.69a8.026 8.026 0 013.174-.657c.882 0 1.763.094 2.645.375a7.133 7.133 0 012.204 1.127l-.441 1.033c-.617-.47-1.322-.845-2.116-1.033-.793-.282-1.499-.375-2.292-.375-1.499 0-2.645.281-3.35.939-.794.657-1.147 1.502-1.147 2.441 0 .752.177 1.409.618 1.879.44.47.969.845 1.587 1.032.617.188 1.41.47 2.468.752 1.146.281 2.116.657 2.822.939.705.282 1.322.751 1.851 1.315.529.563.706 1.408.706 2.441 0 .845-.177 1.597-.618 2.254a4.308 4.308 0 01-1.939 1.597 8.145 8.145 0 01-3.263.657c-1.146.094-2.292-.188-3.35-.564zm24.246-.657v1.127h-11.109V56.533h10.756v1.127h-9.61v6.761h8.552v1.127h-8.552v7.043h9.963v-.094zM22.835 73.719H0L47.787 0h22.835L22.835 73.719z" fill="#fff"/></svg>