<svg width="140" height="51" fill="none" xmlns="http://www.w3.org/2000/svg"><g clip-path="url(#clip0)"><path d="M68.377 16.805h16.818L74.35 0H57.532l10.845 16.805z" fill="#B3B3B3"/><path d="M39.156 50.935H22.338L57.532 0h16.819L39.156 50.935z" fill="#E21313"/><path d="M67.208 33.676a5.873 5.873 0 01-2.338-2.207c-.584-.908-.844-2.011-.844-3.179 0-1.168.26-2.206.844-3.18.585-.908 1.299-1.686 2.338-2.205a7.117 7.117 0 013.311-.779c1.04 0 1.949.195 2.793.52.844.388 1.558.907 2.078 1.556l-1.754 1.622c-.779-.908-1.818-1.362-2.987-1.362-.714 0-1.363.13-1.948.454a3.442 3.442 0 00-1.363 1.363c-.325.584-.455 1.233-.455 1.946 0 .714.13 1.363.455 1.947a3.435 3.435 0 001.363 1.362c.585.325 1.234.455 1.948.455 1.17 0 2.208-.455 2.987-1.428l1.754 1.622a5.324 5.324 0 01-2.078 1.557c-.844.39-1.754.52-2.793.52-1.233.26-2.337 0-3.311-.584zm17.597.584l-2.273-3.31H80v3.31h-2.727V22.45h5.13c1.039 0 1.948.195 2.727.52.78.324 1.364.843 1.818 1.492.39.649.65 1.427.65 2.27 0 .91-.195 1.623-.65 2.272-.454.649-1.039 1.103-1.818 1.492l2.662 3.828h-2.987v-.064zm-.714-9.084c-.455-.325-1.039-.52-1.883-.52H80v4.153h2.208c.844 0 1.428-.195 1.883-.519.455-.39.65-.843.65-1.557 0-.65-.195-1.168-.65-1.558zm14.805 6.942v2.206h-9.22V22.45H98.7v2.206h-6.233v2.596h5.519v2.141h-5.52v2.725h6.43zm2.208-9.668h5.389c1.299 0 2.403.26 3.442.714 1.039.454 1.753 1.168 2.338 2.076.519.909.844 1.947.844 3.115 0 1.168-.26 2.206-.844 3.114-.52.909-1.299 1.558-2.338 2.077-1.039.519-2.143.714-3.442.714h-5.389V22.45zm5.26 9.603c1.168 0 2.142-.324 2.857-.973.714-.649 1.039-1.557 1.039-2.66 0-1.103-.325-2.012-1.039-2.66-.715-.65-1.624-.974-2.857-.974h-2.533v7.332h2.533v-.065zm8.766-9.603h2.727v11.874h-2.727V22.45zm7.987 2.206h-3.831V22.45h10.324v2.206h-3.831v9.604h-2.727v-9.604h.065zm9.091 9.474c-.844-.26-1.559-.584-2.143-.974l.909-2.076c.52.39 1.104.649 1.818.908.714.195 1.429.325 2.078.325.779 0 1.364-.13 1.753-.325.39-.26.585-.519.585-.908 0-.26-.13-.519-.325-.714-.195-.194-.519-.324-.844-.454-.325-.13-.844-.26-1.429-.39-.909-.194-1.623-.453-2.207-.648-.585-.195-1.039-.584-1.494-1.038-.39-.454-.649-1.103-.649-1.882 0-.714.195-1.298.584-1.882.39-.584.909-.973 1.688-1.297.78-.325 1.689-.52 2.728-.52.779 0 1.493.066 2.208.26.714.195 1.363.454 1.883.779l-.845 2.076a6.386 6.386 0 00-3.311-.908c-.779 0-1.364.13-1.689.389-.389.26-.519.584-.519.973 0 .39.195.714.649.909.455.194 1.104.389 1.948.584.91.194 1.624.454 2.208.648.585.195 1.039.584 1.494 1.039.389.454.649 1.103.649 1.881 0 .65-.195 1.298-.584 1.882-.39.584-.974.973-1.689 1.363-.714.389-1.688.519-2.792.519-.844-.13-1.753-.26-2.662-.52zm-66.234 4.93v11.875h-.844V45.29h-7.922v5.645h-.844V39.061h.844v5.45h7.922v-5.45h.844zm6.039 11.161c-.91-.519-1.688-1.233-2.208-2.141-.52-.908-.779-1.947-.779-3.05 0-1.103.26-2.14.78-3.05.519-.908 1.298-1.621 2.207-2.14.91-.52 2.013-.78 3.182-.78s2.208.26 3.182.78c.909.519 1.688 1.232 2.207 2.14.52.91.78 1.947.78 3.115 0 1.168-.26 2.142-.78 3.115-.519.908-1.298 1.622-2.207 2.141-.91.52-2.013.779-3.182.779s-2.273-.39-3.182-.909zm5.844-.713a5.234 5.234 0 002.598-4.543 5.234 5.234 0 00-2.597-4.542c-.78-.454-1.69-.648-2.728-.648-.974 0-1.883.194-2.727.648a5.233 5.233 0 00-2.598 4.542 5.233 5.233 0 002.597 4.542c.78.455 1.689.65 2.728.65a4.736 4.736 0 002.727-.65zm7.597.194c-.844-.843-1.233-2.141-1.233-3.828V39.06h.844v6.813c0 1.427.325 2.53.974 3.244.65.714 1.623 1.103 2.922 1.103 1.234 0 2.208-.39 2.857-1.103.65-.714.974-1.817.974-3.244V39.06h.844v6.813c0 1.687-.39 2.92-1.233 3.828-.845.844-2.013 1.298-3.507 1.298-1.428 0-2.597-.454-3.442-1.298zm12.988.844c-.78-.325-1.429-.714-1.819-1.168l.39-.649c.39.454.974.779 1.688 1.103.715.26 1.429.39 2.208.39 1.104 0 2.013-.195 2.533-.65.584-.454.844-.973.844-1.687 0-.519-.13-.973-.455-1.297a2.711 2.711 0 00-1.169-.714c-.454-.13-1.039-.324-1.818-.52a16.16 16.16 0 01-2.078-.648 3.863 3.863 0 01-1.363-.908c-.39-.455-.52-.974-.52-1.687 0-.584.13-1.103.455-1.558.324-.454.779-.843 1.428-1.167a6.242 6.242 0 012.338-.455c.649 0 1.299.065 1.948.26a5.39 5.39 0 011.623.778l-.324.714a4.284 4.284 0 00-1.559-.714 5.09 5.09 0 00-1.688-.26c-1.104 0-1.948.196-2.468.65-.584.454-.844 1.038-.844 1.687 0 .519.13.973.455 1.297.325.325.714.584 1.169.714.454.13 1.039.325 1.818.52a16.19 16.19 0 012.078.648c.519.195.974.52 1.363.909.39.389.52.973.52 1.687 0 .584-.13 1.103-.455 1.557a3.133 3.133 0 01-1.428 1.103c-.65.26-1.429.454-2.403.454-.844.065-1.688-.13-2.467-.39zm17.857-.455v.78h-8.182V39.06h7.922v.779h-7.078v4.671h6.299v.779h-6.299v4.866h7.338v-.065z" fill="#0F0E0E"/><path d="M16.818 50.935H0L35.195 0h16.818L16.818 50.935z" fill="#E21313"/></g><defs><clipPath id="clip0"><path fill="#fff" d="M0 0h140v51H0z"/></clipPath></defs></svg>