<svg width="127" height="35" fill="none" xmlns="http://www.w3.org/2000/svg"><path d="M12.984 11.772V24.12h-1.581v-1.832c-.672.81-1.34 1.22-2.181 1.628-.833.408-1.834.521-2.827.521-1.765 0-3.274-.631-4.527-1.895C.623 21.272 0 19.728 0 17.913c0-1.779.63-3.3 1.89-4.564 1.262-1.263 2.778-1.895 4.55-1.895 1.024 0 1.957.136 2.782.568.833.431 1.554.903 2.18 1.765v-2.015h1.582zm-6.417 1.214c-.894 0-1.72.22-2.476.659a4.807 4.807 0 00-1.81 1.827 5.013 5.013 0 00-.665 2.497c0 .87.225 1.702.676 2.497a4.954 4.954 0 001.81 1.861 4.844 4.844 0 002.453.659c.879 0 1.712-.22 2.499-.659a4.587 4.587 0 001.81-1.782c.428-.749.642-1.592.642-2.53 0-1.43-.478-2.626-1.433-3.587-.947-.961-2.116-1.442-3.506-1.442zm8.572-6.631v17.766h1.581v-1.832c.672.81 1.34 1.22 2.181 1.628.833.408 1.834.521 2.827.521 1.765 0 3.274-.631 4.527-1.895 1.245-1.271 1.868-2.815 1.868-4.63 0-1.779-.63-3.3-1.89-4.564-1.262-1.263-2.778-1.895-4.55-1.895-1.024 0-1.957.136-2.782.568-.832.431-1.554.903-2.18 1.765V6.355h-1.582zm6.417 6.631c.894 0 1.72.22 2.476.659a4.807 4.807 0 011.81 1.827c.444.787.665 1.62.665 2.497 0 .87-.225 1.702-.676 2.497a4.954 4.954 0 01-1.81 1.861 4.844 4.844 0 01-2.453.659c-.879 0-1.712-.22-2.498-.659a4.586 4.586 0 01-1.811-1.782c-.428-.749-.642-1.592-.642-2.53 0-1.43.477-2.626 1.432-3.587.948-.961 2.117-1.442 3.507-1.442z" fill="#fff"/><circle cx="52.04" cy="17.5" r="17.5" fill="#6ADF91"/><path d="M59.624 10.5L52.94 26.25l-10.234-9.723L59.624 10.5zm35.134 9.213l1.345.706c-.44.866-.95 1.564-1.527 2.096a6.143 6.143 0 01-1.948 1.219c-.721.273-1.537.41-2.449.41-2.02 0-3.599-.66-4.738-1.982-1.14-1.329-1.709-2.829-1.709-4.5a6.63 6.63 0 011.447-4.202c1.223-1.565 2.859-2.347 4.91-2.347 2.11 0 3.796.801 5.057 2.404.896 1.13 1.351 2.543 1.367 4.237h-11.14c.03 1.442.49 2.627 1.378 3.554.888.918 1.986 1.378 3.292 1.378.63 0 1.241-.11 1.834-.33a4.82 4.82 0 001.526-.878c.418-.364.87-.953 1.355-1.765zm0-3.338c-.212-.85-.523-1.53-.934-2.038-.402-.51-.937-.92-1.606-1.23a4.932 4.932 0 00-2.107-.468c-1.215 0-2.259.392-3.132 1.174-.638.57-1.12 1.423-1.447 2.562h9.226zm16.515-4.892v12.35h-1.582V22c-.672.81-1.341 1.219-2.181 1.627-.833.409-1.834.522-2.827.522-1.765 0-3.274-.632-4.527-1.895-1.245-1.272-1.868-2.815-1.868-4.631 0-1.778.63-3.3 1.891-4.563 1.261-1.264 2.777-1.895 4.55-1.895 1.024 0 1.956.136 2.781.567.833.432 1.555.903 2.181 1.766v-2.016h1.582zm-6.418 1.215a4.85 4.85 0 00-2.476.658 4.803 4.803 0 00-1.81 1.828 5.015 5.015 0 00-.665 2.496c0 .87.225 1.703.676 2.497a4.952 4.952 0 001.811 1.862 4.842 4.842 0 002.452.658c.879 0 1.712-.22 2.499-.658a4.583 4.583 0 001.81-1.782c.428-.75.642-1.593.642-2.531 0-1.43-.477-2.626-1.432-3.587-.948-.96-2.117-1.441-3.507-1.441zm21.557-6.631v17.765h-1.581V22c-.673.81-1.341 1.22-2.181 1.628-.833.409-1.834.522-2.827.522-1.765 0-3.274-.632-4.527-1.895-1.246-1.272-1.868-2.815-1.868-4.631 0-1.778.63-3.3 1.891-4.563 1.26-1.264 2.777-1.895 4.549-1.895 1.024 0 1.956.136 2.782.567.832.432 1.554.903 2.181 1.766V6.067h1.581zm-6.418 6.63c-.893 0-1.719.22-2.475.66a4.812 4.812 0 00-1.811 1.827 4.986 4.986 0 00.012 4.994 4.956 4.956 0 001.81 1.86 4.848 4.848 0 002.453.66 5.05 5.05 0 002.498-.66 4.585 4.585 0 001.811-1.781c.428-.75.642-1.593.642-2.531 0-1.43-.478-2.626-1.433-3.587-.947-.96-2.116-1.441-3.507-1.441zM80.317 23.992h2.185v-1.415h-2.185c-.311 0-.61-.064-.889-.192a2.27 2.27 0 01-1.193-1.197 2.193 2.193 0 01-.177-.871V6.202H76.63v14.115a3.583 3.583 0 001.074 2.593l.004.004c.335.335.725.599 1.173.792.44.19.916.286 1.435.286z" fill="#fff"/><path fill-rule="evenodd" clip-rule="evenodd" d="M82.664 24.154v-1.74h-2.347c-.289 0-.563-.058-.82-.176l-.004-.002a2.107 2.107 0 01-1.11-1.112 2.03 2.03 0 01-.163-.807V6.04h-1.751v14.277a3.744 3.744 0 001.122 2.709l.003.002c.35.35.758.626 1.224.827.461.198.96.299 1.5.299h2.346zm-4.955-1.24l-.004-.004a3.588 3.588 0 01-1.074-2.593V6.202h1.426v14.115c0 .303.06.594.178.87a2.27 2.27 0 001.193 1.198c.28.128.578.192.89.192h2.184v1.415h-2.185a3.59 3.59 0 01-1.435-.286 3.724 3.724 0 01-1.173-.792z" fill="#fff"/></svg>