<svg width="156" height="44" fill="none" xmlns="http://www.w3.org/2000/svg"><path d="M16.023 14.527v15.24h-1.951v-2.261c-.83.999-1.655 1.505-2.692 2.009-1.028.504-2.263.643-3.488.643-2.178 0-4.04-.78-5.587-2.339C.768 26.251 0 24.346 0 22.105c0-2.195.778-4.072 2.334-5.631 1.555-1.56 3.427-2.34 5.614-2.34 1.264 0 2.414.17 3.432.701 1.028.533 1.919 1.115 2.692 2.18v-2.488h1.951zm-7.92 1.499a5.98 5.98 0 00-3.054.812 5.932 5.932 0 00-2.235 2.255 6.187 6.187 0 00-.82 3.082c0 1.073.278 2.1.835 3.081a6.113 6.113 0 002.234 2.297 5.978 5.978 0 003.027.813 6.235 6.235 0 003.083-.813c.97-.541 1.716-1.274 2.234-2.199.528-.924.792-1.965.792-3.123 0-1.765-.59-3.24-1.768-4.426-1.169-1.186-2.611-1.78-4.327-1.78zm10.58-8.183v21.923h1.951v-2.26c.83.999 1.655 1.504 2.692 2.009 1.027.504 2.263.643 3.488.643 2.178 0 4.04-.78 5.587-2.339 1.537-1.568 2.305-3.473 2.305-5.714 0-2.195-.778-4.072-2.334-5.631-1.555-1.56-3.427-2.34-5.614-2.34-1.264 0-2.414.17-3.432.701-1.028.533-1.919 1.115-2.692 2.18V7.842h-1.951zm7.92 8.183a5.98 5.98 0 013.054.812 5.932 5.932 0 012.235 2.255c.546.971.82 1.998.82 3.082 0 1.073-.278 2.1-.835 3.081a6.113 6.113 0 01-2.234 2.297 5.978 5.978 0 01-3.027.813 6.236 6.236 0 01-3.083-.813c-.97-.541-1.716-1.274-2.234-2.199-.528-.924-.792-1.965-.792-3.123 0-1.765.59-3.24 1.768-4.426 1.169-1.186 2.611-1.78 4.327-1.78z" fill="#fff"/><circle cx="64.221" cy="21.596" r="21.596" fill="#6ADF91"/><path d="M73.58 12.958l-8.248 19.436-12.629-11.999 20.876-7.437zm43.357 11.369l1.658.871c-.543 1.069-1.171 1.93-1.883 2.587a7.583 7.583 0 01-2.404 1.504c-.89.337-1.897.506-3.022.506-2.493 0-4.442-.815-5.847-2.446-1.406-1.64-2.109-3.49-2.109-5.552 0-1.94.595-3.67 1.785-5.187 1.509-1.93 3.528-2.896 6.059-2.896 2.605 0 4.685.989 6.241 2.966 1.106 1.396 1.668 3.14 1.687 5.23h-13.748c.038 1.78.605 3.241 1.701 4.385 1.096 1.134 2.451 1.7 4.062 1.7.778 0 1.533-.135 2.264-.407.74-.272 1.368-.633 1.883-1.082.516-.45 1.073-1.176 1.673-2.18zm0-4.119c-.263-1.05-.647-1.888-1.153-2.516-.496-.628-1.157-1.134-1.982-1.518a6.082 6.082 0 00-2.6-.576c-1.5 0-2.788.482-3.866 1.448-.787.702-1.382 1.757-1.785 3.162h11.386zm20.38-6.037v15.24h-1.952V27.15c-.83 1-1.655 1.505-2.692 2.009-1.027.504-2.263.643-3.488.643-2.178 0-4.041-.78-5.587-2.339-1.537-1.568-2.305-3.473-2.305-5.714 0-2.195.778-4.072 2.333-5.63 1.556-1.56 3.428-2.34 5.615-2.34 1.264 0 2.414.168 3.432.7 1.028.533 1.919 1.115 2.692 2.18V14.17h1.952zm-7.92 1.499a5.98 5.98 0 00-3.055.812c-.934.533-1.678 1.284-2.235 2.255a6.184 6.184 0 00-.82 3.082c0 1.074.278 2.1.834 3.081a6.123 6.123 0 002.235 2.297 5.98 5.98 0 003.027.813 6.235 6.235 0 003.083-.813c.971-.541 1.716-1.274 2.234-2.199.528-.924.792-1.965.792-3.123 0-1.765-.589-3.24-1.768-4.426-1.169-1.186-2.611-1.78-4.327-1.78zm26.602-8.183V29.41h-1.952v-2.26c-.829 1-1.654 1.505-2.691 2.009-1.028.504-2.263.644-3.489.644-2.178 0-4.04-.78-5.586-2.34-1.537-1.568-2.305-3.473-2.305-5.714 0-2.195.777-4.072 2.333-5.63 1.556-1.56 3.427-2.34 5.615-2.34 1.263 0 2.414.168 3.432.7 1.028.533 1.918 1.115 2.691 2.18V7.486h1.952zm-7.92 8.183c-1.103 0-2.121.27-3.055.812a5.931 5.931 0 00-2.234 2.255 6.185 6.185 0 00-.82 3.082c0 1.074.278 2.1.834 3.081a6.108 6.108 0 002.235 2.297 5.973 5.973 0 003.026.813 6.232 6.232 0 003.083-.813c.971-.541 1.716-1.274 2.235-2.199.528-.924.792-1.965.792-3.123 0-1.765-.59-3.24-1.768-4.426-1.169-1.186-2.612-1.78-4.328-1.78zM99.116 29.607h2.696v-1.746h-2.696a2.6 2.6 0 01-1.097-.237 2.801 2.801 0 01-1.473-1.477 2.705 2.705 0 01-.219-1.075V7.653h-1.76v17.42a4.423 4.423 0 001.326 3.2l.004.004c.413.414.895.74 1.448.977a4.42 4.42 0 001.77.353z" fill="#fff"/><path fill-rule="evenodd" clip-rule="evenodd" d="M102.011 29.807v-2.146h-2.895a2.4 2.4 0 01-1.014-.218l-.004-.002a2.599 2.599 0 01-1.368-1.373 2.506 2.506 0 01-.203-.996V7.453h-2.16v17.62a4.622 4.622 0 001.385 3.342l.003.003c.432.432.935.772 1.51 1.02a4.63 4.63 0 001.85.37h2.896zm-6.114-1.53l-.005-.004a4.43 4.43 0 01-1.326-3.2V7.652h1.76v17.42c0 .373.074.733.22 1.074a2.8 2.8 0 001.472 1.477 2.6 2.6 0 001.097.237h2.696v1.746h-2.696a4.42 4.42 0 01-1.77-.352 4.596 4.596 0 01-1.448-.978z" fill="#fff"/></svg>