<svg xmlns="http://www.w3.org/2000/svg" xmlns:xlink="http://www.w3.org/1999/xlink" viewBox="0 0 224 342.53"><defs><style>.cls-1{fill:url(#linear-gradient);}.cls-2{fill:#fff;}</style><linearGradient id="linear-gradient" x1="28.31" y1="345.19" x2="195.15" y2="54.23" gradientTransform="matrix(1, 0, 0, -1, 0, 344)" gradientUnits="userSpaceOnUse"><stop offset="0" stop-color="#67d690"/><stop offset="1" stop-color="#00a99d"/></linearGradient></defs><title>marker</title><g id="Layer_2" data-name="Layer 2"><g id="Layer_1-2" data-name="Layer 1"><path class="cls-1" d="M112,6A106,106,0,0,0,93.82,216.45c-.24,3-.77,7.24-1.51,12.43-1.43,10.06-3.58,23.2-5.8,36.73-.2,1.18-.39,2.35-.58,3.54-2.41,14.7-4.83,29.57-6.36,40.93-.76,5.66-1.32,10.59-1.54,14.24a36.68,36.68,0,0,0,0,4.89,11.15,11.15,0,0,0,.42,2.44,6.83,6.83,0,0,0,3.18,4.09,6.43,6.43,0,0,0,4.61.61,8,8,0,0,0,1.92-.76A15.4,15.4,0,0,0,90.43,334a68.42,68.42,0,0,0,5.09-4.69c3.94-3.95,9.22-9.72,15.36-16.88,12.29-14.34,28.21-34.49,44-57.19s31.47-48.06,43.26-72.84S218,133.1,218,112A106,106,0,0,0,112,6Z"/><path class="cls-1" d="M112,6A106,106,0,0,0,93.82,216.45c-.24,3-.77,7.24-1.51,12.43-1.43,10.06-3.58,23.2-5.8,36.73-.2,1.18-.39,2.35-.58,3.54-2.41,14.7-4.83,29.57-6.36,40.93-.76,5.66-1.32,10.59-1.54,14.24a36.68,36.68,0,0,0,0,4.89,11.15,11.15,0,0,0,.42,2.44,6.83,6.83,0,0,0,3.18,4.09,6.43,6.43,0,0,0,4.61.61,8,8,0,0,0,1.92-.76A15.4,15.4,0,0,0,90.43,334a68.42,68.42,0,0,0,5.09-4.69c3.94-3.95,9.22-9.72,15.36-16.88,12.29-14.34,28.21-34.49,44-57.19s31.47-48.06,43.26-72.84S218,133.1,218,112A106,106,0,0,0,112,6Z"/><path class="cls-2" d="M84.64,342.53a12.29,12.29,0,0,1-6-1.54,12.81,12.81,0,0,1-6-7.62,17.46,17.46,0,0,1-.65-3.7A42.21,42.21,0,0,1,72,324c.21-3.52.73-8.32,1.59-14.67,1.51-11.25,3.88-25.86,6.38-41.1l.58-3.54C82.83,251,85,238.05,86.37,228c.36-2.55.67-4.81.91-6.78A112,112,0,1,1,224,112c0,19.9-6.88,44.45-20.45,73-10.73,22.55-25.45,47.34-43.76,73.68-18.88,27.17-35.9,47.8-44.36,57.67-6,7.05-11.45,13-15.67,17.22a71.8,71.8,0,0,1-5.57,5.13A21.89,21.89,0,0,1,91,340.87a14.52,14.52,0,0,1-3.36,1.31A13.18,13.18,0,0,1,84.64,342.53ZM112,12A100,100,0,0,0,94.85,210.54l5.41.93-.46,5.47c-.25,3-.76,7.2-1.55,12.79-1.44,10.13-3.57,23.11-5.82,36.85l-.58,3.54c-2.48,15.15-4.84,29.67-6.33,40.76-.81,6.06-1.3,10.57-1.5,13.8a33.9,33.9,0,0,0,0,4.08,5.8,5.8,0,0,0,.19,1.18,1,1,0,0,0,.34.56.38.38,0,0,0,.3,0,2.18,2.18,0,0,0,.47-.19,10.57,10.57,0,0,0,1.4-1,59.55,59.55,0,0,0,4.6-4.26c4-4,9.21-9.73,15-16.55,8.31-9.7,25-30,43.62-56.71,17.93-25.8,32.32-50,42.77-72C205.51,152.92,212,130.1,212,112A100.11,100.11,0,0,0,112,12Z"/><circle class="cls-2" cx="111.5" cy="110.5" r="67.31"/></g></g></svg>