<svg width="48" height="48" fill="none" xmlns="http://www.w3.org/2000/svg"><path fill-rule="evenodd" clip-rule="evenodd" d="M6.63 29.766c.18.38.526.725.963 1.023.443.302 1.006.577 1.663.81 1.315.466 3.037.775 4.993.775 2.009 0 3.77-.326 5.095-.812.662-.244 1.226-.53 1.66-.844.428-.309.763-.668.912-1.067a.64.64 0 01.816-.371.63.63 0 01.385.797c-.377 1.014-1.438 1.933-3.19 2.605h-.001c-1.582.61-3.593.945-5.677.945-2.187 0-4.168-.35-5.714-.95-1.557-.606-2.62-1.442-3.064-2.377a.628.628 0 01.308-.837.647.647 0 01.85.303zm15.286-.115v-.001l-.378-.137.378.138zM6.63 35.058c.18.38.526.724.963 1.023.443.302 1.006.577 1.663.81 1.315.466 3.037.775 4.993.775 2.009 0 3.77-.326 5.095-.812.662-.243 1.226-.53 1.66-.844.428-.309.763-.668.912-1.067a.64.64 0 01.816-.371.63.63 0 01.385.797c-.377 1.014-1.438 1.933-3.19 2.605h-.001c-1.582.61-3.593.945-5.677.945-2.187 0-4.168-.35-5.714-.95-1.557-.606-2.62-1.442-3.064-2.377a.628.628 0 01.308-.837.647.647 0 01.85.303zm15.286-.115v-.001l-.378-.137.378.138zM5.411 24.608c0-1.148.839-2.238 2.437-3.063 1.586-.818 3.837-1.324 6.435-1.324 2.597 0 4.848.506 6.435 1.325 1.598.824 2.436 1.914 2.436 3.062s-.838 2.237-2.436 3.062c-1.587.819-3.838 1.324-6.435 1.324-2.598 0-4.849-.505-6.435-1.324-1.598-.825-2.437-1.914-2.437-3.062zm1.253 0c0 .442.27.851.635 1.19.375.348.907.677 1.562.961 1.311.57 3.172.983 5.422.983 2.25 0 4.11-.413 5.422-.983.655-.284 1.186-.613 1.562-.962.364-.338.635-.747.635-1.19 0-.441-.271-.85-.636-1.189-.375-.348-.906-.678-1.561-.962-1.312-.57-3.172-.982-5.422-.982-2.25 0-4.11.413-5.422.982-.655.284-1.187.614-1.562.962-.364.339-.635.748-.635 1.19zm19.81-5.426c.18.38.527.725.964 1.023.443.302 1.006.577 1.663.81 1.315.466 3.036.775 4.992.775 2.01 0 3.77-.326 5.096-.812.662-.244 1.226-.53 1.66-.844.427-.309.762-.668.912-1.067l-.379-.138.379.137v.001a.64.64 0 01.816-.371.63.63 0 01.385.797c-.377 1.014-1.438 1.933-3.19 2.605h-.002c-1.582.61-3.593.945-5.677.945-2.186 0-4.167-.35-5.713-.95-1.557-.606-2.62-1.442-3.064-2.377a.628.628 0 01.307-.837.647.647 0 01.85.303z" fill="#fff"/><path fill-rule="evenodd" clip-rule="evenodd" d="M26.474 23.151c.18.38.527.724.964 1.023.443.302 1.006.577 1.663.81 1.315.466 3.036.775 4.992.775 2.01 0 3.77-.326 5.096-.813.662-.243 1.226-.53 1.66-.843.427-.309.762-.668.912-1.067l-.379-.138.379.137a.64.64 0 01.816-.37.63.63 0 01.385.797c-.377 1.014-1.438 1.933-3.19 2.605h-.002c-1.582.61-3.593.945-5.677.945-2.186 0-4.167-.35-5.713-.951-1.557-.605-2.62-1.441-3.064-2.376a.628.628 0 01.307-.837.647.647 0 01.85.303z" fill="#fff"/><path fill-rule="evenodd" clip-rule="evenodd" d="M26.474 27.12c.18.38.527.724.964 1.023.443.302 1.006.577 1.663.81 1.315.466 3.036.775 4.992.775 2.01 0 3.77-.326 5.096-.812.662-.244 1.226-.53 1.66-.844.427-.309.762-.668.912-1.067l-.379-.138.379.137v.001a.64.64 0 01.816-.371.63.63 0 01.385.797c-.377 1.014-1.438 1.933-3.19 2.605h-.002c-1.582.61-3.593.945-5.677.945-2.186 0-4.167-.35-5.713-.95-1.557-.606-2.62-1.442-3.064-2.377a.628.628 0 01.307-.837.647.647 0 01.85.303z" fill="#fff"/><path fill-rule="evenodd" clip-rule="evenodd" d="M26.474 31.09c.18.38.527.724.964 1.022.443.302 1.006.578 1.663.81 1.315.467 3.036.776 4.992.776 2.01 0 3.77-.327 5.096-.813.662-.243 1.226-.53 1.66-.844.427-.308.762-.667.912-1.067l-.379-.138.379.137v.001a.64.64 0 01.816-.37.63.63 0 01.385.796c-.377 1.014-1.438 1.934-3.19 2.605h-.002c-1.582.61-3.593.945-5.677.945-2.186 0-4.167-.35-5.713-.95-1.557-.605-2.62-1.442-3.064-2.377a.628.628 0 01.307-.836.647.647 0 01.85.303zm-1.218-17.307c0-1.148.839-2.238 2.437-3.063 1.586-.818 3.837-1.324 6.434-1.324 2.598 0 4.849.506 6.435 1.324C42.16 11.545 43 12.635 43 13.783c0 1.148-.839 2.237-2.437 3.062-1.586.818-3.837 1.324-6.434 1.324-2.598 0-4.849-.506-6.435-1.324-1.598-.825-2.437-1.914-2.437-3.062zm1.253 0c0 .442.27.85.635 1.19.375.348.907.677 1.561.961 1.312.57 3.173.983 5.422.983 2.25 0 4.111-.413 5.423-.983.654-.284 1.186-.613 1.561-.962.365-.338.636-.747.636-1.19 0-.442-.271-.85-.636-1.19-.375-.348-.907-.677-1.561-.96-1.312-.57-3.173-.983-5.422-.983-2.25 0-4.111.413-5.423.982-.654.284-1.186.613-1.561.962-.365.338-.635.747-.635 1.19z" fill="#fff"/></svg>