<svg width="120" height="120" fill="none" xmlns="http://www.w3.org/2000/svg"><circle cx="60" cy="60" r="60" fill="#F3F3F3"/><path d="M82.932 67.696h-.999a6.269 6.269 0 001.301-3.827v-1.746a6.309 6.309 0 00-6.301-6.302 6.309 6.309 0 00-6.302 6.302v1.746a6.27 6.27 0 001.3 3.827h-.998c-.353 0-.7.026-1.041.07l-5.571-5.572a6.964 6.964 0 00-3.703-1.935l.002-.043v-2.258l2.95-2.95c.282.017.648.032 1.079.032 2.298 0 6.413-.416 9.137-3.089 3.658-3.59 3.17-9.847 3.07-10.815a1.233 1.233 0 00-1.15-1.161c-.557-.049-6.884-.506-10.62 3.16-3.202 3.142-3.323 8.257-3.249 10.107l-1.217 1.217v-8.82c1.395-1.235 5.228-5.055 5.272-9.77.05-5.336-4.925-9.588-5.706-10.223a1.233 1.233 0 00-1.637-.007c-.447.375-5.442 4.695-5.495 10.145-.044 4.742 3.703 8.606 5.092 9.871v8.835l-1.51-1.51c.072-1.826-.054-6.827-3.19-9.905-3.638-3.568-9.765-3.156-10.4-3.103a1.233 1.233 0 00-1.168 1.154c-.095.907-.593 7.081 3.013 10.62 2.674 2.624 6.713 3.032 8.967 3.032.416 0 .771-.014 1.046-.03l3.242 3.242v2.226l.002.038a6.964 6.964 0 00-3.734 1.94l-5.571 5.572a8.135 8.135 0 00-1.042-.07h-.998a6.269 6.269 0 001.3-3.827v-1.746a6.309 6.309 0 00-6.301-6.301 6.309 6.309 0 00-6.302 6.301v1.746c0 1.439.486 2.766 1.301 3.828h-.998c-4.468 0-8.103 3.634-8.103 8.102v11.63c0 .684.554 1.238 1.237 1.238h25.73c.683 0 1.236-.554 1.236-1.237V75.799a8.109 8.109 0 00-4.394-7.2l4.654-4.655a4.536 4.536 0 016.408 0l4.654 4.654a8.108 8.108 0 00-4.394 7.2V87.43c0 .683.554 1.237 1.237 1.237h25.729c.683 0 1.237-.554 1.237-1.237V75.8c0-4.468-3.635-8.103-8.102-8.103zM66.818 44.9c2.221-2.178 5.85-2.485 7.635-2.493.042 1.83-.172 5.592-2.4 7.778-1.638 1.608-4.08 2.153-5.976 2.315l2.127-2.126a1.237 1.237 0 10-1.75-1.75l-2.06 2.06c.21-1.855.811-4.2 2.424-5.784zm-20.194 5.08c-2.165-2.125-2.382-5.777-2.343-7.574 1.747.01 5.271.315 7.433 2.435 1.553 1.524 2.145 3.773 2.357 5.574l-1.523-1.523a1.237 1.237 0 00-1.75 1.75l1.599 1.598c-1.84-.163-4.185-.701-5.773-2.26zm-8.65 13.889v-1.746a3.832 3.832 0 013.828-3.828 3.832 3.832 0 013.828 3.828v1.745a3.832 3.832 0 01-3.828 3.828 3.832 3.832 0 01-3.828-3.828zm15.456 11.93v10.393h-3.464v-9.336a1.237 1.237 0 00-2.474 0v9.336h-11.38v-9.336a1.237 1.237 0 00-2.474 0v9.336h-3.464V75.8a5.635 5.635 0 015.629-5.629H47.8a5.635 5.635 0 015.63 5.629zm2.098-39.992c.032-3.306 2.548-6.255 3.856-7.566 1.379 1.31 4.065 4.29 4.034 7.605-.023 2.465-1.489 4.727-2.798 6.259V37.95a1.237 1.237 0 00-2.474 0v4.112c-1.257-1.539-2.641-3.795-2.618-6.255zm17.577 28.061v-1.745a3.832 3.832 0 013.827-3.828 3.832 3.832 0 013.828 3.828v1.745a3.832 3.832 0 01-3.828 3.828 3.832 3.832 0 01-3.827-3.828zM88.56 86.192h-3.463v-4.577a1.237 1.237 0 00-2.474 0v4.577h-11.38v-9.336a1.237 1.237 0 00-2.475 0v9.336h-3.463V75.8a5.635 5.635 0 015.628-5.629h11.999A5.635 5.635 0 0188.56 75.8v10.393z" fill="#6ADF91"/><path d="M83.86 75.62a1.25 1.25 0 00-.876.362c-.23.23-.362.549-.362.874 0 .326.132.645.362.875.23.23.55.363.875.363.325 0 .645-.133.875-.363.23-.23.362-.55.362-.874 0-.326-.132-.645-.362-.875-.23-.23-.55-.362-.875-.362z" fill="#6ADF91"/><path d="M44.893 51.746h-.001z" fill="#000"/><path d="M36.737 31.57c.683 0 1.237-.553 1.237-1.237v-1.537a1.237 1.237 0 00-2.474 0v1.537c0 .684.554 1.237 1.237 1.237zm0 7.37c.683 0 1.237-.555 1.237-1.238v-1.537a1.237 1.237 0 00-2.474 0v1.537c0 .683.554 1.237 1.237 1.237zm2.916-4.454h1.538a1.237 1.237 0 000-2.474h-1.538a1.237 1.237 0 000 2.474zm-7.369 0h1.537a1.237 1.237 0 000-2.474h-1.537a1.237 1.237 0 000 2.474zm53.059 12.637c.683 0 1.237-.554 1.237-1.237v-1.538a1.237 1.237 0 00-2.474 0v1.538c0 .683.554 1.237 1.237 1.237zm0 7.369c.683 0 1.237-.554 1.237-1.237v-1.538a1.237 1.237 0 00-2.474 0v1.538c0 .683.554 1.236 1.237 1.236zm2.917-4.454h1.537a1.237 1.237 0 000-2.474H88.26a1.237 1.237 0 000 2.474zm-7.37 0h1.538a1.237 1.237 0 000-2.474H80.89a1.237 1.237 0 000 2.474z" fill="#4BB1E9"/></svg>