<svg width="48" height="48" fill="none" xmlns="http://www.w3.org/2000/svg"><path fill-rule="evenodd" clip-rule="evenodd" d="M15.137 7.076c2.117 0 3.778.632 5.037 1.86l.005.005c1.274 1.213 1.922 2.79 1.922 4.783v1.665c0 1.923-.651 3.461-1.943 4.662-1.28 1.19-2.92 1.8-4.97 1.8-2.068 0-3.737-.61-5.05-1.803-1.301-1.196-1.965-2.784-1.965-4.823v-1.641c0-1.907.643-3.448 1.92-4.666 1.297-1.219 2.962-1.842 5.044-1.842zm-4.583 8.313c0 1.34.41 2.486 1.256 3.398l.004.004c.86.908 2.004 1.343 3.373 1.343 1.321 0 2.43-.429 3.271-1.318.86-.892 1.261-2.088 1.261-3.52v-1.712c0-1.336-.4-2.482-1.226-3.393-.843-.93-1.984-1.376-3.356-1.376-1.372 0-2.513.446-3.356 1.376-.832.917-1.227 2.096-1.227 3.486v1.712zM40 34.614c0 1.905-.65 3.446-1.945 4.664-1.278 1.203-2.927 1.82-4.993 1.82-2.068 0-3.737-.61-5.05-1.802-1.301-1.196-1.965-2.784-1.965-4.823v-1.688c0-1.908.643-3.44 1.92-4.641 1.296-1.22 2.962-1.844 5.044-1.844 2.084 0 3.751.618 5.047 1.823C39.343 29.318 40 30.907 40 32.949v1.665zm-11.571 0c0 1.353.409 2.508 1.255 3.42l.004.005c.86.908 2.005 1.343 3.374 1.343 1.336 0 2.456-.428 3.298-1.32l.004-.005c.838-.906 1.23-2.106 1.23-3.537v-1.735c0-1.352-.409-2.501-1.258-3.4-.842-.91-1.972-1.346-3.325-1.346-1.326 0-2.449.441-3.319 1.34-.86.891-1.263 2.08-1.263 3.5v1.735zm4.96-22.54L16.078 37.843l-1.698-.993 17.312-25.767 1.697.993z" fill="#fff"/></svg>