<svg width="120" height="120" fill="none" xmlns="http://www.w3.org/2000/svg"><circle cx="60" cy="60" r="60" fill="#F3F3F3"/><path d="M92.955 36.504a1.302 1.302 0 00-1.842 0c-2.662 2.662-4.644 6.049-5.732 9.795-.07.242-.148.491-.23.74-1.344 4.032-3.715 6.98-3.816 7.104a1.738 1.738 0 01-2.453.255c-.32-.26-.522-.61-.603-.983l-.007-.027a1.742 1.742 0 01.356-1.444c.02-.024 1.976-2.46 3.11-5.696 1.549-4.42.876-8.247-1.946-11.069a6.887 6.887 0 00-4.704-2.04c-1.79-.047-3.454.61-4.69 1.846-1.27 1.269-1.924 2.978-1.843 4.813a1.746 1.746 0 01-1.666 1.82 1.746 1.746 0 01-1.819-1.666c-.122-2.783.92-5.493 2.861-7.433 2.66-2.661 6.588-3.555 10.247-2.334 1.975.658 4.108.162 5.565-1.295a1.302 1.302 0 00-1.841-1.842 2.813 2.813 0 01-2.9.666c-4.602-1.535-9.55-.4-12.913 2.963-2.455 2.456-3.775 5.878-3.62 9.389a4.323 4.323 0 001.132 2.736l-1.793 1.793a3.99 3.99 0 00-.623-.806l-.079-.08a3.991 3.991 0 00-5.638 0 3.991 3.991 0 000 5.639l.08.078c.241.243.513.452.806.623l-2.195 2.195c-.35.35-.578.773-.692 1.22-.447.114-.87.343-1.22.692l-2.195 2.195a3.993 3.993 0 00-.623-.807l-.078-.079a3.991 3.991 0 00-5.638 0 3.991 3.991 0 000 5.638l.078.08c.242.241.514.45.807.622l-1.794 1.794a4.33 4.33 0 00-2.738-1.134c-3.51-.155-6.933 1.166-9.388 3.621-3.363 3.363-4.499 8.311-2.964 12.913a2.813 2.813 0 01-.666 2.9 1.302 1.302 0 001.842 1.841c1.457-1.457 1.954-3.59 1.295-5.564-1.221-3.66-.326-7.587 2.334-10.248 1.94-1.94 4.647-2.983 7.433-2.861.96.042 1.708.858 1.666 1.819a1.747 1.747 0 01-1.82 1.666c-1.833-.08-3.543.573-4.812 1.842-2.537 2.537-2.45 6.751.194 9.394 2.043 2.044 4.365 2.76 6.616 2.76 5.232-.001 10.08-3.867 10.15-3.924a1.746 1.746 0 012.453.256 1.738 1.738 0 01-.255 2.453c-.124.1-3.073 2.471-7.105 3.815-.244.081-.493.159-.74.23-3.746 1.089-7.133 3.07-9.794 5.732a1.302 1.302 0 001.841 1.842c2.352-2.352 5.354-4.106 8.68-5.073.278-.08.56-.169.836-.26 4.477-1.492 7.784-4.152 7.922-4.264a4.336 4.336 0 00.636-6.116l-.028-.034 1.803-1.803c.172.293.38.565.623.807l.079.079a3.991 3.991 0 005.638 0 3.991 3.991 0 000-5.638l-.08-.08a3.994 3.994 0 00-.806-.622l2.195-2.195c.35-.35.578-.773.692-1.22.447-.114.87-.342 1.22-.691l2.87-2.87a1.956 1.956 0 00-.868-3.274 1.357 1.357 0 01-.614-.357l-.079-.08a1.384 1.384 0 010-1.954 1.384 1.384 0 011.955 0l.079.079c.173.173.293.38.356.614a1.955 1.955 0 003.275.868l2.477-2.477.034.03a4.34 4.34 0 006.116-.637c.113-.138 2.772-3.444 4.264-7.922.093-.28.181-.562.26-.837.967-3.325 2.721-6.327 5.073-8.68a1.302 1.302 0 000-1.84zm-21.799 3.18c-.048-1.097.337-2.111 1.083-2.857.726-.727 1.72-1.109 2.782-1.084a4.293 4.293 0 012.929 1.277c5.102 5.103-1.283 13.206-1.345 13.283a4.35 4.35 0 00-.386.56l-.787-.787c.236-.152.457-.33.656-.53l.079-.078a3.991 3.991 0 000-5.638 3.96 3.96 0 00-2.82-1.168 3.96 3.96 0 00-2.818 1.167l-.08.08c-.198.199-.376.42-.529.656l-.929-.93a4.352 4.352 0 002.165-3.951zM37.021 77.947c-1.628-1.628-1.715-4.19-.194-5.711.747-.746 1.765-1.13 2.858-1.083a4.346 4.346 0 003.953-2.166l.96.962a4.005 4.005 0 00-.817.63l-.078.077a3.96 3.96 0 00-1.168 2.819 3.96 3.96 0 001.168 2.819 3.992 3.992 0 005.639 0l.077-.079c.245-.245.457-.52.63-.817l.816.817c-.193.112-.38.24-.557.384-.082.066-8.183 6.451-13.286 1.348zM64.004 65.91l-2.87 2.87A1.955 1.955 0 0062 72.055c.233.064.44.184.614.357l.078.079a1.384 1.384 0 010 1.955 1.384 1.384 0 01-1.954 0l-.08-.079a1.357 1.357 0 01-.356-.614 1.956 1.956 0 00-3.274-.868l-2.87 2.87a.049.049 0 01-.032.014l-.018-.005c-.007-.003-.015-.003-.02-.008l-2.877-2.877a1.967 1.967 0 00-1.897-.507 1.96 1.96 0 00-1.38 1.382 1.378 1.378 0 01-.358.62l-.078.079a1.384 1.384 0 01-2.36-.978c0-.37.144-.716.406-.978l.078-.078a1.35 1.35 0 01.62-.358 1.955 1.955 0 00.875-3.276l-2.874-2.874a.05.05 0 010-.07l2.87-2.87a1.956 1.956 0 00-.868-3.274 1.356 1.356 0 01-.613-.357l-.079-.078a1.373 1.373 0 01-.405-.978c0-.369.144-.716.405-.977s.608-.405.977-.405c.37 0 .717.144.978.405l.079.078c.173.174.293.38.356.615a1.956 1.956 0 003.274.867l2.87-2.87a.05.05 0 01.07 0l2.165 2.165a4 4 0 00-.656.53l-.078.078a3.991 3.991 0 000 5.638 3.961 3.961 0 002.819 1.168 3.96 3.96 0 002.819-1.168l.078-.079a4.01 4.01 0 00.53-.654l2.168 2.166c.02.02.02.051 0 .07zm9.56-9.56a3.993 3.993 0 00-.622-.807l-.079-.079a3.991 3.991 0 00-5.638 0 3.991 3.991 0 000 5.638l.079.08c.242.241.514.45.807.622L65.914 64a.05.05 0 01-.07 0l-2.806-2.807a1.949 1.949 0 00-1.838-.522 1.938 1.938 0 00-1.403 1.28c-.068.203-.18.383-.333.537l-.079.078a1.384 1.384 0 01-1.955 0 1.384 1.384 0 010-1.954l.08-.08c.153-.153.333-.265.536-.333a1.937 1.937 0 001.28-1.402 1.95 1.95 0 00-.523-1.838L56 54.156a.05.05 0 010-.07l2.87-2.87a1.956 1.956 0 00-.868-3.274 1.36 1.36 0 01-.614-.357l-.078-.08a1.384 1.384 0 010-1.954 1.384 1.384 0 011.954 0l.08.079c.173.173.293.38.356.614a1.955 1.955 0 003.274.868l2.87-2.87a.05.05 0 01.07 0l2.804 2.803a1.95 1.95 0 001.838.522 1.937 1.937 0 001.402-1.28c.068-.203.18-.383.333-.536l.08-.08c.26-.26.608-.404.977-.404s.716.143.977.405c.261.26.405.608.405.977 0 .37-.144.716-.405.978l-.079.078a1.368 1.368 0 01-.537.334 1.938 1.938 0 00-1.28 1.402 1.95 1.95 0 00.523 1.838l2.806 2.807c.006.005.006.012.008.019l.005.02a.048.048 0 01-.013.031l-2.195 2.195z" fill="#6ADF91"/><path d="M41.45 43.29a1.299 1.299 0 001.84 0 1.302 1.302 0 000-1.841l-4.853-4.854a1.303 1.303 0 00-1.842 1.841l4.854 4.854zm4.194 3.656a1.306 1.306 0 001.302-1.302c0-.343-.14-.677-.382-.921a1.312 1.312 0 00-.92-.382c-.343 0-.678.14-.92.382a1.312 1.312 0 00-.382.92c0 .344.139.679.381.921.243.243.578.382.92.382zm-10.503 3.8l3.903-.002a1.302 1.302 0 000-2.604h-.001l-3.902.002a1.302 1.302 0 000 2.604zM49.45 40.595c.72 0 1.303-.584 1.302-1.303l-.001-4.152a1.302 1.302 0 10-2.604.001l.001 4.152c0 .72.583 1.302 1.302 1.302zm29.105 36.112a1.303 1.303 0 00-1.842 1.841l4.854 4.854a1.298 1.298 0 001.842 0 1.302 1.302 0 000-1.841l-4.854-4.854zm-4.358-3.819c-.343 0-.679.14-.92.381a1.312 1.312 0 00-.383.92c0 .343.14.68.382.922s.578.381.92.381c.343 0 .68-.14.921-.382.242-.242.382-.578.382-.92 0-.343-.14-.678-.382-.92a1.312 1.312 0 00-.92-.382zm10.666-3.638l-3.903.002a1.302 1.302 0 000 2.604l3.903-.001a1.302 1.302 0 000-2.605zm-14.31 10.152c-.72 0-1.302.583-1.302 1.302l.002 4.153a1.302 1.302 0 102.604-.001l-.002-4.153c0-.719-.583-1.301-1.302-1.301z" fill="#4BB1E9"/></svg>