<svg width="570" height="570" fill="none" xmlns="http://www.w3.org/2000/svg"><path d="M285.221 535.737c146.918 0 266.019-66.576 266.019-148.701 0-82.126-119.101-148.702-266.019-148.702S19.202 304.91 19.202 387.036c0 82.125 119.101 148.701 266.019 148.701z" fill="#F5F5F5"/><path d="M449.53 445.518c38.897 0 70.429-18.206 70.429-40.664 0-22.458-31.532-40.664-70.429-40.664-38.897 0-70.429 18.206-70.429 40.664 0 22.458 31.532 40.664 70.429 40.664zm-326.611-8.026c38.897 0 70.43-18.206 70.43-40.664 0-22.458-31.533-40.663-70.43-40.663-38.897 0-70.429 18.205-70.429 40.663s31.532 40.664 70.429 40.664z" fill="#E0E0E0"/><path d="M484.196 367.439s-.878-16.04 4.891-29.561c5.768-13.52 15.219-22.971 25.08-25.456 9.861-2.485 19.551 5.37 9.895 13.521-9.656 8.151-27.634 17.841-32.399 43.023l-7.467-1.527z" fill="#6ADF91"/><path opacity=".15" d="M484.196 367.439s-.878-16.04 4.891-29.561c5.768-13.52 15.219-22.971 25.08-25.456 9.861-2.485 19.551 5.37 9.895 13.521-9.656 8.151-27.634 17.841-32.399 43.023l-7.467-1.527z" fill="#000"/><path d="M486.442 362.856h-.114a.556.556 0 01-.41-.65c6.179-27.862 24.487-42.18 33.299-45.817a.558.558 0 01.444-.037.546.546 0 01-.022 1.041c-8.641 3.591-26.585 17.624-32.661 45.041a.545.545 0 01-.536.422z" fill="#fff"/><path d="M488.004 376.069c-.16-1.289-.274-2.577-.456-3.865-.114-.923-.468-1.744-.57-2.679a9.99 9.99 0 01.798-6.099 15.918 15.918 0 013.42-3.773 15.28 15.28 0 003.42-3.774c.547-.969.878-2.052 1.356-3.055a11.642 11.642 0 018.573-6.281 13.53 13.53 0 015.541.193c2.017.675 4.148.942 6.27.787 3.1-.502 6.076-1.687 9.279-1.824a11.176 11.176 0 019.12 3.534 5.922 5.922 0 011.436 5.404c-.649 2.04-2.656 3.294-4.56 4.32-1.903 1.026-3.932 2.109-4.787 4.07-1.733 3.967 2.394 8.789.49 12.677a6.663 6.663 0 01-4.241 3.146c-1.458.38-2.934.684-4.423.912-.713.062-1.428.085-2.144.069a9.688 9.688 0 00-6.076 1.356c-2.758 1.995-3.249 5.826-4.708 8.904a14.107 14.107 0 01-9.245 7.375c-3.306.821-8.413.639-9.439-.741-.787-1.048.786-4.674.684-5.985a53.306 53.306 0 01.136-10.089c.224-1.517.266-3.055.126-4.582z" fill="#6ADF91"/><path d="M488.882 388.107a.476.476 0 01-.411-.547c4.458-29.993 34.656-37.677 41.896-37.973a.47.47 0 01.456.274.478.478 0 01-.422.683c-7.068.297-36.617 7.821-40.972 37.164a.488.488 0 01-.547.399z" fill="#fff"/><path d="M521.292 369.479a.396.396 0 01-.262-.102 25.67 25.67 0 00-21.546-3.512.474.474 0 01-.593-.342.493.493 0 01.342-.592 26.668 26.668 0 0122.401 3.693.491.491 0 01.069.684.464.464 0 01-.411.171z" fill="#fff"/><path d="M87.92 345.004l5.564-14.262s5.05-18.844-7.9-41.849c-7.855-13.965-18.89-11.309-23.017-6.384-4.127 4.925-4.936 14.136 3.42 25.638 12.996 18.012 20.953 42.477 18.24 57.183l3.694-20.326z" fill="#6ADF91"/><path opacity=".15" d="M87.92 345.004l5.564-14.262s5.05-18.844-7.9-41.849c-7.855-13.965-18.89-11.309-23.017-6.384-4.127 4.925-4.936 14.136 3.42 25.638 12.996 18.012 20.953 42.477 18.24 57.183l3.694-20.326z" fill="#000"/><path d="M88.697 340.717a.674.674 0 01-.559-.673c.467-30.392-18.32-54.72-18.514-54.959a.668.668 0 01-.049-.749.683.683 0 011.121-.083c.182.251 19.266 24.932 18.799 55.86a.67.67 0 01-.426.614.653.653 0 01-.258.047l-.114-.057z" fill="#fff"/><path d="M90.144 348.948a6.622 6.622 0 00-2.622-4.309c-1.14-.741-2.451-1.083-3.352-2.052-1.379-1.482-1.14-3.796-.969-5.826a38.123 38.123 0 000-6.144 9.282 9.282 0 00-1.14-4.264c-1.276-2.018-3.773-2.93-6.144-3.192s-4.788 0-7.137-.456c-3.978-.707-7.102-3.112-10.26-5.472-2.964-2.223-6.178-3.978-9.997-3.237-4.709.934-6.02 5.175-5.244 9.45a20.854 20.854 0 002.28 6.225c1.14 2.097 2.633 3.659 1.846 6.247-.57 1.881-1.835 3.42-2.519 5.323a11.266 11.266 0 001.072 9.326 19.384 19.384 0 006.84 6.669c2.04 1.254 4.457 2.565 4.947 4.913.13 1.223.06 2.459-.205 3.66a14.303 14.303 0 004.104 11.08 21.726 21.726 0 0010.454 5.94 18.076 18.076 0 0010.26.068c5.7-1.881 5.7-9.473 4.309-14.25-1.847-6.441 3.614-11.468 3.694-17.807a9.312 9.312 0 00-.217-1.892z" fill="#6ADF91"/><path d="M81.457 375.487a.51.51 0 01-.41-.421c-4.857-33.573-26.62-50.765-26.836-50.936a.504.504 0 01-.25-.347.509.509 0 01.27-.554.52.52 0 01.426-.02c.069.028.13.07.18.123.217.171 22.3 17.591 27.224 51.585a.525.525 0 01-.433.582l-.171-.012z" fill="#fff"/><path d="M74.025 350.829h-.114c-6.658-2.861-17.944-4.047-18.058-4.058a.513.513 0 01-.44-.36.515.515 0 01.542-.655c.468 0 11.56 1.209 18.366 4.138a.515.515 0 01.05.894.51.51 0 01-.346.075v-.034zm-3.158-6.475a.494.494 0 01-.319-.228.497.497 0 01-.057-.388 39.021 39.021 0 014.172-10.168.515.515 0 11.878.535 38.25 38.25 0 00-4.058 9.873.51.51 0 01-.616.376z" fill="#fff"/><path d="M360.325 198.65l-16.496-12.471-34.895-51.506 16.495 12.483 34.896 51.494z" fill="#263238"/><path d="M360.324 198.65l-34.895-51.494 62.175-56.567c5.45 32.559-5.027 74.066-27.28 108.061z" fill="#37474F"/><path d="M325.429 147.157l-16.495-12.483 62.164-56.556 16.507 12.472-62.176 56.567z" fill="#455A64"/><path d="M352.174 42.117a9138.815 9138.815 0 0117.008 12.87 34.355 34.355 0 00-13.486-6.304c-15.698-3.511-34.12 3.42-51.893 19.62-14.386 13.075-26.014 29.343-35.442 49.624l-16.507-12.472c9.439-20.28 21.067-36.548 35.454-49.635 17.772-16.131 36.194-23.131 51.881-19.62a34.209 34.209 0 0112.985 5.917z" fill="#6ADF91"/><path opacity=".4" d="M352.174 42.117a9138.815 9138.815 0 0117.008 12.87 34.355 34.355 0 00-13.486-6.304c-15.698-3.511-34.12 3.42-51.893 19.62-14.386 13.075-26.014 29.343-35.442 49.624l-16.507-12.472c9.439-20.28 21.067-36.548 35.454-49.635 17.772-16.131 36.194-23.131 51.881-19.62a34.209 34.209 0 0112.985 5.917z" fill="#fff"/><path d="M269.9 118.645l-1.55-.718c9.439-20.28 21.067-36.548 35.454-49.624 17.761-16.165 36.195-23.142 51.892-19.631 14.82 3.317 25.491 15.561 30.381 34.656l-11.639 10.59-53.318 48.508-51.22-23.781zm53.637 41.131v77.155l-16.508-12.471v-77.167l16.508 12.483z" fill="#6ADF91"/><path opacity=".3" d="M323.537 159.776v77.155l-16.508-12.471v-77.167l16.508 12.483z" fill="#fff"/><path d="M323.537 236.909v-77.133l31.521 46.512c-10.066 13.851-19.813 23.302-31.521 30.621z" fill="#6ADF91"/><path opacity=".6" d="M323.537 236.909v-77.133l31.521 46.512c-10.066 13.851-19.813 23.302-31.521 30.621z" fill="#fff"/><path d="M448.936 141.742c-8.71.41-11.697 2.656-15.846 8.356-5.062 6.965-28.5 42.271-28.5 42.271s7.216 10.26 16.028 9.257l18.525-19.848 9.793-40.036z" fill="#E0E0E0"/><path d="M489.611 379.09h-11.263v20.087h11.263V379.09zm-39.045-1.072l-11.263.399-.559-21.249 11.822-.399v21.249z" fill="#FFA8A7"/><path d="M491.207 205.205c0 11.207-.285 101.78-.285 101.78.262 3.226 1.79 8.755 1.14 21.135-.855 16.815-1.984 61.013-1.984 61.013a14.311 14.311 0 01-12.54.262s-10.659-61.218-12.677-77.885c-1.767-14.546-4.753-63.52-4.753-63.52l-6.099 57a69.301 69.301 0 011.413 18.559c-.524 7.718-4.149 47.88-4.149 47.88a14.816 14.816 0 01-13.008 1.026s-8.299-60.808-8.424-67.876c-.149-8.071 3.26-99.499 3.26-99.499l58.106.125z" fill="#455A64"/><path d="M478.348 393.385v-1.675c-1.071.478-3.579 10.431-8.048 14.683-3.557 3.42-8.402 7.273-9.633 11.035-1.231 3.762 6.749 6.076 10.066 5.461 3.865-.707 10.545-3.546 12.221-6.168 1.676-2.622 2.462-6.486 3.83-8.402 1.368-1.915 4.503-4.069 5.244-6.292.411-1.22-.079-3.899-.638-6.156-.524-2.075-1.14-4.367-1.778-4.161v1.276c-.81.947-3.078 1.881-5.632 1.984-1.676.057-5.643-.274-5.632-1.585zm-39.159-18.536c-.592 0-1.06.878-2.359 2.337a24.528 24.528 0 01-6.624 4.959c-4.218 2.2-12.414 5.586-16.131 7.33-2.28 1.083-2.2 4.001.194 5.7 2.394 1.699 8.185 2.85 15.128 1.231 3.785-.878 8.709-4.56 11.833-4.32 3.124.239 8.949.148 11.252-1.505 2.303-1.653 1.379-5.187.729-8.22-.706-3.306-1.596-8.47-2.644-8.242v1.14c-1.357 2.143-8.345 3.01-11.32 1.437l-.058-1.847zm20.942-126.859a41.323 41.323 0 01-15.687-9.371s3.033 5.905 12.027 11.4l-1.926 50.844 5.586-52.873z" fill="#263238"/><path d="M485.336 144.101s8.824.81 8.197 17.602l-1.95 26.744.057 40.14c-8.287 9.393-47.344 8.675-59.907-.775 0 0 1.471-46.079 2.28-64.353.605-12.996 5.871-20.942 18.639-22.367l15.71.684 16.974 2.325z" fill="#F0F0F0"/><path opacity=".1" d="M460.314 152.914l-2.018 14.101-4.72-.091 5.313.832 1.425-14.842z" fill="#000"/><path d="M471.747 107.713c0 9.268-7.216 16.792-16.119 16.792-8.904 0-15.721-7.524-16.12-16.792-.718-16.394 7.216-16.793 16.12-16.793 8.903 0 16.119 7.513 16.119 16.793zm9.747-6.464c-1.892-2.941-3.659-2.496-3.659-2.496l-1.231 14.238-1.984.41-.171 19.278a5.519 5.519 0 002.428-2.611c.673-1.345 2.098-9.496 2.896-14.387-.011 0 3.329-11.958 1.721-14.432z" fill="#263238"/><path d="M474.882 116.605c.935.581 2.28-1.288 3.42-2.542 1.14-1.254 4.914-2.976 6.783 1.14 1.87 4.115-1.653 9.735-4.617 10.704-5.096 1.665-5.86-1.744-5.86-1.744l-.387 19.175c-6.84 10.465-22.116 10.089-16.599-.513v-5.837a30.599 30.599 0 01-6.84.376c-3.75-.604-6.11-3.693-7.25-7.98-1.835-6.84-2.519-12.278-.969-25.638 1.699-14.638 18.046-14.82 26.881-9.006s5.438 21.865 5.438 21.865z" fill="#FFA8A7"/><path d="M474.324 139.04a24.558 24.558 0 01-6.635 8.31 18.837 18.837 0 01-7.98 3.42 17.783 17.783 0 015.7 6.362c1.687 3.716 13.612-6.533 13.498-13.817 0 0-1.87-7.308-4.435-7.775l-.148 3.5zm-14.684 11.719s-3.671-1.824-2.018-7.98v-5.837l-1.607.217a14.131 14.131 0 00-3.876 6.715c-.365 1.664-1.277 10.134.342 11.81 1.619 1.676 3.876-4.469 7.159-4.925z" fill="#455A64"/><path d="M450.053 102.777c7.581.205 12.289-1.403 18.559-2.144a2.503 2.503 0 011.265.08c1.38.639 1.688 4.936 1.927 6.19.821 4.196 1.505 11.298 3.078 11.332.467 0 2.28-3.078 3.42-4.172 1.607-1.528-.467-15.345-.467-15.356.086-.634.212-1.262.376-1.881a6.45 6.45 0 00-.981-3.5 10.69 10.69 0 00-5.62-4.56c-4.252-1.665-8.915-1.46-13.144-3.42a36.394 36.394 0 00-5.05-2.28 5.189 5.189 0 00-5.176 1.06 6.489 6.489 0 00-1.277 3.443 8.737 8.737 0 00-3.157-2.964c-2.463-1.14-5.529.444-6.84 2.827a10.535 10.535 0 00-.297 7.889c.243.848.596 1.66 1.049 2.417 2.405 3.739 8.231 4.936 12.335 5.039z" fill="#263238"/><path d="M477.824 99.436l5.62-3.158a3.042 3.042 0 00-4.275-1.47 3.59 3.59 0 00-1.345 4.628z" fill="#263238"/><path d="M457.634 136.988s8.379-1.756 11.297-3.42a9.79 9.79 0 004.047-4.172 14.095 14.095 0 01-2.28 4.924c-2.143 2.85-13.053 4.948-13.053 4.948l-.011-2.28z" fill="#F28F8F"/><path d="M459.64 114.416a1.689 1.689 0 003.278.687c.075-.221.105-.455.085-.687a1.73 1.73 0 00-1.675-1.767 1.757 1.757 0 00-1.688 1.767zm2.144-6.43l3.591 2.064a2.281 2.281 0 00-.832-2.976 1.962 1.962 0 00-2.759.912z" fill="#263238"/><path d="M458.364 126.488l-3.831 1.505a2 2 0 001.019 1.226 1.998 1.998 0 001.592.096 2.278 2.278 0 001.22-2.827z" fill="#F28F8F"/><path d="M444.57 110.187l3.271-2.622a1.904 1.904 0 00-1.316-.87 1.919 1.919 0 00-1.522.414 2.282 2.282 0 00-.433 3.078zm1.117 3.739a1.738 1.738 0 001.676 1.801 1.808 1.808 0 001.929-2.079 1.816 1.816 0 00-1.392-1.496 1.81 1.81 0 00-2.213 1.774z" fill="#263238"/><path d="M454.67 112.523l-.194 10.591-6.019-1.379 6.213-9.212z" fill="#F28F8F"/><path d="M504.841 201.569s-9.747 14.82-11.4 16.758c-1.653 1.938-2.827 1.288-4.639.422a51.348 51.348 0 00-6.772-2.36c-2.987-.798-3.625 2.154-.673 4.252 2.132 1.516 4.56 2.177 3.557 3.42a22.46 22.46 0 01-7.113 4.663c-7.205 3.043-6.647 4.56-5.324 7.056 1.14 2.178 4.56 6.84 17.396 1.323 5.313-2.28 12.802-8.767 16.325-12.939 5.096-6.031 13.03-16.838 13.03-16.838l-14.387-5.757z" fill="#FFA8A7"/><path d="M486.111 144.398c3.534.251 12.153 2.497 20.52 17.282 7.308 12.962 16.918 29.093 17.191 35.762.092 2.178-4.183 10.465-9.245 17.1-5.837-.273-10.42-5.004-13.167-8.447 1.596-2.679 3.42-6.692 3.42-6.692l-14.74-22.8s-6.156-6.27-7.524-14.592c-1.471-8.983 1.379-16.94 3.545-17.613z" fill="#E0E0E0"/><path d="M392.791 172.932l42.123 11.868 11.594 50.958-40.048-12.438-13.669-50.388z" fill="#6ADF91"/><path opacity=".2" d="M411.829 209.024a8.365 8.365 0 01-7.878 5.028l-.307-1.14 8.185-3.888zm-6.35-27.975s-.159-.764-.342-1.71c-.182-.946 2.28-.992 5.518-.091l6.202 1.721c3.249.889 6.03 2.394 6.224 3.34l.342 1.721-17.944-4.981z" fill="#000"/><path d="M402.242 174.574c-.125-.593.878-.753 2.28-.354l2.462.73s-.729-3.717 4.72-2.417a8.762 8.762 0 016.646 5.518l2.622.798c1.448.444 2.77 1.276 2.941 1.869l.308 1.06-21.66-6.099s-.194-.513-.319-1.105z" fill="#37474F"/><path d="M405.229 176.409c1.995.513 2.815.787 3.112 2.28.342 1.665.479 2.896.479 2.896l9.61 2.713s-.468-2.12-.616-2.941c-.148-.821.183-1.323 1.71-.889l.126-.65-15.048-4.104.627.695z" fill="#263238"/><path d="M404.898 181.197s-.149-.775-.342-1.721c-.194-.946 2.28-.992 5.517-.091l6.213 1.721c3.238.901 6.019 2.394 6.213 3.34l.342 1.722-17.943-4.971z" fill="#37474F"/><path d="M397.226 189.291s1.573 5.769 1.938 7.137c.365 1.368 5.084 3.842 8.174 4.754 3.089.912 6.486 1.983 5.016 6.612-1.345 4.275-6.441 5.244-9.041 5.13-2.599-.114-6.144-2.771-7.535-7.046-1.79-5.449-.832-11.274-1.539-14.455-.707-3.18 1.425-4.024 2.987-2.132z" fill="#FFA8A7"/><path d="M157.633 146.45c4.115-.41 7.205.912 10.693 4.287 3.488 3.374 23.94 27.36 23.94 27.36l36.286 1.482v13.509l-37.38 2.337a11.189 11.189 0 01-8.379-3.021l-21.364-20.133-3.796-25.821z" fill="#F28F8F"/><path d="M219.056 229.167c-23.757-17.419-27.36-65.527-7.809-113.51l16.496 12.472c-19.437 47.697-15.96 95.532 7.376 113.225l-16.063-12.187z" fill="#6ADF91"/><path opacity=".15" d="M219.056 229.167c-23.757-17.419-27.36-65.527-7.809-113.51l16.496 12.472c-19.437 47.697-15.96 95.532 7.376 113.225l-16.063-12.187z" fill="#000"/><path d="M264.04 140.146l16.508 12.483-52.76-24.499-16.507-12.483 52.759 24.499z" fill="#6ADF91"/><path opacity=".4" d="M264.04 140.146l16.508 12.483-52.76-24.499-16.507-12.483 52.759 24.499z" fill="#000"/><path d="M241.48 245.151c-28.956-13.44-34.77-65.31-13.68-117.021l52.725 24.499v89.273c-14.558 7.616-27.36 8.687-39.045 3.249z" fill="#6ADF91"/><path opacity=".25" d="M241.48 245.151c-28.956-13.44-34.77-65.31-13.68-117.021l52.725 24.499v89.273c-14.558 7.616-27.36 8.687-39.045 3.249z" fill="#000"/><path d="M79.417 378.03c.787 1.972.16 4.321-.102 9.496a85.23 85.23 0 00-.24 10.26c.08 1.22.4 2.349.582 3.546a4.298 4.298 0 001.208 2.508 2.639 2.639 0 002.28.809c.65-.16 1.21-.57 1.562-1.14a19.803 19.803 0 001.562-3.58c.421 8.733 9.428 15.322 3.557 17.1a16.063 16.063 0 01-12.415-1.482 10.837 10.837 0 01-3.796-3.648c-1.961-3.978-1.47-7.626-1.288-10.944.398-7.307-.56-11.172-.912-14.82-.434-4.446 6.657-8.857 8.002-8.105zm62.962 3.215s-.49 0-.638.695c-.228.958-.536 2.77-.969 4.412a22.527 22.527 0 00-1.015 7.136c.251 1.801 2.542 3.671 6.966 5.244a30.718 30.718 0 019.439 5.757c2.565 2.634 8.231 5.073 12.152 5.438 4.56.433 9.462-.49 10.785-3.728.558-1.356-1.631-3.032-7.342-6.224 0 0-2.873-1.767-4.492-2.93-8.162-5.894-10.864-9.12-12.996-14.729l-11.89-1.071z" fill="#263238"/><path d="M157.188 387.002c-2.52-3.101-2.862-5.951-2.143-11.4.718-5.449 8.059-52.44 9.929-64.25 3.135-19.791 6.84-72.96 3.922-90.391l-51.927.752c-4.469 9.394-8.072 21.079-8.664 39.741-.456 14.238-3.261 52.736-3.261 52.736s-6.84 5.244-12.175 16.131c-4.731 9.622-11.628 43.446-11.628 43.446a30.25 30.25 0 01-1.824 4.229 8.321 8.321 0 00-2.28 4.856 84.191 84.191 0 00.741 17.682 8.186 8.186 0 005.096 6.429c.64.32 1.347.484 2.063.479.369.029.734-.081 1.026-.308.536-.467.16-1.698.103-2.28a22.78 22.78 0 01-.08-2.929c0-1.927.274-4.264.524-6.168a63.241 63.241 0 012.873-12.54l1.197-2.394s26.015-44.984 33.288-55.86c5.769-8.561 11.4-42.83 16.336-61.457l3.42 45.417a88.03 88.03 0 00-4.377 14.159c-1.494 8.299 2.28 41.451 3.329 53.215a24.135 24.135 0 01-.342 6.533c.296 5.095 3.99 6.897 7.717 10.009 1.859 1.539 10.101 7.296 15.208 8.675 4.15 1.14 5.871-.399 6.532-1.55a88.045 88.045 0 01-14.603-12.962z" fill="#FFA8A7"/><path d="M125.554 207.27s-9.314 11.16-13.145 23.484c-3.83 12.323-4.218 20.52-5.551 42.385-1.334 21.865-1.733 40.059-1.733 40.059s-12.62 8.402-16.633 28.364a20.103 20.103 0 002.953 3.773l8.367-11.4-5.392 14.011a21.79 21.79 0 0013.065 4.229s13.6-20.794 18.069-27.303c4.468-6.509 14.82-61.366 14.82-61.366l2.12 45.474s-4.56 10.534-4.56 18.24c0 7.707.764 18.902.764 18.902a26.7 26.7 0 0020.805.741s6.578-35.158 7.911-47.983c1.334-12.825 5.951-58.14 1.539-86.982l-43.399-4.628z" fill="#455A64"/><path d="M140.305 263.562l6.406-19.551s9.691 1.79 17.75-3.42c0 0-2.052 7.171-15.811 8.436l-7.126 19.141-.524 9.337-.695-13.943z" fill="#263238"/><path d="M175.941 167.631c-4.651-8.322-15.139-18.319-18.308-21.181l-18.696 1.448c-4.173.536-8.357.98-10.386 1.904-4.184 1.904-5.928 3.807-6.361 8.561a45.098 45.098 0 00.992 15.276c1.231 5.13 3.579 12.54 3.579 12.54l.285 1.71c0 .297.103.593.149.889a61.163 61.163 0 01-.137 11.264c8.082 12.973 38.76 10.1 41.827 3.568.991-4.104 3.625-15.618 3.773-17.191 6.27-4.937 6.669-12.746 3.283-18.788z" fill="#6ADF91"/><path d="M127.058 200.053l-1.505 7.216s5.13 6.738 22.196 7.832c15.595 1.003 21.147-3.283 21.147-3.283v-8.197s-5.552 4.731-21.66 3.158c-14.136-1.368-20.178-6.726-20.178-6.726z" fill="#37474F"/><path d="M161.965 206.129a13.396 13.396 0 00-6.533.536c-1.14.639-1.47 7.615-1.06 8.539.411.923 6.122 1.14 7.547-.844.581-.729 1.607-7.729.046-8.231zm-1.46 7.308a6.09 6.09 0 01-3.351.752 8.22 8.22 0 01-1.254-.091 21.448 21.448 0 01.593-6.053c1.181-.3 2.395-.445 3.613-.434.304-.015.609-.015.912 0a17.863 17.863 0 01-.467 5.814l-.046.012z" fill="#E0E0E0"/><path d="M151.078 90.089h-2.896a24.853 24.853 0 00-24.977 24.681 25.764 25.764 0 0025.627 25.935l.068-16.234s21.865 2.713 25.947-12.984c4.081-15.698-10.044-21.319-23.769-21.398z" fill="#263238"/><path d="M117.379 122.818c5.051-3.705 9.337-.547 13.042 4.56 3.705 5.107 5.438 10.089.376 13.794a11.397 11.397 0 01-15.038-3.05 11.396 11.396 0 011.62-15.258v-.046z" fill="#263238"/><path d="M164.028 102.173c2.839 1.71 8.276 3.534 7.535 21.854-.513 12.733-4.56 15.868-6.6 16.758-2.041.889-6.076.319-9.964-.354v7.65s6.84 8.265 7.855 16.404c0 0-4.743-1.425-15.481-8.573-7.194-4.799-8.402-7.284-8.402-7.284l.125-18.445s-2.553 2.838-6.84 0a7.338 7.338 0 01-3.185-5.186 7.334 7.334 0 011.829-5.804c2.508-2.519 7.25-1.14 8.242 2.348a39.17 39.17 0 0013.235-3.568 20.125 20.125 0 0011.651-15.8z" fill="#FFA8A7"/><path d="M139.165 121.496v5.221a4.825 4.825 0 004.822-4.834v-6.498l-4.822 6.111zm18.365-.867a1.61 1.61 0 01-.969 1.485 1.603 1.603 0 01-2.205-1.116 1.61 1.61 0 011.498-1.965 1.642 1.642 0 011.676 1.596z" fill="#263238"/><path d="M157.713 131.55l3.716 1.209a1.92 1.92 0 01-.934 1.174 1.923 1.923 0 01-1.494.148 2.068 2.068 0 01-1.149-1.008 2.069 2.069 0 01-.139-1.523z" fill="#F28F8F"/><path d="M170.663 115.134l-3.864-.809a1.91 1.91 0 01.804-1.271 1.902 1.902 0 011.476-.291 2.085 2.085 0 011.584 2.371zm-.718 4.356a1.62 1.62 0 01-1.528 1.732 1.65 1.65 0 01-1.676-1.596 1.61 1.61 0 012.175-1.684 1.607 1.607 0 011.029 1.548z" fill="#263238"/><path d="M162.501 119.182l.194 9.644 5.096-1.539-5.29-8.105zM155 140.431c-4.093-.558-12.54-3.032-13.806-6.372a8.625 8.625 0 002.93 4.275c2.508 2.166 10.864 4.651 10.864 4.651l.012-2.554z" fill="#F28F8F"/><path d="M230.433 158.637a6.213 6.213 0 00-1.995-3.42 1.536 1.536 0 00-1.243-.467 2.175 2.175 0 00-1.345 1.037c-1.208 1.733-2.154 3.614-3.42 5.324a9.457 9.457 0 01-4.936 3.579 1.908 1.908 0 01.182-1.197c.422-1.026.741-1.767 1.14-2.872a4.442 4.442 0 00.24-3.762.958.958 0 00-.844-.548 1.14 1.14 0 00-.752.411c-2.28 2.052-4.059 4.013-6.259 6.293-2.2 2.28-2.371 3.841-5.62 6.11s-7.535 4.07-12.415 6.259a169.837 169.837 0 01-18.661 7.501c-10.192-6.361-26.882-20.691-34.394-26.437-4.024-3.078-7.866-6.372-10.26-7.102-3.226-.274-6.122 2.223-7.821 7.159-3.1 13.429 6.396 18.924 19.722 27.451 4.56 2.919 18.913 12.198 25.605 16.325a8.077 8.077 0 006.714.855 89.984 89.984 0 009.234-3.91c5.575-2.793 12.54-6.783 18.104-9.622 4.491-2.28 9.222-4.788 13.041-6.84a44.417 44.417 0 006.407-3.864 37.987 37.987 0 006.418-5.837 13.94 13.94 0 002.508-4.036c.493-1.387.781-2.838.855-4.309.15-1.362.081-2.74-.205-4.081z" fill="#FFA8A7"/><path d="M459.684 173.74l-.39 8.194-1.05-.05.058-1.216c-.472.516-.928.767-1.498 1.011-.566.245-1.234.289-1.893.257-1.171-.056-2.152-.523-2.943-1.401-.786-.883-1.151-1.926-1.093-3.131.056-1.18.522-2.169 1.399-2.968.876-.798 1.902-1.17 3.078-1.114.68.033 1.294.153 1.828.465.539.313 1.003.648 1.391 1.24l.064-1.337 1.049.05zm-4.296.603a3.218 3.218 0 00-1.664.359 3.193 3.193 0 00-1.259 1.155 3.33 3.33 0 00-.52 1.635 3.322 3.322 0 00.37 1.679c.274.541.655.972 1.142 1.292a3.217 3.217 0 001.607.514 3.355 3.355 0 001.678-.357 3.055 3.055 0 001.258-1.126 3.325 3.325 0 00.506-1.659c.045-.948-.234-1.757-.837-2.425-.598-.667-1.359-1.023-2.281-1.067zm5.896-4.128l-.562 11.787 1.05.05.058-1.215c.42.558.851.851 1.395 1.149.54.297 1.2.404 1.859.435 1.171.056 2.193-.315 3.064-1.114.866-.804 1.328-1.808 1.386-3.013.056-1.18-.314-2.209-1.11-3.088-.797-.878-1.783-1.345-2.959-1.401-.68-.033-1.302.028-1.863.289-.567.259-1.061.549-1.504 1.102l.236-4.931-1.05-.05zm4.049 4.603c.593.028 1.133.2 1.621.515.488.31.87.733 1.144 1.269a3.33 3.33 0 01.362 1.678 3.325 3.325 0 01-.528 1.636 3.29 3.29 0 01-1.26 1.177 3.213 3.213 0 01-1.648.359 3.348 3.348 0 01-1.637-.515 3.05 3.05 0 01-1.145-1.24 3.34 3.34 0 01-.346-1.7c.046-.948.4-1.727 1.064-2.334.659-.608 1.45-.889 2.373-.845z" fill="#B5B5B5"/><path d="M458.945 173.299l-.391 8.193-1.049-.05.058-1.215c-.472.516-.928.766-1.499 1.011-.565.245-1.233.288-1.892.257-1.171-.056-2.152-.523-2.944-1.401-.786-.883-1.15-1.927-1.092-3.132.056-1.18.522-2.169 1.399-2.967.876-.799 1.902-1.17 3.078-1.114.679.032 1.294.152 1.828.465.538.312 1.002.648 1.391 1.24l.064-1.337 1.049.05zm-4.297.603a3.214 3.214 0 00-1.663.358 3.193 3.193 0 00-1.259 1.155 3.308 3.308 0 00-.15 3.314c.273.542.654.972 1.142 1.292a3.218 3.218 0 001.606.515 3.36 3.36 0 001.679-.358 3.046 3.046 0 001.258-1.125 3.335 3.335 0 00.506-1.659c.045-.949-.234-1.757-.837-2.425-.599-.668-1.359-1.023-2.282-1.067zm5.897-4.129l-.562 11.788 1.049.05.058-1.216c.421.559.851.852 1.396 1.15.54.297 1.2.404 1.859.435 1.171.056 2.192-.316 3.064-1.114.866-.804 1.328-1.809 1.386-3.014.056-1.18-.314-2.209-1.111-3.087-.796-.878-1.782-1.345-2.959-1.402-.679-.032-1.302.029-1.863.289-.566.26-1.06.55-1.503 1.103l.235-4.932-1.049-.05zm4.048 4.603c.593.028 1.134.2 1.622.515.488.31.869.734 1.144 1.27.269.536.389 1.095.362 1.678a3.321 3.321 0 01-.528 1.635 3.286 3.286 0 01-1.26 1.178 3.213 3.213 0 01-1.648.359 3.36 3.36 0 01-1.637-.516 3.047 3.047 0 01-1.145-1.239 3.329 3.329 0 01-.346-1.7c.045-.949.4-1.727 1.064-2.334.659-.608 1.45-.89 2.372-.846z" fill="#D9D9D9"/><path d="M454.782 192.072l.876.5c-.313.564-.667 1.016-1.062 1.356a4.082 4.082 0 01-1.321.763c-.486.165-1.031.237-1.636.216-1.341-.047-2.374-.523-3.099-1.427-.725-.908-1.068-1.917-1.03-3.026a4.408 4.408 0 011.059-2.757c.848-1.01 1.952-1.491 3.313-1.443 1.402.049 2.502.62 3.302 1.713.568.772.838 1.721.808 2.845l-7.395-.259c-.013.958.264 1.755.832 2.391.569.631 1.286.961 2.153.992.419.014.827-.045 1.226-.177a3.175 3.175 0 001.033-.547c.286-.232.6-.612.941-1.14zm.078-2.216c-.121-.569-.312-1.028-.573-1.375a2.88 2.88 0 00-1.037-.854 3.275 3.275 0 00-1.388-.359c-.807-.028-1.509.207-2.107.706-.437.363-.777.919-1.02 1.667l6.125.215zm11.077-2.862l-.287 8.197-1.05-.037.042-1.216c-.465.522-.918.779-1.485 1.03-.563.252-1.23.304-1.889.281-1.172-.041-2.159-.496-2.961-1.364-.797-.873-1.175-1.912-1.132-3.118.041-1.18.495-2.175 1.361-2.985.867-.809 1.888-1.193 3.065-1.152.679.024 1.295.136 1.833.442.543.305 1.011.635 1.407 1.223l.047-1.338 1.049.037zm-4.288.656a3.214 3.214 0 00-1.659.38 3.188 3.188 0 00-1.244 1.17 3.314 3.314 0 00-.109 3.316c.28.538.667.964 1.158 1.278a3.218 3.218 0 001.613.494 3.364 3.364 0 001.674-.379 3.046 3.046 0 001.244-1.141 3.333 3.333 0 00.485-1.665c.033-.949-.256-1.754-.868-2.414-.606-.66-1.371-1.006-2.294-1.039zm14.465-3.899l-.414 11.793-1.05-.036.043-1.216c-.466.521-.919.778-1.486 1.029-.563.252-1.23.304-1.889.281-1.172-.041-2.159-.496-2.961-1.364-.797-.873-1.175-1.912-1.132-3.118.041-1.18.495-2.175 1.361-2.985.867-.809 1.888-1.193 3.065-1.152.68.024 1.295.136 1.833.442.543.306 1.011.636 1.407 1.223l.173-4.934 1.05.037zm-4.415 4.252a3.226 3.226 0 00-1.659.38 3.183 3.183 0 00-1.244 1.171 3.33 3.33 0 00-.5 1.642c-.02.577.11 1.135.391 1.673s.667.964 1.158 1.278a3.218 3.218 0 001.613.494 3.353 3.353 0 001.674-.379 3.05 3.05 0 001.244-1.14 3.34 3.34 0 00.485-1.666c.033-.949-.256-1.754-.868-2.414-.606-.66-1.371-1.006-2.294-1.039zm-26.603 6.573l1.45.051.033-.939-1.45-.051a1.396 1.396 0 01-.586-.148 1.5 1.5 0 01-.764-.823 1.442 1.442 0 01-.098-.582l.329-9.37-.947-.034-.329 9.371a2.389 2.389 0 00.653 1.746l.002.003c.215.23.468.414.761.553.287.136.601.211.946.223z" fill="#B5B5B5"/><path fill-rule="evenodd" clip-rule="evenodd" d="M446.65 194.738l.04-1.155-1.558-.055a1.296 1.296 0 01-.541-.136l-.002-.001a1.412 1.412 0 01-.71-.764 1.34 1.34 0 01-.09-.54l.333-9.478-1.163-.041-.332 9.478a2.48 2.48 0 00.682 1.824l.001.002c.225.241.489.433.794.578.301.142.63.22.988.233l1.558.055zm-3.261-.939l-.002-.002a2.389 2.389 0 01-.653-1.747l.329-9.37.947.033-.329 9.37a1.482 1.482 0 00.402 1.069 1.5 1.5 0 00.46.336c.183.092.379.141.586.148l1.45.051-.033.939-1.45-.051a2.374 2.374 0 01-.946-.223 2.475 2.475 0 01-.761-.553z" fill="#B5B5B5"/><path d="M454.036 191.627l.876.5c-.313.565-.667 1.017-1.062 1.356a4.097 4.097 0 01-1.322.764 4.583 4.583 0 01-1.635.215c-1.341-.047-2.374-.523-3.099-1.426-.725-.909-1.069-1.918-1.03-3.027a4.405 4.405 0 011.059-2.756c.848-1.01 1.952-1.492 3.313-1.444 1.402.049 2.502.621 3.302 1.714.568.772.838 1.72.808 2.844l-7.395-.259c-.013.958.264 1.755.832 2.391.569.631 1.286.961 2.153.992.419.014.827-.044 1.225-.177a3.18 3.18 0 001.034-.547c.286-.232.6-.612.941-1.14zm.078-2.215c-.121-.57-.312-1.028-.573-1.376a2.88 2.88 0 00-1.037-.854 3.275 3.275 0 00-1.388-.359c-.807-.028-1.509.207-2.107.706-.437.363-.777.919-1.02 1.668l6.125.215zm11.077-2.863l-.287 8.197-1.05-.036.042-1.216c-.465.521-.918.778-1.486 1.029-.562.252-1.229.304-1.888.281-1.172-.041-2.159-.496-2.961-1.364-.797-.873-1.175-1.912-1.132-3.118.041-1.18.495-2.175 1.361-2.984.867-.81 1.888-1.194 3.065-1.153.679.024 1.295.136 1.833.442.542.306 1.011.636 1.406 1.223l.047-1.338 1.05.037zm-4.288.656a3.224 3.224 0 00-1.659.38 3.192 3.192 0 00-1.245 1.171 3.314 3.314 0 00-.108 3.315c.28.538.667.964 1.158 1.278a3.218 3.218 0 001.613.494 3.353 3.353 0 001.674-.379 3.048 3.048 0 001.243-1.14 3.32 3.32 0 00.485-1.666c.034-.949-.255-1.754-.867-2.414-.606-.66-1.371-1.006-2.294-1.039zm14.465-3.899l-.414 11.794-1.05-.037.042-1.216c-.465.522-.918.778-1.485 1.03-.563.251-1.23.303-1.889.28-1.172-.041-2.159-.496-2.961-1.364-.797-.873-1.175-1.912-1.132-3.117.041-1.181.495-2.176 1.361-2.985.867-.81 1.888-1.194 3.065-1.153.679.024 1.295.137 1.833.442.543.306 1.011.636 1.407 1.223l.173-4.934 1.05.037zm-4.415 4.253a3.213 3.213 0 00-1.659.379 3.19 3.19 0 00-1.244 1.171 3.312 3.312 0 00-.109 3.315c.28.538.667.964 1.158 1.278a3.218 3.218 0 001.613.494 3.353 3.353 0 001.674-.379 3.05 3.05 0 001.244-1.14 3.34 3.34 0 00.485-1.666c.033-.949-.256-1.754-.868-2.414-.606-.66-1.371-1.006-2.294-1.038zm-26.603 6.572l1.45.051.033-.939-1.45-.051a1.392 1.392 0 01-.586-.148 1.5 1.5 0 01-.764-.823 1.442 1.442 0 01-.098-.582l.329-9.37-.947-.033-.329 9.37a2.389 2.389 0 00.653 1.747l.002.002c.215.23.468.415.761.553.287.136.601.211.946.223z" fill="#D9D9D9"/><path fill-rule="evenodd" clip-rule="evenodd" d="M445.904 194.293l.04-1.155-1.558-.054a1.293 1.293 0 01-.541-.137l-.002-.001a1.409 1.409 0 01-.71-.764 1.34 1.34 0 01-.09-.54l.332-9.478-1.162-.041-.333 9.478a2.494 2.494 0 00.683 1.825l.001.002c.225.24.489.432.794.577.301.142.63.221.988.233l1.558.055zm-3.261-.939l-.002-.002a2.389 2.389 0 01-.653-1.747l.329-9.37.947.033-.329 9.37a1.503 1.503 0 00.862 1.405c.182.092.379.141.586.148l1.45.051-.033.939-1.45-.05a2.392 2.392 0 01-.946-.224 2.475 2.475 0 01-.761-.553z" fill="#D9D9D9"/></svg>