<svg width="120" height="120" fill="none" xmlns="http://www.w3.org/2000/svg"><circle cx="60" cy="60" r="60" fill="#F3F3F3"/><path d="M86.683 59.625a5.448 5.448 0 00.934-3.055v-1.045a5.486 5.486 0 00-5.48-5.479 5.462 5.462 0 00-3.866 1.6C75.705 44.017 68.484 38.504 60 38.504s-15.706 5.512-18.272 13.144a5.462 5.462 0 00-3.866-1.601 5.486 5.486 0 00-5.48 5.48v1.044c0 1.13.345 2.182.934 3.055-3.793.8-6.649 4.171-6.649 8.198v2.622c0 .719.583 1.302 1.302 1.302h6.77a1.302 1.302 0 000-2.604H29.27v-1.32a5.78 5.78 0 015.774-5.774h6.163a19.162 19.162 0 002.558 6.098L28.908 83.003a4.885 4.885 0 000 6.901 4.864 4.864 0 003.45 1.427c1.25 0 2.5-.476 3.45-1.427L44 81.714a1.302 1.302 0 00-1.841-1.842l-8.19 8.19a2.278 2.278 0 01-3.219 0 2.278 2.278 0 010-3.217L45.334 70.26c3.537 4.15 8.799 6.785 14.665 6.785 9.158 0 16.843-6.42 18.792-14.996h6.163a5.78 5.78 0 015.775 5.774v1.32h-12.24a1.302 1.302 0 000 2.604H92.03c.719 0 1.302-.583 1.302-1.302v-2.622c0-4.027-2.857-7.399-6.65-8.198zm-7.42-4.1a2.878 2.878 0 012.874-2.875 2.878 2.878 0 012.876 2.875v1.045a2.878 2.878 0 01-2.876 2.875 2.878 2.878 0 01-2.875-2.875v-1.045zm-44.277 0a2.878 2.878 0 012.875-2.875 2.878 2.878 0 012.875 2.875v1.045a2.878 2.878 0 01-2.875 2.875 2.878 2.878 0 01-2.875-2.875v-1.045zM60 74.441c-9.19 0-16.666-7.477-16.666-16.667 0-9.19 7.476-16.666 16.666-16.666 9.19 0 16.667 7.476 16.667 16.666 0 9.19-7.477 16.667-16.667 16.667z" fill="#6ADF91"/><path d="M59.999 43.712c-7.754 0-14.063 6.308-14.063 14.062 0 4.025 1.7 7.66 4.42 10.225.046.05.096.098.15.14A14.008 14.008 0 0060 71.838c3.655 0 6.99-1.403 9.492-3.697.055-.043.105-.09.151-.14a14.025 14.025 0 004.42-10.226c0-7.754-6.309-14.063-14.063-14.063zm-7.096 23.052A7.984 7.984 0 0160 62.5a7.985 7.985 0 017.096 4.264A11.402 11.402 0 0160 69.232a11.4 11.4 0 01-7.096-2.468zm4.352-9.612V56.14A2.747 2.747 0 0160 53.396a2.747 2.747 0 012.744 2.744v1.012A2.747 2.747 0 0160 59.895a2.747 2.747 0 01-2.744-2.743zM69 64.857a10.547 10.547 0 00-4.983-4.182 5.325 5.325 0 001.33-3.523V56.14c0-2.949-2.4-5.348-5.348-5.348a5.354 5.354 0 00-5.348 5.348v1.012c0 1.349.503 2.581 1.33 3.523a10.547 10.547 0 00-4.983 4.182 11.402 11.402 0 01-2.457-7.083c0-6.318 5.14-11.458 11.458-11.458 6.318 0 11.458 5.14 11.458 11.458 0 2.672-.919 5.133-2.457 7.083z" fill="#4BB1E9"/><path d="M46.562 76.008a1.31 1.31 0 00-.92.381 1.312 1.312 0 00-.382.92c0 .343.14.68.381.921.242.242.578.382.92.382.343 0 .68-.14.921-.382.242-.242.382-.578.382-.92 0-.343-.14-.679-.382-.92a1.312 1.312 0 00-.92-.382z" fill="#6ADF91"/><path d="M60.026 31.7c.719 0 1.302-.582 1.302-1.301v-4.43a1.302 1.302 0 00-2.604 0v4.43c0 .719.583 1.302 1.302 1.302zm0 4.295c.343 0 .678-.14.92-.382s.382-.578.382-.92c0-.343-.14-.679-.382-.921a1.31 1.31 0 00-.92-.382c-.343 0-.679.14-.92.382a1.312 1.312 0 00-.382.92 1.308 1.308 0 001.301 1.303zm7.829-1.71a1.3 1.3 0 00.92-.38l2.29-2.29a1.302 1.302 0 00-1.842-1.84l-2.289 2.288a1.302 1.302 0 00.92 2.222zm-16.61-.365a1.298 1.298 0 001.841 0 1.302 1.302 0 000-1.842l-2.31-2.31a1.303 1.303 0 00-1.842 1.841l2.31 2.31z" fill="#4BB1E9"/></svg>