<svg width="120" height="120" fill="none" xmlns="http://www.w3.org/2000/svg"><circle cx="60" cy="60" r="60" fill="#F3F3F3"/><path d="M38.222 51.504a1.117 1.117 0 001.295-.902 24.145 24.145 0 018.176-14.154 24.127 24.127 0 0115.561-5.692 24.042 24.042 0 0116.34 6.379 1.116 1.116 0 101.512-1.642 26.268 26.268 0 00-17.852-6.97 26.362 26.362 0 00-17.002 6.22 26.381 26.381 0 00-8.933 15.466 1.116 1.116 0 00.903 1.295z" fill="#6ADF91"/><path d="M76.688 69.653c.282 0 .565-.106.782-.32a20.13 20.13 0 006.064-14.463c0-11.182-9.097-20.28-20.28-20.28A20.33 20.33 0 0050.6 39.023a20.371 20.371 0 00-7.071 11.123 1.116 1.116 0 102.171.518 18.13 18.13 0 016.294-9.898 17.852 17.852 0 0111.26-3.944c9.952 0 18.048 8.096 18.048 18.048 0 4.879-1.916 9.45-5.397 12.871a1.116 1.116 0 00.783 1.912zm-4.168.708a18.02 18.02 0 01-9.266 2.556c-4.974 0-9.607-1.98-13.046-5.577a1.116 1.116 0 10-1.613 1.542c3.863 4.042 9.07 6.268 14.66 6.268 3.675 0 7.276-.994 10.412-2.874a1.116 1.116 0 10-1.148-1.915z" fill="#6ADF91"/><path d="M63.255 41.406a13.38 13.38 0 00-7.723 2.434 13.438 13.438 0 00-4.86 6.233 1.116 1.116 0 002.085.796c1.649-4.325 5.868-7.231 10.498-7.231 6.193 0 11.232 5.038 11.232 11.231s-5.039 11.232-11.232 11.232c-2.31 0-4.528-.695-6.415-2.011a11.217 11.217 0 01-4.06-5.16 1.116 1.116 0 00-2.081.808 13.442 13.442 0 004.864 6.183 13.383 13.383 0 007.692 2.412c7.424 0 13.464-6.04 13.464-13.464s-6.04-13.463-13.464-13.463z" fill="#6ADF91"/><path d="M35.81 64.445a1.116 1.116 0 00-1.508.467c-1.502 2.848-3.558 6.749-.784 10.626a1.116 1.116 0 002.006-.454c.226-1.267 1.31-2.751 3.305-4.519 1.365 2.004 3.22 3.701 5.747 5.272a1.116 1.116 0 001.497-1.597c-1.984-2.775-.493-5.584 1.235-8.837 1.538-2.898 3.25-6.124 2.027-9.417h7.697c.529 2.956 3.117 5.207 6.223 5.207a6.33 6.33 0 006.323-6.323 6.33 6.33 0 00-6.323-6.324c-3.106 0-5.694 2.252-6.223 5.208H34.85l-5.082-3.784a1.115 1.115 0 00-.666-.221h-10.08a1.116 1.116 0 00-.776 1.919 4.416 4.416 0 011.361 3.202 4.415 4.415 0 01-1.36 3.202 1.116 1.116 0 00.774 1.92h10.08c.241 0 .475-.078.667-.221l5.082-3.785h1.28c.844 1.447.86 2.993.068 5.054a1.116 1.116 0 102.084.8c.574-1.496 1.147-3.596.312-5.854h8.278c1.515 2.624.095 5.3-1.536 8.37-1.234 2.325-2.581 4.862-2.434 7.475-1.187-1.067-2.113-2.215-2.834-3.5a1.116 1.116 0 00-1.68-.32c-1.825 1.49-3.116 2.811-3.95 4.063-.264-1.885.649-3.865 1.839-6.121a1.116 1.116 0 00-.467-1.508zm27.445-13.666a4.096 4.096 0 014.091 4.091 4.096 4.096 0 01-4.091 4.092 4.098 4.098 0 01-3.936-2.976h3.936a1.116 1.116 0 000-2.232H59.32a4.098 4.098 0 013.935-2.975zm-34.523 6.98h-7.545a6.65 6.65 0 00.652-2.889c0-1.019-.225-2-.652-2.89h7.545l3.88 2.89-3.88 2.89z" fill="#4BB1E9"/><path d="M92.98 86.668h-7.917l-6.169-10.597A26.336 26.336 0 0089.601 54.87c0-5.775-1.834-11.258-5.303-15.855a1.116 1.116 0 00-1.782 1.344c3.175 4.207 4.852 9.225 4.852 14.51a24.11 24.11 0 01-10.578 19.96 23.998 23.998 0 01-5.082 2.63c-.056.021-.112.044-.17.065a24.012 24.012 0 01-8.283 1.46 24.02 24.02 0 01-8.283-1.46 24.056 24.056 0 01-6.316-3.46 1.116 1.116 0 10-1.349 1.779l.306.229-6.167 10.596H33.53a1.116 1.116 0 000 2.232h8.546l.011.001H92.98a1.116 1.116 0 000-2.233zm-15.938 0l-3.595-7.496.28-.12.117-.05a26.814 26.814 0 001.404-.668l.022-.011a26.67 26.67 0 001.384-.764l.092-.055c.098-.06.198-.118.296-.179l5.439 9.343h-5.439zm-5.697-6.718l3.222 6.718H51.943l3.223-6.718a26.293 26.293 0 008.09 1.267c2.77 0 5.486-.427 8.089-1.267zm-21.876-2.63a26.289 26.289 0 003.596 1.85l-3.598 7.498h-5.438l5.44-9.347z" fill="#6ADF91"/></svg>