<svg width="24" height="24" fill="none" xmlns="http://www.w3.org/2000/svg"><path fill-rule="evenodd" clip-rule="evenodd" d="M12 22c5.523 0 10-4.477 10-10S17.523 2 12 2 2 6.477 2 12s4.477 10 10 10zM4.297 11.123l12.805-5.076c.487-.193.99.24.883.761L15.8 17.442a.686.686 0 01-1.081.422l-3.301-2.465-1.682 1.747a.555.555 0 01-.932-.227L7.588 13l-3.253-.977c-.427-.129-.452-.734-.038-.899zm5.252 2.635l5.947-5.351c.143-.128-.023-.355-.184-.253l-7.024 4.432a.328.328 0 00-.136.373l.942 3.088c.02.065.112.056.12-.011l.229-2.071a.327.327 0 01.106-.207z" fill="#fff"/></svg>