<svg width="48" height="48" fill="none" xmlns="http://www.w3.org/2000/svg"><circle cx="24" cy="24" r="24" fill="#FFC940"/><g clip-path="url(#clip0)"><path d="M19.278 34c-.258 0-.37-.326-.168-.483.404-.314 3.414-1.864 4.29-2.044.168-.033.303-.18.303-.348l-.236-7.636a.493.493 0 00-.146-.348l-8.119-7.76a.838.838 0 01.64-1.381h17.181c.72 0 1.1.831.64 1.381l-8.118 7.771a.46.46 0 00-.158.348l-.236 7.636c0 .169.124.304.292.337.887.169 3.897 1.73 4.301 2.044.203.157.09.483-.168.483H19.278z" fill="#000"/></g><defs><clipPath id="clip0"><path fill="#fff" transform="translate(15 14)" d="M0 0h18.855v20H0z"/></clipPath></defs></svg>