<svg width="48" height="48" fill="none" xmlns="http://www.w3.org/2000/svg"><circle cx="24" cy="24" r="24" fill="#FFC940"/><g clip-path="url(#clip0)"><path d="M30.263 19.233h-2.922a.453.453 0 01-.445-.455v-2.99c0-.401.477-.607.762-.325l2.923 2.99c.275.292.074.78-.318.78zm-3.6 6.576l-3.25 3.326-.604.618a1.07 1.07 0 01-1.536 0l-.614-.618-1.43-1.462a1.01 1.01 0 010-1.409.956.956 0 011.377 0l1.25 1.279a.245.245 0 00.35 0l3.08-3.142a.956.956 0 011.377 0 1.01 1.01 0 010 1.408zm4.553-8.44l-2.51-2.567A2.638 2.638 0 0026.812 14H17.78c-.985 0-1.779.813-1.779 1.82v16.37c0 1.008.794 1.82 1.779 1.82h12.442c.985 0 1.779-.812 1.779-1.82V19.299c0-.726-.286-1.42-.784-1.929z" fill="#000"/></g><defs><clipPath id="clip0"><path fill="#fff" transform="translate(16 14)" d="M0 0h16v20H0z"/></clipPath></defs></svg>