<svg width="64" height="64" fill="none" xmlns="http://www.w3.org/2000/svg"><path d="M33.752 2.534l-2.555 2.023.365 2.207 3.832 2.084h8.15l3.04-2.943-1.58-3.371H33.752zm1.683 10.972l-11.19 4.536-6.326 6.375-3.528 12.015 4.136 15.017 10.948 9.073 13.746.796 12.225-6.252 5.717-8.888 1.703-11.156-5.048-13.302-9.975-7.233-12.408-.98z" fill="#FFC940"/><path d="M32.395 20.678l-8.941 5.762-2.616 6.927.913 10.727 7.663 9.746 11.495 2.268 10.219-5.088 5.534-8.643-.73-10.42-6.082-9.011-8.94-3.371-8.515 1.103z" fill="#fff"/><path d="M38.523 35.616l-1.742 1.358-.441 1.405c.456.53 1.389 1.61 1.463 1.686.075.075 1.781-.313 2.626-.515l.673-2.576-2.579-1.358z" fill="#FFC940"/><path d="M63.877 34.969a25.579 25.579 0 00-7.272-15.463 25.046 25.046 0 00-12.347-6.833V9.472a4.284 4.284 0 003.224-4.156c0-2.362-1.907-4.284-4.25-4.284h-9c-2.344 0-4.25 1.922-4.25 4.284a4.284 4.284 0 003.224 4.156v3.21a25.045 25.045 0 00-12.31 6.824 25.513 25.513 0 00-2.123 2.427 1.233 1.233 0 00-.094-.004H9.77c-.69 0-1.25.564-1.25 1.26 0 .695.56 1.26 1.25 1.26h7.302a25.35 25.35 0 00-2.218 4.841H1.25c-.69 0-1.25.564-1.25 1.26 0 .696.56 1.26 1.25 1.26h12.898a25.81 25.81 0 00-.62 4.842H8c-.69 0-1.25.564-1.25 1.26 0 .696.56 1.26 1.25 1.26h5.568a25.76 25.76 0 00.78 4.842H6.25c-.69 0-1.25.564-1.25 1.26 0 .696.56 1.26 1.25 1.26h8.896a25.322 25.322 0 005.75 8.96 25.216 25.216 0 0015.359 7.33 25.17 25.17 0 0016.257-3.982c.578-.379.742-1.16.365-1.742a1.244 1.244 0 00-1.73-.369c-8.944 5.87-20.923 4.601-28.483-3.018-8.87-8.94-8.87-23.485 0-32.425 8.87-8.94 23.303-8.94 32.174 0 7.55 7.609 8.816 19.671 3.01 28.682a1.266 1.266 0 00.368 1.742c.58.38 1.353.213 1.729-.37 3.102-4.814 4.498-10.629 3.932-16.373zM32.482 5.316c0-.973.785-1.764 1.75-1.764h9c.965 0 1.75.791 1.75 1.764 0 .972-.785 1.763-1.75 1.763h-9c-.965 0-1.75-.79-1.75-1.763zm3.224 6.933v-2.65h6.051v2.645a25.256 25.256 0 00-6.051.005z" fill="#000"/><path d="M38.75 17.957c-10.692 0-19.39 8.767-19.39 19.543s8.698 19.543 19.39 19.543c10.693 0 19.392-8.767 19.392-19.543s-8.699-19.543-19.391-19.543zm0 36.567c-9.313 0-16.89-7.637-16.89-17.024 0-9.386 7.577-17.023 16.89-17.023 9.315 0 16.892 7.637 16.892 17.023 0 9.387-7.577 17.024-16.891 17.024z" fill="#000"/><path d="M46.658 27.75l-6.191 6.24a3.835 3.835 0 00-1.716-.404c-.616 0-1.198.145-1.716.404l-2.771-2.793a1.243 1.243 0 00-1.768 0 1.267 1.267 0 000 1.781l2.771 2.793a3.914 3.914 0 00-.4 1.73c0 2.158 1.742 3.914 3.884 3.914s3.884-1.756 3.884-3.915a3.93 3.93 0 00-.4-1.729l6.009-6.056.182-.184a1.267 1.267 0 000-1.781 1.243 1.243 0 00-1.768 0zM38.75 38.895a1.391 1.391 0 01-1.385-1.395c0-.769.621-1.395 1.385-1.395.763 0 1.384.626 1.384 1.395a1.39 1.39 0 01-1.384 1.395zm13.366-2.639h-1.158c-.69 0-1.25.564-1.25 1.26 0 .695.56 1.26 1.25 1.26h1.158c.69 0 1.25-.565 1.25-1.26 0-.696-.56-1.26-1.25-1.26zm-25.572-.031h-1.158c-.69 0-1.25.564-1.25 1.26 0 .696.56 1.26 1.25 1.26h1.158c.69 0 1.25-.564 1.25-1.26 0-.696-.56-1.26-1.25-1.26zm12.222-9.767c.69 0 1.25-.564 1.25-1.26V24.03c0-.696-.56-1.26-1.25-1.26s-1.25.564-1.25 1.26v1.167c0 .696.56 1.26 1.25 1.26zm-.03 22.085c-.69 0-1.25.564-1.25 1.26v1.167c0 .696.56 1.26 1.25 1.26s1.25-.564 1.25-1.26v-1.167c0-.696-.56-1.26-1.25-1.26z" fill="#000"/><path fill-rule="evenodd" clip-rule="evenodd" d="M38.736 14.536c-12.593 0-22.802 10.288-22.802 22.98 0 12.69 10.209 22.98 22.802 22.98 12.592 0 22.8-10.29 22.8-22.98 0-12.692-10.208-22.98-22.8-22.98zM13.48 37.516c0-14.057 11.307-25.453 25.255-25.453 13.947 0 25.254 11.396 25.254 25.453 0 14.056-11.307 25.452-25.255 25.452-13.947 0-25.254-11.396-25.254-25.453z" fill="#000"/></svg>