<svg width="48" height="48" fill="none" xmlns="http://www.w3.org/2000/svg"><circle cx="24" cy="24" r="24" fill="#FFC940"/><path d="M27.132 16.791c0 1.544-3.164 2.802-7.06 2.802-3.897 0-7.072-1.247-7.072-2.802C13 15.247 16.164 14 20.06 14c3.898 0 7.072 1.247 7.072 2.791zm-.138 4.755c.043-.061.085-.102.128-.174 0-.153-.022-.307-.064-.46-.032-.123-.18-.174-.297-.102-1.71 1.043-4.078 1.687-6.71 1.687-2.74 0-5.203-.706-6.924-1.82-.074.225-.127.46-.127.695 0 1.882 3.164 3.405 7.06 3.405 1.03 0 1.997-.102 2.878-.296a.363.363 0 00.234-.154 7.942 7.942 0 013.822-2.781zm-5.277 7.178c0-.42.032-.838.106-1.237.043-.246-.159-.46-.424-.44-.436.04-.882.061-1.338.061-2.74 0-5.203-.705-6.923-1.82-.085.215-.138.45-.138.685 0 1.882 3.164 3.405 7.06 3.405.383 0 .755-.01 1.116-.04a.58.58 0 00.541-.583v-.031zm.68 3.098a.41.41 0 00-.414-.225c-.616.082-1.264.123-1.912.123-2.739 0-5.202-.706-6.922-1.82-.096.215-.149.44-.149.675 0 1.881 3.164 3.405 7.06 3.405 1.02 0 1.976-.103 2.857-.287a.378.378 0 00.234-.593 7.426 7.426 0 01-.754-1.278zM35 28.632C35 31.597 32.505 34 29.426 34c-3.08 0-5.575-2.403-5.575-5.368 0-2.965 2.495-5.368 5.575-5.368 3.079 0 5.574 2.413 5.574 5.368z" fill="#000"/></svg>