<svg width="48" height="48" fill="none" xmlns="http://www.w3.org/2000/svg"><circle cx="24" cy="24" r="24" fill="#FFC940"/><g clip-path="url(#clip0)" fill="#000"><path d="M32.999 18.49c0-.83-.62-1.497-1.382-1.497H16.383c-.762 0-1.382.668-1.382 1.497v1.497H33V18.49zm-6.993 10.515h-8.004a1 1 0 010-2.002h8.004a1 1 0 011 1 1.013 1.013 0 01-1 1.002zm-3.002-3.003h-5.002a1 1 0 010-2.002h5.002a1 1 0 010 2.002zm-8.003 3.365c0 .906.62 1.64 1.382 1.64h15.234c.762 0 1.382-.734 1.382-1.64v-7.369H15v7.369zM16.506 14h-3.02c-.82 0-1.486.667-1.486 1.487v3.022c0 .276.22.496.495.496.277 0 .496-.22.496-.496v-3.022c0-.276.219-.496.495-.496h3.02a.492.492 0 00.496-.495.492.492 0 00-.495-.496zM12 29.5v3.022c0 .82.667 1.488 1.486 1.488h3.02c.277 0 .496-.22.496-.496a.492.492 0 00-.495-.496h-3.02a.492.492 0 01-.496-.496v-3.021a.492.492 0 00-.496-.496.492.492 0 00-.495.495zm24-10.99v-3.023c0-.82-.667-1.487-1.486-1.487h-3.02a.492.492 0 00-.496.496c0 .276.22.495.495.495h3.02c.277 0 .496.22.496.496v3.022c0 .276.22.496.496.496s.495-.22.495-.496zM31.494 34h3.02c.82 0 1.486-.667 1.486-1.487V29.49a.492.492 0 00-.495-.496.492.492 0 00-.496.496v3.022a.493.493 0 01-.495.496h-3.02a.492.492 0 00-.496.495c0 .277.229.496.495.496z"/></g><defs><clipPath id="clip0"><path fill="#fff" transform="translate(12 14)" d="M0 0h24v20H0z"/></clipPath></defs></svg>