<svg width="65" height="65" fill="none" xmlns="http://www.w3.org/2000/svg"><path d="M3.839 37.122l-2.56 1.92-.64 20.481 1.92 3.2h14.08l1.92-3.2v-18.56l-1.92-3.841H3.84zm42.242-9.601l-3.84 3.2 1.92 5.12 3.84 1.281 3.84-3.2v-4.48l-5.76-1.92z" fill="#FFC940"/><path d="M63.636.366A1.25 1.25 0 0062.75 0L32 .002c-.69 0-1.25.56-1.25 1.25v3.575L18.9 8.002a1.25 1.25 0 00-.884 1.53l6.142 22.92-5.313 5.312a3.749 3.749 0 00-3.096-1.637h-12A3.754 3.754 0 000 39.877v20.376a3.754 3.754 0 003.75 3.75h12a3.756 3.756 0 003.64-2.847l1.486 1.296a6.298 6.298 0 004.14 1.551h37.736c.69 0 1.25-.56 1.25-1.25V1.25c0-.331-.132-.65-.366-.884zM17 60.253c0 .69-.56 1.25-1.25 1.25h-12c-.69 0-1.25-.56-1.25-1.25V39.878c0-.69.56-1.25 1.25-1.25h12c.69 0 1.25.56 1.25 1.25v20.375zm3.756-50.16l9.995-2.678v4.632l-.838.224a1.25 1.25 0 00-.884 1.531 3.37 3.37 0 01-2.38 4.123 1.25 1.25 0 00-.883 1.533l4.872 18.043H28.13l-1.293-5.058a1.25 1.25 0 00-.21-.438l-5.87-21.912zm9.995 7.686v10.549l-2.28-8.443a5.857 5.857 0 002.28-2.106zm17.958 43.724H25.016a3.799 3.799 0 01-2.497-.935L19.5 57.934v-17.29l5.458-5.457.99 3.873c.141.553.64.94 1.21.94l24.578.002c.965 0 1.75.785 1.75 1.75s-.785 1.75-1.75 1.75H39.142a1.25 1.25 0 000 2.5h16.506c.965 0 1.75.785 1.75 1.75s-.785 1.75-1.75 1.75H39.142a1.25 1.25 0 000 2.5h13.831c.965 0 1.75.785 1.75 1.75s-.785 1.75-1.75 1.75h-13.83a1.25 1.25 0 000 2.5h9.566c.965 0 1.75.785 1.75 1.75s-.785 1.75-1.75 1.75zm12.792 0h-8.92a4.225 4.225 0 000-3.5h.392a4.255 4.255 0 004.25-4.25 4.23 4.23 0 00-.45-1.902 4.257 4.257 0 003.125-4.098c0-.948-.312-1.825-.839-2.532V29.377a1.25 1.25 0 00-2.5 0v14.225a4.25 4.25 0 00-.911-.1h-.041a4.225 4.225 0 00.379-1.75 4.255 4.255 0 00-4.25-4.25h-2.01a5.99 5.99 0 003.632-5.5 5.99 5.99 0 00-5.982-5.983 5.99 5.99 0 00-5.983 5.983 5.991 5.991 0 003.633 5.5h-6.834V13.734a5.884 5.884 0 004.482-4.482h9.403a5.884 5.884 0 004.482 4.482V30.42a1.25 1.25 0 002.5 0V12.618c0-.69-.56-1.25-1.25-1.25a3.37 3.37 0 01-3.366-3.366c0-.69-.56-1.25-1.25-1.25H41.558c-.69 0-1.25.56-1.25 1.25a3.37 3.37 0 01-3.365 3.365c-.69 0-1.25.56-1.25 1.25v24.885H33.25v-35L61.5 2.5v59.003zM47.377 35.484a3.486 3.486 0 01-3.482-3.482 3.486 3.486 0 013.482-3.483 3.486 3.486 0 013.482 3.483 3.486 3.486 0 01-3.482 3.482z" fill="#000"/></svg>