<svg width="48" height="48" fill="none" xmlns="http://www.w3.org/2000/svg"><circle cx="24" cy="24" r="24" fill="#FFC940"/><g clip-path="url(#clip0)"><path d="M31.295 30.613a.859.859 0 01-.858.858h-12.04a.859.859 0 01-.857-.858v-8.697c0-.472.385-.857.858-.857h12.04c.472 0 .857.385.857.857v8.697zm-.033-14.26h-.594v-.209c0-1.143-.89-2.122-2.034-2.144a2.07 2.07 0 00-2.111 2.078v.275H22.29v-.209c0-1.143-.89-2.122-2.034-2.144a2.07 2.07 0 00-2.111 2.078v.275h-.583A2.564 2.564 0 0015 18.915v12.523A2.557 2.557 0 0017.562 34h13.7a2.557 2.557 0 002.562-2.562V18.915a2.564 2.564 0 00-2.562-2.562z" fill="#000"/></g><defs><clipPath id="clip0"><path fill="#fff" transform="translate(15 14)" d="M0 0h18.823v20H0z"/></clipPath></defs></svg>