<svg width="48" height="48" fill="none" xmlns="http://www.w3.org/2000/svg"><circle cx="24" cy="24" r="24" fill="#FFC940"/><g clip-path="url(#clip0)" fill="#000"><path d="M13 18.386v6.091a2.39 2.39 0 002.399 2.386h1.348v-4.497h-.94v-1.401c0-.254.215-.468.47-.468h15.936c.255 0 .47.214.47.468v1.4h-.94v4.498h1.348a2.39 2.39 0 002.399-2.386v-6.091A2.39 2.39 0 0033.09 16H15.4a2.39 2.39 0 00-2.4 2.386z"/><path d="M27.241 29.39l-2.664 2.58a.526.526 0 01-.725 0l-2.593-2.58a.684.684 0 010-.964.693.693 0 01.97 0l1.878 1.868c.072.061.174.072.245 0l1.91-1.847c.265-.254.693-.295.969-.04a.68.68 0 01.01.984zm-5.992-4.913a.693.693 0 01.97 0l1.878 1.868a.168.168 0 00.245 0l1.909-1.848c.265-.253.694-.294.97-.04.296.264.296.72.01.995l-2.664 2.578a.526.526 0 01-.725 0l-2.593-2.588a.684.684 0 010-.965zm-2.44-2.07v9.887c0 .945.765 1.706 1.715 1.706h7.452c.95 0 1.715-.761 1.715-1.706v-9.888H18.81z"/></g><defs><clipPath id="clip0"><path fill="#fff" transform="translate(13 16)" d="M0 0h22.5v18H0z"/></clipPath></defs></svg>