<svg width="80" height="80" fill="none" xmlns="http://www.w3.org/2000/svg"><path fill-rule="evenodd" clip-rule="evenodd" d="M1.667 70h76.666c.921 0 1.667.746 1.667 1.667A8.343 8.343 0 0171.667 80H8.333A8.343 8.343 0 010 71.667C0 70.747.746 70 1.667 70zm6.666 6.667h63.334a5.01 5.01 0 004.715-3.334H3.618a5.01 5.01 0 004.715 3.334z" fill="#2C4B9B"/><path d="M10 20a5 5 0 00-5 5v46.667h3.333V25c0-.92.747-1.667 1.667-1.667h7.415V20H10zm60 0h-8.328v3.333H70c.92 0 1.667.747 1.667 1.667v46.667H75V25a5 5 0 00-5-5zM33.334 71.667h13.333V75H33.334v-3.333z" fill="#2C4B9B"/><path d="M58.333 0H31.666c-.442 0-.866.176-1.178.488L17.155 13.822A1.667 1.667 0 0016.666 15v40a5 5 0 005 5H35v-3.333H21.666C20.746 56.667 20 55.92 20 55V15.69L32.356 3.333h25.977c.92 0 1.666.747 1.666 1.667v50c0 .92-.746 1.667-1.666 1.667H44.999V60h13.334a5 5 0 005-5V5a5 5 0 00-5-5z" fill="#2C4B9B"/><path d="M30 1.667v10c0 .92-.746 1.667-1.666 1.667h-8.915v3.333h8.915a5 5 0 005-5v-10H30zm11.179 30.488a1.666 1.666 0 00-2.845 1.178v33.334h3.333v-29.31l7.155 7.155 2.357-2.357-10-10z" fill="#2C4B9B"/><path d="M28.821 42.156l10-10 2.357 2.357-10 10-2.357-2.357z" fill="#2C4B9B"/></svg>