<svg width="64" height="64" fill="none" xmlns="http://www.w3.org/2000/svg"><path d="M32.657 47.36l-6.575 5.12L32 62.08l6.575-8.32-5.918-6.4zm-18.411-19.2l5.26.64L18.85 16l4.603-7.68L32 5.76l8.548 2.56 4.603 7.04-1.315 14.08h3.945l2.63-3.2-.657-9.6-3.945-8.96-6.576-5.12-9.206-1.28-8.548 2.56-5.918 7.68-1.973 8.32.658 8.32z" fill="#FFC940"/><path d="M49.29 45.458l-6.105-1.98-2.191-4.266c1.974-1.956 3.345-4.544 3.807-7.243l.273-1.594h2.337c2.125 0 3.853-1.682 3.853-3.75V18.75C51.264 8.411 42.622 0 32 0 21.35 0 12.736 8.387 12.736 18.75v7.875c0 1.63 1.074 3.019 2.568 3.535v1.465c0 2.068 1.729 3.75 3.853 3.75h1.128a13.523 13.523 0 002.72 3.84l-2.19 4.263-6.104 1.98C7.613 47.761 2.46 55.034 2.46 62.75c0 .69.576 1.25 1.285 1.25h56.508c.71 0 1.285-.56 1.285-1.25 0-7.716-5.152-14.989-12.25-17.292zm-.594-18.833c0 .69-.576 1.25-1.285 1.25h-1.96c.327-2.461.544-5.08.632-7.66L46.09 20h2.606v6.625zm-32.107 1.25c-.708 0-1.285-.56-1.285-1.25V20h2.607l.014.393v.014c.09 2.509.305 5.06.624 7.468h-1.96zm2.568 5c-.708 0-1.284-.56-1.284-1.25v-1.25h1.053l.273 1.595c.052.303.116.605.19.905h-.232zM17.875 17.5h-2.522c.65-8.378 7.834-15 16.647-15 8.774 0 15.989 6.621 16.647 15h-2.522C46.033 10.597 40.257 5 33.15 5h-2.3c-7.106 0-12.883 5.597-12.975 12.5zm12.976-10h2.298c5.755 0 10.413 4.581 10.41 10.176 0 .394-.004.736-.01 1.048v.012l-1.607-.223c-4.364-.607-8.484-2.612-11.602-5.647a1.303 1.303 0 00-.909-.366c-3.449 0-6.75 1.53-8.933 4.113.538-5.09 4.959-9.113 10.353-9.113zm-8.799 25.375c-.643-2.082-1.379-8.207-1.541-12.132l1.728-2.243c1.588-2.06 4.058-3.339 6.685-3.486 3.457 3.202 7.929 5.317 12.655 5.973l1.89.263a74.922 74.922 0 01-.754 7.64v.003c-.118.774-.21 1.273-.448 2.665-.68 3.97-3.724 7.561-7.742 8.54a10.726 10.726 0 01-5.05 0c-2.508-.611-4.809-2.301-6.294-4.723H25.8c.53 1.455 1.958 2.5 3.632 2.5H32c2.129 0 3.853-1.678 3.853-3.75 0-2.068-1.729-3.75-3.853-3.75h-2.569c-1.711 0-3.117 1.076-3.634 2.5h-3.745zm7.271 9.752c.881.18 1.78.273 2.677.273.703 0 1.405-.057 2.1-.168l-2.27 2.336-2.507-2.441zm.742 4.258l-4.073 4.193a46.95 46.95 0 01-2.876-6.49l1.53-2.978 5.42 5.275zm9.071-5.698l1.747 3.4a46.951 46.951 0 01-2.875 6.492l-4.36-4.243 5.488-5.65zm-10.989-7.062c0-.69.575-1.25 1.284-1.25H32c.708 0 1.284.56 1.284 1.25s-.575 1.25-1.284 1.25h-2.569c-.708 0-1.284-.56-1.284-1.25zM5.081 61.5c.51-6.192 4.744-11.82 10.442-13.67l5.406-1.754a49.483 49.483 0 003.655 7.718l.008.012a50.01 50.01 0 003.515 5.225l1.58 2.469H5.081zM32 60.386l-1.742-2.722c-.02-.03-.04-.06-.062-.089a47.564 47.564 0 01-2.894-4.208l4.58-4.714 4.826 4.697a47.534 47.534 0 01-2.904 4.225c-.063.082.027-.047-1.804 2.81zm2.313 1.114l1.58-2.468a50.003 50.003 0 003.54-5.267l.019-.033.002-.004a49.449 49.449 0 003.617-7.652l5.406 1.754c5.698 1.85 9.933 7.478 10.442 13.67H34.313z" fill="#000"/></svg>