<svg width="80" height="80" fill="none" xmlns="http://www.w3.org/2000/svg"><path fill-rule="evenodd" clip-rule="evenodd" d="M8 18.776v42.448C8 67.161 12.839 72 18.802 72H40a2.36 2.36 0 002.354-2.354V33.461l5.191 5.192a2.368 2.368 0 003.335 0c.458-.458.693-1.06.693-1.66a2.35 2.35 0 00-.693-1.662l-9.206-9.206a2.368 2.368 0 00-3.335 0l-9.206 9.206a2.368 2.368 0 000 3.335 2.368 2.368 0 003.335 0l5.178-5.205v33.831H18.802c-3.361 0-6.094-2.72-6.094-6.068V18.776c0-3.348 2.733-6.068 6.094-6.068h42.396c3.361 0 6.094 2.72 6.094 6.068v42.448c0 3.348-2.733 6.068-6.094 6.068h-5.492a2.36 2.36 0 00-2.354 2.354A2.36 2.36 0 0055.706 72h5.492C67.148 72 72 67.161 72 61.224V18.776C72 12.839 67.161 8 61.198 8H18.802C12.852 8 8 12.839 8 18.776z" fill="#2C4B9B" stroke="#fff"/></svg>