<svg width="80" height="80" fill="none" xmlns="http://www.w3.org/2000/svg"><path fill-rule="evenodd" clip-rule="evenodd" d="M70.822 28.324h-7.53V17.657c0-3.419-2.771-6.2-6.178-6.2H9.178C5.77 11.457 3 14.238 3 17.657v27.818c0 3.419 2.771 6.2 6.178 6.2h7.53v10.668c0 3.419 2.772 6.2 6.178 6.2h47.936c3.407 0 6.178-2.781 6.178-6.2V34.524c0-3.419-2.771-6.2-6.178-6.2zM6.53 17.657A2.656 2.656 0 019.178 15h47.936a2.656 2.656 0 012.648 2.657v2.473H6.53v-2.473zm10.178 30.475V34.524c0-.946.213-1.843.593-2.646H6.53v13.597a2.655 2.655 0 002.647 2.657h7.53zM6.53 28.335v-4.662h53.232v4.651H22.886c-.12 0-.238.004-.355.011h-16zM22.886 65h47.936a2.655 2.655 0 002.648-2.657V34.524a2.655 2.655 0 00-2.648-2.657H61.72a1.744 1.744 0 01-.193.011H22.67a2.655 2.655 0 00-2.432 2.646v27.82A2.655 2.655 0 0022.886 65z" fill="#2C4B9B"/><path fill-rule="evenodd" clip-rule="evenodd" d="M51.455 41.164c-1.88 0-3.61.688-4.974 1.834a7.69 7.69 0 00-4.986-1.835c-4.395 0-7.97 3.748-7.97 8.355 0 4.606 3.575 8.354 7.97 8.354a7.69 7.69 0 004.986-1.834c1.364 1.146 3.094 1.834 4.974 1.834 4.395 0 7.97-3.748 7.97-8.354 0-4.607-3.575-8.354-7.97-8.354zm-7.074 12.193a4.497 4.497 0 01-2.886 1.05c-2.571 0-4.664-2.194-4.664-4.89 0-2.695 2.093-4.888 4.664-4.888 1.065 0 2.072.374 2.886 1.05a8.62 8.62 0 00-.895 3.839c0 1.383.324 2.689.895 3.84zm2.411-3.84c0 2.696 2.092 4.889 4.663 4.889 2.572 0 4.663-2.193 4.663-4.888s-2.091-4.888-4.663-4.888c-2.57 0-4.663 2.193-4.663 4.888z" fill="#2C4B9B"/></svg>