<svg width="24" height="24" fill="none" xmlns="http://www.w3.org/2000/svg"><path d="M21.553 6.808l-.006-.023c-.483-1.887-2.658-3.912-4.656-4.333l-.022-.005a26.724 26.724 0 00-9.738 0l-.023.005c-1.997.421-4.172 2.446-4.655 4.333l-.006.023a17.854 17.854 0 000 7.944l.006.023c.462 1.806 2.475 3.739 4.399 4.27v2.106c0 .763.96 1.137 1.506.587l2.206-2.218a26.797 26.797 0 006.305-.407l.022-.005c1.998-.42 4.173-2.446 4.656-4.333l.006-.023a17.855 17.855 0 000-7.944zm-1.746 7.562c-.322 1.23-1.974 2.761-3.286 3.044-1.718.316-3.45.451-5.18.405a.125.125 0 00-.091.036l-1.61 1.6-1.714 1.7c-.125.127-.345.041-.345-.133v-3.49a.121.121 0 00-.102-.118c-1.313-.283-2.964-1.813-3.287-3.044a16.202 16.202 0 010-7.18c.323-1.23 1.974-2.76 3.288-3.044 3-.552 6.042-.552 9.042 0 1.313.283 2.964 1.813 3.286 3.044a16.187 16.187 0 010 7.18z" fill="#fff"/><path fill-rule="evenodd" clip-rule="evenodd" d="M3.5 14l3 4.5H7V21l.5.5H8l2.5-2.5 3-.5L18 18l2.5-3v-4l.5-4-3.5-3.5-4-1-6.5 1-2.5 1-2 5 1 4.5zm11.163 1.928a3.285 3.285 0 01-.38-.118c-1.85-.743-3.554-1.701-4.902-3.17-.767-.835-1.368-1.778-1.875-2.776a20.09 20.09 0 01-.586-1.302l-.064-.151c-.189-.446.089-.906.381-1.242a3.007 3.007 0 011.01-.734c.298-.138.592-.058.81.186.471.53.904 1.085 1.255 1.699.215.377.156.838-.235 1.094-.076.05-.147.108-.217.165l-.052.042a.869.869 0 00-.204.207.553.553 0 00-.04.5c.482 1.28 1.294 2.276 2.626 2.812l.057.024c.194.079.392.16.616.134.266-.03.415-.223.566-.418.082-.106.165-.212.266-.293.282-.222.642-.225.945-.04.304.186.598.386.89.587l.06.041c.267.184.532.366.778.576.255.217.342.502.199.796-.262.54-.644.988-1.195 1.274a1.56 1.56 0 01-.349.115c-.056.014-.113.028-.168.044-.065-.019-.13-.036-.192-.053zm2.176-6.175c-.426-2.315-2.414-3.869-4.834-3.934h-.04c-.034-.001-.067-.002-.1 0-.172.009-.324.148-.292.322.036.197.24.217.409.233l.029.003c.085.009.17.016.256.023.189.016.378.031.564.063 1.794.31 3.232 1.753 3.482 3.497.038.264.057.53.076.796l.014.203c.013.168.1.325.294.323.188-.002.286-.162.273-.33l-.012-.149c-.028-.351-.055-.704-.119-1.05zm-1.156.679l-.003.029c-.003.034-.007.085-.02.133-.065.235-.433.265-.518.028a.686.686 0 01-.029-.227 2.76 2.76 0 00-.37-1.423 2.703 2.703 0 00-1.148-1.041 3.384 3.384 0 00-.915-.272c-.086-.014-.173-.024-.259-.035a11.021 11.021 0 01-.157-.02c-.168-.022-.258-.125-.25-.285.008-.15.12-.258.29-.25.555.031 1.092.147 1.586.4 1.004.515 1.577 1.327 1.745 2.411.002.018.006.035.009.053a.762.762 0 01.014.094c.007.086.012.172.018.27l.007.135zm-1.837-.342c.021.18.13.289.332.285a.238.238 0 00.216-.191.696.696 0 00.003-.22v-.008c-.096-1.068-.767-1.538-1.705-1.603-.15-.01-.284.093-.307.226-.025.146.064.272.225.31.07.017.14.023.211.03.08.006.161.013.24.035.117.033.229.084.327.153.209.147.34.37.401.61.027.104.039.213.051.321l.006.052z" fill="#fff"/></svg>