<svg width="24" height="24" fill="none" xmlns="http://www.w3.org/2000/svg"><path d="M2 22l1.4-4.97a9.937 9.937 0 01-1.374-5.054c0-5.5 4.48-9.976 9.987-9.976S22 6.475 22 11.976c0 5.501-4.48 9.977-9.987 9.977A9.983 9.983 0 017.13 20.68L2 22zm5.393-3.134l.305.186a8.283 8.283 0 004.315 1.208c4.573 0 8.293-3.716 8.293-8.284 0-4.567-3.72-8.284-8.293-8.284-4.573 0-8.293 3.717-8.293 8.284 0 1.592.453 3.137 1.31 4.47l.205.32-.806 2.862 2.964-.762z" fill="#fff"/><path fill-rule="evenodd" clip-rule="evenodd" d="M3.5 20.5l1-4-1.5-5 1-4L6 5l4.5-2 6 1 3 3 1 3 .5 4-1.5 3-3 3-3.5 1-5-.5-2-.5-2.5.5zM8.56 7.298l.647.035c.128.007.24.086.291.203l.944 2.207c.05.117.03.254-.055.35l-.821.95a.248.248 0 00-.032.277c1.082 2.083 3.055 2.908 3.644 3.114.1.036.211.002.276-.082l.86-1.113a.336.336 0 01.406-.1l2.19 1.009a.334.334 0 01.188.374l-.103.483a2.09 2.09 0 01-.91 1.327c-.594.379-1.362.565-2.34.289-3.032-.857-4.747-2.862-5.668-4.116-.92-1.254-1.276-2.507-1.045-3.53.154-.687.656-1.214.97-1.487a.784.784 0 01.557-.19z" fill="#fff"/></svg>