<svg width="120" height="120" fill="none" xmlns="http://www.w3.org/2000/svg"><circle cx="60" cy="60" r="60" fill="#F3F3F3"/><path d="M76.051 94.353h2.668a1.115 1.115 0 001.089-1.361l-1.766-7.856 4.555 8.622c.193.366.573.595.987.595h2.667a1.117 1.117 0 001.073-1.423l-3.29-11.49a.546.546 0 01.024-.367c.027-.062.049-.126.064-.192l2.178-9.307v-.003l.007-.03.007-.043.01-.064c0-.019.001-.038.003-.056l.002-.043v-.026l-.02-2.127a1.116 1.116 0 00-1.115-1.106h-.011a1.115 1.115 0 00-1.105 1.127l.008.985-5.379-.072-.192-8.034.547.273a1.116 1.116 0 10.999-1.996L68.164 54.41a3.027 3.027 0 01-1.707-2.813l16.665 8.13c.543.262.897.82.901 1.422l.027 3.693a1.116 1.116 0 001.116 1.108h.008a1.116 1.116 0 001.108-1.124l-.026-3.694a3.849 3.849 0 00-1.829-3.229c.403-.363.722-.83.907-1.378l.82-2.419a3.267 3.267 0 00-.165-2.512 3.268 3.268 0 00-1.893-1.659l-.958-.324a3.268 3.268 0 00-2.512.166 3.267 3.267 0 00-1.659 1.893l-.82 2.42a3.314 3.314 0 00-.15.654L66.88 49.32v-.697c0-1.7-.947-3.22-2.47-3.97l-2.686-1.322.001-3.582a2.83 2.83 0 00.387-.215 15.042 15.042 0 004.528-4.674 2.298 2.298 0 001.558.262 1.116 1.116 0 10-.416-2.193.098.098 0 01-.05-.014.631.631 0 01.047-.313c.077-.163.872-.233 1.347-.275 1.106-.097 2.622-.23 3.779-1.355 1.48-1.437 1.872-3.995.893-5.821-.743-1.388-2.185-2.314-3.672-2.36-.5-.016-.95.044-1.348.157a1.536 1.536 0 00-1.452-1.045H53.892c-.68 0-1.259.447-1.458 1.062a4.47 4.47 0 00-1.377-.173c-1.487.046-2.928.972-3.671 2.36-.98 1.826-.588 4.384.892 5.821 1.158 1.124 2.673 1.257 3.78 1.354.474.042 1.27.112 1.346.276a.632.632 0 01.048.311c-.014.009-.036.018-.05.016a1.115 1.115 0 10-.416 2.192 2.301 2.301 0 001.542-.253 15.031 15.031 0 004.4 4.644c.18.122.369.222.565.3v3.518l-2.685 1.322a4.398 4.398 0 00-2.47 3.97v.799l-5.329 2.6a1.116 1.116 0 00.979 2.006l4.983-2.431a3.033 3.033 0 01-1.717 2.818l-11.887 5.943a1.116 1.116 0 10.999 1.996l.547-.273-.192 8.034-5.382.072.065-9.038c.004-.602.359-1.16.908-1.424l7.892-3.851a1.116 1.116 0 10-.979-2.006l-1.795.876a3.314 3.314 0 00-.15-.655l-.82-2.419a3.265 3.265 0 00-1.659-1.893 3.265 3.265 0 00-2.511-.166l-.958.324a3.27 3.27 0 00-1.893 1.66 3.265 3.265 0 00-.166 2.511l.82 2.42c.186.548.505 1.014.907 1.378a3.851 3.851 0 00-1.828 3.23l-.074 10.177v.023l.003.039v.02c.291 4.39.584 9.334.571 10.156l-3.259 11.38a1.116 1.116 0 001.073 1.423h2.667c.414 0 .794-.229.987-.595l4.556-8.624-1.765 7.858a1.115 1.115 0 001.088 1.36h2.667c.453 0 .86-.273 1.033-.691l4.6-11.19c.28-.565.16-1.31-.448-2.922-.36-.954-.9-2.21-1.602-3.736a171.06 171.06 0 00-2.336-4.847l.24-10.014 9.07-4.535a5.248 5.248 0 002.93-5.313h7.082a5.243 5.243 0 002.92 5.308l9.08 4.54.237 9.915-5.6 7.696a3.343 3.343 0 00-.464 3.929l4.59 11.169c.173.418.58.692 1.033.692zm-38.61-41.77a1.05 1.05 0 01.607-.533l.958-.324a1.054 1.054 0 011.34.662l.82 2.418c.091.268.073.555-.053.808-.125.253-.34.442-.608.533l-.958.324a1.057 1.057 0 01-1.34-.66l-.82-2.42a1.05 1.05 0 01.053-.807zM35.48 92.12h-.515l2.884-10.065c.064-.226.152-.532-.444-9.635l4.98-.067.181-.003c-.42 3.857-.916 7.777-1.125 8.487L35.48 92.12zm7.458 0h-.525l1.913-8.516a1.944 1.944 0 00-.242-1.73l-.433-.695c.16-.712.37-2.087.714-4.929.045-.37.088-.74.13-1.101 1.413 2.975 2.6 5.731 2.724 6.557l-4.28 10.414zM80.26 54.807l.82-2.42a1.05 1.05 0 011-.717c.115 0 .23.018.34.056l.958.324c.267.091.483.28.608.534.126.253.145.54.054.807l-.82 2.42a1.057 1.057 0 01-1.34.66l-.957-.324a1.05 1.05 0 01-.61-.533 1.047 1.047 0 01-.053-.807zM70.057 25.023c.796.026 1.478.631 1.774 1.184.507.945.281 2.424-.481 3.166-.588.571-1.477.649-2.419.732-.131.011-.267.023-.403.037.162-.761.265-1.54.308-2.33.294.003.53-.041.647-.07a1.116 1.116 0 00-.526-2.17.451.451 0 01-.098.008v-.15l.008-.03c.059-.161.614-.393 1.19-.377zm-17.805 5.082c-.942-.083-1.83-.16-2.418-.732-.763-.742-.988-2.22-.481-3.166.295-.553.977-1.159 1.773-1.184.575-.015 1.132.216 1.19.377.019.05.023.129.016.18a.448.448 0 01-.105-.007 1.116 1.116 0 00-.526 2.17c.12.028.369.075.677.068.037.79.136 1.57.294 2.333a25.842 25.842 0 00-.42-.039zm2.34-3.008v-2.96h12.035v1.188a2.78 2.78 0 000 .38V27c0 4.306-2.148 8.296-5.746 10.674a.623.623 0 01-.697-.004 12.79 12.79 0 01-5.593-10.571zm1.978 21.526a2.18 2.18 0 011.224-1.967l2.814-1.386 2.816 1.386a2.18 2.18 0 011.224 1.968v.248H56.57v-.249zm28.2 43.497h-.514l-5.912-11.19a.062.062 0 00-.004-.008l-.05-.095a1.103 1.103 0 00-.122-.184.637.637 0 01-.118-.575 1.12 1.12 0 00.04-.222l.562-7.498 2.486.033 2.672.036-1.841 7.87a2.78 2.78 0 00-.081 1.768L84.77 92.12zM72.386 81.418a1.112 1.112 0 01.16-1.356c.038-.04.074-.081.106-.126l3.559-4.89-.34 4.534a2.869 2.869 0 00.16 1.8l-.33.428c-.008.01-.015.018-.021.028a1.944 1.944 0 00-.27 1.769l1.914 8.515h-.525l-4.336-10.549a1.153 1.153 0 00-.077-.153zm14.712 14.444h-4.42a1.116 1.116 0 100 2.232h4.42a1.116 1.116 0 100-2.232zm-7.978 0H74.7a1.116 1.116 0 100 2.232h4.42a1.116 1.116 0 100-2.232zm-42.061 0h-4.42a1.116 1.116 0 100 2.232h4.42a1.116 1.116 0 100-2.232zm7.979 0h-4.42a1.116 1.116 0 100 2.232h4.42a1.116 1.116 0 100-2.232z" fill="#6ADF91"/><path d="M34.357 33.404a1.116 1.116 0 001.318 1.801c1.404-1.026 2.778-2.263 2.332-3.65-.256-.797-.972-1.098-1.413-1.277.167-.21.487-.543 1.094-1.02a1.116 1.116 0 00-1.38-1.754c-1.182.93-2.482 2.173-2.03 3.537.252.762.915 1.075 1.363 1.259-.203.23-.582.59-1.284 1.104zm10.082 6.026c.606.477.926.81 1.093 1.02-.44.18-1.157.48-1.413 1.276-.445 1.388.929 2.624 2.331 3.652a1.113 1.113 0 001.56-.242 1.116 1.116 0 00-.24-1.56c-.702-.513-1.081-.874-1.285-1.104.448-.184 1.111-.497 1.363-1.259.452-1.364-.847-2.607-2.03-3.537a1.115 1.115 0 10-1.38 1.755zm-4.379-.464a.911.911 0 000-1.822.911.911 0 000 1.822zm-6.677 5.972a.912.912 0 000-1.823.911.911 0 000 1.823zm8.022-18.742a.911.911 0 000-1.822.912.912 0 000 1.822zm37.115 7.208a1.116 1.116 0 101.319 1.801c1.403-1.026 2.776-2.263 2.331-3.65-.256-.797-.972-1.098-1.413-1.277.167-.21.488-.543 1.094-1.02a1.116 1.116 0 10-1.38-1.754c-1.182.93-2.482 2.173-2.03 3.537.252.762.915 1.075 1.363 1.259-.203.23-.582.59-1.283 1.104zm13.412 10.172c-.701-.513-1.08-.874-1.284-1.104.449-.184 1.111-.497 1.364-1.259.451-1.364-.848-2.607-2.03-3.537a1.117 1.117 0 00-1.38 1.755c.606.476.926.81 1.094 1.02-.442.178-1.158.48-1.413 1.275-.446 1.388.928 2.624 2.331 3.652a1.111 1.111 0 001.56-.242 1.116 1.116 0 00-.242-1.56zm-7.71-4.61a.911.911 0 000-1.822.911.911 0 000 1.822zm-6.676 5.972a.912.912 0 000-1.823.911.911 0 000 1.823zm8.023-18.742a.911.911 0 000-1.822.911.911 0 000 1.822z" fill="#4BB1E9"/></svg>