<svg width="48" height="48" fill="none" xmlns="http://www.w3.org/2000/svg"><circle cx="24" cy="24" r="24" fill="#E21313"/><path fill-rule="evenodd" clip-rule="evenodd" d="M17.948 12.42c1.452 0 2.591.434 3.455 1.276l.003.003c.874.832 1.318 1.914 1.318 3.281v1.142c0 1.318-.446 2.373-1.332 3.197-.877.816-2.003 1.234-3.409 1.234-1.418 0-2.562-.418-3.463-1.236-.893-.82-1.348-1.91-1.348-3.308v-1.125c0-1.309.441-2.365 1.318-3.2.889-.836 2.03-1.264 3.458-1.264zm-3.142 5.702c0 .918.281 1.705.86 2.33l.003.002c.59.623 1.375.922 2.314.922.906 0 1.667-.295 2.243-.904.59-.612.865-1.432.865-2.415v-1.173c0-.917-.274-1.702-.84-2.327-.58-.638-1.362-.944-2.303-.944-.94 0-1.723.306-2.301.944-.57.628-.841 1.437-.841 2.39v1.175zM35 31.306c0 1.307-.446 2.363-1.334 3.199-.877.825-2.007 1.248-3.425 1.248-1.417 0-2.562-.418-3.463-1.236-.892-.82-1.347-1.91-1.347-3.307v-1.158c0-1.308.441-2.359 1.316-3.183.89-.836 2.032-1.264 3.46-1.264 1.43 0 2.572.423 3.46 1.25.882.82 1.333 1.91 1.333 3.31v1.141zm-7.936 0c0 .928.28 1.72.861 2.346l.003.003c.59.623 1.375.922 2.313.922.917 0 1.685-.294 2.263-.906l.002-.003c.575-.622.843-1.445.843-2.426v-1.19c0-.927-.28-1.715-.862-2.331-.578-.624-1.352-.924-2.28-.924-.91 0-1.68.303-2.277.92-.59.61-.866 1.425-.866 2.4v1.19zm3.402-15.458L18.594 33.52l-1.165-.68 11.873-17.672 1.164.68z" fill="#fff"/></svg>