<svg width="109" height="39" fill="none" xmlns="http://www.w3.org/2000/svg"><g opacity=".7"><path d="M53.26 12.819h13.1L57.915 0h-13.1l8.447 12.819z" fill="#B3B3B3"/><path d="M30.5 38.852H17.4L44.814 0h13.1L30.5 38.852z" fill="#E21313"/><path d="M52.35 25.687a4.536 4.536 0 01-1.82-1.683c-.456-.693-.658-1.534-.658-2.425 0-.891.202-1.683.657-2.425.455-.693 1.012-1.287 1.821-1.683a5.64 5.64 0 012.58-.594c.809 0 1.517.148 2.175.396.657.297 1.214.693 1.618 1.188l-1.366 1.237c-.606-.693-1.416-1.04-2.326-1.04-.557 0-1.062.1-1.518.347a2.657 2.657 0 00-1.062 1.04c-.253.445-.354.94-.354 1.484 0 .545.101 1.04.354 1.485.253.445.607.792 1.062 1.04.456.247.961.346 1.518.346.91 0 1.72-.347 2.326-1.089l1.366 1.237a4.14 4.14 0 01-1.618 1.188c-.658.297-1.366.396-2.175.396-.961.198-1.821 0-2.58-.445zm13.707.446l-1.77-2.524h-1.973v2.524H60.19v-9.008h3.996c.809 0 1.517.148 2.124.396a3.198 3.198 0 011.416 1.138 3.32 3.32 0 01.506 1.733c0 .692-.152 1.237-.506 1.732-.354.495-.809.841-1.416 1.138l2.074 2.92h-2.327v-.05zm-.556-6.93c-.354-.247-.81-.395-1.467-.395h-1.72v3.167h1.72c.658 0 1.113-.148 1.467-.396.354-.297.506-.643.506-1.188 0-.494-.152-.89-.506-1.187zM77.033 24.5v1.682h-7.182v-9.057h7.03v1.683h-4.855v1.98h4.3v1.633h-4.3v2.078h5.007zm1.72-7.375h4.198c1.012 0 1.872.198 2.68.544.81.347 1.367.891 1.822 1.584.404.693.657 1.485.657 2.376 0 .89-.202 1.683-.657 2.375-.405.693-1.012 1.188-1.821 1.584-.81.396-1.67.545-2.68.545h-4.2v-9.008zm4.097 7.325c.91 0 1.67-.248 2.225-.742.557-.495.81-1.188.81-2.03 0-.841-.253-1.534-.81-2.029-.556-.495-1.264-.742-2.225-.742h-1.973v5.592h1.973v-.05zm6.828-7.325h2.124v9.057h-2.124v-9.057zm6.222 1.683h-2.985v-1.683h8.043v1.683h-2.985v7.325H95.85v-7.325h.05zm7.081 7.225c-.658-.198-1.214-.445-1.669-.742l.708-1.584c.404.297.86.495 1.416.693.556.148 1.113.247 1.618.247.607 0 1.063-.099 1.366-.247.304-.198.455-.396.455-.693a.787.787 0 00-.253-.544c-.151-.149-.404-.248-.657-.347-.253-.099-.658-.198-1.113-.297-.708-.148-1.264-.346-1.72-.495-.455-.148-.809-.445-1.163-.792-.303-.346-.506-.84-.506-1.435 0-.544.152-.99.455-1.435.304-.446.709-.742 1.316-.99a5.59 5.59 0 012.124-.396c.607 0 1.163.05 1.72.198.556.149 1.062.346 1.466.594l-.657 1.584a5.06 5.06 0 00-2.58-.693c-.607 0-1.062.099-1.315.297a.817.817 0 00-.404.742c0 .297.151.545.505.693.354.149.86.297 1.518.446.708.148 1.264.346 1.72.494.455.149.809.446 1.163.792.303.347.506.842.506 1.436 0 .494-.152.99-.456 1.435-.303.445-.758.742-1.315 1.04-.556.296-1.315.395-2.175.395-.657-.099-1.365-.198-2.073-.396zM51.39 29.794v9.058h-.658v-4.306h-6.17v4.306h-.658v-9.058h.657v4.158h6.171v-4.158h.658zm4.703 8.513c-.708-.396-1.315-.94-1.72-1.633a4.57 4.57 0 01-.606-2.326c0-.842.202-1.633.607-2.326.404-.693 1.011-1.238 1.72-1.634.707-.396 1.567-.594 2.478-.594.91 0 1.72.198 2.478.594.708.396 1.315.94 1.72 1.634.404.693.607 1.484.607 2.375s-.203 1.634-.607 2.376c-.405.693-1.012 1.237-1.72 1.633-.708.396-1.568.594-2.478.594-.91 0-1.77-.297-2.479-.693zm4.552-.544a4.035 4.035 0 001.467-1.436 3.946 3.946 0 00.557-2.029c0-.742-.203-1.435-.557-2.029a4.035 4.035 0 00-1.467-1.435c-.607-.347-1.315-.495-2.124-.495-.759 0-1.467.148-2.124.495a4.034 4.034 0 00-1.467 1.435 3.947 3.947 0 00-.556 2.03c0 .742.202 1.434.556 2.028.354.594.86 1.09 1.467 1.436.607.346 1.315.495 2.124.495.81.05 1.517-.149 2.124-.495zm5.919.148c-.658-.643-.961-1.633-.961-2.92v-5.197h.657v5.197c0 1.089.253 1.93.759 2.475.506.544 1.264.841 2.276.841.961 0 1.72-.297 2.226-.841.505-.545.758-1.386.758-2.475v-5.197h.658v5.197c0 1.287-.304 2.227-.961 2.92-.658.644-1.568.99-2.731.99-1.113 0-2.024-.346-2.681-.99zm10.116.643c-.607-.247-1.113-.544-1.417-.89l.304-.495c.303.346.759.594 1.315.841a5.024 5.024 0 001.72.297c.86 0 1.568-.149 1.972-.495.456-.346.658-.742.658-1.287 0-.396-.101-.742-.354-.99a2.126 2.126 0 00-.91-.544c-.355-.099-.81-.247-1.417-.396a12.776 12.776 0 01-1.618-.495 3.017 3.017 0 01-1.063-.693c-.303-.346-.404-.742-.404-1.287 0-.445.1-.84.354-1.187.253-.347.607-.644 1.113-.891a4.952 4.952 0 011.82-.347c.506 0 1.012.05 1.518.198.506.149.91.347 1.264.594l-.252.545a3.368 3.368 0 00-1.215-.545 4.041 4.041 0 00-1.314-.198c-.86 0-1.518.149-1.923.495-.455.347-.657.792-.657 1.287 0 .396.101.742.354.99.253.247.556.445.91.544.354.1.81.248 1.417.396.657.149 1.213.347 1.618.495.405.149.759.396 1.062.693.304.297.405.742.405 1.287 0 .445-.101.841-.354 1.188a2.437 2.437 0 01-1.113.841 5.027 5.027 0 01-1.871.346c-.658.05-1.315-.099-1.922-.297zm13.909-.346v.594h-6.373v-9.008h6.17v.594h-5.513v3.564h4.907v.594h-4.907v3.712h5.716v-.05z" fill="#0F0E0E"/><path d="M13.1 38.852H0L27.414 0h13.1L13.1 38.852z" fill="#E21313"/></g></svg>